<?xml version="1.0" encoding="UTF-8" standalone="no"?>
<!-- Generator: Adobe Illustrator 15.1.0, SVG Export Plug-In  -->

<svg
   xmlns:dc="http://purl.org/dc/elements/1.1/"
   xmlns:cc="http://creativecommons.org/ns#"
   xmlns:rdf="http://www.w3.org/1999/02/22-rdf-syntax-ns#"
   xmlns:svg="http://www.w3.org/2000/svg"
   xmlns="http://www.w3.org/2000/svg"
   xmlns:sodipodi="http://sodipodi.sourceforge.net/DTD/sodipodi-0.dtd"
   xmlns:inkscape="http://www.inkscape.org/namespaces/inkscape"
   version="1.1"
   x="0px"
   y="0px"
   width="51.450001"
   height="63.703999"
   viewBox="-22.802 -28.931 51.450001 63.703999"
   overflow="visible"
   enable-background="new -22.802 -28.931 142 142"
   xml:space="preserve"
   id="svg132"
   sodipodi:docname="picto_photovoltaique.svg"
   style="overflow:visible"
   inkscape:version="0.92.2 2405546, 2018-03-11"><metadata
   id="metadata136"><rdf:RDF><cc:Work
       rdf:about=""><dc:format>image/svg+xml</dc:format><dc:type
         rdf:resource="http://purl.org/dc/dcmitype/StillImage" /><dc:title></dc:title></cc:Work></rdf:RDF></metadata><sodipodi:namedview
   pagecolor="#ffffff"
   bordercolor="#666666"
   borderopacity="1"
   objecttolerance="10"
   gridtolerance="10"
   guidetolerance="10"
   inkscape:pageopacity="0"
   inkscape:pageshadow="2"
   inkscape:window-width="1276"
   inkscape:window-height="1415"
   id="namedview134"
   showgrid="false"
   fit-margin-top="0"
   fit-margin-left="0"
   fit-margin-right="0"
   fit-margin-bottom="0"
   inkscape:zoom="0.41549296"
   inkscape:cx="-176.52968"
   inkscape:cy="68.933851"
   inkscape:window-x="1280"
   inkscape:window-y="21"
   inkscape:window-maximized="0"
   inkscape:current-layer="svg132" />
<defs
   id="defs2">
</defs>
<g
   display="none"
   id="g92"
   style="display:none"
   transform="translate(-42.247,-41.577)">
	<g
   display="inline"
   id="g90"
   style="display:inline">
		<g
   id="g88">
			<g
   id="g86">
				<g
   id="g84">
					<path
   d="m 71.369,11.321 c 0.028,0.003 0.056,0 0.08,-0.016 -0.049,-0.009 -0.072,-10e-4 -0.08,0.016 z"
   id="path4"
   inkscape:connector-curvature="0"
   style="fill:#bcd658" />
					<path
   d="M 53.013,1.311 53.26,1.339 C 53.103,1.305 53.04,1.301 53.013,1.311 Z"
   id="path6"
   inkscape:connector-curvature="0"
   style="fill:#bcd658" />
					<path
   d="m 79.252,21.049 c -0.015,-0.013 -0.018,-0.01 -0.029,-0.018 l 0.44,0.763 z"
   id="path8"
   inkscape:connector-curvature="0"
   style="fill:#bcd658" />
					<path
   d="m 11.472,13.919 0.193,-0.212 c -0.089,0.095 -0.151,0.152 -0.193,0.212 z"
   id="path10"
   inkscape:connector-curvature="0"
   style="fill:#bcd658" />
					<path
   d="M 34.678,0.938 C 34.602,0.982 34.467,1.022 34.333,1.061 34.505,1.028 34.639,0.993 34.678,0.938 Z"
   id="path12"
   inkscape:connector-curvature="0"
   style="fill:#bcd658" />
					<path
   d="m 80.94,27.489 -0.043,-0.355 c -0.035,0.021 -0.025,0.151 0.043,0.355 z"
   id="path14"
   inkscape:connector-curvature="0"
   style="fill:#bcd658" />
					<path
   d="m 84.252,39.349 c 0.006,-0.011 0.012,-0.014 0.019,-0.035 -0.01,-0.017 -0.015,0.004 -0.019,0.035 z"
   id="path16"
   inkscape:connector-curvature="0"
   style="fill:#bcd658" />
					<path
   d="m 83.902,34.477 -0.115,-0.334 c 0.034,0.144 0.074,0.329 0.115,0.334 z"
   id="path18"
   inkscape:connector-curvature="0"
   style="fill:#bcd658" />
					<path
   d="m 83.729,33.985 0.058,0.158 c -0.023,-0.091 -0.042,-0.164 -0.058,-0.158 z"
   id="path20"
   inkscape:connector-curvature="0"
   style="fill:#bcd658" />
					<path
   d="m 86.016,45.256 c 0.017,-0.371 -0.04,-0.69 -0.093,-1.024 z"
   id="path22"
   inkscape:connector-curvature="0"
   style="fill:#bcd658" />
					<path
   d="M 1.118,52.475 1.062,52.404 c 0.029,0.071 0.045,0.081 0.056,0.071 z"
   id="path24"
   inkscape:connector-curvature="0"
   style="fill:#bcd658" />
					<path
   d="m 85.206,44.765 0.029,-0.257 c -0.02,0.094 -0.027,0.178 -0.029,0.257 z"
   id="path26"
   inkscape:connector-curvature="0"
   style="fill:#bcd658" />
					<path
   d="m 77.772,21.825 c -0.26,-0.253 -0.556,-0.922 -0.633,-0.866 0.221,0.302 0.436,0.791 0.633,0.866 z"
   id="path28"
   inkscape:connector-curvature="0"
   style="fill:#bcd658" />
					<path
   d="m 7.032,59.394 0.096,0.208 C 7.085,59.501 7.057,59.44 7.032,59.394 Z"
   id="path30"
   inkscape:connector-curvature="0"
   style="fill:#bcd658" />
					<path
   d="m 85.206,44.765 -0.033,0.297 c 0.019,-0.024 0.033,-0.058 0.05,-0.087 -0.012,-0.067 -0.018,-0.138 -0.017,-0.21 z"
   id="path32"
   inkscape:connector-curvature="0"
   style="fill:#bcd658" />
					<polygon
   points="27.946,83.998 28.046,84.018 28.034,84.013 "
   id="polygon34"
   style="fill:#bcd658" />
					<path
   d="m 30.166,84.923 -0.477,-0.124 c 0.244,0.09 0.379,0.118 0.477,0.124 z"
   id="path36"
   inkscape:connector-curvature="0"
   style="fill:#bcd658" />
					<path
   d="M 85.923,44.232 85.858,43.65 c 0.008,0.209 0.035,0.398 0.065,0.582 z"
   id="path38"
   inkscape:connector-curvature="0"
   style="fill:#bcd658" />
					<path
   d="m 54.613,85.357 -0.216,0.071 c 0.094,-0.024 0.164,-0.048 0.216,-0.071 z"
   id="path40"
   inkscape:connector-curvature="0"
   style="fill:#bcd658" />
					<path
   d="M 36.386,0.678 36.585,0.666 C 36.602,0.641 36.587,0.628 36.386,0.678 Z"
   id="path42"
   inkscape:connector-curvature="0"
   style="fill:#bcd658" />
					<polygon
   points="22.008,8.76 22.011,8.756 22.007,8.759 "
   id="polygon44"
   style="fill:#bcd658" />
					<path
   d="M 22.674,8.211 C 22.433,8.326 22.146,8.589 22.011,8.756 22.238,8.614 22.438,8.46 22.674,8.211 Z"
   id="path46"
   inkscape:connector-curvature="0"
   style="fill:#bcd658" />
					<path
   d="m 20.463,9.726 0.088,-0.048 c -0.033,0.015 -0.06,0.03 -0.088,0.048 z"
   id="path48"
   inkscape:connector-curvature="0"
   style="fill:#bcd658" />
					<polygon
   points="36.172,3.374 36.183,3.373 36.181,3.363 "
   id="polygon50"
   style="fill:#bcd658" />
					<path
   d="M 32.896,4.134 C 32.834,4.132 32.751,4.14 32.661,4.155 32.72,4.158 32.8,4.152 32.896,4.134 Z"
   id="path52"
   inkscape:connector-curvature="0"
   style="fill:#bcd658" />
					<polygon
   points="14.26,15.423 14.271,15.414 14.271,15.409 "
   id="polygon54"
   style="fill:#bcd658" />
					<path
   d="M 3.973,44.35 C 3.9,42.782 3.896,40.975 4.024,39.175 4.162,37.377 4.43,35.589 4.816,34.075 4.785,33.369 5.022,32.399 5.275,31.43 l 0.274,-0.027 0.176,-0.815 c 0.177,-0.297 -0.15,0.624 0.125,0.084 L 5.797,30.324 c 0.099,-0.037 0.776,-1.985 0.474,-0.616 0.364,-1.007 0.766,-2 1.206,-2.976 0.31,-0.64 -0.026,-0.472 0.379,-1.152 0.137,-0.11 -0.08,0.277 0.032,0.259 1.224,-2.01 0.811,-2.667 2.093,-4.495 l -0.075,0.177 c 0.148,-0.354 0.55,-0.951 0.53,-0.976 -0.378,0.092 -0.106,0.409 -0.605,0.893 -0.149,-0.167 0.366,-0.773 0.205,-0.828 0.363,-0.386 0.428,-0.715 0.689,-1.093 0.556,-0.558 1.17,-1.497 1.671,-1.846 0.19,-0.335 0.291,-0.807 0.831,-1.429 0.518,-0.327 0.027,0.208 0.609,-0.343 L 13.83,15.72 c 0.46,-0.469 0.416,-0.369 0.442,-0.311 0.491,-0.5 0.275,-0.547 0.957,-1.109 l -0.26,0.431 c 0.427,-0.491 0.626,-0.667 1.295,-1.274 0.035,0.066 -0.232,0.311 -0.44,0.477 0.485,-0.197 0.553,-0.636 0.77,-0.796 -0.096,0.006 -0.573,0.418 -0.431,0.117 0.345,-0.286 0.599,-0.772 0.941,-0.871 l -0.29,0.416 c 0.642,-0.692 0.273,-0.454 1.132,-1.108 -0.039,0.044 0.003,0.05 0,0.086 0.427,-0.56 1.221,-1 2.044,-1.58 l -0.134,0.141 C 20.155,10.062 20.28,9.848 20.464,9.727 19.95,9.998 20.057,9.878 19.944,9.809 20.69,9.543 20.762,8.933 21.895,8.364 21.916,8.437 21.706,8.668 21.376,8.792 21.139,9.21 21.188,9.379 20.626,9.893 20.979,9.579 21.431,9.258 21.38,9.395 L 21.393,9.148 C 21.626,8.984 21.825,8.876 22.008,8.761 22.045,8.59 21.407,8.897 21.926,8.473 22.529,8.018 22.37,8.434 22.423,8.296 c 0.848,-0.59 0.252,-0.412 1.152,-0.844 -0.078,0.063 -0.229,0.188 -0.314,0.214 0.655,-0.287 1.52,-0.875 1.815,-0.756 -0.07,0.094 -0.055,0.167 -0.3,0.275 L 24.768,7.148 C 24.161,7.665 25.32,6.8 25.205,7.108 25.099,7.02 25.997,6.594 26.416,6.432 L 26.225,6.36 C 27.399,5.334 26.27,6.647 27.589,5.997 28.41,5.54 27.248,6.097 27.735,5.778 28.331,5.56 28.593,5.587 29.436,5.201 29.697,5.164 30.217,5.066 30.311,5.205 30.815,4.952 31.94,4.748 32.199,4.51 31.243,4.653 31.341,4.945 30.218,5.103 L 30.463,4.847 C 31.2,4.608 32.127,4.237 32.661,4.155 32.549,4.153 32.49,4.127 32.547,4.075 33.6,3.725 33.875,3.492 34.946,3.308 c 0.169,0.115 -0.456,0.218 -0.899,0.34 0.704,-0.039 0.708,-0.165 1.778,-0.322 0.08,0.115 -0.715,0.127 -0.81,0.282 0.384,-0.102 0.773,-0.18 1.161,-0.272 -0.003,0.009 0.003,0.017 0.005,0.026 0.134,-0.237 0.898,-0.146 1.611,-0.302 1.712,-0.221 1.95,-0.515 2.905,-0.755 0.263,0.041 0.342,0.09 0.236,0.151 C 40.5,2.39 40.58,2.459 40.436,2.524 41.023,2.46 41.729,2.659 41.406,2.762 42.329,2.665 41.066,2.662 41.631,2.574 42.055,2.56 42.48,2.551 42.904,2.554 42.753,2.446 42.3,2.429 42.963,2.337 43.522,2.296 43.791,2.33 44.522,2.349 44.415,2.401 44.747,2.518 44.2,2.501 c 0.352,0.044 0.898,0.078 1.115,-0.022 -0.792,-0.142 1.314,-0.021 0.731,-0.221 0.264,0.049 0.528,0.1 0.791,0.159 -0.183,-0.017 -0.208,0.049 -0.475,0.01 0.214,0.179 0.655,0.01 0.937,0.018 0.279,0.053 1.002,0.159 1.054,0.228 0.256,-0.02 0.862,0.109 0.965,0.208 0.376,0.02 0.046,-0.103 0.162,-0.141 l 1.26,0.228 c 0.049,0.103 0.106,0.374 -0.088,0.371 0.487,0.008 0.219,-0.235 0.933,-0.085 -0.442,0.084 0.909,0.34 0.274,0.417 0.379,0.21 1.522,0.479 2.159,0.615 0.426,-0.029 -0.657,-0.262 -0.581,-0.392 1.78,0.43 2.007,0.104 3.274,0.602 L 56.391,4.34 c 0.828,0.209 0.733,0.187 1.24,0.249 -0.281,0.088 0.735,0.776 2.011,1.303 C 59.789,5.857 59,5.421 59.263,5.381 l 0.86,0.351 c 0.056,0.04 -0.05,0.026 -0.168,-0.001 0.786,0.285 1.293,0.869 1.6,0.791 0.213,0.202 0.42,0.41 0.625,0.62 L 61.939,6.886 c 0.143,-0.024 0.977,0.386 1.158,0.458 0.879,0.378 1.133,0.635 1.515,1 -0.1,-0.149 -0.362,-0.514 0.287,-0.138 -0.155,0.234 1.261,0.944 1.156,1.061 0.25,0.169 0.635,0.55 0.733,0.472 l -0.146,0.118 c 0.206,-0.169 1.091,0.487 1.78,0.975 -0.36,0.147 0.741,0.558 0.825,1.04 0.275,-0.082 1.188,0.905 1.427,0.863 0.486,0.433 0.288,0.55 0.356,0.714 l 0.28,0.143 c 0.161,0.303 1.011,1.168 1.441,1.749 l 0.605,0.354 0.097,0.249 c 0.108,0.044 0.501,0.444 0.33,0.133 l 0.23,0.281 c 0.192,-0.126 0.379,0.348 0.918,0.852 0.077,0.155 0.007,0.153 -0.115,0.048 0.226,0.286 0.039,0.236 0.104,0.438 -0.112,-0.244 1.127,0.784 0.601,-0.055 0.033,-0.112 0.438,0.307 0.623,0.619 l -0.029,0.295 0.425,0.224 c 0.359,0.439 0.388,0.713 0.627,1.103 -0.276,-0.379 -0.903,-0.629 -0.223,0.352 -0.377,-0.504 -0.644,-0.693 -0.87,-0.928 0.139,0.204 0.194,0.315 -0.1,0.054 0.594,0.717 0.28,0.18 0.827,0.922 -0.177,0.058 -0.078,0.303 0.303,1.006 l -0.216,-0.573 c 0.034,0.011 0.069,0.037 0.104,0.069 -0.108,-0.202 -0.12,-0.271 -0.09,-0.351 0.096,0.154 0.777,0.772 0.76,0.966 -0.249,-0.946 1.036,1.273 0.868,0.68 0.099,0.066 0.441,0.622 0.392,0.727 -0.502,-0.61 0.107,0.611 -0.067,0.562 0.185,0.228 -0.178,-0.597 0.07,-0.29 0.236,0.397 0.301,0.75 0.366,1.005 l -0.119,-0.155 0.258,0.667 c 0.135,0.063 -0.184,-0.682 0.162,-0.122 0.047,0.171 0.377,0.742 0.304,0.754 -0.249,-0.225 -0.297,0.051 -0.57,-0.434 0.224,0.401 0.863,1.724 0.765,1.116 l 0.227,0.503 c -0.076,-0.345 -0.361,-1.29 0.129,-0.288 l -0.037,0.006 0.438,0.654 0.049,0.347 c 0.038,-0.027 0.127,0.068 0.231,0.337 -0.023,0.09 0.059,0.349 -0.017,0.355 0.319,0.77 0.368,0.678 0.46,0.759 0.177,0.434 0.203,0.609 0.026,0.442 0.198,0.606 0.569,1.656 0.603,2.099 0.318,0.794 -0.013,-0.179 0.245,0.264 -0.077,0.792 0.629,2.745 0.912,4.113 0.198,-0.423 0.105,0.366 0.393,0.576 -0.134,-0.281 0.004,1.342 -0.27,0.15 l 0.148,0.729 c -0.068,0.523 -0.311,-1.192 -0.392,-0.403 0.142,0.812 0.514,1.313 0.521,2.301 -0.226,-0.307 0.14,0.744 -0.101,0.521 -0.085,-0.195 -0.092,-0.466 -0.14,-0.739 l -0.02,0.173 c 0.114,1.811 0.284,0.5 0.495,1.442 0.096,1.111 -0.101,0.884 -0.188,0.953 -0.032,0.174 0.021,0.729 0.08,1.02 -0.143,-0.671 0.076,-1.255 0.212,-0.95 -0.195,0.498 0.029,1.651 0.116,1.958 0.213,-1.602 0.004,-1.103 0.181,-2.618 -0.089,-0.203 -0.268,-0.155 -0.267,-1.057 0.147,0.555 0.107,-0.049 0.125,-0.212 -0.097,0.185 -0.104,-0.619 -0.188,-0.886 0.064,-0.261 0.325,0.51 0.268,-0.409 l -0.289,-0.138 c -0.009,-0.359 0.218,0.126 0.049,-0.623 0.193,0.39 0.205,-0.156 0.379,0.871 0.073,-1.263 -0.383,-1.874 -0.658,-2.794 0.034,0.093 0.072,0.097 0.107,0.189 -0.109,-0.189 -0.169,-0.555 -0.245,-0.829 -0.071,-0.634 0.224,0.465 0.26,0.291 l -0.22,-1.007 c 0.004,-0.021 0.008,-0.027 0.014,-0.029 -0.092,-0.258 -0.183,-0.5 -0.138,-0.61 0.156,0.279 0.275,0.376 0.387,0.564 l -0.435,-1.015 c 0.121,0.093 -0.079,-0.905 0.184,-0.174 -0.152,-0.516 -0.298,-1.032 -0.467,-1.542 l 0.136,-0.184 c -0.141,-0.362 -0.177,-0.361 -0.067,0.089 -0.102,-0.552 -1.06,-2.223 -0.631,-2.064 -0.576,-1.139 -0.676,-1.59 -1.374,-2.957 0.633,1.012 -0.36,-1.321 0.225,-0.212 -0.237,-0.699 -0.473,-0.759 -0.758,-1.261 -0.169,-0.52 0.097,-0.385 0.417,0.115 l -0.38,-0.583 0.038,-0.004 -0.364,-0.483 c -0.21,-0.608 0.103,-0.207 -0.188,-0.798 l -0.211,-0.048 -0.133,-0.435 c 0.015,0.182 -0.196,-0.145 -0.452,-0.548 l 0.036,-0.009 -0.319,-0.485 c 0.379,0.443 -0.244,-0.471 -0.011,-0.304 -0.258,-0.425 -0.255,-0.44 -0.772,-1.174 l -0.007,0.192 c -0.721,-0.923 0.116,-0.134 -0.409,-0.924 l -0.071,0.121 c -0.6,-1.249 -1.442,-1.812 -1.965,-2.675 0.384,0.433 0.409,0.229 0.373,0.24 -0.566,-0.66 -1.467,-1.76 -2.191,-2.317 -0.088,-0.364 -0.093,-0.467 -0.683,-1.189 -0.479,-0.476 -0.57,-0.527 -0.8,-0.608 -0.411,-0.513 -1.391,-1.257 -1.329,-1.376 -0.182,-0.023 -0.423,-0.408 -0.758,-0.571 l -0.023,-0.092 -0.039,0.134 C 69.847,9.824 68.944,9.675 68.154,8.789 L 68.337,8.881 67.911,8.63 c -0.031,-0.091 0.15,0 0.212,-0.045 -0.612,-0.458 -1.241,-0.894 -1.877,-1.32 l 0.324,0.33 C 66.163,7.336 65.821,7.271 65.397,6.911 66.275,7.233 64.753,6.503 64.697,6.31 l 0.449,0.21 C 64.561,6.185 64.561,6.185 64.544,6.324 63.765,5.93 64.147,5.813 63.373,5.545 l 0.5,0.282 C 63.98,5.976 63.576,5.857 63.239,5.679 63.17,5.619 62.957,5.442 63.221,5.565 62.597,5.28 61.703,4.762 61.407,4.684 61.088,4.49 61.235,4.459 61.432,4.515 60.052,3.998 60.841,4.205 59.443,3.726 L 59.495,3.669 58.994,3.556 58.377,3.152 58.586,3.333 C 58.13,3.17 57.831,3.111 57.313,2.886 l 0.25,-0.024 C 56.257,2.466 56.12,2.179 54.829,1.957 54.748,1.915 54.953,1.934 55.058,1.947 53.852,1.79 54.228,1.516 52.998,1.426 53.079,1.409 52.96,1.334 53.013,1.315 L 52.457,1.264 52.529,1.132 52.045,1.243 51.741,1.03 51.515,1.057 C 50.987,0.67 50.124,0.728 49.352,0.414 l 0.112,0.2 c -2.057,0.071 -4.631,-0.7 -7.117,-0.465 L 42.389,0 41.376,0.205 C 40.824,0.112 41.699,0.069 41.525,0.002 40.437,0.135 41.08,0.232 39.82,0.363 39.166,0.326 40.036,0.23 40.338,0.165 39.155,0.311 37.428,0.606 36.586,0.666 36.57,0.688 36.523,0.722 36.566,0.723 35.795,0.91 34.76,1.044 33.91,1.247 33.917,1.178 34.126,1.121 34.334,1.061 34.026,1.119 33.595,1.165 33.351,1.299 l 0.291,-0.2 C 32.98,1.225 31.759,1.674 31.576,1.576 31.669,1.607 31.666,1.72 31.11,1.88 30.734,1.754 29.63,2.438 28.72,2.647 28.807,2.56 29.447,2.321 29.265,2.383 c -0.46,0.098 -0.821,0.34 -1.177,0.554 l 0.085,-0.128 c -0.662,0.294 -1.316,0.606 -1.958,0.938 -0.393,-0.085 -1.839,0.893 -1.773,0.689 -0.696,0.339 0.624,-0.204 -0.24,0.257 -0.278,0.03 -0.763,0.447 -0.793,0.3 L 23.493,4.929 22.895,5.261 23.208,4.934 C 22.697,5.235 22.396,5.582 22.421,5.687 21.895,5.89 21.251,6.356 20.968,6.38 l 0.157,-0.139 c -1.302,0.868 -2.406,1.094 -3.266,2.028 -0.086,0.038 -0.099,0.003 0.059,-0.11 -0.265,0.188 -0.525,0.382 -0.783,0.58 L 17.253,8.513 C 16.857,8.882 16.472,9.262 16.091,9.644 L 16.06,9.575 c -0.844,0.652 -2.066,1.79 -3.017,2.776 l 0.122,-0.168 c -0.978,1.137 -1.062,0.983 -1.749,1.842 0.012,-0.042 0.032,-0.074 0.056,-0.106 l -0.651,0.74 0.091,-0.209 C 10.543,15.094 9.415,15.925 9.8,15.658 9.592,16.023 9.218,16.633 9.219,16.787 8.577,17.646 8.982,16.936 8.54,17.437 8.076,18.063 8.099,18.246 7.457,19.082 L 7.408,19.024 C 7.15,19.444 7.02,19.726 6.671,20.317 L 6.75,20.125 c -0.457,1.029 -0.912,1.09 -1.062,2.013 -0.287,0.379 -0.649,1.194 -0.761,1.088 -0.55,1.287 -0.962,2.292 -1.432,3.593 -0.3,0.117 -0.105,0.276 -0.525,1.013 L 3.11,27.82 c -0.677,1.824 -1.633,3.893 -2.04,6.03 l -0.138,0.032 0.045,0.454 C 0.434,36.605 0.046,39.614 0,41.476 c 0.041,0.613 0.171,1.537 0.146,2.501 L 0.127,43.874 c 0.097,1.68 0.266,3.442 0.443,5.267 -0.069,-0.105 -0.081,0.08 -0.144,-0.119 0.197,0.413 0.155,1.065 0.22,1.454 l 0.02,-0.47 c 0.2,0.496 0.212,1.251 0.176,1.529 l 0.296,0.782 c -10e-4,0.057 -0.002,0.143 -0.02,0.157 l 0.096,0.128 -0.071,0.466 c 0.081,0.192 0.376,1.244 0.628,1.529 -0.033,0.09 0.124,0.845 -0.06,0.277 0.252,0.973 0.53,1.939 0.851,2.893 L 2.463,57.302 c 0.105,-0.096 0.467,0.732 0.583,1.187 -0.312,-0.538 -0.188,0.014 -0.183,0.293 0.209,0.36 -0.021,-0.372 0.122,-0.194 0.254,0.455 0.704,1.44 0.759,1.712 L 3.577,60.037 c 0.318,0.622 0.237,1.01 0.54,1.63 0.349,0.521 0.474,0.968 0.611,0.757 0.434,0.78 0.019,0.375 0.128,0.645 0.282,0.329 0.813,1.458 0.802,1.65 0.505,0.272 1.127,2.136 1.467,2.139 l 0.274,0.698 c 0.072,-0.02 0.288,0.011 0.649,0.483 0.251,0.505 0.077,0.466 0.115,0.648 l 0.438,0.148 c 1.639,2.809 4.696,5.831 7.296,8.246 1.263,0.967 2.935,2.06 4.479,3.069 l -0.192,-0.08 c 0.502,0.352 1.014,0.689 1.53,1.021 -0.36,-0.266 -0.726,-0.521 -1.078,-0.796 0.354,0.189 0.652,0.301 0.981,0.503 1.666,1.125 4.035,2.464 6.416,3.213 1.611,0.265 0.909,0.635 2.447,0.905 -0.134,-0.015 -0.192,0.013 -0.315,0.005 1.617,0.401 2.507,0.581 4.161,0.765 -0.25,0.266 1.057,0.212 0.881,0.336 l 0.158,-0.097 c 0.345,0.152 1.2,0.312 1.063,0.383 l 0.747,-0.043 0.044,0.136 c 0.96,0.164 3.042,0.252 3.539,0.523 2.419,-0.02 6.216,-0.066 9.216,-0.51 0.404,-0.171 1.271,-0.325 1.943,-0.474 l 0.752,-0.005 c 0.679,-0.194 1.353,-0.559 2.006,-0.639 -10e-4,0.019 -0.023,0.037 -0.063,0.058 0.679,-0.213 1.353,-0.332 1.941,-0.67 0.744,-0.228 1.482,-0.417 1.306,-0.2 -0.011,-0.254 1.564,-0.545 1.564,-0.553 -0.013,-0.021 2.395,-0.819 5.814,-2.77 3.413,-1.934 7.764,-5.183 11.39,-9.542 3.664,-4.317 6.493,-9.693 7.939,-14.632 1.49,-4.938 1.687,-9.325 1.448,-11.734 -0.111,-0.331 -0.16,-1.224 -0.32,-0.887 -0.037,-0.686 0.187,-0.999 0.063,-1.134 -0.095,0.931 -0.319,-0.287 -0.486,0.617 L 85.249,43.27 c -0.088,-0.12 0.091,0.789 -0.068,0.645 l 0.23,0.167 c -0.041,0.471 -0.107,0.727 -0.19,0.89 0.075,0.442 0.378,0.745 0.161,1.794 l 0.011,-0.293 c -0.065,0.86 -0.196,0.514 -0.249,0.688 l 0.019,-0.188 -0.184,0.708 c 0.133,-0.537 0.019,-1.453 -0.008,-0.979 -0.155,1.01 0.079,-0.259 0.041,0.506 -0.03,0.474 -0.144,0.329 -0.213,0.301 l -0.086,0.847 c -0.104,-0.043 0.068,-0.559 -0.081,-0.229 10e-4,0.359 -0.01,0.717 -0.022,1.075 -0.293,0.158 -0.043,1.176 -0.387,1.613 0.07,-0.768 -0.101,0.052 -0.168,-0.084 -0.106,0.616 -0.227,1.229 -0.358,1.841 -0.074,0.165 0.021,-0.499 -0.025,-0.218 -0.145,0.327 -0.065,0.578 -0.11,0.764 -0.103,0.142 -0.345,1.356 -0.509,1.259 -0.47,1.182 0.084,0.579 -0.369,1.681 -0.15,0.115 0.258,-0.904 -0.007,-0.438 l -0.343,1.177 c -0.014,-0.122 -0.089,-0.282 0.072,-0.71 -1.196,3.094 -2.459,4.455 -3.736,7.129 -0.317,0.302 0.069,-0.307 0.137,-0.607 -0.891,1.967 -1.76,2.464 -2.77,3.961 l 0.07,0.089 c -1.72,1.876 -3.548,4.314 -5.744,6.153 l 0.3,-0.178 c -0.21,0.349 -0.676,0.783 -0.995,1.13 -0.094,0.005 0.105,-0.392 -0.494,0.179 0.155,-0.081 0.448,-0.278 0.403,-0.171 -1.018,0.702 -2.526,1.863 -4.293,2.992 -1.757,1.143 -3.781,2.228 -5.63,2.993 -4.898,2.35 -10.791,3.396 -16.086,3.449 0.809,-0.019 0.471,0.253 -0.145,0.199 -1.659,-0.458 -2.908,0.002 -4.581,-0.493 -3.103,-0.217 -5.695,-1.233 -8.506,-1.848 l -0.01,-0.139 c -0.384,-0.199 -0.524,-0.15 -0.949,-0.302 l 0.024,-0.029 C 28.424,80.176 27.193,79.78 26.667,79.456 l -0.096,0.113 c -0.579,-0.259 -0.25,-0.237 -0.869,-0.454 l 0.05,-0.056 -0.736,-0.224 C 25.195,78.652 23.449,77.97 23.08,77.591 22.354,77.213 20.982,76.456 20.011,75.672 19.894,75.438 18.683,74.514 17.989,73.833 16.516,72.654 14.545,70.788 13.049,68.9 l -0.098,0.139 -0.41,-0.48 c 0.033,-0.016 -0.005,-0.094 0.068,-0.03 -0.162,-0.492 -0.944,-1.104 -1.147,-1.585 0.064,0.346 0.244,0.367 0.457,0.655 0.252,0.458 -0.176,0.164 -0.53,-0.445 l 0.037,-0.011 -0.349,-0.336 C 11.149,66.689 10.944,66.304 11.019,66.184 9.824,64.505 8.905,63.403 7.972,61.472 8.195,61.606 7.263,60.107 7.676,60.385 7.053,59.262 7.584,60.663 7.178,60.203 7.028,59.877 6.814,59.557 6.874,59.46 6.995,59.591 6.896,59.132 7.033,59.391 L 6.679,58.61 c -0.013,-0.084 0.09,0.078 0.14,0.159 C 6.02,57.205 5.868,55.825 5.293,54.371 5.174,54.284 5.445,54.974 5.326,54.89 4.712,53.421 5.096,53.508 4.63,52.109 l 0.188,0.27 C 4.633,51.937 4.477,51.755 4.425,50.969 4.539,50.808 4.668,51.595 4.819,51.947 4.701,51.426 4.421,50.104 4.366,50.533 4.203,49.908 4.302,49.654 4.283,49.308 4.245,49.301 4.284,49.914 4.156,49.553 4.099,48.677 3.932,47.338 3.868,46.271 3.904,46.278 3.954,46.199 3.978,46.292 3.735,45.448 4.055,45.52 3.973,44.35 Z"
   id="path56"
   inkscape:connector-curvature="0"
   style="fill:#bcd658" />
					<path
   d="m 36.618,3.321 -0.435,0.052 c 0.005,0.032 -0.007,0.072 -0.198,0.146 z"
   id="path58"
   inkscape:connector-curvature="0"
   style="fill:#bcd658" />
					<path
   d="m 17.944,11.776 c -0.034,0.043 -0.069,0.085 -0.096,0.129 0.079,-0.072 0.096,-0.107 0.096,-0.129 z"
   id="path60"
   inkscape:connector-curvature="0"
   style="fill:#bcd658" />
					<path
   d="m 14.443,15.388 c 0.228,-0.278 -0.025,-0.078 -0.171,0.026 0.015,0.026 0.046,0.044 0.171,-0.026 z"
   id="path62"
   inkscape:connector-curvature="0"
   style="fill:#bcd658" />
					<path
   d="m 48.353,2.672 c -0.078,0.005 -0.126,0.019 -0.118,0.05 0.106,-0.014 0.131,-0.031 0.118,-0.05 z"
   id="path64"
   inkscape:connector-curvature="0"
   style="fill:#bcd658" />
					<path
   d="m 75.753,18.83 -0.062,-0.117 c 0.007,0.025 0.029,0.066 0.062,0.117 z"
   id="path66"
   inkscape:connector-curvature="0"
   style="fill:#bcd658" />
					<path
   d="m 74.818,17.257 c -0.054,-0.071 -0.132,-0.156 -0.251,-0.272 0.099,0.129 0.182,0.211 0.251,0.272 z"
   id="path68"
   inkscape:connector-curvature="0"
   style="fill:#bcd658" />
					<path
   d="M 40.436,2.524 C 40.314,2.536 40.197,2.555 40.097,2.596 40.282,2.575 40.375,2.551 40.436,2.524 Z"
   id="path70"
   inkscape:connector-curvature="0"
   style="fill:#bcd658" />
					<path
   d="m 74.299,16.717 -0.284,-0.359 c -0.009,0.004 -0.018,0.005 -0.026,0.013 z"
   id="path72"
   inkscape:connector-curvature="0"
   style="fill:#bcd658" />
					<path
   d="m 76.075,19.305 c -0.101,-0.147 -0.241,-0.343 -0.321,-0.475 0.101,0.207 0.204,0.353 0.321,0.475 z"
   id="path74"
   inkscape:connector-curvature="0"
   style="fill:#bcd658" />
					<path
   d="M 59.956,5.73 59.909,5.713 C 59.556,5.626 59.771,5.692 59.956,5.73 Z"
   id="path76"
   inkscape:connector-curvature="0"
   style="fill:#bcd658" />
					<polygon
   points="72.633,15.27 72.79,15.389 72.752,15.34 "
   id="polygon78"
   style="fill:#bcd658" />
					<path
   d="m 77.139,20.959 c -0.05,-0.07 -0.098,-0.133 -0.146,-0.175 l 0.127,0.226 c 0.003,-0.031 0.009,-0.045 0.019,-0.051 z"
   id="path80"
   inkscape:connector-curvature="0"
   style="fill:#bcd658" />
					<path
   d="m 65.836,9.263 c 0.137,0.026 0.199,0.023 0.219,0.003 C 65.926,9.183 65.833,9.15 65.836,9.263 Z"
   id="path82"
   inkscape:connector-curvature="0"
   style="fill:#bcd658" />
				</g>
			</g>
		</g>
	</g>
</g>
<polygon
   points="28.349,29.809 21.067,27.621 19.445,12.646 26.761,16.271 "
   id="polygon94"
   style="fill:#b3d143"
   transform="translate(-42.247,-41.577)" />
<polygon
   points="35.247,31.974 29.163,30.169 27.575,16.61 33.688,19.518 "
   id="polygon96"
   style="fill:#b3d143"
   transform="translate(-42.247,-41.577)" />
<polygon
   points="41.035,33.617 35.951,31.981 34.399,19.794 39.5,22.196 "
   id="polygon98"
   style="fill:#b3d143"
   transform="translate(-42.247,-41.577)" />
<polygon
   points="46.011,35.137 41.677,33.894 40.145,22.477 44.502,24.652 "
   id="polygon100"
   style="fill:#b3d143"
   transform="translate(-42.247,-41.577)" />
<polygon
   points="30.563,44.864 23.36,44.1 21.386,29.4 28.658,31.602 "
   id="polygon102"
   style="fill:#b3d143"
   transform="translate(-42.247,-41.577)" />
<polygon
   points="37.384,45.68 31.366,45.062 29.465,31.781 35.533,33.497 "
   id="polygon104"
   style="fill:#b3d143"
   transform="translate(-42.247,-41.577)" />
<polygon
   points="43.104,46.192 38.074,45.551 36.237,33.637 41.305,35.046 "
   id="polygon106"
   style="fill:#b3d143"
   transform="translate(-42.247,-41.577)" />
<polygon
   points="48.026,46.744 43.744,46.347 41.947,35.201 46.274,36.526 "
   id="polygon108"
   style="fill:#b3d143"
   transform="translate(-42.247,-41.577)" />
<polygon
   points="33.063,59.917 25.944,60.879 23.564,46.614 30.797,47.074 "
   id="polygon110"
   style="fill:#b3d143"
   transform="translate(-42.247,-41.577)" />
<polygon
   points="39.808,59.096 33.861,59.925 31.596,47.058 37.628,47.32 "
   id="polygon112"
   style="fill:#b3d143"
   transform="translate(-42.247,-41.577)" />
<polygon
   points="45.461,58.236 40.484,58.798 38.326,47.294 43.359,47.487 "
   id="polygon114"
   style="fill:#b3d143"
   transform="translate(-42.247,-41.577)" />
<polygon
   points="50.329,57.607 46.093,58.235 43.994,47.488 48.301,47.781 "
   id="polygon116"
   style="fill:#b3d143"
   transform="translate(-42.247,-41.577)" />
<polygon
   points="35.674,73.125 29.047,76.35 26.345,62.517 33.456,61.577 "
   id="polygon118"
   style="fill:#b3d143"
   transform="translate(-42.247,-41.577)" />
<polygon
   points="42.274,70.992 36.459,72.976 34.237,61.404 40.168,60.495 "
   id="polygon120"
   style="fill:#b3d143"
   transform="translate(-42.247,-41.577)" />
<polygon
   points="47.8,69.029 42.933,70.565 40.851,60.331 45.799,59.549 "
   id="polygon122"
   style="fill:#b3d143"
   transform="translate(-42.247,-41.577)" />
<polygon
   points="52.563,67.456 48.423,68.91 46.421,59.426 50.657,58.881 "
   id="polygon124"
   style="fill:#b3d143"
   transform="translate(-42.247,-41.577)" />
<path
   d="m 23.298,8.044 5.35,-3.428 -5.35,-3.429 3.637,-5.211 -6.256,-1.112 1.359,-6.207 -6.207,1.361 -1.111,-6.257 -5.211,3.636 -3.428,-5.35 -2.333,3.641 0.606,3.222 c 0.567,-0.06 1.143,-0.097 1.728,-0.097 8.652,0 15.666,6.765 15.666,15.109 0,7.061 -5.027,12.972 -11.812,14.631 l 0.777,4.119 4.008,2.798 1.111,-6.258 6.207,1.361 -1.361,-6.208 6.258,-1.112 z"
   id="path126"
   inkscape:connector-curvature="0"
   style="fill:#b3d143" />
<path
   d="m 5.489,-9.106 c 7.629,0 13.815,6.105 13.815,13.636 0,6.065 -4.018,11.201 -9.566,12.971 l 0.197,1.053 c 6.785,-1.659 11.812,-7.57 11.812,-14.631 0,-8.344 -7.014,-15.109 -15.666,-15.109 -0.585,0 -1.16,0.037 -1.728,0.097 l 0.38,2.021 c 0.253,-0.014 0.501,-0.038 0.756,-0.038 z"
   id="path128"
   inkscape:connector-curvature="0"
   style="fill:#ffffff" />
<path
   d="m 19.304,4.53 c 0,-7.531 -6.186,-13.636 -13.815,-13.636 -0.255,0 -0.503,0.024 -0.755,0.038 l 5.003,26.569 c 5.55,-1.77 9.567,-6.906 9.567,-12.971 z"
   id="path130"
   inkscape:connector-curvature="0"
   style="fill:#b3d143" />
</svg>