<?xml version="1.0" encoding="UTF-8"?>
<svg width="65px" height="48px" viewBox="0 0 65 48" version="1.1" xmlns="http://www.w3.org/2000/svg" xmlns:xlink="http://www.w3.org/1999/xlink">
    <!-- Generator: Sketch 48.2 (47327) - http://www.bohemiancoding.com/sketch -->
    <title>picto_photovoltaique</title>
    <desc>Created with Sketch.</desc>
    <defs></defs>
    <g id="Page-1" stroke="none" stroke-width="1" fill="none" fill-rule="evenodd">
        <g id="picto_photovoltaique" transform="translate(35.000000, 27.000000) rotate(-80.000000) translate(-35.000000, -27.000000) translate(-9.000000, -17.000000)" fill-rule="nonzero">
            <polygon id="polygon94" fill="#B3D143" points="29.102 30.232 21.82 28.044 20.198 13.069 27.514 16.694"></polygon>
            <polygon id="polygon96" fill="#B3D143" points="36 32.397 29.916 30.592 28.328 17.033 34.441 19.941"></polygon>
            <polygon id="polygon98" fill="#B3D143" points="41.788 34.04 36.704 32.404 35.152 20.217 40.253 22.619"></polygon>
            <polygon id="polygon100" fill="#B3D143" points="46.764 35.56 42.43 34.317 40.898 22.9 45.255 25.075"></polygon>
            <polygon id="polygon102" fill="#B3D143" points="31.316 45.287 24.113 44.523 22.139 29.823 29.411 32.025"></polygon>
            <polygon id="polygon104" fill="#B3D143" points="38.137 46.103 32.119 45.485 30.218 32.204 36.286 33.92"></polygon>
            <polygon id="polygon106" fill="#B3D143" points="43.857 46.615 38.827 45.974 36.99 34.06 42.058 35.469"></polygon>
            <polygon id="polygon108" fill="#B3D143" points="48.779 47.167 44.497 46.77 42.7 35.624 47.027 36.949"></polygon>
            <polygon id="polygon110" fill="#B3D143" points="33.816 60.34 26.697 61.302 24.317 47.037 31.55 47.497"></polygon>
            <polygon id="polygon112" fill="#B3D143" points="40.561 59.519 34.614 60.348 32.349 47.481 38.381 47.743"></polygon>
            <polygon id="polygon114" fill="#B3D143" points="46.214 58.659 41.237 59.221 39.079 47.717 44.112 47.91"></polygon>
            <polygon id="polygon116" fill="#B3D143" points="51.082 58.03 46.846 58.658 44.747 47.911 49.054 48.204"></polygon>
            <polygon id="polygon118" fill="#B3D143" points="36.427 73.548 29.8 76.773 27.098 62.94 34.209 62"></polygon>
            <polygon id="polygon120" fill="#B3D143" points="43.027 71.415 37.212 73.399 34.99 61.827 40.921 60.918"></polygon>
            <polygon id="polygon122" fill="#B3D143" points="48.553 69.452 43.686 70.988 41.604 60.754 46.552 59.972"></polygon>
            <polygon id="polygon124" fill="#B3D143" points="53.316 67.879 49.176 69.333 47.174 59.849 51.41 59.304"></polygon>
            <path d="M66.298,50.044 L71.648,46.616 L66.298,43.187 L69.935,37.976 L63.679,36.864 L65.038,30.657 L58.831,32.018 L57.72,25.761 L52.509,29.397 L49.081,24.047 L46.748,27.688 L47.354,30.91 C47.921,30.85 48.497,30.813 49.082,30.813 C57.734,30.813 64.748,37.578 64.748,45.922 C64.748,52.983 59.721,58.894 52.936,60.553 L53.713,64.672 L57.721,67.47 L58.832,61.212 L65.039,62.573 L63.678,56.365 L69.936,55.253 L66.298,50.044 Z" id="path126" fill="#B3D143"></path>
            <path d="M48.489,32.894 C56.118,32.894 62.304,38.999 62.304,46.53 C62.304,52.595 58.286,57.731 52.738,59.501 L52.935,60.554 C59.72,58.895 64.747,52.984 64.747,45.923 C64.747,37.579 57.733,30.814 49.081,30.814 C48.496,30.814 47.921,30.851 47.353,30.911 L47.733,32.932 C47.986,32.918 48.234,32.894 48.489,32.894 Z" id="path128" fill="#FFFFFF"></path>
            <path d="M62.304,46.53 C62.304,38.999 56.118,32.894 48.489,32.894 C48.234,32.894 47.986,32.918 47.734,32.932 L52.737,59.501 C58.287,57.731 62.304,52.595 62.304,46.53 Z" id="path130" fill="#B3D143"></path>
        </g>
    </g>
</svg>