<?xml version="1.0" encoding="UTF-8"?>
<svg width="512px" height="512px" viewBox="0 0 512 512" version="1.1" xmlns="http://www.w3.org/2000/svg" xmlns:xlink="http://www.w3.org/1999/xlink">
    <!-- Generator: Sketch 48.2 (47327) - http://www.bohemiancoding.com/sketch -->
    <title>plus</title>
    <desc>Created with Sketch.</desc>
    <defs></defs>
    <g id="Page-1" stroke="none" stroke-width="1" fill="none" fill-rule="evenodd">
        <g id="plus" fill="#FFFFFF" fill-rule="nonzero">
            <path d="M256,512 C114.835938,512 0,397.164062 0,256 C0,114.835938 114.835938,0 256,0 C397.164062,0 512,114.835938 512,256 C512,397.164062 397.164062,512 256,512 Z M256,32 C132.480469,32 32,132.480469 32,256 C32,379.519531 132.480469,480 256,480 C379.519531,480 480,379.519531 480,256 C480,132.480469 379.519531,32 256,32 Z" id="Shape"></path>
            <path d="M368,272 L144,272 C135.167969,272 128,264.832031 128,256 C128,247.167969 135.167969,240 144,240 L368,240 C376.832031,240 384,247.167969 384,256 C384,264.832031 376.832031,272 368,272 Z" id="Shape"></path>
            <path d="M256,384 C247.167969,384 240,376.832031 240,368 L240,144 C240,135.167969 247.167969,128 256,128 C264.832031,128 272,135.167969 272,144 L272,368 C272,376.832031 264.832031,384 256,384 Z" id="Shape"></path>
        </g>
    </g>
</svg>