<?xml version="1.0" encoding="utf-8"?>
<!-- Generator: Adobe Illustrator 15.1.0, SVG Export Plug-In  -->
<!DOCTYPE svg PUBLIC "-//W3C//DTD SVG 1.1//EN" "http://www.w3.org/Graphics/SVG/1.1/DTD/svg11.dtd" [
	<!ENTITY ns_flows "http://ns.adobe.com/Flows/1.0/">
]>
<svg version="1.1"
	 xmlns="http://www.w3.org/2000/svg" xmlns:xlink="http://www.w3.org/1999/xlink" xmlns:a="http://ns.adobe.com/AdobeSVGViewerExtensions/3.0/"
	 x="0px" y="0px" width="66px" height="67px" viewBox="-0.173 -0.769 66 67"
	 overflow="visible" enable-background="new -0.173 -0.769 66 67" xml:space="preserve">
<defs>
</defs>
<g>
	<ellipse fill="#FFFFFF" cx="33.002" cy="32.789" rx="31.128" ry="31.378"/>
	<g>
		<g>
			<g>
				<g>
					<path fill="#6E7072" d="M54.136,8.706c0.024,0,0.048-0.007,0.071-0.024C54.166,8.68,54.145,8.69,54.136,8.706z"/>
					<path fill="#6E7072" d="M40.307,1.051l0.189,0.014C40.376,1.04,40.327,1.04,40.307,1.051z"/>
					<path fill="#6E7072" d="M60.047,16.069c-0.012-0.008-0.015-0.006-0.025-0.011l0.33,0.576L60.047,16.069z"/>
					<path fill="#6E7072" d="M8.771,10.52l0.146-0.162C8.85,10.429,8.801,10.472,8.771,10.52z"/>
					<path fill="#6E7072" d="M26.418,0.732c-0.057,0.04-0.159,0.072-0.259,0.104C26.289,0.812,26.39,0.784,26.418,0.732z"/>
					<path fill="#6E7072" d="M60.998,21.055l-0.011-0.274C60.952,20.801,60.949,20.902,60.998,21.055z"/>
					<path fill="#6E7072" d="M63.563,29.883c0.006-0.008,0.012-0.011,0.02-0.026C63.573,29.844,63.567,29.859,63.563,29.883z"/>
					<path fill="#6E7072" d="M63.396,26.221L63.3,25.973C63.326,26.081,63.355,26.22,63.396,26.221z"/>
					<path fill="#6E7072" d="M63.25,25.855l0.05,0.117C63.282,25.905,63.266,25.85,63.25,25.855z"/>
					<path fill="#6E7072" d="M65.293,34.318c0.014-0.281-0.047-0.523-0.102-0.776L65.293,34.318z"/>
					<path fill="#6E7072" d="M0.893,39.809l-0.051-0.053C0.866,39.811,0.881,39.818,0.893,39.809z"/>
					<path fill="#6E7072" d="M64.479,33.939l0.026-0.193C64.486,33.816,64.479,33.879,64.479,33.939z"/>
					<path fill="#6E7072" d="M58.582,16.869c-0.214-0.176-0.409-0.688-0.486-0.634C58.263,16.458,58.407,16.831,58.582,16.869z"/>
					<path fill="#6E7072" d="M6.162,44.728l0.072,0.153C6.203,44.806,6.181,44.761,6.162,44.728z"/>
					<path fill="#6E7072" d="M64.479,33.939l-0.031,0.223c0.019-0.018,0.033-0.042,0.05-0.064
						C64.485,34.046,64.479,33.994,64.479,33.939z"/>
					<polygon fill="#6E7072" points="21.354,63.791 21.345,63.787 21.277,63.779 					"/>
					<path fill="#6E7072" d="M22.955,64.513l-0.365-0.088C22.775,64.497,22.879,64.514,22.955,64.513z"/>
					<path fill="#6E7072" d="M65.191,33.542l-0.067-0.44C65.133,33.259,65.16,33.403,65.191,33.542z"/>
					<path fill="#6E7072" d="M41.555,64.812l-0.163,0.057C41.463,64.85,41.517,64.832,41.555,64.812z"/>
					<path fill="#6E7072" d="M27.715,0.548l0.151-0.004C27.878,0.519,27.866,0.506,27.715,0.548z"/>
					<polygon fill="#6E7072" points="17.144,7.177 17.141,7.179 17.142,7.181 					"/>
					<path fill="#6E7072" d="M17.621,6.747c-0.183,0.081-0.387,0.291-0.478,0.43C17.312,7.072,17.458,6.954,17.621,6.747z"/>
					<path fill="#6E7072" d="M15.986,7.887l0.067-0.033C16.028,7.864,16.007,7.874,15.986,7.887z"/>
					<polygon fill="#6E7072" points="27.674,3.214 27.672,3.204 27.667,3.214 					"/>
					<path fill="#6E7072" d="M25.237,3.783c-0.047-0.006-0.11-0.003-0.177,0.005C25.105,3.795,25.166,3.794,25.237,3.783z"/>
					<polygon fill="#6E7072" points="11.435,12.16 11.434,12.156 11.426,12.167 					"/>
					<path fill="#6E7072" d="M3.978,33.61c-0.144-2.306-0.031-5.349,0.572-7.584c-0.072-0.532,0.102-1.251,0.278-1.971l0.267,0
						l0.109-0.609c0.15-0.213-0.099,0.464,0.128,0.075l-0.078-0.27c0.096-0.021,0.588-1.46,0.41-0.434
						c0.268-0.742,0.564-1.474,0.889-2.193c0.23-0.471-0.07-0.371,0.244-0.866c0.119-0.072-0.047,0.21,0.057,0.208
						c0.946-1.457,0.484-2.03,1.459-3.368l-0.048,0.135c0.095-0.271,0.395-0.711,0.371-0.735c-0.335,0.03-0.048,0.323-0.45,0.659
						c-0.158-0.155,0.246-0.589,0.09-0.654c0.286-0.275,0.309-0.537,0.5-0.819c0.441-0.394,0.876-1.105,1.282-1.336
						c0.127-0.259,0.16-0.644,0.56-1.108c0.417-0.214,0.051,0.182,0.495-0.216l-0.028-0.155c0.345-0.345,0.319-0.264,0.35-0.21
						c0.365-0.369,0.172-0.437,0.693-0.839l-0.171,0.342c0.308-0.373,0.459-0.5,0.957-0.948c0.039,0.063-0.16,0.243-0.318,0.362
						c0.393-0.111,0.396-0.487,0.56-0.602c-0.081-0.006-0.439,0.295-0.355,0.048c0.261-0.208,0.416-0.607,0.695-0.651l-0.194,0.332
						c0.459-0.533,0.176-0.367,0.822-0.844c-0.027,0.035,0.009,0.045,0.012,0.077c0.291-0.448,0.904-0.746,1.517-1.173l-0.095,0.111
						c0.216-0.214,0.292-0.397,0.43-0.485c-0.393,0.186-0.319,0.089-0.42,0.013c0.585-0.154,0.575-0.703,1.436-1.101
						c0.025,0.07-0.119,0.26-0.375,0.336c-0.147,0.357-0.085,0.521-0.487,0.923c0.255-0.243,0.586-0.488,0.562-0.367l-0.019-0.226
						c0.173-0.123,0.322-0.2,0.458-0.286c0.011-0.154-0.475,0.057-0.1-0.276c0.44-0.353,0.357,0.015,0.385-0.107
						c0.62-0.457,0.16-0.354,0.838-0.66c-0.056,0.05-0.165,0.151-0.229,0.166c0.498-0.195,1.127-0.66,1.375-0.517
						c-0.046,0.083-0.026,0.153-0.211,0.229l-0.01-0.036c-0.429,0.423,0.405-0.268,0.345,0.01c-0.094-0.095,0.577-0.405,0.891-0.519
						l-0.158-0.088c0.826-0.864,0.065,0.281,1.038-0.214c0.6-0.362-0.257,0.064,0.094-0.197c0.445-0.155,0.652-0.105,1.271-0.406
						c0.199-0.013,0.591-0.066,0.674,0.076c0.368-0.204,1.211-0.32,1.391-0.536c-0.719,0.072-0.622,0.364-1.47,0.429l0.168-0.229
						c0.547-0.175,1.229-0.471,1.629-0.517c-0.085-0.009-0.132-0.039-0.092-0.085c0.778-0.274,0.973-0.488,1.772-0.612
						c0.134,0.123-0.332,0.193-0.661,0.286c0.53,0,0.527-0.12,1.324-0.226c0.065,0.119-0.531,0.093-0.595,0.239l0.859-0.211
						c-0.002,0.008,0.003,0.016,0.005,0.025c0.09-0.23,0.667-0.103,1.193-0.235c1.27-0.163,1.439-0.455,2.148-0.678
						c0.197,0.045,0.257,0.096,0.178,0.155c-0.324-0.075-0.263-0.004-0.369,0.059c0.437-0.053,0.963,0.154,0.725,0.252
						c0.685-0.088-0.253-0.103,0.165-0.186c0.315-0.009,0.631-0.015,0.946-0.011c-0.112-0.108-0.45-0.127,0.043-0.217
						c0.416-0.038,0.617-0.007,1.161,0.009c-0.081,0.052,0.165,0.168-0.241,0.154c0.26,0.043,0.667,0.07,0.83-0.032
						C33.864,2.344,35.432,2.435,35,2.243l0.588,0.144c-0.136-0.013-0.156,0.054-0.354,0.02c0.156,0.176,0.489-0.005,0.698-0.003
						c0.207,0.048,0.745,0.131,0.782,0.198c0.192-0.026,0.643,0.08,0.715,0.173c0.281,0.007,0.038-0.104,0.127-0.146l0.937,0.173
						c0.033,0.1,0.063,0.366-0.082,0.372c0.366-0.015,0.176-0.243,0.706-0.129c-0.338,0.107,0.668,0.288,0.186,0.398
						c0.273,0.189,1.12,0.387,1.595,0.476c0.326-0.057-0.481-0.214-0.416-0.347c1.324,0.307,1.524-0.034,2.464,0.354l-0.235-0.126
						c0.624,0.136,0.552,0.124,0.94,0.141c-0.225,0.108,0.504,0.693,1.455,1.076c0.118-0.047-0.459-0.391-0.25-0.454l0.645,0.255
						c0.04,0.033-0.042,0.029-0.133,0.015c0.594,0.198,0.938,0.701,1.189,0.595L46.99,5.95l-0.166-0.216
						c0.116-0.038,0.741,0.262,0.881,0.307c0.667,0.26,0.848,0.468,1.116,0.766c-0.064-0.127-0.238-0.436,0.25-0.162
						c-0.155,0.237,0.926,0.728,0.825,0.846c0.188,0.126,0.46,0.428,0.552,0.345l-0.136,0.125c0.19-0.179,0.848,0.313,1.369,0.667
						c-0.323,0.179,0.558,0.411,0.568,0.832c0.244-0.107,0.899,0.656,1.111,0.586c0.364,0.321,0.179,0.449,0.217,0.585l0.224,0.09
						c0.101,0.246,0.729,0.892,1.035,1.337l0.489,0.228l0.054,0.201c0.092,0.024,0.389,0.316,0.276,0.072l0.17,0.211
						c0.187-0.131,0.294,0.249,0.715,0.609c0.05,0.122-0.013,0.129-0.109,0.056c0.167,0.213,0.005,0.195,0.038,0.356
						c-0.073-0.191,0.92,0.521,0.549-0.121c0.043-0.098,0.358,0.205,0.488,0.444l-0.062,0.251l0.36,0.135
						c0.274,0.325,0.269,0.548,0.442,0.842c-0.209-0.282-0.754-0.412-0.246,0.317c-0.286-0.372-0.509-0.496-0.686-0.664
						c0.102,0.153,0.139,0.238-0.098,0.058c0.454,0.523,0.234,0.115,0.646,0.663c-0.17,0.069-0.109,0.259,0.16,0.79l-0.131-0.444
						c0.029,0.005,0.06,0.021,0.087,0.044c-0.076-0.152-0.078-0.208-0.041-0.277c0.07,0.114,0.627,0.543,0.59,0.703
						c-0.125-0.744,0.819,0.92,0.731,0.456c0.084,0.043,0.343,0.457,0.286,0.546c-0.404-0.438,0.034,0.481-0.125,0.461
						c0.15,0.163-0.102-0.462,0.099-0.241c0.179,0.295,0.201,0.571,0.238,0.768l-0.097-0.111l0.173,0.506
						c0.121,0.037-0.102-0.525,0.167-0.113c0.025,0.132,0.282,0.552,0.211,0.569c-0.214-0.154-0.287,0.07-0.497-0.286
						c0.169,0.296,0.649,1.277,0.615,0.807l0.167,0.375c-0.038-0.264-0.22-0.983,0.151-0.24l-0.036,0.008l0.359,0.474l0.014,0.268
						c0.04-0.025,0.115,0.042,0.192,0.244c-0.029,0.072,0.026,0.268-0.047,0.279c0.24,0.573,0.299,0.497,0.38,0.552
						c0.135,0.323,0.145,0.457-0.013,0.341c0.143,0.454,0.425,1.235,0.427,1.572c0.257,0.585-0.001-0.136,0.222,0.185
						c-0.136,0.613,0.438,2.052,0.659,3.071c0.217-0.329,0.087,0.271,0.363,0.417c-0.121-0.206-0.051,1.01-0.274,0.125l0.118,0.542
						c-0.089,0.395-0.26-0.883-0.372-0.288c0.107,0.603,0.461,0.966,0.44,1.705c-0.218-0.224,0.12,0.552-0.113,0.392
						c-0.081-0.144-0.081-0.346-0.121-0.548l-0.023,0.129c0.07,1.347,0.27,0.366,0.461,1.065c0.077,0.828-0.113,0.662-0.203,0.714
						c-0.034,0.13,0.014,0.543,0.07,0.759c-0.136-0.499,0.089-0.936,0.221-0.71c-0.202,0.373,0.018,1.23,0.104,1.46
						c0.219-1.197,0.006-0.822,0.202-1.958c-0.085-0.151-0.269-0.112-0.247-0.787c0.136,0.412,0.108-0.039,0.13-0.162
						c-0.102,0.141-0.09-0.461-0.164-0.66c0.071-0.198,0.31,0.375,0.278-0.315l-0.284-0.095c0.004-0.27,0.213,0.088,0.07-0.47
						c0.18,0.287,0.208-0.125,0.349,0.644c0.112-0.955-0.317-1.401-0.548-2.084c0.03,0.069,0.067,0.07,0.099,0.138
						c-0.1-0.138-0.144-0.413-0.204-0.617c-0.039-0.478,0.197,0.342,0.242,0.208l-0.166-0.754c0.005-0.017,0.009-0.021,0.015-0.023
						c-0.077-0.191-0.151-0.371-0.102-0.457c0.139,0.204,0.25,0.272,0.351,0.41l-0.372-0.751c0.112,0.065-0.021-0.689,0.19-0.144
						c-0.116-0.387-0.229-0.774-0.359-1.156l0.146-0.15c-0.113-0.27-0.15-0.267-0.073,0.074c-0.066-0.419-0.87-1.644-0.464-1.555
						c-0.468-0.843-0.529-1.188-1.074-2.204c0.514,0.744-0.222-1.015,0.235-0.188c-0.161-0.535-0.383-0.559-0.604-0.933
						c-0.109-0.399,0.13-0.318,0.387,0.052l-0.305-0.43l0.036-0.007l-0.297-0.355c-0.138-0.469,0.117-0.177-0.097-0.625
						l-0.193-0.017l-0.08-0.339c-0.005,0.146-0.171-0.096-0.366-0.398l0.035-0.011l-0.247-0.361
						c0.307,0.321-0.176-0.359,0.023-0.249c-0.192-0.321-0.19-0.333-0.586-0.882l-0.028,0.16c-0.562-0.682,0.121-0.124-0.272-0.72
						l-0.079,0.108c-0.409-0.972-1.11-1.346-1.477-2.017c0.295,0.321,0.343,0.145,0.308,0.16c-0.435-0.491-1.108-1.326-1.682-1.719
						c-0.033-0.305-0.026-0.392-0.457-0.951c-0.362-0.358-0.435-0.393-0.626-0.436c-0.299-0.399-1.055-0.942-0.986-1.056
						c-0.154,0.002-0.315-0.312-0.583-0.418l-0.009-0.079l-0.05,0.125c-0.484-0.785-1.233-0.812-1.792-1.528l0.144,0.062
						l-0.329-0.18c-0.015-0.08,0.127-0.018,0.184-0.066c-0.461-0.347-0.935-0.678-1.414-1.002l0.231,0.269
						c-0.309-0.193-0.583-0.217-0.893-0.505c0.688,0.204-0.483-0.309-0.509-0.486l0.346,0.148c-0.443-0.251-0.443-0.251-0.472-0.119
						c-0.593-0.288-0.271-0.438-0.871-0.611l0.376,0.214c0.073,0.128-0.244,0.061-0.498-0.074c-0.051-0.049-0.204-0.195-0.003-0.105
						c-0.477-0.205-1.144-0.61-1.374-0.658c-0.236-0.156-0.115-0.199,0.037-0.164c-1.054-0.366-0.444-0.24-1.512-0.577l0.046-0.06
						l-0.386-0.066l-0.453-0.34l0.149,0.158c-0.345-0.12-0.575-0.153-0.964-0.333l0.198-0.043c-0.991-0.285-1.078-0.558-2.065-0.691
						c-0.06-0.037,0.098-0.03,0.178-0.024c-0.923-0.079-0.616-0.371-1.56-0.391c0.063-0.021-0.024-0.089,0.018-0.11l-0.425-0.022
						l0.063-0.134l-0.379,0.135l-0.222-0.197L39.171,0.87c-0.388-0.359-1.05-0.266-1.628-0.554l0.079,0.196
						c-1.566,0.145-3.503-0.582-5.39-0.362l0.03-0.145l-0.766,0.196C31.076,0.104,31.739,0.069,31.607,0
						c-0.824,0.12-0.335,0.226-1.289,0.335c-0.497-0.052,0.161-0.126,0.389-0.188c-0.896,0.127-2.201,0.371-2.841,0.397
						c-0.012,0.021-0.046,0.053-0.013,0.056c-0.581,0.157-1.367,0.243-2.011,0.399c0.001-0.068,0.16-0.114,0.317-0.163
						c-0.233,0.042-0.563,0.066-0.745,0.184l0.213-0.181c-0.504,0.09-1.422,0.457-1.571,0.348c0.075,0.037,0.08,0.148-0.343,0.268
						c-0.301-0.147-1.115,0.444-1.813,0.575c0.062-0.078,0.546-0.262,0.408-0.215c-0.354,0.061-0.62,0.269-0.883,0.445l0.057-0.117
						c-0.499,0.232-0.99,0.478-1.473,0.738c-0.319-0.113-1.39,0.684-1.357,0.494c-0.528,0.255,0.483-0.133-0.169,0.222
						c-0.221,0.002-0.573,0.349-0.612,0.206l0.062-0.052L17.48,4.003l0.222-0.279c-0.384,0.235-0.596,0.528-0.563,0.63
						C16.73,4.492,16.25,4.859,16.02,4.85l0.114-0.112c-0.979,0.668-1.878,0.752-2.498,1.509c-0.068,0.025-0.083-0.008,0.037-0.094
						l-0.596,0.438l0.074-0.192c-0.293,0.291-0.578,0.589-0.858,0.89L12.26,7.224c-0.646,0.49-1.568,1.36-2.286,2.113l0.087-0.133
						c-0.724,0.882-0.819,0.735-1.327,1.4c0.006-0.035,0.02-0.06,0.037-0.085l-0.494,0.562l0.057-0.17
						c-0.251,0.514-1.176,1.09-0.858,0.908c-0.146,0.288-0.414,0.764-0.396,0.893c-0.485,0.654-0.197,0.1-0.545,0.472
						c-0.354,0.475-0.312,0.63-0.813,1.257l-0.051-0.053l-0.544,0.992l0.053-0.15c-0.316,0.8-0.737,0.803-0.786,1.542
						c-0.23,0.281-0.496,0.905-0.612,0.809c-0.398,0.988-0.701,1.756-1.045,2.749c-0.281,0.068-0.077,0.211-0.426,0.759l0.135,0.001
						c-0.509,1.384-1.309,2.936-1.606,4.565l-0.134,0.018l0.067,0.352c-0.427,1.722-0.734,4.01-0.77,5.426
						c0.047,0.468,0.183,1.17,0.152,1.902l-0.019-0.077l0.35,4c-0.065-0.078-0.084,0.064-0.139-0.086
						c0.183,0.31,0.12,0.81,0.168,1.105l0.038-0.36c0.181,0.372,0.163,0.95,0.113,1.165l0.257,0.589
						c-0.003,0.043-0.009,0.109-0.027,0.122l0.089,0.094l-0.093,0.362c0.07,0.145,0.304,0.942,0.532,1.149
						c-0.038,0.071,0.071,0.647-0.076,0.219c0.188,0.739,0.395,1.476,0.636,2.201l-0.062-0.357c0.109-0.082,0.402,0.539,0.477,0.889
						c-0.26-0.399-0.184,0.026-0.201,0.246c0.174,0.269,0.01-0.292,0.133-0.163c0.212,0.339,0.563,1.082,0.593,1.294l-0.138-0.195
						c0.252,0.468,0.142,0.783,0.374,1.255c0.287,0.385,0.362,0.734,0.514,0.552c0.339,0.587-0.017,0.301,0.061,0.507
						c0.236,0.239,0.625,1.104,0.593,1.264c0.451,0.168,0.834,1.638,1.147,1.606l0.178,0.551c0.069-0.024,0.266-0.023,0.546,0.331
						c0.175,0.395,0.018,0.383,0.033,0.531l0.385,0.075c1.19,2.175,3.547,4.442,5.486,6.321c0.97,0.726,2.258,1.531,3.426,2.307
						l-0.15-0.054c0.378,0.271,0.765,0.534,1.155,0.792c-0.27-0.211-0.542-0.413-0.805-0.631c0.273,0.138,0.506,0.211,0.755,0.365
						c1.25,0.878,3.042,1.927,4.865,2.467c1.25,0.131,0.669,0.545,1.857,0.699c-0.104-0.004-0.151,0.026-0.247,0.027
						c1.238,0.282,1.919,0.407,3.185,0.503c-0.206,0.274,0.803,0.159,0.662,0.292l0.125-0.103c0.259,0.134,0.908,0.262,0.8,0.336
						l0.573-0.069l0.029,0.134c0.73,0.127,2.314,0.169,2.688,0.437c1.843-0.061,4.727-0.082,7.012-0.407
						c0.304-0.154,0.963-0.274,1.474-0.39l0.579,0.032c0.514-0.159,1.016-0.48,1.518-0.519c0.001,0.018-0.016,0.035-0.046,0.053
						c0.514-0.169,1.032-0.241,1.47-0.53c0.566-0.171,1.134-0.297,1.011-0.101c-0.028-0.249,1.193-0.406,1.194-0.412
						c-0.01-0.017,1.826-0.615,4.436-2.094c2.604-1.466,5.926-3.936,8.687-7.259c2.791-3.29,4.936-7.395,6.006-11.162
						c1.104-3.77,1.199-7.11,0.936-8.937c-0.114-0.252-0.172-0.928-0.329-0.674c-0.038-0.517,0.184-0.753,0.061-0.855
						c-0.092,0.702-0.32-0.216-0.483,0.465l-0.025-0.436c-0.088-0.091,0.093,0.594-0.066,0.484l0.231,0.128
						c-0.039,0.354-0.103,0.546-0.184,0.668c0.079,0.334,0.385,0.566,0.188,1.354l0.005-0.221c-0.048,0.648-0.185,0.384-0.234,0.515
						l0.015-0.142l-0.168,0.53c0.12-0.402-0.014-1.095-0.029-0.739c-0.133,0.758,0.073-0.193,0.052,0.382
						c-0.02,0.357-0.136,0.245-0.205,0.223l-0.063,0.636c-0.104-0.036,0.054-0.419-0.087-0.175l0.012,0.811
						c-0.287,0.108,0,0.888-0.321,1.206c0.037-0.579-0.098,0.034-0.171-0.071c-0.078,0.462-0.167,0.922-0.265,1.38
						c-0.064,0.122-0.004-0.378-0.036-0.167c-0.127,0.241-0.032,0.437-0.066,0.575c-0.096,0.103-0.258,1.017-0.425,0.932
						c-0.381,0.876,0.119,0.45-0.246,1.268c-0.139,0.077,0.188-0.68-0.038-0.338l-0.247,0.883c-0.023-0.096-0.108-0.225,0.017-0.543
						c-0.93,2.305-2.005,3.253-2.92,5.257c-0.266,0.208,0.032-0.238,0.062-0.473c-0.623,1.484-1.371,1.791-2.114,2.901l0.075,0.082
						c-1.346,1.339-2.657,3.176-4.31,4.512l0.235-0.117c-0.137,0.278-0.48,0.603-0.709,0.869c-0.078-0.008,0.039-0.335-0.397,0.096
						c0.121-0.053,0.346-0.19,0.321-0.101c-0.778,0.492-1.903,1.341-3.215,2.168c-1.304,0.837-2.804,1.636-4.177,2.186
						c-3.613,1.756-7.976,2.475-11.882,2.531c0.598-0.016,0.35,0.255-0.106,0.198c-1.224-0.457-2.152,0.021-3.382-0.425
						c-2.299-0.123-4.184-0.973-6.286-1.339l0.004-0.135c-0.278-0.161-0.39-0.103-0.705-0.212l0.021-0.03
						c-0.716-0.319-1.638-0.581-2.02-0.835l-0.087,0.119c-0.429-0.189-0.172-0.202-0.638-0.343l0.045-0.059l-0.56-0.133
						c0.164-0.194-1.155-0.645-1.413-0.95c-0.542-0.269-1.572-0.805-2.282-1.396c-0.066-0.2-0.961-0.882-1.462-1.397
						c-1.092-0.863-2.556-2.234-3.651-3.636l-0.105,0.13l-0.305-0.353c0.032-0.018,0.007-0.079,0.065-0.034
						c-0.081-0.395-0.709-0.808-0.835-1.181c0.017,0.278,0.176,0.274,0.332,0.488c0.17,0.351-0.179,0.158-0.424-0.305l0.035-0.014
						l-0.276-0.235c0.08-0.106-0.059-0.4,0.024-0.508c-0.888-1.233-1.616-2.02-2.292-3.455c0.198,0.083-0.533-1.004-0.169-0.826
						c-0.481-0.818-0.115,0.228-0.457-0.093c-0.11-0.241-0.285-0.472-0.219-0.553c0.104,0.09,0.052-0.259,0.159-0.069l-0.266-0.575
						c-0.005-0.064,0.079,0.052,0.12,0.11c-0.625-1.143-0.662-2.188-1.123-3.25C4.784,40.956,5,41.46,4.889,41.406
						c-0.5-1.074-0.129-1.032-0.506-2.059l0.17,0.192c-0.158-0.321-0.301-0.45-0.314-1.036c0.122-0.126,0.21,0.456,0.339,0.711
						c-0.085-0.384-0.302-1.357-0.377-1.035c-0.132-0.459-0.026-0.652-0.03-0.908c-0.037-0.004-0.024,0.451-0.136,0.187
						c-0.021-0.65-0.145-1.639-0.189-2.427c0.036,0.004,0.087-0.055,0.109,0.013C3.728,34.424,4.049,34.471,3.978,33.61z"/>
					<path fill="#6E7072" d="M27.998,3.182l-0.324,0.033c0.006,0.032-0.002,0.071-0.142,0.134L27.998,3.182z"/>
					<path fill="#6E7072" d="M14.134,9.434c-0.024,0.034-0.048,0.068-0.065,0.104C14.126,9.483,14.136,9.454,14.134,9.434z"/>
					<path fill="#6E7072" d="M11.583,12.161c0.163-0.212-0.032-0.071-0.147,0C11.453,12.185,11.482,12.204,11.583,12.161z"/>
					<path fill="#6E7072" d="M36.714,2.602c-0.058,0.007-0.096,0.022-0.09,0.054C36.704,2.638,36.723,2.621,36.714,2.602z"/>
					<path fill="#6E7072" d="M57.081,14.641l-0.041-0.09C57.042,14.571,57.058,14.604,57.081,14.641z"/>
					<path fill="#6E7072" d="M56.432,13.436c-0.04-0.053-0.1-0.116-0.191-0.2C56.312,13.333,56.376,13.393,56.432,13.436z"/>
					<path fill="#6E7072" d="M30.823,2.505c-0.09,0.01-0.178,0.027-0.251,0.065C30.71,2.553,30.778,2.531,30.823,2.505z"/>
					<path fill="#6E7072" d="M56.034,13.042l-0.208-0.271c-0.009,0.005-0.017,0.007-0.025,0.015L56.034,13.042z"/>
					<path fill="#6E7072" d="M57.316,14.998c-0.073-0.11-0.179-0.256-0.235-0.356C57.148,14.801,57.226,14.91,57.316,14.998z"/>
					<path fill="#6E7072" d="M45.366,4.834l-0.035-0.012C45.062,4.772,45.226,4.815,45.366,4.834z"/>
					<polygon fill="#6E7072" points="54.864,12.096 54.837,12.059 54.741,12.014 					"/>
					<path fill="#6E7072" d="M58.096,16.235c-0.038-0.052-0.075-0.097-0.114-0.126l0.091,0.17
						C58.078,16.253,58.086,16.241,58.096,16.235z"/>
					<path fill="#6E7072" d="M49.718,7.514c0.109,0.008,0.161-0.002,0.179-0.023C49.801,7.429,49.728,7.41,49.718,7.514z"/>
				</g>
			</g>
		</g>
	</g>
</g>
<circle fill="#6E7072" cx="32.689" cy="13.137" r="5.63"/>
<circle fill="#6E7072" cx="15.334" cy="24.398" r="5.63"/>
<circle fill="#6E7072" cx="50.229" cy="24.398" r="5.631"/>
<path fill="#6E7072" d="M13.544,31.575c0,0-12.329,17.232,18.701,26.934c0,0-19.994-16.367-0.522-28.482
	c0,0-3.161-4.396-9.119-3.721C22.604,26.307,20.493,32.115,13.544,31.575z"/>
<path fill="#6E7072" d="M52.104,31.575c0,0,12.329,17.232-18.702,26.934c0,0,19.994-16.367,0.522-28.482c0,0,3.162-4.396,9.12-3.721
	C43.045,26.307,45.155,32.115,52.104,31.575z"/>
<path fill="#6E7072" d="M27.06,19.021c0,0-2.679,1.833-3.746,5.377c0,0,4.486-1.266,9.417,4.189c0,0,3.945-5.267,9.238-3.754
	c0,0-0.757-3.083-3.649-5.812c0,0-3.47,1.946-5.589,1.946S27.06,19.021,27.06,19.021z"/>
<path fill="#6E7072" d="M37.765,40.995c-0.187,0.215-0.463,0.196-0.896,0.473c0.018-0.015,0.032-0.027,0.04-0.038
	c0.133-0.149-0.513-0.056-0.831,0.261c-0.256,0.272-0.624,0.373-1.017,0.422c-0.396,0.053-0.812,0.059-1.188,0.163
	c-0.187,0.05-0.395,0.056-0.622,0.085c-0.594,0.13-1.186,0.152-1.783,0.117c-0.601-0.034-1.208-0.12-1.867-0.252
	c-0.35-0.077-0.622-0.279-0.875-0.442c-0.103-0.046-0.205-0.097-0.31-0.134c-0.052-0.021-0.104-0.039-0.152-0.06
	c-0.047-0.023-0.09-0.048-0.13-0.071c-0.124-0.08-0.232-0.158-0.322-0.258c-0.09-0.096-0.177-0.184-0.238-0.294
	c0.083,0.11,0.171,0.183,0.256,0.271c0.042,0.043,0.084,0.088,0.136,0.129c0.05,0.039,0.104,0.078,0.164,0.124
	c0.035,0.022,0.054,0.027,0.059,0.021c0.024-0.028-0.116-0.232-0.18-0.311c-0.024-0.053-0.17-0.009-0.198-0.066
	c-0.045-0.036-0.083-0.082-0.115-0.133c-0.03-0.055-0.059-0.112-0.087-0.17c-0.021-0.055-0.1,0.023-0.109-0.004
	c-0.026-0.037-0.045-0.076-0.059-0.115c-0.012-0.04-0.018-0.084-0.023-0.123c-0.011-0.076-0.022-0.141-0.066-0.176
	c-0.03-0.03-0.062-0.056-0.09-0.084c-0.024-0.028-0.051-0.056-0.076-0.083c-0.026-0.036-0.055-0.073-0.074-0.117
	c-0.006-0.03-0.01-0.063-0.015-0.096c-0.019-0.103-0.032-0.21-0.044-0.317c0.013-0.002,0.023-0.004,0.035-0.006
	c0-0.043-0.007-0.08-0.042-0.118c0-0.013-0.001-0.022-0.001-0.036c0.001-0.001,0.001-0.002,0.001-0.004
	c0.005-0.004,0.007-0.01,0.007-0.018l-0.011-0.005c-0.002-0.075-0.001-0.154,0.004-0.227l0.009,0.001
	c0.009,0.129,0.047,0.254,0.148,0.354c-0.018-0.014-0.029-0.014-0.036-0.007c-0.008,0.011-0.011,0.029-0.002,0.06l0.068,0.027
	c-0.006-0.061-0.008-0.119-0.024-0.173c-0.015-0.054-0.035-0.104-0.09-0.149c0,0,0.012-0.054,0.021-0.081
	c-0.019-0.033-0.054-0.026-0.086-0.03c0-0.026,0-0.054,0-0.08c0.032,0.026,0.07,0.077,0.101,0.122
	c0.034,0.043,0.063,0.079,0.063,0.079c0.067,0.309,0.211,0.581,0.382,0.816c-0.005,0.031-0.017,0.059,0.012,0.074
	c0.03,0.01,0.053,0.02,0.073,0.033c0.026,0.034,0.052,0.067,0.079,0.1c0.007,0.014,0.016,0.025,0.024,0.039l-0.006-0.021
	c0.07,0.064,0.14,0.131,0.209,0.199c0.013,0.018,0.028,0.033,0.04,0.045c0.043,0.055,0.089,0.113,0.156,0.097
	c0.014,0.012,0.029,0.021,0.041,0.03l-0.012,0.003l0.02,0.003c0.058,0.045,0.125,0.074,0.189,0.11
	c0.025,0.042,0.054,0.092,0.088,0.13c-0.034-0.038-0.062-0.088-0.088-0.13c0.062,0.032,0.123,0.069,0.188,0.101
	c0.066,0.026,0.133,0.055,0.202,0.083c0.441,0.17,0.888,0.271,1.345,0.34c0.459,0.064,0.93,0.093,1.43,0.069
	c0.544-0.027,1.062-0.105,1.563-0.218c0.502-0.112,0.984-0.174,1.463-0.271c0.479-0.096,0.957-0.224,1.427-0.473
	c0.365-0.182,1.084-0.311,1.447-0.406c0.53,0.034,0.425,0.561,0.407,0.596C37.858,40.868,37.813,40.94,37.765,40.995 M28.453,41.17
	c0.007,0.006,0.017,0.008,0.029,0.006c0.04,0,0.095-0.019,0.146-0.029c0.053,0.05,0.146,0.072,0.231,0.057
	c-0.06-0.084-0.143-0.076-0.231-0.057c-0.025-0.023-0.044-0.051-0.045-0.084c0.001,0.033,0.02,0.061,0.045,0.084
	c-0.051,0.011-0.105,0.029-0.146,0.029C28.47,41.178,28.46,41.176,28.453,41.17 M28.339,41.078c0.029-0.017,0.048-0.015,0.062-0.003
	C28.387,41.063,28.368,41.061,28.339,41.078 M27.857,40.594c0.029,0.043,0.065,0.077,0.114,0.07
	c-0.06-0.057-0.119-0.112-0.179-0.166c-0.004-0.004-0.005-0.008-0.007-0.012v0.001c0.003,0.01,0.002,0.018-0.003,0.022
	c-0.006,0.008-0.019,0.008-0.032,0.008c-0.02-0.006-0.041-0.006-0.061-0.006c0.01,0,0.039,0.006,0.061,0.006
	c0.024,0.007,0.049,0.016,0.073,0.029C27.834,40.563,27.846,40.581,27.857,40.594 M27.085,39.709l-0.004,0.037h0.004
	c0.003-0.012,0.007-0.022,0.012-0.037H27.085L27.085,39.709z M36.868,41.467c-0.015,0.011-0.032,0.022-0.055,0.033
	C36.832,41.49,36.849,41.478,36.868,41.467 M27.831,40.552c-0.002,0-0.003-0.001-0.007-0.005c-0.011-0.016-0.021-0.031-0.03-0.049
	c0.013,0.02,0.024,0.035,0.035,0.049C27.829,40.551,27.83,40.552,27.831,40.552 M27.216,39.671
	c-0.006-0.005-0.011-0.009-0.016-0.015C27.205,39.663,27.21,39.667,27.216,39.671"/>
<path fill="#6E7072" d="M30.087,36.987c-0.017,0.019-0.033,0.031-0.052,0.042c-0.049,0.026-0.049-0.035-0.119,0.052
	c-0.002,0.003-0.095-0.055-0.097-0.052c0.026-0.045,0.05,0.011-0.006,0.062c-0.041-0.007-0.109,0.014-0.158,0.075
	c-0.021,0.026-0.092-0.067-0.104-0.027c-0.018,0.062-0.094-0.021-0.122,0.015c-0.054,0.066-0.124,0.092-0.201,0.108
	c-0.118,0.026-0.252,0.032-0.347,0.112c-0.045,0.041-0.108,0.052-0.168,0.085c-0.143,0.12-0.338,0.236-0.493,0.306
	c-0.151,0.069-0.241,0.211-0.368,0.328c-0.033,0.029-0.099,0.059-0.099,0.059c-0.048,0.008,0.01,0.273-0.035,0.285
	c-0.01,0.006-0.069-0.114-0.078-0.105c-0.013,0.016-0.153,0.087-0.16,0.107c-0.009,0.02,0.035,0.166,0.024,0.18
	c0,0.002-0.002,0.002-0.004,0.003c-0.003,0.002-0.003,0.005-0.005,0.007c-0.04,0.049,0.083,0.15,0.028,0.18
	c0.042-0.047-0.089-0.146-0.038-0.191c0-0.002,0.001-0.002,0.001-0.004c0.026-0.031-0.104-0.037-0.144-0.023
	c-0.002,0-0.003,0.001-0.003,0.002c-0.005,0.005,0.003,0.02,0.011,0.035c0.008,0.014,0.015,0.027,0.01,0.033
	c-0.001,0.002-0.002,0.002-0.003,0.002c-0.002,0-0.002,0-0.002,0c-0.019,0.023,0.122,0.102,0.083,0.117
	c-0.003,0-0.004,0-0.004,0.002c-0.004,0.004,0.008,0.014,0.021,0.021c0.012,0.01,0.022,0.02,0.022,0.02s0,0.001-0.002,0.001
	c-0.035,0.022-0.121,0.014-0.139,0.034c-0.002,0.002-0.004,0.006-0.003,0.012c0.001,0.025,0.003,0.047,0.007,0.07
	c0,0.012,0,0.025-0.008,0.033c-0.009,0.007-0.018,0.012-0.028,0.018c-0.021-0.018-0.049-0.028-0.08-0.043
	c0,0.015,0.014,0.037,0.014,0.051c0-0.014-0.014-0.036-0.014-0.051c0.031,0.015,0.059,0.025,0.08,0.043
	c-0.042,0.02-0.08,0.049-0.111,0.082c-0.005-0.004-0.007-0.007-0.011-0.01c0.002,0.004,0.004,0.008,0.006,0.012
	c-0.021,0.021-0.044,0.045-0.066,0.068l-0.006-0.002c0.018-0.037,0.021-0.074-0.012-0.126c0.012,0.017,0.028,0.019,0.037,0.007
	c0.003-0.002,0.003-0.003,0.004-0.004l-0.034-0.027c-0.009,0.008-0.02,0.016-0.026,0.024c-0.02,0.022-0.025,0.051,0.009,0.082
	c0,0-0.021,0.013-0.032,0.019c0.008,0.014,0.034,0.02,0.055,0.025c-0.003,0.008-0.008,0.014-0.012,0.023
	c-0.039-0.023-0.074-0.091-0.074-0.091c0.015-0.054,0.029-0.104,0.048-0.155c0.016-0.049,0.033-0.098,0.055-0.144
	c0.014,0,0.028,0.003,0.032-0.003c0.002-0.002,0.002-0.004,0.002-0.008c-0.01-0.014-0.015-0.024-0.017-0.034l0.017-0.04l0.016-0.012
	l-0.012,0.002l0.046-0.094c0.005-0.004,0.011-0.01,0.018-0.016c0.01-0.006,0.019-0.01,0.025-0.019
	c0.009-0.01,0.01-0.021-0.003-0.042l0.009-0.017L27.27,38.5l-0.001-0.011l0.039-0.069c0.026-0.045,0.058-0.088,0.087-0.13
	c0.023-0.034,0.048-0.064,0.072-0.095c0.191-0.234,0.33-0.655,0.582-0.837c0.156-0.114,0.302-0.293,0.45-0.408
	c0.157-0.124,0.218-0.225,0.426-0.313c0.162-0.067,0.313-0.105,0.521-0.167c0.119-0.11,0.389-0.136,0.535-0.156
	c0.717,0.226,0.31,0.551,0.31,0.569C30.274,36.984,30.113,36.954,30.087,36.987 M27.162,39.023c0.005,0.009,0.013,0.026,0.021,0.038
	C27.179,39.047,27.171,39.036,27.162,39.023C27.162,39.023,27.162,39.023,27.162,39.023S27.162,39.023,27.162,39.023 M27.247,38.884
	c-0.003,0.005-0.005,0.01-0.005,0.017c0.008,0.021,0.011,0.037,0.011,0.056l0.015-0.046l0.019-0.041
	C27.27,38.874,27.256,38.876,27.247,38.884 M27.649,38.292c0,0,0.041-0.009,0.06-0.014c0.013-0.025-0.006-0.045-0.016-0.066
	c-0.036,0.027-0.07,0.055-0.098,0.09c-0.003,0.002-0.006,0.004-0.007,0.008c-0.028,0.034-0.05,0.074-0.065,0.119
	c0.006-0.029-0.014-0.035-0.046-0.009l0.005,0.056c0.037-0.023,0.021-0.172,0.053-0.2c0.008-0.009,0.016-0.017,0.022-0.026
	C27.577,38.227,27.641,38.326,27.649,38.292 M27.691,38.206l0.002,0.006c0.016-0.01,0.03-0.02,0.047-0.032v-0.003
	C27.724,38.186,27.706,38.196,27.691,38.206 M27.183,38.676L27.183,38.676c0.014-0.002,0.022,0.006,0.029,0.017
	c0.006,0.009,0.012,0.018,0.019,0.026c-0.006-0.005-0.01-0.017-0.019-0.026c-0.004-0.011-0.008-0.022-0.007-0.032
	C27.197,38.666,27.188,38.67,27.183,38.676 M27.436,38.461L27.436,38.461L27.436,38.461 M27.407,38.375
	c0.011,0.028,0.022,0.055,0.027,0.074c0.004,0.006,0.004,0.009,0.001,0.012c0.003-0.003,0.003-0.006-0.001-0.012
	C27.43,38.43,27.418,38.404,27.407,38.375 M27.393,38.485c0,0.001,0,0.003,0.001,0.005C27.393,38.488,27.393,38.486,27.393,38.485
	 M27.411,38.461c0.002,0,0.003,0,0.003,0S27.413,38.461,27.411,38.461 M27.391,38.483c0,0.002,0,0.002,0.002,0.002
	C27.391,38.485,27.391,38.485,27.391,38.483 M27.411,38.461L27.411,38.461L27.411,38.461 M27.383,38.461
	c0.005-0.004,0.014-0.003,0.026,0h0.002h-0.002C27.396,38.458,27.388,38.458,27.383,38.461 M27.389,38.483L27.389,38.483
	L27.389,38.483 M27.221,38.645c0.002-0.002,0.004-0.002,0.007-0.006c0.009-0.012,0.011-0.023-0.005-0.044l-0.036,0.077
	c0.007-0.005,0.011-0.012,0.018-0.014c0-0.002,0.001-0.002,0.001-0.002c0,0.002,0,0.004,0,0.004
	C27.211,38.655,27.216,38.653,27.221,38.645 M27.407,38.375c0.008,0,0.014-0.004,0.019-0.012c0.013-0.015,0.015-0.04,0.007-0.073
	c-0.015,0-0.023,0.001-0.03,0.007C27.391,38.315,27.396,38.344,27.407,38.375"/>
<path fill="#6E7072" d="M24.512,46.382c-0.024-0.001-0.05,0.005-0.079,0.014c-0.034,0-0.039-0.028-0.052-0.058
	C24.424,46.354,24.468,46.371,24.512,46.382"/>
<path fill="#6E7072" d="M24.673,46.445c-0.012-0.008-0.024-0.016-0.038-0.022l0.022,0.007L24.673,46.445L24.673,46.445z"/>
<path fill="#6E7072" d="M24.851,46.532c-0.043-0.008-0.079-0.025-0.113-0.047C24.772,46.491,24.809,46.503,24.851,46.532"/>
<path fill="#6E7072" d="M24.737,46.485c-0.026-0.002-0.054,0-0.077,0.007c0.007-0.005,0.013-0.009,0.018-0.015
	c0.008-0.009,0.008-0.02-0.002-0.031l-0.003-0.001C24.695,46.458,24.715,46.471,24.737,46.485"/>
<path fill="#6E7072" d="M24.66,46.492c-0.018,0.009-0.043,0.015-0.056,0.02C24.622,46.503,24.641,46.497,24.66,46.492
	 M24.604,46.511C24.604,46.512,24.604,46.512,24.604,46.511C24.604,46.512,24.604,46.512,24.604,46.511"/>
<path fill="#6E7072" d="M25.366,47.247c-0.007,0.007-0.024,0.007-0.057-0.007c-0.247-0.099-0.406-0.169-0.62-0.273
	c-0.163-0.112-0.32-0.219-0.486-0.333c-0.047-0.025-0.098-0.039-0.149-0.051c0.07,0.01,0.141,0.02,0.218,0.035
	c0.104,0.011,0.164,0.182,0.303,0.262c0.007,0.007,0.014,0.001,0.021-0.01c0.004-0.004,0.009-0.008,0.011-0.012
	c0.005-0.005,0.007-0.01,0.011-0.016c0.015-0.015,0.032-0.026,0.05-0.008c0.098,0.067,0.172,0.153,0.277,0.183
	c0.038,0.04,0.154-0.054,0.192-0.015C25.217,47.053,25.39,47.215,25.366,47.247"/>
<path fill="#6E7072" d="M23.78,46.176c-0.023,0.009-0.045,0.02-0.068,0.027c-0.034-0.02-0.045-0.039-0.034-0.049
	c0.003-0.008,0.014-0.012,0.028-0.012c-0.14,0-0.253-0.045-0.359-0.108h0.003c0.002-0.005,0.007-0.011,0.012-0.014
	c0.003-0.005,0.006-0.011,0.01-0.014c0.012-0.015,0.028-0.026,0.053-0.026c0.016,0.021,0.048,0.064,0.048,0.064
	C23.606,46.022,23.691,46.098,23.78,46.176"/>
<path fill="#6E7072" d="M23.347,46.035l-0.006,0.007c-0.021-0.016-0.041-0.031-0.061-0.046l0.004-0.001
	C23.304,46.008,23.327,46.022,23.347,46.035"/>
<path fill="#6E7072" d="M36.827,47.159c-0.205,0.23-0.481,0.18-0.951,0.436c0.022-0.016,0.039-0.029,0.051-0.039
	c0.115-0.133-0.519-0.084-0.85,0.205c-0.275,0.253-0.646,0.325-1.04,0.348c-0.392,0.025-0.805,0.002-1.183,0.082
	c-0.188,0.037-0.389,0.035-0.619,0.053c-0.588,0.101-1.162,0.094-1.741,0.062c-0.579-0.033-1.161-0.104-1.786-0.15
	c-0.331-0.029-0.604-0.174-0.871-0.264c-0.197-0.049-0.419-0.031-0.581-0.059c-0.256-0.046-0.469-0.131-0.665-0.219
	c0.229,0.066,0.393,0.131,0.651,0.195c0.032,0.006,0.047,0.006,0.056,0c0.025-0.032-0.171-0.17-0.256-0.215
	c-0.046-0.035-0.147,0.07-0.19,0.037c-0.108-0.024-0.195-0.086-0.303-0.145c-0.015-0.014-0.026-0.008-0.038,0.006
	c-0.006,0.006-0.012,0.016-0.018,0.022c-0.004,0.01-0.01,0.017-0.015,0.023s-0.007,0.007-0.013,0.003
	c-0.151-0.061-0.234-0.225-0.339-0.22c-0.081-0.001-0.149-0.002-0.22-0.005c-0.045-0.004-0.088-0.011-0.129-0.027
	c-0.023-0.018-0.051-0.033-0.076-0.05c-0.182-0.112-0.393-0.243-0.589-0.356l0.006-0.008c-0.021-0.012-0.045-0.021-0.068-0.033
	c0.068-0.035,0.253-0.051,0.253-0.051c0.077,0.024,0.152,0.049,0.228,0.072c0.075,0.021,0.151,0.041,0.224,0.062
	c0.151,0.035,0.296,0.076,0.442,0.104c0.016,0.027,0.026,0.057,0.06,0.05c0.026-0.014,0.054-0.021,0.078-0.022
	c0.043,0.008,0.085,0.017,0.128,0.025c0.013,0.004,0.027,0.012,0.042,0.017v0.002c0.015,0.013,0.015,0.024,0.004,0.033
	c-0.001,0.005-0.006,0.008-0.012,0.011c-0.019,0.009-0.037,0.018-0.055,0.029c0.012-0.008,0.036-0.016,0.055-0.029
	c0.022-0.008,0.048-0.014,0.076-0.014c-0.024-0.01-0.047-0.021-0.068-0.032l-0.019-0.013c0.098,0.016,0.193,0.035,0.292,0.048
	c0.021,0.008,0.042,0.015,0.06,0.021c0.068,0.029,0.134,0.059,0.188,0.012c0.017,0.004,0.035,0.006,0.053,0.008l-0.012,0.008
	l0.021-0.006c0.074,0.01,0.148,0.019,0.223,0.029c0.146,0.015,0.296,0.028,0.443,0.043c0.968,0.079,1.86,0.154,2.867,0.124
	c0.544-0.026,1.067-0.077,1.574-0.169c0.508-0.088,0.991-0.117,1.477-0.18c0.482-0.062,0.966-0.158,1.451-0.371
	c0.374-0.154,1.094-0.229,1.458-0.302c0.262,0.036,0.353,0.182,0.382,0.323c0.034,0.142-0.008,0.281-0.018,0.297
	C36.908,47.048,36.869,47.11,36.827,47.159 M27.578,47.313c0.066,0.029,0.16,0.026,0.243-0.018
	C27.738,47.236,27.655,47.268,27.578,47.313 M27.45,47.387L27.45,47.387c0.04-0.02,0.083-0.048,0.128-0.074
	C27.533,47.339,27.49,47.368,27.45,47.387L27.45,47.387 M27.506,47.245c0.009,0.018,0.02,0.031,0.033,0.044
	C27.525,47.276,27.515,47.262,27.506,47.245 M27.436,47.394c0.003-0.002,0.007-0.003,0.011-0.005
	C27.442,47.391,27.438,47.392,27.436,47.394 M27.283,47.348c0,0.002-0.001,0.004-0.001,0.004L27.283,47.348 M27.283,47.348
	L27.283,47.348L27.283,47.348L27.283,47.348z M26.766,47.145L26.766,47.145c-0.084-0.01-0.166-0.023-0.247-0.039
	c0.021,0.008,0.043,0.016,0.057,0.022c0.003,0.001,0.004,0.002,0.006,0.003c-0.002,0-0.006,0-0.008,0
	c0.018,0.008,0.035,0.014,0.053,0.02C26.675,47.17,26.723,47.18,26.766,47.145 M25.722,47.223v-0.002V47.223L25.722,47.223z
	 M25.768,47.145c-0.013,0.027-0.027,0.055-0.046,0.076C25.74,47.2,25.755,47.172,25.768,47.145 M25.702,47.24
	c0.002-0.001,0.002-0.002,0.002-0.002S25.704,47.239,25.702,47.24 M25.771,47.142C25.771,47.143,25.771,47.143,25.771,47.142
	C25.771,47.143,25.771,47.143,25.771,47.142 M25.627,47.134c0.041,0.005,0.104-0.003,0.146,0.003
	C25.731,47.131,25.668,47.139,25.627,47.134 M25.467,46.944c-0.011,0.014,0.002,0.033,0.042,0.048l0.064-0.038
	c-0.102-0.061-0.2-0.127-0.329-0.086c0,0-0.037-0.037-0.057-0.059c-0.018,0.004-0.029,0.012-0.039,0.022
	c-0.012,0.011-0.019,0.03-0.029,0.044c0.117,0.047,0.235,0.074,0.375,0.056C25.48,46.934,25.473,46.94,25.467,46.944 M35.876,47.594
	c-0.016,0.008-0.033,0.02-0.055,0.03C35.839,47.614,35.857,47.602,35.876,47.594 M25.512,46.929c-0.007,0-0.013,0-0.018,0.002
	C25.499,46.929,25.505,46.929,25.512,46.929"/>
<path fill="#6E7072" d="M26.692,47.163c-0.023-0.001-0.046-0.006-0.066-0.012c-0.016-0.008-0.03-0.012-0.045-0.02
	C26.615,47.133,26.652,47.142,26.692,47.163"/>
<path fill="#6E7072" d="M26.766,47.145c-0.043,0.035-0.091,0.025-0.14,0.006c0.021,0.006,0.043,0.011,0.066,0.012
	c-0.041-0.021-0.077-0.029-0.111-0.031c-0.002-0.001-0.003-0.002-0.006-0.003c-0.014-0.007-0.036-0.015-0.057-0.022
	C26.6,47.122,26.682,47.135,26.766,47.145"/>
<path fill="#6E7072" d="M31.553,45.485c-0.01,0.007-0.019,0.014-0.029,0.025c-0.004,0.004-0.008,0.01-0.013,0.016
	c-0.018,0.016-0.027-0.011-0.044-0.03L31.553,45.485L31.553,45.485z"/>
<polygon fill="#6E7072" points="31.63,45.475 31.659,45.483 31.646,45.472 31.63,45.475 "/>
<path fill="#6E7072" d="M31.782,45.498c-0.028,0.008-0.053,0.006-0.077-0.001C31.726,45.486,31.749,45.486,31.782,45.498"/>
<path fill="#6E7072" d="M31.705,45.497c-0.016,0.007-0.027,0.017-0.036,0.027c-0.004,0.002-0.004,0.004-0.006,0.007
	c0.011-0.018,0.013-0.035-0.004-0.047v-0.001C31.674,45.489,31.688,45.493,31.705,45.497"/>
<path fill="#6E7072" d="M31.639,45.571c0,0,0,0,0-0.002C31.639,45.571,31.639,45.571,31.639,45.571 M31.639,45.569
	c0.008-0.014,0.015-0.027,0.024-0.038C31.656,45.545,31.643,45.559,31.639,45.569"/>
<path fill="#6E7072" d="M32.246,45.989c-0.004,0.005-0.016,0.01-0.028,0.01c-0.162-0.006-0.27-0.027-0.417-0.043
	c-0.12-0.038-0.233-0.086-0.354-0.121c-0.033-0.003-0.063,0.008-0.098,0.016c0.041-0.019,0.083-0.037,0.13-0.057
	c0.061-0.035,0.139,0.104,0.238,0.125c0,0.002,0.002,0.002,0.003,0c0.003-0.003,0.006-0.02,0.008-0.035
	c0.004-0.016,0.007-0.033,0.013-0.039c0.005-0.004,0.008-0.004,0.014,0c0.072,0.027,0.136,0.074,0.202,0.072
	c0.011,0.007,0.021,0,0.031-0.013c0.008-0.009,0.015-0.019,0.022-0.028c0.007-0.011,0.015-0.021,0.021-0.029
	c0.011-0.012,0.021-0.019,0.031-0.012C32.123,45.857,32.272,45.959,32.246,45.989"/>
<path fill="#6E7072" d="M31.059,45.643c-0.034-0.006-0.041-0.027-0.022-0.049c0-0.003,0.002-0.004,0.004-0.004
	c-0.078,0.061-0.153,0.068-0.228,0.059c0.006-0.025,0.006-0.058,0.021-0.074c0.003-0.002,0.004-0.004,0.006-0.006
	c0.015,0.013,0.044,0.037,0.044,0.037c0.001,0,0.002,0,0.002-0.004c0.069-0.076,0.136-0.045,0.206-0.014L31.059,45.643
	L31.059,45.643z"/>
<path fill="#6E7072" d="M30.809,45.659c-0.014-0.006-0.029-0.012-0.044-0.017l0.001-0.003c0.017,0.004,0.031,0.008,0.047,0.01
	L30.809,45.659L30.809,45.659z"/>
<path fill="#6E7072" d="M39.116,44.743c-0.11,0.125-0.273,0.096-0.507,0.294c0.001-0.004,0.005-0.007,0.007-0.011
	c0.062-0.069,0.004-0.107-0.095-0.102c-0.099,0.008-0.239,0.062-0.34,0.176c-0.019,0.021-0.035,0.043-0.05,0.068
	c-0.023,0.041-0.051,0.074-0.076,0.105c-0.305,0.346-0.832,0.162-1.227,0.335c-0.109,0.046-0.231,0.05-0.368,0.08
	c-0.681,0.263-1.361,0.193-2.103,0.327c-0.197,0.025-0.383-0.052-0.556-0.089c-0.125-0.003-0.248,0.066-0.349,0.079
	c-0.153,0.019-0.293-0.008-0.428-0.042c0.147,0.003,0.256,0.024,0.416,0.021c0.016-0.002,0.024-0.005,0.029-0.01
	c0.025-0.029-0.129-0.126-0.191-0.146c-0.01-0.005-0.019-0.001-0.027,0.011c-0.008,0.009-0.016,0.02-0.023,0.031
	s-0.015,0.023-0.021,0.032c-0.01,0.012-0.02,0.015-0.028,0.012c-0.065,0.005-0.131-0.039-0.204-0.062
	c-0.008-0.003-0.011-0.003-0.015,0c-0.006,0.009-0.008,0.024-0.011,0.042c-0.001,0.016-0.003,0.031-0.007,0.035
	c0,0.002-0.001,0.002-0.003,0.002c-0.1-0.016-0.185-0.149-0.243-0.113c-0.046,0.023-0.087,0.043-0.126,0.063
	c-0.026,0.008-0.051,0.013-0.079,0.013c-0.018-0.01-0.036-0.018-0.055-0.024c-0.131-0.056-0.281-0.102-0.419-0.14l0.002-0.01
	c-0.017,0-0.033-0.004-0.047-0.006c0.006-0.015,0.019-0.029,0.034-0.047c0.039-0.045,0.093-0.091,0.093-0.091
	c0.199-0.011,0.386-0.026,0.566-0.056c0.016,0.02,0.029,0.044,0.045,0.029c0.005-0.01,0.012-0.02,0.019-0.025
	c0.008-0.008,0.015-0.014,0.021-0.02l0.079-0.014l0.028,0.006l-0.014-0.008l0.18-0.035c0.015,0.002,0.028,0.003,0.038,0.005
	c0.038,0.009,0.075,0.018,0.099-0.011c0.005-0.006,0.012-0.014,0.015-0.024l0.031-0.007l-0.004,0.01l0.01-0.012l0.137-0.029
	c0.087-0.02,0.176-0.041,0.268-0.062c0.584-0.141,1.128-0.211,1.733-0.356c0.326-0.085,0.637-0.183,0.938-0.302
	c0.596-0.233,1.188-0.193,1.76-0.592c0.22-0.141,0.673-0.18,0.903-0.215c0.342,0.113,0.282,0.613,0.272,0.643
	C39.194,44.621,39.161,44.692,39.116,44.743 M33.529,45.428c0.038,0.013,0.083-0.005,0.117-0.045
	c0.008-0.007,0.014-0.018,0.021-0.026c-0.043-0.026-0.075-0.013-0.103,0.02C33.551,45.391,33.539,45.41,33.529,45.428
	 M33.423,45.518c0.015,0.018,0.031,0.031,0.043,0.02C33.454,45.549,33.438,45.536,33.423,45.518 M33.471,45.531
	c-0.001,0.001-0.004,0.005-0.004,0.005S33.47,45.532,33.471,45.531 M33.529,45.428c-0.021,0.035-0.04,0.076-0.058,0.1l-0.001,0.003
	l0.001-0.003C33.489,45.504,33.508,45.463,33.529,45.428 M33.472,45.379c0.008,0.014,0.017,0.023,0.025,0.031
	C33.488,45.403,33.479,45.393,33.472,45.379 M33.377,45.504c-0.003,0.005-0.009,0.014-0.011,0.027
	C33.368,45.518,33.374,45.509,33.377,45.504 M33.379,45.503L33.379,45.503L33.379,45.503L33.379,45.503z M32.941,45.513
	c0.024,0.002,0.048,0.001,0.065-0.018c0.005-0.005,0.009-0.015,0.013-0.024L32.87,45.5c0.012,0.004,0.027,0.005,0.037,0.006
	c0.001,0.001,0.002,0.001,0.004,0.001c-0.003,0.001-0.004,0.003-0.008,0.004C32.917,45.51,32.931,45.513,32.941,45.513
	 M32.859,45.499L32.859,45.499c0.017,0.012,0.017,0.027,0.007,0.047c-0.008,0.012-0.018,0.025-0.024,0.043
	c0.005-0.012,0.017-0.027,0.024-0.043c0.004-0.004,0.006-0.008,0.01-0.01c0.008-0.012,0.02-0.021,0.027-0.025
	C32.891,45.506,32.876,45.503,32.859,45.499 M32.368,45.794c0.026-0.007,0.059-0.036,0.085-0.044
	C32.427,45.758,32.395,45.788,32.368,45.794 M32.242,45.647c-0.02,0.024-0.013,0.047,0.024,0.051l0.027-0.059
	c-0.066-0.023-0.136-0.049-0.193,0.02c-0.006,0.006-0.009,0.01-0.013,0.015c0,0-0.031-0.022-0.047-0.034
	c-0.003,0.001-0.003,0.003-0.005,0.004c-0.016,0.021-0.014,0.051-0.016,0.078c0.074,0.005,0.149-0.01,0.225-0.076
	C32.245,45.647,32.243,45.647,32.242,45.647 M38.609,45.037c-0.011,0.008-0.021,0.016-0.032,0.026
	C38.589,45.052,38.597,45.044,38.609,45.037 M32.253,45.637c-0.002,0.002-0.007,0.005-0.008,0.008
	C32.246,45.642,32.248,45.639,32.253,45.637"/>
<path fill="#6E7072" d="M31.617,43.373c-0.018,0.009-0.036,0.021-0.053,0.042c-0.023,0.012-0.037-0.012-0.054-0.033L31.617,43.373
	L31.617,43.373z"/>
<path fill="#6E7072" d="M31.752,43.37c-0.012-0.003-0.024-0.006-0.035-0.008l0.02-0.001L31.752,43.37L31.752,43.37z"/>
<path fill="#6E7072" d="M31.903,43.381c-0.032,0.008-0.064,0.007-0.095,0C31.835,43.373,31.865,43.37,31.903,43.381"/>
<path fill="#6E7072" d="M31.809,43.381c-0.02,0.008-0.038,0.021-0.052,0.033c0.01-0.016,0.016-0.033-0.005-0.045l0,0
	C31.771,43.374,31.789,43.379,31.809,43.381"/>
<path fill="#6E7072" d="M31.722,43.458C31.722,43.458,31.722,43.457,31.722,43.458C31.722,43.457,31.722,43.458,31.722,43.458
	 M31.723,43.457c0.006-0.011,0.014-0.02,0.022-0.027c0.003-0.006,0.007-0.009,0.012-0.015c-0.005,0.008-0.011,0.016-0.017,0.021
	c-0.003,0.001-0.004,0.004-0.004,0.005c-0.002,0.002-0.003,0.003-0.005,0.004C31.728,43.45,31.723,43.454,31.723,43.457"/>
<path fill="#6E7072" d="M32.475,43.875c-0.004,0.005-0.015,0.009-0.037,0.009c-0.202-0.003-0.335-0.029-0.518-0.041
	c-0.149-0.039-0.291-0.084-0.442-0.121c-0.041-0.004-0.081,0.004-0.121,0.012c0.052-0.017,0.104-0.034,0.163-0.052
	c0.077-0.034,0.173,0.104,0.294,0.124c0.004,0.002,0.005,0.002,0.006-0.002c0.005-0.002,0.007-0.02,0.011-0.035
	c0.002-0.014,0.007-0.029,0.014-0.035c0.006-0.006,0.012-0.008,0.021-0.004c0.09,0.029,0.168,0.074,0.251,0.072
	c0.038,0.022,0.094-0.104,0.131-0.081C32.322,43.747,32.504,43.842,32.475,43.875"/>
<path fill="#6E7072" d="M30.996,43.526c-0.04-0.006-0.052-0.025-0.034-0.044c0.004-0.006,0.006-0.007,0.011-0.009
	c-0.099,0.058-0.192,0.068-0.285,0.057c0.003-0.023,0.006-0.054,0.021-0.07c0.005-0.004,0.009-0.007,0.013-0.01
	c0.018,0.012,0.057,0.039,0.057,0.039c0.084-0.081,0.171-0.051,0.258-0.02L30.996,43.526L30.996,43.526z"/>
<path fill="#6E7072" d="M30.685,43.54c-0.021-0.006-0.039-0.012-0.057-0.018l0.001-0.002c0.019,0.002,0.037,0.008,0.059,0.01
	L30.685,43.54L30.685,43.54z"/>
<path fill="#6E7072" d="M41.081,42.147c-0.139,0.156-0.343,0.137-0.643,0.37c0.007-0.005,0.013-0.012,0.018-0.018
	c0.066-0.075-0.018-0.104-0.147-0.081c-0.129,0.024-0.307,0.104-0.428,0.24c-0.012,0.016-0.024,0.029-0.037,0.046
	c-0.02,0.028-0.038,0.054-0.059,0.077c-0.377,0.426-1.057,0.278-1.568,0.49c-0.137,0.057-0.291,0.068-0.458,0.112
	c-0.854,0.317-1.708,0.29-2.639,0.464c-0.249,0.031-0.479-0.041-0.697-0.068c-0.153,0.004-0.309,0.076-0.435,0.09
	c-0.196,0.019-0.368,0-0.534-0.033c0.182,0,0.315,0.018,0.519,0.013c0.021-0.001,0.032-0.006,0.038-0.013
	c0.027-0.029-0.158-0.122-0.236-0.141c-0.017-0.008-0.031,0.006-0.048,0.023c-0.006,0.008-0.011,0.014-0.017,0.021
	c-0.006,0.006-0.012,0.012-0.017,0.02c-0.018,0.02-0.033,0.031-0.048,0.023c-0.081,0.01-0.162-0.032-0.255-0.053
	c-0.008-0.004-0.014-0.004-0.017,0.002c-0.008,0.008-0.012,0.025-0.014,0.041c-0.003,0.016-0.003,0.029-0.008,0.035
	c-0.002,0.001-0.005,0.003-0.007,0.001c-0.124-0.013-0.229-0.148-0.302-0.111c-0.059,0.021-0.109,0.042-0.16,0.062
	c-0.032,0.008-0.064,0.018-0.098,0.014c-0.022-0.006-0.047-0.014-0.069-0.021c-0.162-0.054-0.349-0.094-0.521-0.138l0.003-0.009
	c-0.019-0.002-0.039-0.004-0.06-0.006c0.003-0.006,0.008-0.01,0.014-0.016c0.046-0.055,0.151-0.119,0.151-0.117
	c0.25-0.012,0.484-0.038,0.711-0.068c0.02,0.022,0.035,0.045,0.057,0.031c0.003-0.004,0.006-0.007,0.007-0.009
	c0.014-0.017,0.029-0.027,0.043-0.036l0.101-0.013l0.035,0.007l-0.016-0.01l0.226-0.041c0.018,0,0.034,0.002,0.048,0.005
	c0.05,0.007,0.098,0.014,0.128-0.021c0.004-0.004,0.009-0.012,0.013-0.02l0.04-0.008l-0.006,0.012l0.013-0.014
	c0.057-0.01,0.114-0.021,0.17-0.033c0.111-0.021,0.225-0.041,0.338-0.066c0.732-0.169,1.418-0.256,2.174-0.447
	c0.407-0.102,0.793-0.23,1.168-0.369c0.747-0.285,1.483-0.299,2.189-0.758c0.272-0.168,0.83-0.257,1.114-0.322
	c0.423,0.076,0.357,0.584,0.347,0.617C41.168,42.018,41.13,42.092,41.081,42.147 M34.097,43.29c0.054,0.015,0.118-0.012,0.167-0.068
	c0.001-0.002,0.005-0.006,0.006-0.008c-0.062-0.031-0.108,0-0.148,0.045C34.112,43.27,34.103,43.28,34.097,43.29 M34.019,43.394
	L34.019,43.394L34.019,43.394 M34.026,43.385L34.026,43.385L34.026,43.385L34.026,43.385z M34.046,43.362
	c-0.008,0.008-0.014,0.018-0.02,0.022C34.032,43.379,34.038,43.37,34.046,43.362 M34.021,43.391l0.002-0.002L34.021,43.391
	 M34.066,43.331c-0.007,0.01-0.013,0.019-0.019,0.028C34.054,43.349,34.06,43.34,34.066,43.331 M34.096,43.29
	c-0.007,0.01-0.016,0.021-0.022,0.031C34.08,43.31,34.089,43.299,34.096,43.29 M33.903,43.37c0.016-0.021,0.037-0.003,0.058,0.012
	C33.94,43.367,33.919,43.349,33.903,43.37 M34.026,43.241c0.006,0.01,0.012,0.016,0.021,0.024
	C34.038,43.256,34.032,43.25,34.026,43.241 M33.89,43.395c0,0.002-0.002,0.002-0.002,0.004C33.888,43.397,33.89,43.397,33.89,43.395
	 M33.898,43.375c-0.004,0.006-0.006,0.013-0.009,0.02C33.893,43.388,33.895,43.381,33.898,43.375 M33.899,43.374v0.002V43.374
	 M33.901,43.373c-0.001,0-0.001,0.001-0.002,0.001C33.9,43.374,33.9,43.373,33.901,43.373 M33.901,43.37L33.901,43.37L33.901,43.37
	L33.901,43.37z M33.357,43.389c0.033,0.002,0.065,0,0.086-0.025c0.007-0.005,0.011-0.012,0.015-0.02l-0.189,0.037
	c-0.004,0-0.007-0.002-0.012-0.002h0.002c0.019,0.01,0.015,0.026,0.005,0.046c-0.001,0.001-0.002,0.001-0.005,0.004
	c-0.009,0.011-0.018,0.024-0.026,0.038c0.006-0.01,0.021-0.026,0.031-0.042c0.014-0.017,0.03-0.03,0.05-0.037
	c-0.014-0.004-0.03-0.006-0.044-0.007c0.019,0,0.032,0,0.047,0.002c0.002,0,0.002,0.001,0.005,0.001
	c-0.003,0-0.005,0.001-0.008,0.004C33.329,43.389,33.343,43.389,33.357,43.389 M32.634,43.678c0.031-0.009,0.075-0.035,0.104-0.045
	C32.709,43.643,32.665,43.669,32.634,43.678 M32.475,43.537c-0.021,0.022-0.008,0.044,0.033,0.046l0.035-0.057
	c-0.089-0.025-0.178-0.047-0.257,0.033c0,0-0.04-0.023-0.059-0.033c-0.005,0.002-0.009,0.004-0.011,0.008
	c-0.018,0.019-0.016,0.047-0.019,0.072c0.096,0.008,0.188-0.006,0.281-0.075C32.479,43.534,32.475,43.536,32.475,43.537
	 M40.438,42.517c-0.012,0.011-0.025,0.02-0.039,0.032C40.411,42.538,40.427,42.528,40.438,42.517 M32.492,43.522
	c-0.003,0.004-0.007,0.006-0.013,0.009C32.484,43.528,32.488,43.526,32.492,43.522"/>
</svg>
