<?xml version="1.0" encoding="utf-8"?>
<!-- Generator: Adobe Illustrator 15.1.0, SVG Export Plug-In  -->
<!DOCTYPE svg PUBLIC "-//W3C//DTD SVG 1.1//EN" "http://www.w3.org/Graphics/SVG/1.1/DTD/svg11.dtd" [
	<!ENTITY ns_flows "http://ns.adobe.com/Flows/1.0/">
]>
<svg version="1.1"
	 xmlns="http://www.w3.org/2000/svg" xmlns:xlink="http://www.w3.org/1999/xlink" xmlns:a="http://ns.adobe.com/AdobeSVGViewerExtensions/3.0/"
	 x="0px" y="0px" width="66px" height="69px" viewBox="-0.408 -0.441 66 69"
	 overflow="visible" enable-background="new -0.408 -0.441 66 69" xml:space="preserve">
<defs>
</defs>
<g>
	<ellipse fill="#FFFFFF" cx="32.986" cy="33.595" rx="31.111" ry="32.187"/>
	<g>
		<g>
			<g>
				<g>
					<path fill="#6E7072" d="M54.27,9.055c0.024,0,0.048-0.006,0.072-0.022C54.3,9.029,54.279,9.039,54.27,9.055z"/>
					<path fill="#6E7072" d="M40.385,1.095l0.191,0.016C40.456,1.084,40.406,1.084,40.385,1.095z"/>
					<path fill="#6E7072" d="M60.116,16.619c-0.012-0.009-0.015-0.007-0.024-0.013l0.323,0.589L60.116,16.619z"/>
					<path fill="#6E7072" d="M8.611,10.96l0.143-0.167C8.687,10.865,8.641,10.911,8.611,10.96z"/>
					<path fill="#6E7072" d="M26.314,0.768c-0.057,0.041-0.161,0.074-0.262,0.106C26.184,0.849,26.287,0.819,26.314,0.768z"/>
					<path fill="#6E7072" d="M61.015,21.676l-0.007-0.278C60.972,21.418,60.966,21.521,61.015,21.676z"/>
					<path fill="#6E7072" d="M63.534,30.649c0.007-0.008,0.013-0.01,0.02-0.026C63.543,30.611,63.538,30.626,63.534,30.649z"/>
					<path fill="#6E7072" d="M63.38,26.939l-0.096-0.252C63.311,26.797,63.34,26.938,63.38,26.939z"/>
					<path fill="#6E7072" d="M63.236,26.568l0.049,0.119C63.267,26.619,63.251,26.562,63.236,26.568z"/>
					<path fill="#6E7072" d="M65.261,35.141c0.013-0.284-0.047-0.529-0.103-0.785L65.261,35.141z"/>
					<path fill="#6E7072" d="M0.873,40.691l-0.051-0.054C0.846,40.692,0.861,40.7,0.873,40.691z"/>
					<path fill="#6E7072" d="M64.446,34.759l0.027-0.195C64.455,34.635,64.448,34.699,64.446,34.759z"/>
					<path fill="#6E7072" d="M58.636,17.392c-0.217-0.18-0.402-0.704-0.48-0.651C58.319,16.971,58.46,17.35,58.636,17.392z"/>
					<path fill="#6E7072" d="M6.113,45.745l0.072,0.156C6.153,45.825,6.132,45.779,6.113,45.745z"/>
					<path fill="#6E7072" d="M64.446,34.759l-0.03,0.227c0.019-0.019,0.033-0.044,0.049-0.066
						C64.453,34.868,64.446,34.814,64.446,34.759z"/>
					<polygon fill="#6E7072" points="21.196,65.294 21.187,65.29 21.118,65.281 					"/>
					<path fill="#6E7072" d="M22.811,66.045l-0.37-0.093C22.628,66.026,22.733,66.045,22.811,66.045z"/>
					<path fill="#6E7072" d="M65.159,34.356l-0.067-0.445C65.1,34.071,65.128,34.216,65.159,34.356z"/>
					<path fill="#6E7072" d="M41.652,66.366l-0.165,0.059C41.559,66.405,41.613,66.387,41.652,66.366z"/>
					<path fill="#6E7072" d="M27.627,0.57l0.153-0.005C27.793,0.54,27.781,0.527,27.627,0.57z"/>
					<polygon fill="#6E7072" points="16.999,7.388 16.996,7.39 16.997,7.392 					"/>
					<path fill="#6E7072" d="M17.475,6.945c-0.181,0.088-0.385,0.302-0.476,0.443C17.168,7.279,17.315,7.159,17.475,6.945z"/>
					<path fill="#6E7072" d="M15.841,8.129l0.067-0.034C15.883,8.105,15.861,8.115,15.841,8.129z"/>
					<polygon fill="#6E7072" points="27.599,3.238 27.597,3.229 27.591,3.238 					"/>
					<path fill="#6E7072" d="M25.139,3.834c-0.048-0.005-0.111-0.002-0.18,0.007C25.005,3.847,25.066,3.846,25.139,3.834z"/>
					<polygon fill="#6E7072" points="11.312,12.544 11.311,12.54 11.303,12.55 					"/>
					<path fill="#6E7072" d="M3.978,34.43c-0.142-2.344-0.035-5.434,0.554-7.709c-0.071-0.539,0.093-1.271,0.269-2.002l0.267-0.005
						l0.104-0.619c0.15-0.218-0.098,0.472,0.129,0.074l-0.081-0.273c0.098-0.022,0.577-1.491,0.408-0.446
						c0.263-0.757,0.552-1.505,0.872-2.24c0.226-0.481-0.069-0.373,0.236-0.882c0.12-0.075-0.046,0.214,0.059,0.209
						c0.936-1.495,0.469-2.062,1.43-3.439l-0.045,0.139c0.09-0.277,0.391-0.727,0.362-0.753c-0.331,0.042-0.044,0.327-0.443,0.677
						c-0.163-0.154,0.242-0.6,0.085-0.661c0.277-0.29,0.309-0.546,0.489-0.841c0.446-0.403,0.863-1.14,1.274-1.378
						c0.12-0.268,0.155-0.652,0.547-1.132c0.417-0.226,0.056,0.184,0.495-0.231l-0.031-0.156c0.345-0.354,0.319-0.272,0.351-0.219
						c0.356-0.387,0.171-0.441,0.685-0.865l-0.166,0.351c0.302-0.386,0.455-0.515,0.951-0.979c0.041,0.063-0.162,0.245-0.315,0.372
						c0.391-0.125,0.396-0.496,0.554-0.622c-0.078,0-0.436,0.31-0.355,0.06c0.255-0.22,0.414-0.618,0.691-0.674l-0.191,0.34
						c0.454-0.55,0.174-0.373,0.816-0.872c-0.027,0.036,0.009,0.045,0.013,0.078c0.291-0.454,0.9-0.774,1.516-1.215l-0.095,0.113
						c0.217-0.218,0.286-0.41,0.427-0.498c-0.396,0.193-0.319,0.1-0.424,0.024c0.587-0.171,0.571-0.719,1.435-1.141
						c0.025,0.069-0.118,0.263-0.374,0.348c-0.146,0.358-0.079,0.525-0.48,0.937c0.255-0.248,0.583-0.507,0.561-0.382l-0.021-0.226
						c0.175-0.124,0.32-0.212,0.458-0.299c0.009-0.155-0.48,0.065-0.104-0.274C17.333,6.754,17.253,7.124,17.28,7
						c0.618-0.476,0.159-0.355,0.837-0.683c-0.056,0.052-0.166,0.153-0.229,0.172c0.499-0.208,1.13-0.687,1.382-0.548
						c-0.044,0.085-0.023,0.155-0.21,0.234L19.048,6.14c-0.43,0.432,0.407-0.275,0.348,0.001C19.3,6.047,19.975,5.725,20.29,5.604
						l-0.161-0.085c0.827-0.878,0.066,0.276,1.046-0.233c0.599-0.379-0.258,0.072,0.092-0.199c0.448-0.164,0.657-0.12,1.28-0.429
						c0.2-0.021,0.596-0.078,0.682,0.064c0.369-0.212,1.221-0.338,1.401-0.557c-0.726,0.081-0.625,0.373-1.482,0.452l0.168-0.231
						c0.55-0.188,1.238-0.489,1.642-0.543c-0.086-0.008-0.133-0.038-0.093-0.084c0.785-0.281,0.98-0.501,1.788-0.633
						c0.137,0.123-0.335,0.193-0.667,0.293c0.535-0.009,0.533-0.124,1.338-0.24c0.066,0.116-0.537,0.099-0.601,0.246l0.868-0.22
						c-0.002,0.008,0.003,0.017,0.005,0.026c0.089-0.234,0.675-0.108,1.206-0.246c1.284-0.172,1.455-0.463,2.171-0.689
						c0.199,0.044,0.26,0.095,0.181,0.154c-0.328-0.074-0.266-0.003-0.374,0.06c0.442-0.054,0.975,0.152,0.734,0.25
						c0.692-0.088-0.257-0.103,0.167-0.186c0.319-0.009,0.638-0.016,0.957-0.012c-0.113-0.108-0.455-0.127,0.044-0.217
						c0.421-0.038,0.624-0.007,1.175,0.009c-0.081,0.052,0.167,0.169-0.243,0.154c0.263,0.043,0.674,0.071,0.839-0.031
						c-0.596-0.132,0.991-0.037,0.555-0.229l0.594,0.146c-0.138-0.014-0.158,0.055-0.358,0.018c0.157,0.178,0.494-0.002,0.707,0
						c0.209,0.05,0.753,0.134,0.79,0.202c0.194-0.022,0.65,0.083,0.723,0.179c0.284,0.01,0.039-0.104,0.129-0.145l0.947,0.183
						c0.032,0.1,0.062,0.366-0.085,0.372c0.369-0.012,0.179-0.244,0.714-0.123c-0.343,0.105,0.674,0.293,0.186,0.4
						c0.276,0.188,1.129,0.403,1.609,0.494c0.33-0.054-0.486-0.219-0.419-0.351c1.337,0.323,1.543-0.016,2.488,0.39l-0.237-0.129
						c0.631,0.144,0.558,0.132,0.95,0.157c-0.229,0.104,0.504,0.7,1.461,1.103c0.119-0.045-0.462-0.397-0.249-0.458l0.648,0.268
						c0.039,0.035-0.043,0.028-0.134,0.01c0.597,0.212,0.938,0.724,1.195,0.621L47.1,6.114l-0.166-0.219
						c0.119-0.04,0.744,0.279,0.886,0.326c0.669,0.279,0.852,0.486,1.117,0.794c-0.063-0.129-0.236-0.441,0.255-0.157
						c-0.16,0.235,0.926,0.75,0.821,0.87c0.188,0.131,0.462,0.436,0.553,0.358l-0.139,0.122c0.192-0.172,0.852,0.335,1.372,0.706
						c-0.331,0.174,0.559,0.424,0.561,0.851c0.247-0.102,0.898,0.682,1.112,0.618c0.362,0.333,0.176,0.455,0.212,0.593l0.222,0.099
						c0.098,0.25,0.726,0.914,1.025,1.373l0.488,0.242l0.052,0.204c0.092,0.026,0.39,0.327,0.278,0.079l0.167,0.218
						c0.185-0.124,0.297,0.254,0.71,0.632c0.05,0.123-0.014,0.129-0.11,0.053c0.167,0.218,0.003,0.196,0.035,0.359
						c-0.07-0.196,0.914,0.551,0.552-0.107c0.043-0.097,0.357,0.216,0.487,0.459l-0.068,0.254l0.362,0.144
						c0.272,0.333,0.26,0.562,0.436,0.86c-0.21-0.288-0.755-0.433-0.253,0.315c-0.284-0.381-0.505-0.513-0.679-0.687
						c0.1,0.156,0.136,0.243-0.1,0.055c0.445,0.542,0.234,0.122,0.641,0.685c-0.172,0.066-0.114,0.261,0.152,0.802l-0.128-0.451
						c0.03,0.006,0.06,0.023,0.088,0.047c-0.076-0.155-0.078-0.211-0.039-0.28c0.072,0.115,0.622,0.564,0.585,0.723
						C58.469,16.299,59.4,18,59.316,17.53c0.087,0.043,0.338,0.469,0.28,0.559c-0.399-0.452,0.029,0.487-0.128,0.462
						c0.149,0.168-0.101-0.467,0.1-0.241c0.18,0.301,0.192,0.583,0.231,0.782l-0.097-0.114l0.168,0.516
						c0.122,0.039-0.093-0.536,0.169-0.111c0.022,0.135,0.28,0.562,0.208,0.579c-0.214-0.159-0.289,0.065-0.498-0.299
						c0.169,0.302,0.639,1.305,0.609,0.828l0.163,0.384c-0.031-0.271-0.214-0.998,0.156-0.241l-0.036,0.008l0.354,0.486l0.012,0.271
						c0.04-0.024,0.112,0.045,0.19,0.25c-0.03,0.073,0.024,0.271-0.049,0.281c0.232,0.585,0.296,0.507,0.375,0.565
						c0.136,0.328,0.137,0.466-0.016,0.345c0.138,0.462,0.418,1.256,0.414,1.599c0.256,0.596,0-0.138,0.222,0.19
						c-0.141,0.619,0.426,2.085,0.643,3.12c0.218-0.331,0.088,0.275,0.361,0.426c-0.121-0.209-0.053,1.022-0.274,0.124l0.116,0.551
						c-0.092,0.399-0.256-0.897-0.371-0.295c0.104,0.613,0.457,0.983,0.435,1.732c-0.217-0.228,0.118,0.561-0.114,0.397
						c-0.082-0.146-0.079-0.351-0.119-0.556l-0.024,0.131c0.066,1.367,0.27,0.373,0.459,1.082c0.077,0.84-0.115,0.67-0.204,0.724
						c-0.034,0.132,0.013,0.55,0.069,0.77c-0.135-0.506,0.09-0.949,0.222-0.719c-0.202,0.378,0.016,1.248,0.104,1.48
						c0.219-1.213,0.006-0.834,0.203-1.984c-0.083-0.153-0.269-0.114-0.245-0.798c0.135,0.418,0.108-0.039,0.13-0.163
						c-0.102,0.142-0.087-0.468-0.162-0.669c0.072-0.201,0.31,0.381,0.279-0.318l-0.283-0.098c0.005-0.273,0.212,0.09,0.07-0.476
						c0.18,0.292,0.211-0.125,0.348,0.654c0.116-0.966-0.314-1.42-0.54-2.115c0.03,0.07,0.067,0.072,0.098,0.141
						c-0.098-0.141-0.145-0.418-0.2-0.626c-0.035-0.484,0.194,0.349,0.24,0.213l-0.162-0.765c0.005-0.017,0.009-0.022,0.015-0.023
						c-0.077-0.195-0.146-0.378-0.098-0.464c0.139,0.207,0.245,0.278,0.347,0.418l-0.367-0.764c0.11,0.067-0.014-0.699,0.19-0.144
						c-0.113-0.393-0.223-0.787-0.351-1.174l0.146-0.15c-0.112-0.274-0.148-0.271-0.073,0.073c-0.062-0.425-0.86-1.675-0.452-1.579
						c-0.459-0.861-0.521-1.208-1.057-2.246c0.507,0.761-0.21-1.031,0.236-0.186c-0.15-0.545-0.379-0.571-0.593-0.955
						c-0.107-0.405,0.134-0.319,0.387,0.06l-0.302-0.44l0.036-0.007l-0.293-0.366c-0.133-0.476,0.117-0.174-0.089-0.633
						l-0.193-0.021l-0.078-0.343c-0.007,0.147-0.171-0.101-0.361-0.411l0.035-0.011l-0.245-0.369
						c0.302,0.332-0.17-0.368,0.029-0.252c-0.192-0.327-0.189-0.338-0.58-0.901l-0.029,0.16c-0.56-0.699,0.122-0.121-0.264-0.732
						l-0.081,0.107c-0.396-0.991-1.103-1.381-1.458-2.068c0.294,0.329,0.343,0.154,0.309,0.167
						c-0.437-0.501-1.097-1.363-1.668-1.774c-0.031-0.306-0.021-0.395-0.448-0.968c-0.36-0.369-0.43-0.409-0.624-0.454
						c-0.294-0.41-1.049-0.975-0.978-1.087c-0.158,0.001-0.313-0.322-0.581-0.436L53.68,8.54l-0.052,0.124
						c-0.476-0.803-1.234-0.844-1.785-1.581l0.144,0.065l-0.33-0.187c-0.015-0.08,0.128-0.015,0.187-0.062
						c-0.46-0.361-0.934-0.705-1.414-1.039l0.231,0.273c-0.312-0.198-0.584-0.235-0.896-0.527c0.691,0.22-0.483-0.324-0.508-0.5
						l0.349,0.155c-0.446-0.26-0.446-0.26-0.477-0.128c-0.592-0.308-0.271-0.441-0.871-0.634l0.377,0.225
						c0.073,0.129-0.25,0.06-0.502-0.087c-0.051-0.05-0.205-0.199-0.002-0.105c-0.479-0.214-1.15-0.633-1.38-0.689
						c-0.238-0.159-0.115-0.2,0.038-0.163c-1.062-0.387-0.446-0.248-1.521-0.607l0.047-0.059L44.924,2.94l-0.455-0.35l0.15,0.16
						c-0.35-0.123-0.58-0.165-0.973-0.349l0.201-0.041c-1-0.303-1.087-0.574-2.084-0.725c-0.061-0.038,0.098-0.028,0.179-0.02
						c-0.934-0.092-0.621-0.382-1.576-0.412c0.064-0.021-0.024-0.089,0.019-0.11l-0.43-0.029l0.064-0.133l-0.384,0.131l-0.225-0.2
						l-0.177,0.036c-0.391-0.363-1.062-0.275-1.646-0.568l0.079,0.196c-1.587,0.135-3.549-0.602-5.462-0.378l0.031-0.145
						l-0.777,0.198C31.033,0.105,31.705,0.069,31.571,0c-0.835,0.124-0.339,0.226-1.305,0.34c-0.504-0.05,0.163-0.126,0.394-0.19
						c-0.908,0.13-2.229,0.382-2.879,0.415c-0.012,0.021-0.047,0.053-0.013,0.056c-0.589,0.158-1.384,0.258-2.036,0.418
						c0.001-0.068,0.161-0.115,0.32-0.165c-0.237,0.042-0.57,0.074-0.753,0.192l0.215-0.183c-0.51,0.096-1.438,0.473-1.588,0.369
						c0.076,0.036,0.081,0.147-0.346,0.271c-0.306-0.144-1.125,0.464-1.831,0.605c0.061-0.082,0.551-0.27,0.411-0.223
						c-0.359,0.065-0.624,0.283-0.89,0.461l0.057-0.118c-0.502,0.242-0.996,0.499-1.483,0.767C19.521,2.91,18.447,3.73,18.478,3.54
						c-0.532,0.265,0.488-0.141-0.168,0.225c-0.222,0.01-0.574,0.363-0.616,0.22l0.062-0.053l-0.454,0.267l0.22-0.287
						c-0.383,0.25-0.597,0.541-0.562,0.645c-0.408,0.15-0.892,0.524-1.122,0.524l0.114-0.115c-0.978,0.695-1.887,0.798-2.502,1.574
						c-0.068,0.026-0.084-0.006,0.037-0.095l-0.595,0.456l0.073-0.194c-0.293,0.298-0.573,0.608-0.853,0.916l-0.035-0.065
						c-0.645,0.507-1.562,1.407-2.273,2.184l0.086-0.136c-0.713,0.908-0.814,0.76-1.312,1.444c0.005-0.036,0.018-0.062,0.035-0.087
						l-0.49,0.578l0.054-0.174c-0.243,0.525-1.166,1.126-0.849,0.937c-0.145,0.291-0.402,0.781-0.386,0.909
						c-0.479,0.67-0.194,0.108-0.541,0.489c-0.351,0.486-0.306,0.642-0.8,1.286l-0.052-0.053c-0.194,0.325-0.273,0.554-0.535,1.011
						l0.052-0.152c-0.307,0.814-0.728,0.827-0.77,1.571c-0.223,0.29-0.489,0.922-0.604,0.828c-0.389,1.004-0.683,1.785-1.018,2.793
						c-0.284,0.072-0.072,0.215-0.419,0.773l0.136-0.001c-0.497,1.406-1.286,2.982-1.573,4.63l-0.135,0.02l0.068,0.354
						C0.334,28.501,0.036,30.813,0,32.243c0.047,0.472,0.184,1.182,0.153,1.921l-0.019-0.079l0.341,4.042
						c-0.065-0.079-0.083,0.064-0.139-0.088c0.184,0.313,0.116,0.818,0.164,1.118l0.039-0.364c0.182,0.377,0.158,0.961,0.108,1.178
						l0.254,0.597c-0.004,0.044-0.01,0.111-0.028,0.123l0.089,0.096l-0.095,0.365c0.067,0.146,0.297,0.955,0.524,1.166
						c-0.039,0.071,0.068,0.654-0.077,0.22c0.179,0.75,0.385,1.495,0.618,2.231l-0.059-0.362c0.106-0.08,0.402,0.55,0.468,0.905
						c-0.255-0.408-0.186,0.023-0.202,0.245c0.173,0.272,0.011-0.295,0.134-0.163c0.211,0.345,0.555,1.102,0.581,1.316l-0.134-0.2
						c0.244,0.479,0.136,0.792,0.36,1.273c0.287,0.393,0.352,0.749,0.509,0.566c0.336,0.598-0.02,0.302,0.057,0.512
						c0.231,0.246,0.614,1.126,0.58,1.286c0.445,0.182,0.82,1.667,1.128,1.646l0.173,0.558c0.073-0.025,0.263-0.015,0.543,0.347
						c0.173,0.399,0.013,0.386,0.025,0.537l0.386,0.084c1.168,2.217,3.501,4.562,5.432,6.499c0.965,0.757,2.258,1.591,3.424,2.401
						l-0.151-0.058c0.381,0.279,0.765,0.556,1.157,0.819c-0.272-0.212-0.542-0.428-0.805-0.65c0.275,0.143,0.505,0.229,0.758,0.385
						c1.25,0.913,3.053,1.997,4.891,2.573c1.264,0.152,0.672,0.56,1.874,0.73c-0.105-0.005-0.154,0.024-0.25,0.024
						c1.251,0.301,1.94,0.437,3.222,0.547c-0.21,0.272,0.812,0.17,0.669,0.3l0.127-0.103c0.262,0.136,0.918,0.271,0.81,0.344
						l0.582-0.063l0.029,0.133c0.74,0.134,2.346,0.185,2.725,0.452c1.87-0.054,4.794-0.078,7.111-0.427
						c0.308-0.154,0.975-0.282,1.491-0.401l0.587,0.025c0.521-0.166,1.026-0.495,1.534-0.539c0.001,0.019-0.015,0.036-0.046,0.054
						c0.52-0.177,1.045-0.254,1.484-0.553c0.572-0.179,1.146-0.316,1.022-0.116c-0.03-0.248,1.204-0.429,1.205-0.437
						c-0.01-0.014,1.845-0.645,4.46-2.191c2.613-1.529,5.927-4.096,8.652-7.512c2.759-3.382,4.854-7.562,5.893-11.38
						c1.074-3.818,1.156-7.19,0.893-9.037c-0.114-0.255-0.173-0.937-0.329-0.68c-0.04-0.523,0.184-0.763,0.06-0.866
						c-0.092,0.71-0.32-0.219-0.483,0.47l-0.025-0.441c-0.088-0.092,0.093,0.601-0.066,0.49l0.231,0.128
						c-0.039,0.358-0.102,0.553-0.184,0.676c0.08,0.338,0.386,0.572,0.19,1.37l0.004-0.223c-0.045,0.656-0.184,0.389-0.233,0.521
						l0.015-0.144l-0.165,0.537c0.116-0.408-0.016-1.108-0.032-0.748c-0.132,0.768,0.073-0.195,0.052,0.387
						c-0.019,0.361-0.134,0.249-0.204,0.226l-0.062,0.645c-0.105-0.036,0.053-0.425-0.087-0.177c0.011,0.273,0.015,0.547,0.015,0.82
						c-0.287,0.112,0.002,0.899-0.316,1.224c0.031-0.587-0.098,0.036-0.171-0.07c-0.079,0.468-0.162,0.935-0.26,1.399
						c-0.064,0.124-0.005-0.383-0.036-0.169c-0.127,0.245-0.027,0.443-0.063,0.584c-0.096,0.104-0.25,1.032-0.42,0.947
						c-0.371,0.893,0.119,0.453-0.236,1.286c-0.137,0.081,0.181-0.69-0.042-0.341l-0.238,0.897
						c-0.023-0.096-0.115-0.228,0.012-0.551c-0.916,2.346-1.98,3.328-2.879,5.374c-0.268,0.214,0.034-0.239,0.057-0.48
						c-0.605,1.517-1.355,1.842-2.09,2.981l0.076,0.08c-1.335,1.385-2.627,3.274-4.276,4.659l0.237-0.123
						c-0.138,0.279-0.476,0.62-0.705,0.891c-0.077-0.004,0.032-0.34-0.397,0.108c0.123-0.053,0.342-0.204,0.32-0.111
						c-0.774,0.519-1.899,1.396-3.21,2.262c-1.308,0.868-2.809,1.707-4.19,2.282c-3.629,1.836-8.041,2.6-11.989,2.657
						c0.604-0.017,0.354,0.254-0.108,0.198c-1.237-0.457-2.176,0.019-3.418-0.435c-2.325-0.135-4.224-1.012-6.344-1.41l0.005-0.134
						c-0.281-0.163-0.392-0.112-0.71-0.225l0.022-0.03c-0.719-0.334-1.649-0.61-2.031-0.873l-0.089,0.117
						c-0.432-0.197-0.169-0.21-0.641-0.356l0.046-0.058l-0.563-0.146c0.165-0.187-1.156-0.676-1.416-0.982
						c-0.542-0.283-1.576-0.845-2.284-1.456c-0.064-0.203-0.958-0.91-1.455-1.443c-1.088-0.896-2.548-2.311-3.63-3.754l-0.107,0.128
						l-0.301-0.365c0.032-0.017,0.008-0.079,0.066-0.033c-0.079-0.397-0.704-0.832-0.825-1.212c0.017,0.279,0.169,0.285,0.327,0.502
						c0.17,0.355-0.186,0.158-0.421-0.319l0.035-0.013l-0.276-0.243c0.08-0.104-0.05-0.408,0.032-0.513
						c-0.88-1.267-1.6-2.08-2.264-3.546c0.195,0.089-0.526-1.027-0.162-0.84c-0.48-0.837-0.117,0.228-0.458-0.103
						c-0.11-0.246-0.277-0.485-0.214-0.564c0.104,0.093,0.054-0.261,0.16-0.067l-0.262-0.588c-0.004-0.064,0.079,0.054,0.121,0.113
						c-0.619-1.168-0.648-2.229-1.103-3.312c-0.11-0.061,0.104,0.454-0.005,0.397c-0.494-1.097-0.125-1.049-0.495-2.095l0.168,0.196
						c-0.153-0.328-0.301-0.459-0.308-1.055c0.124-0.128,0.208,0.465,0.336,0.726c-0.084-0.391-0.296-1.382-0.373-1.055
						c-0.127-0.468-0.025-0.663-0.025-0.924c-0.04-0.003-0.026,0.458-0.138,0.189c-0.018-0.661-0.139-1.665-0.182-2.467
						c0.036,0.005,0.088-0.055,0.109,0.015C3.727,35.257,4.049,35.306,3.978,34.43z"/>
					<path fill="#6E7072" d="M27.926,3.202l-0.327,0.037c0.006,0.032-0.001,0.071-0.143,0.135L27.926,3.202z"/>
					<path fill="#6E7072" d="M13.993,9.729c-0.023,0.036-0.047,0.07-0.063,0.107C13.986,9.778,13.995,9.749,13.993,9.729z"/>
					<path fill="#6E7072" d="M11.46,12.541c0.157-0.222-0.032-0.07-0.148,0.003C11.33,12.568,11.361,12.587,11.46,12.541z"/>
					<path fill="#6E7072" d="M36.741,2.611c-0.059,0.007-0.097,0.022-0.091,0.054C36.731,2.648,36.75,2.63,36.741,2.611z"/>
					<path fill="#6E7072" d="M57.153,15.108l-0.038-0.093C57.116,15.036,57.13,15.069,57.153,15.108z"/>
					<path fill="#6E7072" d="M56.516,13.876c-0.041-0.054-0.099-0.119-0.188-0.208C56.397,13.77,56.459,13.832,56.516,13.876z"/>
					<path fill="#6E7072" d="M30.781,2.507c-0.091,0.01-0.179,0.029-0.254,0.067C30.667,2.557,30.735,2.532,30.781,2.507z"/>
					<path fill="#6E7072" d="M56.123,13.468l-0.206-0.277c-0.009,0.005-0.017,0.006-0.025,0.014L56.123,13.468z"/>
					<path fill="#6E7072" d="M57.388,15.473c-0.074-0.113-0.179-0.261-0.235-0.364C57.219,15.271,57.296,15.382,57.388,15.473z"/>
					<path fill="#6E7072" d="M45.472,4.961l-0.035-0.013C45.166,4.894,45.33,4.939,45.472,4.961z"/>
					<polygon fill="#6E7072" points="54.958,12.485 54.931,12.447 54.834,12.4 					"/>
					<path fill="#6E7072" d="M58.156,16.74c-0.038-0.053-0.075-0.1-0.114-0.13l0.09,0.173C58.137,16.758,58.145,16.747,58.156,16.74
						z"/>
					<path fill="#6E7072" d="M49.833,7.746c0.109,0.012,0.161,0.003,0.18-0.017C49.918,7.663,49.845,7.641,49.833,7.746z"/>
				</g>
			</g>
		</g>
	</g>
</g>
<polygon fill="#6E7072" points="28.053,13.318 9.942,47.598 41.968,52.057 52.644,15.795 "/>
<polygon fill="#FFFFFF" points="31.336,16.472 47.434,18.131 44.622,25.964 27.25,23.805 "/>
<line fill="none" stroke="#FFFFFF" stroke-width="0.5" stroke-miterlimit="10" x1="25.75" y1="26.649" x2="44.095" y2="29.123"/>
<line fill="none" stroke="#FFFFFF" stroke-width="0.5" stroke-miterlimit="10" x1="24.892" y1="29.123" x2="43.237" y2="31.597"/>
<line fill="none" stroke="#FFFFFF" stroke-width="0.5" stroke-miterlimit="10" x1="24.055" y1="31.452" x2="42.4" y2="33.923"/>
<line fill="none" stroke="#FFFFFF" stroke-width="0.5" stroke-miterlimit="10" x1="22.594" y1="33.923" x2="40.939" y2="36.396"/>
<line fill="none" stroke="#FFFFFF" stroke-width="0.5" stroke-miterlimit="10" x1="21.551" y1="37.012" x2="39.896" y2="39.486"/>
<line fill="none" stroke="#FFFFFF" stroke-width="0.5" stroke-miterlimit="10" x1="20.163" y1="40.348" x2="31.765" y2="41.912"/>
<path fill="none" stroke="#FFFFFF" stroke-miterlimit="10" d="M37.667,49.275c0,0-5.272-6.11-2.261-6.27
	c3.013-0.159,3.83,2.985-3.156,4.081"/>
<line fill="none" stroke="#6E7072" stroke-miterlimit="10" x1="10.414" y1="47.12" x2="41.968" y2="55.033"/>
<line fill="none" stroke="#6E7072" stroke-miterlimit="10" x1="54.272" y1="17.822" x2="41.968" y2="52.057"/>
<line fill="none" stroke="#6E7072" stroke-miterlimit="10" x1="55.621" y1="21.217" x2="41.254" y2="55.033"/>
</svg>
