<?xml version="1.0" encoding="utf-8"?>
<!-- Generator: Adobe Illustrator 15.1.0, SVG Export Plug-In  -->
<!DOCTYPE svg PUBLIC "-//W3C//DTD SVG 1.1//EN" "http://www.w3.org/Graphics/SVG/1.1/DTD/svg11.dtd" [
	<!ENTITY ns_flows "http://ns.adobe.com/Flows/1.0/">
]>
<svg version="1.1"
	 xmlns="http://www.w3.org/2000/svg" xmlns:xlink="http://www.w3.org/1999/xlink" xmlns:a="http://ns.adobe.com/AdobeSVGViewerExtensions/3.0/"
	 x="0px" y="0px" width="66px" height="66px" viewBox="-0.695 -0.077 66 66"
	 overflow="visible" enable-background="new -0.695 -0.077 66 66" xml:space="preserve">
<defs>
</defs>
<g>
	<ellipse fill="#FFFFFF" cx="32.48" cy="32.263" rx="30.605" ry="30.852"/>
	<g>
		<g>
			<g>
				<g>
					<path fill="#6E7072" d="M53.268,8.574c0.024-0.001,0.048-0.007,0.07-0.025C53.297,8.548,53.277,8.558,53.268,8.574z"/>
					<path fill="#6E7072" d="M39.667,1.038l0.187,0.013C39.735,1.026,39.687,1.027,39.667,1.038z"/>
					<path fill="#6E7072" d="M59.08,15.819c-0.011-0.008-0.015-0.006-0.024-0.011l0.324,0.567L59.08,15.819z"/>
					<path fill="#6E7072" d="M8.634,10.348l0.144-0.159C8.712,10.26,8.665,10.301,8.634,10.348z"/>
					<path fill="#6E7072" d="M26.001,0.722c-0.055,0.04-0.156,0.072-0.254,0.103C25.875,0.801,25.975,0.773,26.001,0.722z"/>
					<path fill="#6E7072" d="M59.994,20.731l-0.009-0.27C59.949,20.481,59.946,20.581,59.994,20.731z"/>
					<path fill="#6E7072" d="M62.521,29.406c0.007-0.008,0.013-0.01,0.02-0.026C62.531,29.369,62.526,29.383,62.521,29.406z"/>
					<path fill="#6E7072" d="M62.363,25.805l-0.095-0.244C62.293,25.668,62.323,25.804,62.363,25.805z"/>
					<path fill="#6E7072" d="M62.218,25.446l0.05,0.115C62.25,25.495,62.234,25.441,62.218,25.446z"/>
					<path fill="#6E7072" d="M64.249,33.768c0.014-0.276-0.047-0.516-0.102-0.764L64.249,33.768z"/>
					<path fill="#6E7072" d="M0.881,39.172L0.83,39.12C0.854,39.173,0.87,39.18,0.881,39.172z"/>
					<path fill="#6E7072" d="M63.434,33.394l0.026-0.189C63.443,33.273,63.435,33.335,63.434,33.394z"/>
					<path fill="#6E7072" d="M57.616,16.619c-0.212-0.172-0.402-0.676-0.479-0.622C57.301,16.216,57.442,16.583,57.616,16.619z"/>
					<path fill="#6E7072" d="M6.118,43.989l0.071,0.151C6.158,44.066,6.137,44.022,6.118,43.989z"/>
					<path fill="#6E7072" d="M63.434,33.394l-0.03,0.22c0.018-0.018,0.032-0.042,0.049-0.063
						C63.441,33.5,63.434,33.447,63.434,33.394z"/>
					<polygon fill="#6E7072" points="21.018,62.771 21.008,62.769 20.941,62.761 					"/>
					<path fill="#6E7072" d="M22.592,63.486l-0.36-0.087C22.415,63.47,22.517,63.486,22.592,63.486z"/>
					<path fill="#6E7072" d="M64.147,33.004L64.08,32.57C64.088,32.726,64.117,32.867,64.147,33.004z"/>
					<path fill="#6E7072" d="M40.897,63.778l-0.161,0.056C40.807,63.815,40.86,63.798,40.897,63.778z"/>
					<path fill="#6E7072" d="M27.278,0.541l0.149-0.004C27.439,0.513,27.427,0.5,27.278,0.541z"/>
					<polygon fill="#6E7072" points="16.898,7.098 16.896,7.1 16.896,7.102 					"/>
					<path fill="#6E7072" d="M17.366,6.673c-0.179,0.08-0.379,0.287-0.468,0.425C17.064,6.995,17.207,6.878,17.366,6.673z"/>
					<path fill="#6E7072" d="M15.761,7.795l0.066-0.032C15.802,7.772,15.781,7.782,15.761,7.795z"/>
					<polygon fill="#6E7072" points="27.246,3.207 27.244,3.196 27.238,3.207 					"/>
					<path fill="#6E7072" d="M24.852,3.766c-0.047-0.006-0.108-0.004-0.174,0.004C24.722,3.776,24.781,3.776,24.852,3.766z"/>
					<polygon fill="#6E7072" points="11.292,11.997 11.291,11.993 11.283,12.003 					"/>
					<path fill="#6E7072" d="M3.978,33.069c-0.142-2.265-0.035-5.254,0.559-7.449c-0.074-0.523,0.096-1.229,0.269-1.937l0.266,0.001
						l0.105-0.599c0.149-0.208-0.096,0.456,0.128,0.074l-0.08-0.266c0.096-0.02,0.578-1.434,0.407-0.425
						c0.263-0.729,0.555-1.448,0.874-2.154c0.226-0.462-0.073-0.367,0.237-0.852c0.118-0.071-0.045,0.207,0.058,0.205
						c0.932-1.429,0.467-1.998,1.427-3.311l-0.046,0.134c0.092-0.267,0.386-0.7,0.363-0.724c-0.333,0.027-0.045,0.319-0.442,0.647
						c-0.158-0.154,0.239-0.58,0.085-0.645c0.282-0.27,0.302-0.528,0.49-0.806c0.435-0.385,0.861-1.085,1.262-1.311
						c0.124-0.255,0.153-0.636,0.546-1.092c0.412-0.208,0.053,0.18,0.49-0.21l-0.029-0.153c0.339-0.339,0.313-0.259,0.345-0.206
						c0.358-0.363,0.167-0.432,0.68-0.826l-0.167,0.338c0.302-0.367,0.451-0.491,0.94-0.931c0.039,0.063-0.156,0.239-0.312,0.356
						c0.388-0.106,0.388-0.479,0.549-0.592c-0.08-0.006-0.432,0.289-0.351,0.044c0.256-0.204,0.407-0.598,0.683-0.64l-0.189,0.328
						c0.451-0.525,0.171-0.363,0.807-0.831c-0.027,0.034,0.009,0.045,0.012,0.077c0.284-0.442,0.889-0.733,1.491-1.153l-0.092,0.11
						c0.211-0.211,0.285-0.392,0.42-0.478c-0.387,0.182-0.314,0.086-0.416,0.009c0.577-0.148,0.562-0.694,1.411-1.083
						c0.025,0.07-0.116,0.258-0.368,0.332c-0.143,0.354-0.08,0.518-0.474,0.914c0.25-0.24,0.575-0.481,0.551-0.36l-0.02-0.225
						c0.169-0.121,0.316-0.197,0.45-0.281c0.009-0.154-0.469,0.052-0.102-0.276c0.432-0.348,0.354,0.018,0.38-0.103
						c0.608-0.45,0.155-0.351,0.822-0.651c-0.055,0.05-0.162,0.149-0.226,0.164c0.489-0.191,1.107-0.649,1.353-0.504
						c-0.045,0.082-0.024,0.152-0.206,0.226l-0.01-0.035c-0.421,0.418,0.397-0.264,0.34,0.012c-0.093-0.095,0.566-0.399,0.875-0.511
						l-0.157-0.088c0.809-0.856,0.066,0.28,1.021-0.207c0.588-0.357-0.253,0.062,0.091-0.196c0.438-0.152,0.642-0.101,1.25-0.397
						c0.195-0.012,0.581-0.063,0.664,0.08c0.361-0.201,1.19-0.313,1.366-0.528c-0.707,0.068-0.61,0.361-1.445,0.421l0.164-0.228
						c0.538-0.171,1.207-0.463,1.601-0.508c-0.084-0.009-0.13-0.039-0.091-0.085c0.764-0.271,0.956-0.483,1.74-0.604
						c0.132,0.123-0.325,0.191-0.648,0.283c0.521,0.003,0.518-0.118,1.301-0.22c0.065,0.118-0.521,0.09-0.584,0.237l0.844-0.208
						c-0.002,0.008,0.003,0.016,0.005,0.025c0.088-0.229,0.656-0.101,1.173-0.232c1.248-0.16,1.414-0.452,2.11-0.674
						c0.194,0.045,0.252,0.097,0.176,0.155c-0.319-0.075-0.258-0.004-0.363,0.059c0.429-0.053,0.947,0.155,0.713,0.253
						c0.672-0.087-0.25-0.104,0.162-0.186c0.31-0.009,0.62-0.014,0.93-0.01c-0.11-0.108-0.442-0.128,0.043-0.217
						c0.408-0.038,0.606-0.007,1.14,0.008c-0.079,0.052,0.163,0.168-0.236,0.154c0.256,0.043,0.655,0.069,0.815-0.032
						c-0.578-0.13,0.962-0.041,0.538-0.232l0.577,0.143c-0.133-0.013-0.153,0.055-0.348,0.021c0.152,0.175,0.48-0.005,0.687-0.004
						c0.203,0.047,0.732,0.129,0.769,0.196c0.188-0.026,0.631,0.078,0.702,0.172c0.275,0.005,0.037-0.104,0.125-0.146l0.92,0.17
						c0.032,0.1,0.062,0.365-0.082,0.373c0.359-0.017,0.174-0.243,0.694-0.132c-0.332,0.109,0.656,0.285,0.181,0.397
						c0.269,0.188,1.101,0.382,1.567,0.468c0.32-0.058-0.473-0.212-0.408-0.344c1.302,0.3,1.501-0.041,2.424,0.342L42.02,3.774
						c0.613,0.132,0.542,0.12,0.926,0.135c-0.223,0.109,0.492,0.689,1.427,1.064c0.117-0.047-0.45-0.387-0.243-0.451l0.633,0.25
						c0.039,0.033-0.041,0.03-0.131,0.016c0.584,0.194,0.92,0.692,1.17,0.585l0.424,0.516l-0.162-0.214
						c0.115-0.039,0.729,0.255,0.867,0.299c0.656,0.254,0.833,0.46,1.096,0.754c-0.062-0.126-0.231-0.432,0.248-0.163
						c-0.155,0.237,0.909,0.716,0.81,0.835c0.184,0.124,0.451,0.421,0.542,0.338L49.49,7.866c0.189-0.18,0.836,0.304,1.349,0.652
						c-0.32,0.18,0.548,0.403,0.556,0.821c0.242-0.108,0.885,0.643,1.096,0.573c0.358,0.315,0.173,0.443,0.21,0.578l0.22,0.088
						c0.099,0.243,0.716,0.878,1.016,1.316l0.483,0.222l0.052,0.199c0.09,0.023,0.383,0.31,0.273,0.069l0.166,0.208
						c0.187-0.131,0.29,0.244,0.705,0.597c0.049,0.119-0.014,0.127-0.109,0.056c0.165,0.209,0.004,0.192,0.035,0.353
						c-0.071-0.189,0.91,0.507,0.546-0.124c0.044-0.098,0.354,0.2,0.482,0.435l-0.064,0.25l0.357,0.13
						c0.271,0.319,0.264,0.54,0.434,0.829c-0.206-0.277-0.747-0.401-0.248,0.315c-0.281-0.365-0.501-0.486-0.675-0.65
						c0.099,0.15,0.135,0.234-0.099,0.058c0.447,0.513,0.232,0.112,0.638,0.65c-0.17,0.069-0.11,0.257,0.153,0.779l-0.128-0.438
						c0.03,0.005,0.06,0.021,0.087,0.043c-0.074-0.15-0.076-0.205-0.038-0.274c0.068,0.112,0.618,0.532,0.581,0.689
						c-0.119-0.733,0.808,0.902,0.725,0.444c0.083,0.042,0.338,0.448,0.28,0.538c-0.399-0.429,0.031,0.475-0.127,0.456
						c0.147,0.16-0.099-0.455,0.099-0.239c0.177,0.29,0.197,0.562,0.232,0.756l-0.096-0.109l0.169,0.499
						c0.12,0.035-0.098-0.518,0.167-0.113c0.024,0.13,0.278,0.542,0.207,0.56c-0.213-0.15-0.287,0.071-0.494-0.279
						c0.166,0.292,0.639,1.255,0.607,0.791l0.164,0.37c-0.036-0.26-0.212-0.968,0.153-0.237l-0.036,0.008l0.354,0.464l0.013,0.265
						c0.04-0.025,0.114,0.041,0.19,0.238c-0.03,0.072,0.024,0.264-0.049,0.275c0.236,0.562,0.295,0.487,0.376,0.542
						c0.133,0.317,0.142,0.449-0.015,0.336c0.14,0.446,0.418,1.213,0.417,1.545c0.255,0.575,0-0.134,0.221,0.181
						c-0.138,0.604,0.429,2.018,0.647,3.019c0.218-0.324,0.085,0.267,0.361,0.409c-0.12-0.202-0.053,0.994-0.274,0.123l0.116,0.534
						c-0.09,0.388-0.257-0.868-0.371-0.282c0.105,0.592,0.458,0.948,0.437,1.675c-0.218-0.219,0.119,0.543-0.114,0.385
						c-0.081-0.141-0.08-0.339-0.119-0.538l-0.024,0.127c0.067,1.324,0.269,0.359,0.459,1.046c0.077,0.814-0.114,0.65-0.203,0.702
						c-0.034,0.128,0.013,0.533,0.07,0.745c-0.137-0.489,0.089-0.919,0.221-0.697c-0.203,0.367,0.016,1.209,0.104,1.435
						c0.219-1.176,0.006-0.809,0.203-1.924c-0.084-0.148-0.269-0.109-0.246-0.773c0.135,0.405,0.108-0.039,0.13-0.159
						c-0.101,0.138-0.088-0.454-0.162-0.648c0.071-0.195,0.309,0.368,0.278-0.31l-0.283-0.093c0.004-0.265,0.212,0.086,0.07-0.462
						c0.18,0.282,0.209-0.123,0.348,0.632c0.114-0.939-0.314-1.376-0.542-2.048c0.029,0.067,0.066,0.069,0.098,0.136
						c-0.1-0.136-0.143-0.405-0.202-0.606c-0.037-0.47,0.196,0.336,0.241,0.204l-0.163-0.741c0.006-0.017,0.01-0.021,0.015-0.023
						c-0.076-0.188-0.149-0.365-0.1-0.449c0.138,0.2,0.249,0.267,0.349,0.401l-0.368-0.737c0.111,0.063-0.02-0.678,0.19-0.143
						c-0.115-0.38-0.226-0.761-0.354-1.137l0.146-0.149c-0.112-0.265-0.148-0.262-0.073,0.073c-0.064-0.412-0.861-1.615-0.456-1.529
						c-0.462-0.828-0.521-1.167-1.059-2.166c0.508,0.73-0.215-1,0.235-0.188c-0.157-0.526-0.378-0.549-0.595-0.917
						c-0.107-0.393,0.131-0.314,0.384,0.048l-0.301-0.422l0.037-0.007l-0.294-0.349c-0.134-0.461,0.117-0.175-0.092-0.616
						l-0.193-0.016l-0.077-0.334c-0.006,0.145-0.169-0.094-0.361-0.391l0.035-0.011l-0.243-0.355
						c0.303,0.315-0.173-0.354,0.025-0.246c-0.189-0.316-0.188-0.327-0.577-0.867l-0.029,0.158
						c-0.555-0.669,0.122-0.123-0.266-0.709l-0.08,0.108c-0.399-0.958-1.094-1.323-1.451-1.984c0.29,0.316,0.339,0.141,0.305,0.156
						c-0.429-0.482-1.091-1.304-1.656-1.689c-0.03-0.302-0.023-0.388-0.445-0.939c-0.357-0.352-0.429-0.386-0.618-0.426
						c-0.293-0.394-1.038-0.926-0.969-1.04c-0.153,0.003-0.311-0.307-0.574-0.411l-0.008-0.079l-0.051,0.124
						c-0.474-0.775-1.215-0.796-1.762-1.504l0.142,0.061l-0.324-0.176c-0.015-0.08,0.126-0.019,0.183-0.067
						c-0.454-0.342-0.92-0.667-1.391-0.986l0.227,0.266c-0.305-0.19-0.575-0.211-0.879-0.496c0.678,0.197-0.476-0.305-0.499-0.48
						l0.341,0.145c-0.437-0.247-0.437-0.247-0.466-0.115c-0.583-0.282-0.265-0.434-0.855-0.603l0.37,0.211
						c0.071,0.127-0.242,0.063-0.492-0.07c-0.049-0.049-0.2-0.193-0.002-0.105c-0.469-0.201-1.125-0.6-1.352-0.647
						c-0.232-0.153-0.112-0.197,0.038-0.163c-1.038-0.358-0.438-0.236-1.488-0.566l0.046-0.06l-0.38-0.063l-0.445-0.337l0.146,0.157
						c-0.339-0.118-0.566-0.149-0.948-0.327l0.195-0.044c-0.975-0.28-1.06-0.552-2.031-0.68c-0.059-0.036,0.096-0.03,0.175-0.025
						c-0.908-0.076-0.605-0.368-1.534-0.385c0.062-0.022-0.023-0.089,0.018-0.11l-0.418-0.021l0.062-0.134l-0.373,0.136L38.72,0.823
						L38.548,0.86c-0.38-0.358-1.032-0.263-1.6-0.549l0.077,0.196c-1.542,0.149-3.446-0.576-5.303-0.356l0.03-0.145l-0.754,0.196
						C30.585,0.104,31.237,0.069,31.107,0c-0.811,0.12-0.329,0.226-1.267,0.333c-0.489-0.052,0.159-0.126,0.383-0.188
						c-0.881,0.126-2.165,0.367-2.795,0.391c-0.012,0.022-0.046,0.053-0.013,0.056c-0.572,0.155-1.346,0.239-1.979,0.392
						c0.001-0.068,0.157-0.113,0.312-0.161c-0.229,0.041-0.554,0.064-0.732,0.181l0.209-0.18c-0.496,0.088-1.399,0.45-1.546,0.341
						c0.074,0.037,0.079,0.148-0.337,0.266c-0.297-0.148-1.097,0.438-1.785,0.565c0.061-0.078,0.537-0.258,0.401-0.213
						c-0.349,0.059-0.609,0.265-0.868,0.44l0.056-0.117c-0.491,0.229-0.974,0.472-1.449,0.728c-0.315-0.115-1.367,0.673-1.336,0.484
						c-0.52,0.251,0.476-0.13-0.165,0.22c-0.218,0.001-0.563,0.343-0.604,0.201l0.061-0.051l-0.445,0.25l0.217-0.276
						c-0.378,0.232-0.585,0.522-0.553,0.624c-0.402,0.133-0.874,0.495-1.102,0.485l0.113-0.111c-0.962,0.659-1.852,0.735-2.46,1.483
						c-0.067,0.025-0.082-0.008,0.036-0.093l-0.587,0.431l0.072-0.19c-0.288,0.287-0.567,0.582-0.842,0.878l-0.034-0.065
						c-0.635,0.482-1.543,1.339-2.25,2.081l0.085-0.132c-0.71,0.869-0.807,0.723-1.305,1.378c0.005-0.035,0.019-0.06,0.036-0.084
						l-0.486,0.553l0.055-0.168c-0.246,0.507-1.16,1.07-0.846,0.893c-0.143,0.284-0.405,0.753-0.387,0.881
						c-0.478,0.643-0.195,0.098-0.538,0.462c-0.349,0.468-0.306,0.622-0.8,1.238l-0.052-0.053l-0.535,0.977l0.051-0.148
						c-0.309,0.789-0.729,0.789-0.772,1.519c-0.227,0.276-0.488,0.891-0.604,0.794c-0.391,0.974-0.688,1.729-1.026,2.706
						c-0.28,0.065-0.075,0.208-0.42,0.746L2.41,20.75c-0.501,1.362-1.292,2.887-1.584,4.491l-0.134,0.018l0.068,0.347
						c-0.421,1.694-0.724,3.946-0.76,5.34c0.048,0.46,0.184,1.151,0.153,1.872L0.134,32.74l0.345,3.937
						c-0.065-0.076-0.084,0.063-0.139-0.085c0.183,0.305,0.118,0.798,0.166,1.089l0.039-0.355c0.18,0.366,0.16,0.935,0.109,1.147
						l0.255,0.578c-0.004,0.043-0.01,0.108-0.028,0.121l0.088,0.092l-0.094,0.357c0.069,0.142,0.3,0.927,0.527,1.13
						c-0.039,0.07,0.068,0.638-0.077,0.216c0.185,0.728,0.388,1.452,0.625,2.167l-0.06-0.353C2,42.699,2.29,43.311,2.362,43.655
						c-0.257-0.393-0.184,0.026-0.201,0.244c0.172,0.263,0.011-0.289,0.134-0.162c0.21,0.332,0.556,1.064,0.584,1.272l-0.137-0.191
						c0.249,0.46,0.137,0.772,0.366,1.235c0.284,0.379,0.356,0.724,0.509,0.542c0.334,0.577-0.019,0.297,0.057,0.5
						c0.234,0.234,0.616,1.086,0.583,1.244c0.448,0.162,0.819,1.612,1.131,1.579l0.173,0.544c0.069-0.025,0.265-0.025,0.541,0.323
						c0.172,0.389,0.015,0.378,0.029,0.525l0.383,0.071c1.167,2.144,3.489,4.372,5.395,6.225c0.955,0.713,2.224,1.505,3.373,2.269
						l-0.149-0.054c0.373,0.269,0.752,0.527,1.136,0.781c-0.265-0.208-0.533-0.408-0.791-0.623c0.269,0.136,0.499,0.207,0.744,0.359
						c1.229,0.865,2.992,1.899,4.787,2.429c1.232,0.124,0.658,0.54,1.828,0.688c-0.103-0.003-0.15,0.027-0.244,0.029
						c1.219,0.275,1.89,0.397,3.136,0.489c-0.203,0.275,0.791,0.157,0.651,0.29l0.124-0.104c0.254,0.133,0.893,0.259,0.787,0.334
						l0.565-0.07l0.029,0.133c0.718,0.126,2.277,0.165,2.645,0.433c1.814-0.062,4.652-0.083,6.901-0.402
						c0.299-0.153,0.947-0.271,1.449-0.386l0.57,0.034c0.507-0.157,0.999-0.477,1.493-0.512c0.001,0.018-0.015,0.035-0.045,0.053
						c0.506-0.168,1.017-0.237,1.446-0.523c0.557-0.168,1.116-0.291,0.996-0.096c-0.03-0.249,1.175-0.399,1.176-0.405
						c-0.01-0.016,1.798-0.605,4.366-2.06c2.563-1.441,5.833-3.872,8.55-7.144c2.747-3.238,4.857-7.279,5.908-10.988
						c1.084-3.71,1.175-6.998,0.909-8.795c-0.113-0.248-0.172-0.913-0.328-0.663c-0.039-0.509,0.183-0.742,0.06-0.842
						c-0.092,0.691-0.32-0.213-0.483,0.457l-0.025-0.429c-0.088-0.089,0.093,0.584-0.066,0.476l0.231,0.125
						c-0.039,0.348-0.102,0.537-0.184,0.657c0.08,0.328,0.386,0.557,0.189,1.333l0.004-0.218c-0.046,0.638-0.184,0.377-0.233,0.506
						l0.015-0.139l-0.167,0.521c0.119-0.396-0.015-1.077-0.031-0.727c-0.131,0.745,0.074-0.19,0.053,0.376
						c-0.019,0.351-0.135,0.24-0.204,0.218l-0.062,0.625c-0.104-0.035,0.053-0.412-0.087-0.172l0.014,0.797
						c-0.287,0.106,0.002,0.874-0.318,1.186c0.035-0.569-0.098,0.034-0.171-0.07c-0.077,0.454-0.164,0.906-0.26,1.357
						c-0.064,0.119-0.006-0.373-0.037-0.165c-0.126,0.236-0.03,0.43-0.064,0.566c-0.095,0.1-0.253,0.999-0.42,0.914
						c-0.376,0.86,0.12,0.443-0.24,1.247c-0.138,0.075,0.184-0.668-0.04-0.333l-0.242,0.868c-0.023-0.094-0.109-0.222,0.015-0.535
						c-0.917,2.266-1.982,3.193-2.879,5.163c-0.264,0.204,0.029-0.234,0.059-0.466c-0.61,1.46-1.352,1.758-2.082,2.849l0.076,0.082
						c-1.326,1.312-2.612,3.117-4.237,4.429l0.232-0.114c-0.134,0.274-0.472,0.593-0.695,0.855
						c-0.077-0.008,0.036-0.332-0.393,0.092c0.12-0.051,0.341-0.187,0.317-0.097c-0.767,0.481-1.871,1.313-3.16,2.126
						c-1.281,0.822-2.754,1.606-4.104,2.145c-3.549,1.727-7.835,2.429-11.67,2.485c0.587-0.016,0.343,0.255-0.104,0.198
						c-1.202-0.457-2.114,0.022-3.321-0.422c-2.259-0.118-4.108-0.959-6.175-1.312l0.004-0.135
						c-0.272-0.159-0.382-0.101-0.692-0.207l0.021-0.031c-0.703-0.313-1.61-0.568-1.983-0.818l-0.087,0.118
						c-0.422-0.186-0.168-0.2-0.626-0.337l0.045-0.059l-0.551-0.129c0.163-0.193-1.135-0.633-1.386-0.935
						c-0.533-0.263-1.546-0.788-2.243-1.369c-0.064-0.198-0.943-0.868-1.434-1.376c-1.073-0.847-2.511-2.192-3.586-3.569
						l-0.105,0.13l-0.3-0.348c0.032-0.018,0.008-0.077,0.065-0.034c-0.077-0.39-0.697-0.792-0.82-1.16
						c0.014,0.275,0.172,0.271,0.326,0.48c0.166,0.346-0.179,0.158-0.419-0.298l0.035-0.014l-0.272-0.23
						c0.081-0.105-0.055-0.395,0.028-0.502c-0.872-1.211-1.591-1.981-2.255-3.392c0.197,0.08-0.524-0.985-0.163-0.813
						c-0.474-0.803-0.117,0.226-0.455-0.088c-0.108-0.237-0.28-0.463-0.214-0.543c0.103,0.088,0.054-0.255,0.159-0.07l-0.262-0.564
						c-0.005-0.062,0.079,0.051,0.119,0.107c-0.617-1.121-0.648-2.149-1.102-3.191c-0.109-0.056,0.104,0.439-0.006,0.386
						c-0.494-1.054-0.124-1.015-0.497-2.021l0.169,0.188c-0.157-0.315-0.299-0.441-0.31-1.018c0.123-0.124,0.208,0.447,0.336,0.698
						c-0.083-0.378-0.297-1.333-0.373-1.017c-0.13-0.45-0.024-0.642-0.027-0.893c-0.037-0.004-0.026,0.443-0.137,0.184
						c-0.019-0.639-0.141-1.609-0.184-2.384c0.036,0.004,0.088-0.054,0.109,0.013C3.728,33.869,4.048,33.915,3.978,33.069z"/>
					<path fill="#6E7072" d="M27.563,3.175l-0.318,0.032c0.006,0.032-0.002,0.071-0.139,0.134L27.563,3.175z"/>
					<path fill="#6E7072" d="M13.942,9.316c-0.023,0.034-0.047,0.067-0.063,0.103C13.935,9.365,13.944,9.336,13.942,9.316z"/>
					<path fill="#6E7072" d="M11.438,11.998c0.16-0.208-0.032-0.07-0.146-0.001C11.31,12.021,11.339,12.041,11.438,11.998z"/>
					<path fill="#6E7072" d="M36.128,2.598c-0.058,0.007-0.095,0.022-0.089,0.054C36.118,2.635,36.136,2.617,36.128,2.598z"/>
					<path fill="#6E7072" d="M56.14,14.43l-0.039-0.088C56.103,14.362,56.118,14.393,56.14,14.43z"/>
					<path fill="#6E7072" d="M55.505,13.243c-0.039-0.052-0.098-0.114-0.188-0.196C55.387,13.143,55.451,13.201,55.505,13.243z"/>
					<path fill="#6E7072" d="M30.339,2.504c-0.089,0.01-0.174,0.027-0.247,0.064C30.228,2.552,30.294,2.53,30.339,2.504z"/>
					<path fill="#6E7072" d="M55.115,12.856L54.91,12.59c-0.008,0.005-0.016,0.007-0.024,0.015L55.115,12.856z"/>
					<path fill="#6E7072" d="M56.373,14.781c-0.073-0.108-0.176-0.251-0.232-0.351C56.207,14.588,56.282,14.695,56.373,14.781z"/>
					<path fill="#6E7072" d="M44.631,4.789l-0.034-0.012C44.333,4.729,44.493,4.771,44.631,4.789z"/>
					<polygon fill="#6E7072" points="53.961,11.93 53.935,11.893 53.84,11.85 					"/>
					<path fill="#6E7072" d="M57.136,15.997c-0.037-0.051-0.073-0.095-0.112-0.124l0.089,0.167
						C57.119,16.015,57.126,16.003,57.136,15.997z"/>
					<path fill="#6E7072" d="M48.906,7.426c0.108,0.007,0.159-0.003,0.178-0.024C48.989,7.341,48.917,7.323,48.906,7.426z"/>
				</g>
			</g>
		</g>
	</g>
</g>
<polygon fill="#6E7072" points="13.92,40.981 16.945,36.042 25.377,36.452 23.233,41.538 "/>
<polygon fill="#6E7072" points="17.241,35.484 19.696,31.339 27.464,31.649 25.688,35.9 "/>
<polygon fill="#6E7072" points="19.944,30.852 21.975,27.392 29.11,27.597 27.547,31.135 "/>
<polygon fill="#6E7072" points="22.216,26.951 24.028,24.011 30.59,24.126 29.352,27.159 "/>
<polygon fill="#6E7072" points="24.353,41.514 26.504,36.438 34.805,36.586 33.541,41.777 "/>
<polygon fill="#6E7072" points="26.707,35.866 28.426,31.619 36.062,31.679 35.014,36.022 "/>
<polygon fill="#6E7072" points="28.589,31.119 30.011,27.565 37.009,27.548 36.06,31.157 "/>
<polygon fill="#6E7072" points="30.179,27.114 31.468,24.097 37.895,24.002 37.175,27.096 "/>
<polygon fill="#6E7072" points="34.919,41.854 36.037,36.666 44.264,36.507 44.06,41.841 "/>
<polygon fill="#6E7072" points="36.147,36.081 37.089,31.694 44.513,31.468 44.358,35.923 "/>
<polygon fill="#6E7072" points="37.149,31.178 37.829,27.512 44.618,27.223 44.407,30.935 "/>
<polygon fill="#6E7072" points="37.901,27.045 38.542,23.979 44.773,23.731 44.688,26.76 "/>
<polygon fill="#6E7072" points="45.104,41.736 45.321,36.412 52.883,36.131 53.84,41.368 "/>
<polygon fill="#6E7072" points="9.861,47.488 13.287,41.893 22.844,42.36 20.415,48.119 "/>
<polygon fill="#6E7072" points="21.685,48.089 24.124,42.339 33.293,42.5 32.093,48.39 "/>
<polygon fill="#6E7072" points="33.549,48.479 34.709,42.593 44.063,42.664 43.689,48.467 "/>
<polygon fill="#6E7072" points="44.888,48.336 45.072,42.697 54.065,42.265 55.1,47.927 "/>
<polygon fill="#6E7072" points="45.302,35.821 45.407,31.365 52.042,31.044 52.753,35.543 "/>
<polygon fill="#6E7072" points="45.383,30.845 45.454,27.129 51.46,26.768 51.958,30.479 "/>
<polygon fill="#6E7072" points="45.452,26.658 45.437,23.731 50.93,23.396 51.371,26.302 "/>
<path fill="#6E7072" d="M41.422,11.714l-1.814-4.143l-3.007,3.38l-3.259-3.137l-1.48,4.274l-4.211-1.647l0.266,4.517l-4.523,0.086
	l1.976,4.069l-4.145,1.814l2.301,2.044l2.335-0.066c0.022-0.407,0.06-0.813,0.123-1.227c0.962-6.083,6.501-10.262,12.37-9.333
	c4.961,0.785,8.56,4.979,8.973,9.936l2.982-0.089l2.413-2.507l-4.277-1.477l1.648-4.213l-4.517,0.265l-0.088-4.522L41.422,11.714z"
	/>
<path fill="#FFFFFF" d="M27.381,22.328c0.848-5.364,5.828-9.036,11.126-8.196c4.264,0.676,7.429,4.072,8.055,8.17l0.764-0.021
	c-0.413-4.956-4.012-9.15-8.973-9.936c-5.869-0.929-11.408,3.25-12.37,9.333c-0.063,0.413-0.101,0.819-0.123,1.227l1.462-0.044
	C27.34,22.686,27.35,22.509,27.381,22.328z"/>
<path fill="#6E7072" d="M38.507,14.132c-5.298-0.84-10.278,2.832-11.126,8.196c-0.031,0.181-0.041,0.357-0.06,0.533l19.24-0.56
	C45.936,18.204,42.771,14.808,38.507,14.132z"/>
</svg>
