<?xml version="1.0" encoding="utf-8"?>
<!-- Generator: Adobe Illustrator 15.1.0, SVG Export Plug-In  -->
<!DOCTYPE svg PUBLIC "-//W3C//DTD SVG 1.1//EN" "http://www.w3.org/Graphics/SVG/1.1/DTD/svg11.dtd" [
	<!ENTITY ns_flows "http://ns.adobe.com/Flows/1.0/">
]>
<svg version="1.1"
	 xmlns="http://www.w3.org/2000/svg" xmlns:xlink="http://www.w3.org/1999/xlink" xmlns:a="http://ns.adobe.com/AdobeSVGViewerExtensions/3.0/"
	 x="0px" y="0px" width="64px" height="65px" viewBox="-0.075 -0.456 64 65"
	 overflow="visible" enable-background="new -0.075 -0.456 64 65" xml:space="preserve">
<defs>
</defs>
<g>
	<ellipse fill="#FFFFFF" cx="32.216" cy="31.998" rx="30.342" ry="30.586"/>
	<g>
		<g>
			<g>
				<g>
					<path fill="#6E7072" d="M52.829,8.508c0.024-0.001,0.048-0.008,0.07-0.025C52.859,8.482,52.839,8.492,52.829,8.508z"/>
					<path fill="#6E7072" d="M39.344,1.031l0.185,0.013C39.411,1.02,39.363,1.021,39.344,1.031z"/>
					<path fill="#6E7072" d="M58.591,15.693c-0.012-0.008-0.015-0.006-0.024-0.011l0.321,0.562L58.591,15.693z"/>
					<path fill="#6E7072" d="M8.566,10.263l0.143-0.158C8.643,10.175,8.596,10.216,8.566,10.263z"/>
					<path fill="#6E7072" d="M25.792,0.717c-0.055,0.04-0.155,0.072-0.252,0.102C25.666,0.796,25.765,0.768,25.792,0.717z"/>
					<path fill="#6E7072" d="M59.485,20.568L59.478,20.3C59.442,20.32,59.438,20.418,59.485,20.568z"/>
					<path fill="#6E7072" d="M61.995,29.166c0.006-0.008,0.012-0.01,0.02-0.025C62.005,29.128,61.999,29.143,61.995,29.166z"/>
					<path fill="#6E7072" d="M61.841,25.596l-0.095-0.242C61.771,25.46,61.801,25.595,61.841,25.596z"/>
					<path fill="#6E7072" d="M61.697,25.24l0.049,0.114C61.729,25.288,61.713,25.235,61.697,25.24z"/>
					<path fill="#6E7072" d="M63.722,33.49c0.014-0.274-0.047-0.511-0.102-0.758L63.722,33.49z"/>
					<path fill="#6E7072" d="M0.875,38.85l-0.051-0.051C0.849,38.852,0.864,38.858,0.875,38.85z"/>
					<path fill="#6E7072" d="M62.906,33.119l0.027-0.188C62.915,33,62.908,33.061,62.906,33.119z"/>
					<path fill="#6E7072" d="M57.127,16.494c-0.21-0.17-0.398-0.67-0.476-0.617C56.815,16.094,56.953,16.458,57.127,16.494z"/>
					<path fill="#6E7072" d="M6.096,43.617l0.07,0.149C6.136,43.694,6.115,43.65,6.096,43.617z"/>
					<path fill="#6E7072" d="M62.906,33.119l-0.03,0.218c0.019-0.018,0.033-0.041,0.049-0.063
						C62.913,33.224,62.906,33.172,62.906,33.119z"/>
					<polygon fill="#6E7072" points="20.847,62.258 20.838,62.254 20.772,62.248 					"/>
					<path fill="#6E7072" d="M22.408,62.967l-0.357-0.085C22.232,62.952,22.334,62.968,22.408,62.967z"/>
					<path fill="#6E7072" d="M63.62,32.732l-0.068-0.429C63.561,32.457,63.589,32.597,63.62,32.732z"/>
					<path fill="#6E7072" d="M40.564,63.256l-0.159,0.056C40.476,63.293,40.527,63.276,40.564,63.256z"/>
					<path fill="#6E7072" d="M27.057,0.538l0.148-0.004C27.217,0.51,27.205,0.497,27.057,0.538z"/>
					<polygon fill="#6E7072" points="16.774,7.059 16.771,7.061 16.772,7.062 					"/>
					<path fill="#6E7072" d="M17.238,6.637c-0.178,0.079-0.376,0.285-0.463,0.422C16.939,6.956,17.08,6.84,17.238,6.637z"/>
					<path fill="#6E7072" d="M15.647,7.749l0.066-0.032C15.688,7.726,15.667,7.736,15.647,7.749z"/>
					<polygon fill="#6E7072" points="27.029,3.203 27.027,3.193 27.021,3.203 					"/>
					<path fill="#6E7072" d="M24.657,3.757C24.61,3.75,24.55,3.753,24.484,3.761C24.528,3.768,24.586,3.768,24.657,3.757z"/>
					<polygon fill="#6E7072" points="11.22,11.915 11.219,11.911 11.211,11.92 					"/>
					<path fill="#6E7072" d="M3.978,32.796c-0.142-2.244-0.037-5.205,0.552-7.38c-0.075-0.519,0.094-1.219,0.264-1.919l0.266,0.001
						l0.104-0.593c0.148-0.206-0.095,0.452,0.128,0.074l-0.081-0.265c0.096-0.019,0.574-1.42,0.405-0.42
						c0.261-0.722,0.55-1.434,0.865-2.134c0.225-0.458-0.074-0.364,0.234-0.845c0.117-0.07-0.044,0.206,0.059,0.203
						c0.925-1.415,0.459-1.981,1.412-3.282L8.141,16.37c0.09-0.265,0.382-0.693,0.358-0.717c-0.332,0.025-0.043,0.316-0.438,0.641
						c-0.158-0.153,0.237-0.575,0.082-0.64c0.28-0.267,0.299-0.523,0.485-0.799c0.433-0.381,0.854-1.075,1.253-1.298
						c0.122-0.253,0.149-0.632,0.539-1.083c0.409-0.206,0.053,0.18,0.487-0.207l-0.03-0.153c0.336-0.335,0.311-0.257,0.343-0.203
						c0.355-0.359,0.164-0.429,0.672-0.819l-0.164,0.336c0.299-0.364,0.447-0.487,0.932-0.923c0.039,0.063-0.155,0.238-0.309,0.354
						c0.386-0.104,0.384-0.475,0.544-0.587c-0.079-0.007-0.428,0.286-0.349,0.042c0.254-0.202,0.402-0.594,0.676-0.634l-0.187,0.326
						c0.446-0.521,0.169-0.361,0.799-0.824c-0.026,0.034,0.009,0.045,0.012,0.076c0.281-0.439,0.88-0.726,1.477-1.142l-0.091,0.109
						c0.209-0.21,0.282-0.39,0.416-0.476c-0.383,0.18-0.312,0.085-0.413,0.008c0.573-0.146,0.556-0.69,1.397-1.075
						c0.025,0.07-0.114,0.258-0.364,0.33C16.127,7.363,16.19,7.526,15.8,7.92c0.247-0.237,0.569-0.477,0.546-0.357l-0.021-0.224
						c0.168-0.12,0.314-0.195,0.446-0.278c0.009-0.153-0.465,0.05-0.102-0.275c0.428-0.345,0.351,0.019,0.377-0.102
						c0.603-0.446,0.153-0.349,0.814-0.646c-0.055,0.05-0.16,0.148-0.224,0.163c0.486-0.188,1.098-0.644,1.342-0.499
						c-0.044,0.082-0.023,0.152-0.204,0.225l-0.01-0.036c-0.416,0.417,0.394-0.262,0.337,0.013
						c-0.093-0.096,0.561-0.396,0.866-0.507l-0.155-0.088c0.8-0.853,0.066,0.28,1.013-0.203c0.583-0.355-0.251,0.062,0.09-0.195
						c0.434-0.151,0.636-0.098,1.238-0.393c0.194-0.012,0.577-0.062,0.659,0.081c0.357-0.2,1.18-0.309,1.354-0.523
						c-0.701,0.066-0.604,0.359-1.432,0.417l0.162-0.227c0.533-0.17,1.196-0.46,1.586-0.503c-0.083-0.01-0.129-0.04-0.09-0.085
						c0.757-0.269,0.946-0.481,1.725-0.601c0.131,0.123-0.323,0.191-0.643,0.282c0.517,0.003,0.513-0.117,1.29-0.218
						c0.064,0.119-0.517,0.09-0.579,0.236l0.836-0.208c-0.002,0.008,0.003,0.017,0.004,0.026c0.087-0.229,0.65-0.1,1.162-0.23
						c1.237-0.159,1.401-0.45,2.091-0.672c0.192,0.045,0.25,0.097,0.174,0.155c-0.316-0.075-0.256-0.004-0.36,0.058
						c0.425-0.053,0.938,0.156,0.707,0.253c0.666-0.087-0.248-0.103,0.16-0.185c0.307-0.009,0.614-0.014,0.921-0.01
						c-0.109-0.108-0.438-0.128,0.042-0.217c0.405-0.038,0.601-0.007,1.13,0.008c-0.078,0.052,0.161,0.168-0.234,0.154
						c0.254,0.043,0.649,0.069,0.808-0.033c-0.572-0.13,0.954-0.041,0.534-0.232l0.572,0.143c-0.133-0.013-0.152,0.055-0.346,0.021
						c0.151,0.176,0.477-0.005,0.681-0.004c0.201,0.047,0.726,0.128,0.762,0.195c0.187-0.027,0.625,0.077,0.695,0.171
						c0.274,0.005,0.038-0.104,0.125-0.146l0.912,0.169c0.031,0.1,0.06,0.365-0.082,0.373c0.356-0.017,0.172-0.244,0.688-0.133
						c-0.33,0.109,0.649,0.284,0.179,0.397c0.266,0.188,1.09,0.379,1.552,0.465c0.318-0.059-0.468-0.211-0.403-0.343
						c1.29,0.297,1.488-0.044,2.402,0.335L41.672,3.76c0.608,0.13,0.538,0.119,0.918,0.133c-0.221,0.11,0.486,0.687,1.413,1.059
						c0.115-0.048-0.446-0.385-0.24-0.45l0.628,0.248c0.038,0.032-0.042,0.03-0.13,0.016c0.578,0.191,0.91,0.688,1.158,0.58
						l0.42,0.514l-0.161-0.213c0.115-0.04,0.724,0.252,0.86,0.296c0.651,0.251,0.826,0.456,1.086,0.748
						c-0.062-0.125-0.229-0.43,0.247-0.163c-0.155,0.237,0.9,0.711,0.801,0.83c0.183,0.122,0.446,0.418,0.537,0.334l-0.135,0.126
						c0.189-0.18,0.83,0.3,1.339,0.645c-0.32,0.181,0.543,0.399,0.548,0.815c0.241-0.108,0.878,0.637,1.088,0.566
						c0.355,0.312,0.171,0.441,0.206,0.575l0.219,0.086c0.097,0.242,0.709,0.871,1.006,1.306l0.479,0.218l0.051,0.198
						c0.09,0.022,0.38,0.307,0.272,0.067l0.165,0.207c0.186-0.132,0.287,0.241,0.699,0.59c0.048,0.119-0.014,0.127-0.109,0.056
						c0.163,0.208,0.003,0.192,0.033,0.35c-0.069-0.188,0.905,0.501,0.545-0.125c0.044-0.098,0.353,0.197,0.479,0.431l-0.064,0.248
						l0.355,0.128c0.269,0.316,0.261,0.536,0.429,0.822c-0.204-0.275-0.743-0.396-0.248,0.315c-0.279-0.362-0.498-0.481-0.671-0.644
						c0.099,0.149,0.134,0.232-0.098,0.058c0.443,0.508,0.23,0.11,0.632,0.643c-0.169,0.07-0.11,0.256,0.15,0.774l-0.125-0.435
						c0.029,0.005,0.059,0.021,0.086,0.043c-0.074-0.149-0.075-0.204-0.037-0.272c0.067,0.111,0.614,0.526,0.576,0.683
						c-0.115-0.728,0.803,0.893,0.722,0.439c0.083,0.041,0.335,0.444,0.277,0.533c-0.396-0.425,0.029,0.472-0.128,0.453
						c0.146,0.159-0.097-0.451,0.1-0.237c0.175,0.287,0.194,0.558,0.229,0.75l-0.095-0.108l0.167,0.494
						c0.119,0.035-0.096-0.514,0.167-0.113c0.023,0.129,0.275,0.538,0.204,0.555c-0.211-0.148-0.287,0.072-0.491-0.275
						c0.164,0.289,0.633,1.244,0.603,0.783l0.163,0.366c-0.035-0.258-0.209-0.96,0.153-0.236l-0.036,0.008l0.353,0.46l0.012,0.262
						c0.04-0.025,0.115,0.04,0.19,0.236c-0.03,0.071,0.023,0.262-0.05,0.273c0.234,0.558,0.293,0.483,0.373,0.537
						c0.132,0.314,0.141,0.445-0.015,0.334c0.138,0.442,0.414,1.203,0.412,1.532c0.253,0.57,0.001-0.133,0.221,0.179
						c-0.14,0.6,0.423,2,0.64,2.993c0.219-0.321,0.086,0.264,0.361,0.405c-0.12-0.2-0.055,0.985-0.274,0.122l0.115,0.529
						c-0.09,0.385-0.255-0.86-0.37-0.279c0.104,0.587,0.456,0.939,0.434,1.66c-0.217-0.217,0.119,0.538-0.113,0.382
						c-0.082-0.14-0.081-0.336-0.12-0.533l-0.023,0.126c0.066,1.312,0.269,0.355,0.458,1.036c0.076,0.807-0.114,0.645-0.204,0.696
						c-0.034,0.127,0.013,0.528,0.07,0.739c-0.137-0.485,0.089-0.912,0.221-0.691c-0.203,0.363,0.017,1.198,0.104,1.422
						c0.219-1.166,0.006-0.801,0.203-1.908c-0.084-0.147-0.268-0.108-0.245-0.766c0.135,0.401,0.108-0.038,0.131-0.158
						c-0.102,0.137-0.089-0.449-0.163-0.643c0.072-0.193,0.309,0.364,0.279-0.308l-0.283-0.092c0.005-0.263,0.212,0.085,0.071-0.458
						c0.179,0.279,0.209-0.122,0.347,0.626c0.115-0.932-0.313-1.365-0.54-2.03c0.03,0.067,0.067,0.068,0.098,0.135
						c-0.099-0.135-0.141-0.402-0.2-0.601c-0.036-0.466,0.195,0.333,0.241,0.202l-0.162-0.735c0.005-0.017,0.009-0.021,0.015-0.022
						c-0.076-0.186-0.148-0.361-0.099-0.445c0.137,0.198,0.247,0.264,0.348,0.397l-0.367-0.73c0.111,0.062-0.018-0.673,0.19-0.142
						c-0.113-0.377-0.224-0.754-0.351-1.127l0.146-0.148c-0.111-0.263-0.147-0.259-0.073,0.072c-0.063-0.409-0.856-1.6-0.451-1.516
						c-0.46-0.821-0.518-1.157-1.052-2.147c0.505,0.723-0.211-0.992,0.236-0.187c-0.155-0.522-0.375-0.544-0.592-0.908
						c-0.104-0.39,0.133-0.313,0.384,0.046l-0.299-0.418l0.037-0.008l-0.293-0.345c-0.131-0.458,0.118-0.174-0.089-0.612
						l-0.192-0.015l-0.076-0.332c-0.006,0.144-0.169-0.093-0.359-0.387l0.035-0.012l-0.241-0.351
						c0.301,0.312-0.171-0.351,0.026-0.245c-0.188-0.313-0.187-0.324-0.573-0.859l-0.029,0.157c-0.55-0.664,0.122-0.123-0.262-0.705
						l-0.08,0.107c-0.395-0.95-1.086-1.311-1.439-1.967c0.288,0.313,0.338,0.139,0.303,0.153c-0.425-0.478-1.081-1.292-1.643-1.674
						c-0.029-0.301-0.021-0.386-0.44-0.934c-0.354-0.348-0.425-0.383-0.613-0.422c-0.29-0.391-1.029-0.918-0.96-1.031
						c-0.152,0.004-0.308-0.305-0.569-0.407l-0.008-0.078l-0.051,0.124c-0.468-0.771-1.205-0.789-1.746-1.492l0.141,0.06
						l-0.321-0.174c-0.015-0.079,0.124-0.02,0.181-0.068c-0.449-0.339-0.911-0.662-1.379-0.978l0.225,0.264
						C48.999,5.57,48.73,5.55,48.43,5.268c0.673,0.194-0.473-0.302-0.494-0.478l0.338,0.144c-0.434-0.245-0.433-0.245-0.463-0.113
						c-0.578-0.279-0.261-0.432-0.849-0.598l0.368,0.209c0.069,0.127-0.241,0.064-0.489-0.068c-0.049-0.048-0.198-0.192-0.001-0.105
						c-0.466-0.199-1.116-0.595-1.341-0.641c-0.229-0.153-0.111-0.197,0.038-0.164c-1.029-0.354-0.433-0.234-1.476-0.561
						l0.046-0.059l-0.378-0.062l-0.44-0.335l0.145,0.156c-0.336-0.117-0.562-0.147-0.939-0.324l0.193-0.044
						c-0.967-0.277-1.05-0.548-2.014-0.675c-0.059-0.036,0.095-0.03,0.173-0.025c-0.901-0.073-0.6-0.367-1.521-0.381
						c0.062-0.022-0.022-0.089,0.019-0.11l-0.415-0.02l0.062-0.134l-0.37,0.137l-0.217-0.196l-0.17,0.038
						c-0.377-0.357-1.023-0.261-1.587-0.547l0.077,0.195c-1.529,0.151-3.418-0.572-5.26-0.354l0.03-0.145l-0.748,0.196
						C30.337,0.104,30.984,0.069,30.854,0c-0.804,0.12-0.326,0.226-1.256,0.333c-0.485-0.052,0.157-0.125,0.379-0.188
						c-0.874,0.126-2.147,0.365-2.772,0.389c-0.011,0.022-0.045,0.053-0.013,0.056c-0.566,0.154-1.334,0.237-1.962,0.389
						c0-0.068,0.155-0.113,0.309-0.161c-0.228,0.041-0.55,0.063-0.727,0.179l0.208-0.179c-0.492,0.087-1.387,0.447-1.533,0.338
						c0.073,0.037,0.078,0.148-0.334,0.265c-0.295-0.148-1.087,0.436-1.77,0.56c0.06-0.077,0.532-0.256,0.397-0.211
						c-0.346,0.058-0.604,0.263-0.861,0.437l0.055-0.116c-0.486,0.228-0.966,0.468-1.436,0.723
						c-0.314-0.115-1.356,0.668-1.326,0.479c-0.516,0.25,0.473-0.127-0.163,0.219c-0.217,0-0.559,0.341-0.599,0.199l0.06-0.051
						l-0.442,0.249l0.215-0.275c-0.375,0.23-0.58,0.519-0.547,0.621c-0.399,0.132-0.867,0.491-1.093,0.48l0.111-0.111
						c-0.954,0.654-1.839,0.727-2.44,1.47c-0.066,0.024-0.082-0.009,0.036-0.093l-0.582,0.428L12.84,6.24
						c-0.285,0.285-0.562,0.578-0.834,0.872l-0.034-0.065c-0.63,0.478-1.531,1.329-2.231,2.063l0.084-0.13
						c-0.704,0.862-0.8,0.716-1.294,1.367c0.005-0.035,0.019-0.06,0.035-0.083l-0.482,0.549l0.054-0.167
						c-0.242,0.503-1.151,1.061-0.839,0.885c-0.141,0.282-0.401,0.748-0.382,0.875c-0.474,0.638-0.195,0.096-0.535,0.458
						c-0.346,0.464-0.302,0.617-0.792,1.228l-0.052-0.053l-0.53,0.969l0.051-0.147c-0.305,0.783-0.724,0.781-0.765,1.506
						c-0.226,0.273-0.484,0.883-0.6,0.788c-0.387,0.966-0.682,1.715-1.016,2.685c-0.279,0.064-0.074,0.207-0.418,0.74l0.135,0.002
						c-0.497,1.351-1.285,2.863-1.574,4.454L0.686,25.05l0.069,0.344C0.335,27.074,0.035,29.308,0,30.69
						c0.048,0.457,0.184,1.142,0.153,1.857l-0.019-0.076l0.343,3.904c-0.065-0.076-0.084,0.062-0.139-0.084
						c0.182,0.302,0.117,0.791,0.164,1.08l0.039-0.353c0.18,0.363,0.159,0.927,0.108,1.138l0.254,0.573
						c-0.004,0.043-0.01,0.108-0.028,0.12l0.088,0.092l-0.095,0.354c0.069,0.142,0.298,0.92,0.525,1.12
						c-0.039,0.07,0.067,0.634-0.077,0.215c0.183,0.723,0.385,1.44,0.619,2.149l-0.059-0.35c0.109-0.081,0.397,0.524,0.468,0.866
						c-0.256-0.389-0.183,0.026-0.202,0.242c0.171,0.262,0.012-0.286,0.134-0.16c0.209,0.329,0.552,1.055,0.58,1.262l-0.136-0.19
						c0.247,0.457,0.134,0.767,0.362,1.227c0.283,0.375,0.354,0.718,0.506,0.536c0.332,0.572-0.021,0.295,0.056,0.497
						c0.232,0.231,0.611,1.076,0.578,1.233c0.446,0.161,0.812,1.601,1.123,1.566l0.17,0.54c0.069-0.025,0.264-0.026,0.538,0.319
						c0.169,0.387,0.014,0.376,0.026,0.522l0.381,0.069c1.156,2.127,3.459,4.337,5.349,6.176c0.948,0.707,2.207,1.491,3.346,2.249
						l-0.147-0.053c0.37,0.267,0.746,0.523,1.126,0.774c-0.263-0.206-0.529-0.404-0.784-0.617c0.267,0.134,0.495,0.204,0.738,0.355
						c1.219,0.858,2.967,1.886,4.747,2.409c1.223,0.121,0.652,0.538,1.812,0.684c-0.102-0.003-0.148,0.027-0.242,0.029
						c1.209,0.272,1.875,0.394,3.111,0.483c-0.202,0.275,0.784,0.155,0.646,0.289l0.123-0.104c0.252,0.132,0.885,0.258,0.78,0.332
						l0.56-0.07l0.028,0.133c0.713,0.124,2.259,0.163,2.624,0.431c1.8-0.063,4.614-0.084,6.845-0.4
						c0.296-0.153,0.939-0.27,1.438-0.383l0.566,0.035c0.502-0.157,0.99-0.475,1.48-0.51c0.001,0.018-0.015,0.035-0.045,0.053
						c0.502-0.166,1.009-0.234,1.435-0.52c0.553-0.167,1.107-0.288,0.988-0.093c-0.03-0.25,1.166-0.396,1.167-0.402
						c-0.01-0.016,1.782-0.6,4.331-2.043c2.542-1.43,5.785-3.84,8.48-7.085c2.725-3.213,4.817-7.221,5.858-10.9
						c1.074-3.681,1.163-6.941,0.897-8.724c-0.114-0.246-0.173-0.905-0.329-0.657c-0.039-0.505,0.183-0.735,0.06-0.835
						c-0.092,0.686-0.32-0.211-0.483,0.453l-0.025-0.425c-0.088-0.088,0.093,0.58-0.066,0.473l0.231,0.124
						c-0.039,0.346-0.102,0.533-0.184,0.651c0.08,0.326,0.386,0.554,0.19,1.322l0.004-0.216c-0.046,0.633-0.184,0.374-0.233,0.502
						l0.015-0.139l-0.166,0.517c0.118-0.393-0.017-1.067-0.032-0.721c-0.13,0.739,0.074-0.188,0.053,0.373
						c-0.018,0.349-0.134,0.238-0.204,0.216l-0.062,0.62c-0.104-0.035,0.053-0.408-0.087-0.171l0.015,0.791
						c-0.287,0.104,0.003,0.866-0.317,1.175c0.035-0.564-0.098,0.033-0.171-0.07c-0.076,0.45-0.162,0.898-0.257,1.346
						c-0.064,0.118-0.007-0.37-0.037-0.164c-0.126,0.234-0.03,0.427-0.063,0.562c-0.096,0.099-0.251,0.991-0.419,0.906
						c-0.373,0.853,0.122,0.44-0.236,1.236c-0.138,0.075,0.182-0.662-0.041-0.33l-0.239,0.86c-0.023-0.093-0.11-0.221,0.013-0.53
						c-0.91,2.245-1.971,3.162-2.858,5.115c-0.262,0.201,0.029-0.233,0.057-0.463c-0.603,1.448-1.341,1.741-2.064,2.822l0.075,0.081
						c-1.316,1.298-2.589,3.089-4.2,4.388l0.23-0.113c-0.131,0.272-0.466,0.589-0.688,0.85c-0.077-0.009,0.034-0.331-0.39,0.089
						c0.118-0.05,0.338-0.184,0.314-0.095c-0.76,0.477-1.855,1.301-3.133,2.105c-1.27,0.814-2.729,1.591-4.065,2.124
						c-3.517,1.712-7.764,2.405-11.564,2.462c0.582-0.016,0.34,0.255-0.104,0.198c-1.191-0.457-2.095,0.022-3.291-0.42
						c-2.239-0.116-4.07-0.953-6.118-1.3l0.005-0.135c-0.27-0.158-0.379-0.1-0.686-0.205l0.021-0.03
						c-0.696-0.312-1.595-0.563-1.965-0.812l-0.086,0.118c-0.418-0.184-0.167-0.198-0.621-0.334l0.045-0.059l-0.547-0.126
						c0.163-0.194-1.124-0.628-1.373-0.928c-0.527-0.261-1.532-0.78-2.223-1.355c-0.062-0.198-0.933-0.862-1.419-1.365
						c-1.063-0.838-2.489-2.172-3.554-3.536l-0.106,0.129l-0.297-0.344c0.032-0.018,0.009-0.077,0.065-0.034
						c-0.075-0.387-0.691-0.785-0.812-1.149c0.013,0.273,0.17,0.268,0.322,0.476c0.164,0.343-0.18,0.158-0.417-0.295l0.035-0.014
						l-0.271-0.228c0.081-0.105-0.053-0.393,0.03-0.499c-0.864-1.199-1.579-1.962-2.235-3.359c0.196,0.079-0.52-0.977-0.16-0.807
						c-0.471-0.796-0.117,0.224-0.453-0.086c-0.107-0.235-0.279-0.459-0.212-0.538c0.103,0.087,0.055-0.253,0.159-0.07l-0.259-0.56
						c-0.004-0.062,0.078,0.051,0.119,0.107c-0.612-1.111-0.64-2.131-1.092-3.163c-0.109-0.055,0.103,0.436-0.007,0.383
						c-0.491-1.044-0.122-1.006-0.492-2.003l0.169,0.186c-0.156-0.312-0.298-0.437-0.308-1.008c0.123-0.123,0.208,0.443,0.335,0.691
						c-0.083-0.374-0.295-1.32-0.371-1.006c-0.13-0.447-0.023-0.636-0.025-0.886c-0.037-0.003-0.026,0.439-0.137,0.183
						c-0.018-0.633-0.139-1.595-0.182-2.362c0.036,0.005,0.087-0.053,0.109,0.013C3.728,33.589,4.048,33.635,3.978,32.796z"/>
					<path fill="#6E7072" d="M27.344,3.171l-0.315,0.031c0.006,0.032-0.001,0.071-0.138,0.134L27.344,3.171z"/>
					<path fill="#6E7072" d="M13.845,9.257c-0.023,0.034-0.046,0.066-0.063,0.102C13.838,9.306,13.847,9.277,13.845,9.257z"/>
					<path fill="#6E7072" d="M11.365,11.917c0.158-0.207-0.032-0.071-0.145-0.002C11.237,11.939,11.267,11.958,11.365,11.917z"/>
					<path fill="#6E7072" d="M35.832,2.597c-0.058,0.007-0.094,0.022-0.088,0.054C35.821,2.633,35.84,2.616,35.832,2.597z"/>
					<path fill="#6E7072" d="M55.665,14.325l-0.039-0.088C55.628,14.256,55.643,14.288,55.665,14.325z"/>
					<path fill="#6E7072" d="M55.037,13.146c-0.039-0.052-0.097-0.113-0.187-0.194C54.92,13.047,54.983,13.105,55.037,13.146z"/>
					<path fill="#6E7072" d="M30.094,2.504c-0.088,0.01-0.172,0.027-0.245,0.064C29.984,2.552,30.05,2.529,30.094,2.504z"/>
					<path fill="#6E7072" d="M54.649,12.763L54.447,12.5c-0.009,0.005-0.017,0.007-0.025,0.014L54.649,12.763z"/>
					<path fill="#6E7072" d="M55.895,14.672c-0.072-0.107-0.174-0.249-0.229-0.347C55.73,14.481,55.805,14.587,55.895,14.672z"/>
					<path fill="#6E7072" d="M44.261,4.766l-0.034-0.011C43.964,4.708,44.122,4.749,44.261,4.766z"/>
					<polygon fill="#6E7072" points="53.505,11.847 53.479,11.811 53.385,11.767 					"/>
					<path fill="#6E7072" d="M56.651,15.877c-0.036-0.05-0.073-0.094-0.111-0.123l0.088,0.166
						C56.634,15.896,56.642,15.884,56.651,15.877z"/>
					<path fill="#6E7072" d="M48.495,7.382c0.108,0.007,0.158-0.004,0.177-0.025C48.578,7.297,48.507,7.279,48.495,7.382z"/>
				</g>
			</g>
		</g>
	</g>
</g>
<ellipse fill="#6E7072" cx="32.637" cy="14.366" rx="4.254" ry="4.304"/>
<path fill="#6E7072" d="M27.592,20.353h9.299c0,0,0.926,0.13,1.223,1.121c0,0,1.154,2.935,3.396,4.518
	c2.244,1.582,5.178,3.135,5.178,3.135s0.76,1.517-0.164,2.045c-0.924,0.527-1.748,0.791-4.551-1.122
	c-2.803-1.914-3.895-2.968-3.895-2.968l0.035,7.19l-0.035,19.229c0,0-0.229,1.846-2.373,1.88c-2.145,0.032-2.506-1.715-2.506-1.715
	l0.131-16.559l-1.121-0.099l0.032,16.458c0,0,0,1.816-2.375,1.914c-2.374,0.099-2.507-1.781-2.507-1.781V24.74
	c0,0-1.945,2.11-2.011,5.442c-0.068,3.33,0.264,7.188,0.264,7.188s-0.298,1.188-1.387,1.288c-1.089,0.099-1.714-0.789-1.714-0.789
	s-0.957-6.138,0-9.997S25.35,21.474,27.592,20.353z"/>
<path fill="#6E7072" d="M17.664,32.359c0,0-6.911,2.505-2.559,10.488c0,0,0.778,0.792,1.636,0.33
	c0.856-0.463,0.526-1.518,0.526-1.518s-2.522-5.227,0.66-6.729c0,0,1.767-0.54,3.893,1.056c3.232,2.426,12.666,4.486,17.152,0.989
	c4.486-3.495,8.84-10.555,8.84-10.555s2.979,0.503,4.43-2.335l0.387,0.225l1.715-3.232l-1.123-0.725l1.781-3.102
	c0,0,0.221-0.508-0.109-0.706c-0.33-0.197-0.633,0.166-0.633,0.166l-1.83,3.18l-3.496-1.914l1.848-3.034
	c0,0,0.189-0.345-0.197-0.577c-0.293-0.175-0.604,0.118-0.604,0.118l-1.904,2.967l-1.092-0.595l-1.877,3.166l0.463,0.331
	c0,0-2.215,2.701,0.195,4.814c0,0-5.773,8.239-7.652,9.5c-3.365,2.26-8.162,2.461-16.292-1.584
	C21.82,33.083,19.861,31.677,17.664,32.359z"/>
</svg>
