<?xml version="1.0" encoding="utf-8"?>
<!-- Generator: Adobe Illustrator 15.1.0, SVG Export Plug-In  -->
<!DOCTYPE svg PUBLIC "-//W3C//DTD SVG 1.1//EN" "http://www.w3.org/Graphics/SVG/1.1/DTD/svg11.dtd" [
	<!ENTITY ns_flows "http://ns.adobe.com/Flows/1.0/">
]>
<svg version="1.1"
	 xmlns="http://www.w3.org/2000/svg" xmlns:xlink="http://www.w3.org/1999/xlink" xmlns:a="http://ns.adobe.com/AdobeSVGViewerExtensions/3.0/"
	 x="0px" y="0px" width="66px" height="66px" viewBox="-0.694 -0.769 66 66"
	 overflow="visible" enable-background="new -0.694 -0.769 66 66" xml:space="preserve">
<defs>
</defs>
<g>
	<ellipse fill="#FFFFFF" cx="32.48" cy="32.264" rx="30.606" ry="30.852"/>
	<g>
		<g>
			<g>
				<g>
					<path fill="#6E7072" d="M53.269,8.575c0.023-0.001,0.048-0.007,0.07-0.025C53.298,8.549,53.277,8.559,53.269,8.575z"/>
					<path fill="#6E7072" d="M39.667,1.038l0.187,0.013C39.735,1.027,39.688,1.027,39.667,1.038z"/>
					<path fill="#6E7072" d="M59.08,15.819c-0.011-0.008-0.015-0.006-0.024-0.011l0.324,0.567L59.08,15.819z"/>
					<path fill="#6E7072" d="M8.635,10.349l0.144-0.159C8.712,10.26,8.665,10.302,8.635,10.349z"/>
					<path fill="#6E7072" d="M26.002,0.722c-0.056,0.04-0.156,0.072-0.255,0.103C25.875,0.801,25.975,0.773,26.002,0.722z"/>
					<path fill="#6E7072" d="M59.994,20.732l-0.009-0.271C59.949,20.482,59.946,20.581,59.994,20.732z"/>
					<path fill="#6E7072" d="M62.521,29.407c0.007-0.008,0.013-0.01,0.02-0.026C62.531,29.369,62.526,29.384,62.521,29.407z"/>
					<path fill="#6E7072" d="M62.363,25.806l-0.095-0.244C62.294,25.669,62.323,25.805,62.363,25.806z"/>
					<path fill="#6E7072" d="M62.219,25.447l0.05,0.115C62.251,25.496,62.234,25.442,62.219,25.447z"/>
					<path fill="#6E7072" d="M64.249,33.769c0.014-0.276-0.047-0.516-0.102-0.764L64.249,33.769z"/>
					<path fill="#6E7072" d="M0.881,39.172L0.83,39.12C0.854,39.174,0.87,39.181,0.881,39.172z"/>
					<path fill="#6E7072" d="M63.435,33.395l0.026-0.189C63.443,33.274,63.436,33.336,63.435,33.395z"/>
					<path fill="#6E7072" d="M57.616,16.62c-0.212-0.172-0.402-0.676-0.479-0.622C57.302,16.217,57.442,16.583,57.616,16.62z"/>
					<path fill="#6E7072" d="M6.117,43.99l0.071,0.151C6.158,44.067,6.136,44.023,6.117,43.99z"/>
					<path fill="#6E7072" d="M63.435,33.395l-0.03,0.22c0.018-0.018,0.032-0.042,0.049-0.063
						C63.441,33.501,63.435,33.448,63.435,33.395z"/>
					<polygon fill="#6E7072" points="21.017,62.772 21.008,62.77 20.941,62.762 					"/>
					<path fill="#6E7072" d="M22.592,63.487l-0.36-0.087C22.415,63.471,22.517,63.487,22.592,63.487z"/>
					<path fill="#6E7072" d="M64.147,33.004l-0.067-0.433C64.089,32.727,64.117,32.868,64.147,33.004z"/>
					<path fill="#6E7072" d="M40.897,63.779l-0.161,0.056C40.807,63.816,40.859,63.799,40.897,63.779z"/>
					<path fill="#6E7072" d="M27.278,0.541l0.149-0.004C27.439,0.513,27.427,0.5,27.278,0.541z"/>
					<polygon fill="#6E7072" points="16.898,7.098 16.896,7.1 16.896,7.102 					"/>
					<path fill="#6E7072" d="M17.366,6.674c-0.179,0.079-0.379,0.287-0.468,0.424C17.064,6.995,17.207,6.878,17.366,6.674z"/>
					<path fill="#6E7072" d="M15.761,7.795l0.066-0.032C15.802,7.772,15.781,7.782,15.761,7.795z"/>
					<polygon fill="#6E7072" points="27.246,3.206 27.244,3.196 27.238,3.207 					"/>
					<path fill="#6E7072" d="M24.852,3.766c-0.047-0.006-0.108-0.004-0.174,0.004C24.722,3.776,24.781,3.776,24.852,3.766z"/>
					<polygon fill="#6E7072" points="11.292,11.997 11.291,11.993 11.283,12.003 					"/>
					<path fill="#6E7072" d="M3.978,33.07c-0.142-2.265-0.035-5.254,0.559-7.449c-0.074-0.523,0.097-1.229,0.269-1.937l0.267,0.001
						l0.105-0.599c0.148-0.208-0.096,0.456,0.128,0.074l-0.08-0.266c0.096-0.02,0.579-1.434,0.407-0.425
						c0.264-0.729,0.555-1.448,0.874-2.154c0.227-0.462-0.073-0.366,0.237-0.852c0.118-0.071-0.045,0.207,0.058,0.205
						c0.932-1.429,0.467-1.998,1.427-3.311l-0.046,0.133c0.092-0.267,0.386-0.699,0.363-0.723c-0.333,0.027-0.045,0.318-0.442,0.647
						c-0.158-0.154,0.239-0.58,0.085-0.645c0.282-0.27,0.302-0.528,0.489-0.806c0.436-0.385,0.862-1.085,1.263-1.311
						c0.124-0.255,0.153-0.636,0.546-1.092c0.412-0.208,0.053,0.18,0.49-0.21l-0.03-0.154c0.339-0.338,0.313-0.259,0.345-0.205
						c0.358-0.363,0.167-0.432,0.68-0.826l-0.167,0.338c0.302-0.367,0.451-0.491,0.94-0.932c0.039,0.063-0.156,0.24-0.312,0.356
						c0.388-0.106,0.388-0.479,0.549-0.592c-0.08-0.006-0.432,0.289-0.351,0.044c0.256-0.204,0.407-0.598,0.683-0.64l-0.189,0.328
						c0.451-0.525,0.171-0.363,0.807-0.831c-0.027,0.034,0.009,0.045,0.012,0.077c0.285-0.442,0.889-0.732,1.491-1.152l-0.092,0.11
						c0.211-0.211,0.285-0.392,0.421-0.479c-0.387,0.182-0.314,0.086-0.416,0.009c0.577-0.148,0.562-0.694,1.411-1.083
						c0.025,0.07-0.116,0.258-0.368,0.332c-0.143,0.354-0.08,0.518-0.474,0.914c0.25-0.239,0.575-0.48,0.551-0.36l-0.02-0.225
						c0.169-0.121,0.316-0.197,0.45-0.281c0.009-0.153-0.469,0.053-0.101-0.275c0.432-0.348,0.354,0.018,0.38-0.104
						c0.608-0.45,0.155-0.351,0.822-0.651c-0.055,0.05-0.162,0.149-0.226,0.164c0.49-0.19,1.107-0.649,1.353-0.504
						c-0.045,0.082-0.024,0.152-0.207,0.226l-0.01-0.036c-0.421,0.419,0.397-0.264,0.34,0.012c-0.093-0.096,0.566-0.399,0.875-0.511
						l-0.156-0.088c0.808-0.856,0.066,0.28,1.021-0.207c0.588-0.357-0.253,0.062,0.091-0.196c0.438-0.152,0.642-0.101,1.25-0.397
						c0.195-0.012,0.582-0.063,0.665,0.08c0.361-0.201,1.19-0.313,1.366-0.528c-0.707,0.068-0.61,0.361-1.445,0.421l0.164-0.228
						c0.538-0.171,1.207-0.463,1.602-0.508c-0.084-0.009-0.13-0.04-0.091-0.085c0.764-0.271,0.955-0.483,1.74-0.604
						c0.132,0.123-0.326,0.191-0.649,0.283c0.521,0.002,0.518-0.118,1.301-0.22c0.064,0.118-0.522,0.09-0.584,0.237l0.844-0.208
						c-0.002,0.008,0.003,0.016,0.004,0.025c0.088-0.229,0.656-0.101,1.173-0.232c1.248-0.16,1.414-0.452,2.11-0.674
						c0.194,0.045,0.253,0.097,0.176,0.155c-0.318-0.075-0.258-0.004-0.363,0.058c0.429-0.053,0.947,0.155,0.713,0.253
						c0.672-0.087-0.25-0.104,0.162-0.186c0.31-0.009,0.62-0.014,0.93-0.01c-0.11-0.108-0.442-0.128,0.042-0.217
						c0.409-0.038,0.606-0.007,1.141,0.008c-0.079,0.052,0.163,0.168-0.236,0.154c0.256,0.043,0.655,0.069,0.815-0.032
						c-0.578-0.13,0.962-0.041,0.538-0.232l0.577,0.143c-0.134-0.013-0.153,0.055-0.349,0.021c0.153,0.175,0.48-0.005,0.687-0.004
						c0.204,0.047,0.732,0.129,0.769,0.196c0.189-0.026,0.632,0.078,0.703,0.172c0.275,0.006,0.037-0.104,0.125-0.146l0.92,0.17
						c0.032,0.1,0.062,0.365-0.082,0.373c0.359-0.017,0.174-0.243,0.694-0.132c-0.333,0.108,0.656,0.285,0.181,0.397
						C38.938,3.62,39.77,3.814,40.236,3.9c0.32-0.058-0.474-0.211-0.408-0.344c1.302,0.3,1.501-0.041,2.424,0.342l-0.231-0.125
						c0.613,0.132,0.542,0.121,0.926,0.136c-0.223,0.109,0.492,0.689,1.427,1.064c0.117-0.047-0.45-0.387-0.243-0.451l0.633,0.25
						c0.039,0.032-0.041,0.03-0.131,0.016c0.584,0.193,0.92,0.692,1.169,0.585l0.425,0.516l-0.162-0.213
						c0.115-0.039,0.729,0.255,0.867,0.299c0.656,0.254,0.833,0.46,1.096,0.754c-0.062-0.126-0.231-0.432,0.248-0.163
						c-0.155,0.237,0.909,0.716,0.81,0.835c0.184,0.124,0.451,0.421,0.542,0.338L49.49,7.866c0.189-0.18,0.836,0.304,1.349,0.652
						c-0.321,0.18,0.548,0.403,0.556,0.821c0.242-0.108,0.885,0.644,1.096,0.573c0.358,0.315,0.173,0.443,0.21,0.578l0.22,0.088
						c0.099,0.243,0.716,0.878,1.016,1.316l0.483,0.222l0.052,0.199c0.09,0.023,0.383,0.31,0.273,0.069l0.166,0.208
						c0.187-0.131,0.29,0.244,0.705,0.597c0.049,0.12-0.014,0.127-0.109,0.056c0.165,0.209,0.004,0.193,0.035,0.353
						c-0.071-0.189,0.91,0.507,0.546-0.124c0.043-0.098,0.354,0.2,0.482,0.436l-0.064,0.249l0.357,0.13
						c0.271,0.319,0.264,0.54,0.434,0.83c-0.206-0.277-0.747-0.401-0.248,0.315c-0.281-0.365-0.501-0.486-0.676-0.65
						c0.1,0.15,0.136,0.234-0.098,0.057c0.447,0.514,0.232,0.112,0.638,0.65c-0.17,0.07-0.11,0.257,0.153,0.779l-0.128-0.438
						c0.03,0.005,0.06,0.021,0.087,0.043c-0.074-0.15-0.076-0.205-0.039-0.273c0.069,0.112,0.619,0.532,0.582,0.689
						c-0.119-0.733,0.808,0.902,0.725,0.444c0.083,0.042,0.338,0.448,0.28,0.537c-0.399-0.429,0.031,0.475-0.127,0.456
						c0.147,0.16-0.099-0.455,0.099-0.239c0.177,0.29,0.197,0.562,0.232,0.757l-0.096-0.109l0.169,0.498
						c0.12,0.036-0.098-0.518,0.167-0.113c0.024,0.13,0.278,0.542,0.207,0.56c-0.213-0.15-0.287,0.072-0.494-0.278
						c0.166,0.291,0.639,1.254,0.607,0.791l0.164,0.369c-0.036-0.26-0.212-0.968,0.153-0.237l-0.036,0.009l0.354,0.464l0.013,0.264
						c0.04-0.025,0.114,0.041,0.19,0.239c-0.03,0.071,0.024,0.263-0.049,0.275c0.236,0.562,0.295,0.487,0.376,0.542
						c0.133,0.317,0.142,0.449-0.015,0.336c0.14,0.446,0.418,1.213,0.417,1.545c0.255,0.575,0-0.134,0.221,0.181
						c-0.138,0.604,0.429,2.018,0.647,3.019c0.218-0.324,0.085,0.267,0.361,0.409c-0.12-0.202-0.053,0.993-0.274,0.123l0.116,0.534
						c-0.09,0.388-0.257-0.868-0.371-0.282c0.105,0.593,0.458,0.949,0.437,1.675c-0.218-0.219,0.119,0.543-0.114,0.385
						c-0.081-0.141-0.08-0.339-0.119-0.538l-0.024,0.127c0.067,1.324,0.269,0.359,0.459,1.046c0.077,0.814-0.114,0.65-0.203,0.702
						c-0.034,0.128,0.013,0.533,0.07,0.745c-0.137-0.489,0.089-0.919,0.221-0.697c-0.203,0.367,0.016,1.209,0.104,1.435
						c0.219-1.176,0.006-0.809,0.203-1.924c-0.084-0.148-0.269-0.109-0.246-0.773c0.135,0.405,0.108-0.039,0.13-0.159
						c-0.101,0.138-0.088-0.454-0.162-0.648c0.071-0.195,0.309,0.368,0.278-0.31l-0.283-0.093c0.004-0.266,0.212,0.086,0.07-0.462
						c0.18,0.282,0.209-0.123,0.348,0.632c0.114-0.939-0.314-1.376-0.542-2.048c0.029,0.067,0.066,0.069,0.098,0.136
						c-0.1-0.136-0.143-0.405-0.202-0.606c-0.037-0.47,0.196,0.336,0.241,0.204l-0.163-0.741c0.006-0.017,0.01-0.022,0.015-0.023
						c-0.076-0.188-0.149-0.365-0.1-0.449c0.138,0.2,0.249,0.267,0.349,0.401L62.1,24.662c0.111,0.063-0.02-0.678,0.19-0.143
						c-0.115-0.38-0.226-0.761-0.354-1.137l0.146-0.149c-0.112-0.265-0.148-0.262-0.073,0.073c-0.064-0.413-0.861-1.615-0.456-1.529
						c-0.462-0.829-0.521-1.167-1.059-2.167c0.508,0.73-0.215-0.999,0.235-0.188c-0.157-0.526-0.378-0.549-0.595-0.916
						c-0.107-0.393,0.131-0.315,0.384,0.048l-0.301-0.422l0.037-0.008l-0.294-0.349c-0.134-0.462,0.117-0.175-0.092-0.617
						l-0.193-0.016L59.6,16.811c-0.006,0.145-0.169-0.094-0.361-0.391l0.035-0.012l-0.243-0.354
						c0.303,0.315-0.173-0.354,0.025-0.246c-0.189-0.316-0.188-0.327-0.577-0.867L58.449,15.1c-0.555-0.67,0.122-0.123-0.266-0.71
						l-0.08,0.108c-0.399-0.958-1.094-1.323-1.451-1.984c0.29,0.316,0.339,0.141,0.305,0.156c-0.429-0.482-1.091-1.304-1.656-1.689
						c-0.03-0.302-0.023-0.388-0.446-0.939c-0.356-0.352-0.428-0.386-0.617-0.426c-0.293-0.394-1.038-0.926-0.969-1.04
						c-0.153,0.003-0.311-0.307-0.574-0.411l-0.008-0.079l-0.051,0.124c-0.474-0.775-1.215-0.796-1.762-1.504l0.142,0.061
						L50.691,6.59c-0.015-0.08,0.126-0.019,0.183-0.067c-0.454-0.342-0.92-0.667-1.391-0.986l0.227,0.266
						c-0.305-0.19-0.575-0.211-0.879-0.496c0.678,0.197-0.476-0.305-0.499-0.48l0.341,0.145c-0.437-0.247-0.437-0.247-0.466-0.115
						c-0.583-0.282-0.265-0.435-0.855-0.603l0.37,0.211c0.071,0.127-0.242,0.062-0.492-0.071c-0.049-0.048-0.2-0.193-0.002-0.105
						c-0.469-0.201-1.125-0.6-1.352-0.647c-0.232-0.153-0.112-0.197,0.038-0.164c-1.038-0.358-0.438-0.236-1.488-0.566l0.046-0.059
						l-0.38-0.064l-0.445-0.337l0.146,0.157c-0.339-0.118-0.566-0.149-0.948-0.327l0.195-0.043c-0.976-0.28-1.06-0.552-2.031-0.681
						c-0.059-0.036,0.096-0.03,0.175-0.025c-0.908-0.075-0.605-0.368-1.534-0.385c0.062-0.021-0.023-0.088,0.018-0.11l-0.418-0.021
						l0.062-0.134l-0.373,0.136l-0.218-0.196L38.549,0.86c-0.38-0.358-1.032-0.263-1.601-0.549l0.078,0.195
						c-1.542,0.149-3.447-0.576-5.304-0.356l0.03-0.145l-0.754,0.196C30.585,0.104,31.238,0.069,31.107,0
						c-0.811,0.12-0.33,0.226-1.268,0.333c-0.489-0.052,0.159-0.126,0.383-0.188c-0.881,0.126-2.165,0.367-2.795,0.392
						c-0.011,0.021-0.045,0.053-0.013,0.056c-0.572,0.155-1.345,0.239-1.979,0.392c0-0.068,0.156-0.113,0.311-0.161
						c-0.229,0.041-0.554,0.064-0.732,0.181l0.209-0.18c-0.496,0.088-1.399,0.45-1.546,0.341c0.074,0.037,0.079,0.148-0.337,0.266
						c-0.297-0.148-1.096,0.438-1.784,0.565c0.061-0.078,0.537-0.258,0.401-0.213c-0.349,0.059-0.609,0.265-0.869,0.44l0.056-0.116
						c-0.491,0.229-0.974,0.471-1.449,0.728c-0.315-0.115-1.367,0.673-1.336,0.484c-0.52,0.251,0.477-0.129-0.165,0.22
						c-0.218,0.001-0.563,0.344-0.604,0.201l0.061-0.051l-0.445,0.25l0.217-0.276c-0.378,0.232-0.585,0.522-0.553,0.624
						c-0.402,0.134-0.874,0.496-1.102,0.485l0.112-0.111c-0.962,0.658-1.852,0.735-2.46,1.483c-0.067,0.024-0.082-0.009,0.036-0.093
						l-0.587,0.431l0.072-0.19c-0.288,0.287-0.567,0.582-0.842,0.878l-0.034-0.065c-0.635,0.481-1.543,1.339-2.25,2.08l0.085-0.131
						c-0.71,0.869-0.807,0.723-1.305,1.378c0.005-0.035,0.019-0.06,0.036-0.084l-0.486,0.553l0.055-0.168
						c-0.246,0.507-1.16,1.071-0.846,0.893c-0.143,0.284-0.405,0.753-0.387,0.881c-0.478,0.643-0.195,0.098-0.539,0.462
						c-0.349,0.467-0.305,0.622-0.799,1.237l-0.052-0.053l-0.535,0.977l0.051-0.148c-0.309,0.789-0.729,0.789-0.772,1.518
						c-0.227,0.276-0.488,0.891-0.604,0.795c-0.391,0.973-0.688,1.729-1.026,2.706c-0.28,0.065-0.075,0.208-0.42,0.746L2.41,20.75
						c-0.501,1.362-1.293,2.888-1.585,4.491l-0.134,0.017l0.068,0.347C0.338,27.299,0.035,29.552,0,30.945
						c0.047,0.46,0.183,1.151,0.152,1.872l-0.019-0.077l0.345,3.937c-0.065-0.077-0.084,0.062-0.139-0.085
						c0.183,0.305,0.118,0.797,0.166,1.088l0.039-0.355c0.18,0.367,0.16,0.936,0.109,1.148l0.255,0.578
						c-0.004,0.043-0.01,0.108-0.028,0.12l0.088,0.093l-0.095,0.356c0.069,0.143,0.301,0.928,0.528,1.13
						c-0.039,0.071,0.068,0.639-0.077,0.217c0.184,0.728,0.388,1.452,0.625,2.166l-0.06-0.352C2,42.7,2.289,43.312,2.361,43.656
						c-0.257-0.394-0.184,0.026-0.201,0.243c0.172,0.264,0.011-0.288,0.134-0.162c0.21,0.333,0.556,1.064,0.584,1.273l-0.136-0.192
						c0.249,0.461,0.137,0.772,0.366,1.236c0.285,0.379,0.356,0.724,0.509,0.541c0.335,0.578-0.019,0.297,0.058,0.501
						c0.233,0.234,0.616,1.085,0.583,1.243c0.448,0.163,0.819,1.613,1.131,1.58l0.173,0.544c0.069-0.025,0.265-0.025,0.541,0.323
						c0.172,0.389,0.015,0.378,0.029,0.525l0.382,0.071c1.167,2.144,3.489,4.372,5.396,6.225c0.955,0.713,2.224,1.505,3.373,2.269
						l-0.149-0.054c0.373,0.269,0.752,0.527,1.136,0.781c-0.265-0.208-0.533-0.408-0.791-0.623c0.269,0.136,0.499,0.207,0.744,0.359
						c1.23,0.865,2.992,1.899,4.787,2.429c1.232,0.124,0.658,0.54,1.828,0.688c-0.103-0.003-0.149,0.027-0.244,0.029
						c1.219,0.275,1.889,0.397,3.135,0.489c-0.203,0.275,0.791,0.157,0.651,0.29l0.124-0.104c0.255,0.133,0.893,0.259,0.787,0.334
						l0.565-0.07l0.028,0.133c0.719,0.126,2.278,0.165,2.646,0.433c1.814-0.062,4.652-0.083,6.901-0.402
						c0.299-0.153,0.947-0.271,1.449-0.386l0.571,0.034c0.506-0.157,0.998-0.477,1.493-0.512c0,0.018-0.016,0.035-0.045,0.053
						c0.505-0.167,1.016-0.237,1.445-0.523c0.558-0.168,1.117-0.291,0.996-0.096c-0.029-0.249,1.176-0.399,1.177-0.405
						c-0.011-0.016,1.797-0.605,4.366-2.06c2.562-1.441,5.833-3.872,8.55-7.144c2.747-3.238,4.857-7.279,5.908-10.988
						c1.084-3.71,1.175-6.998,0.909-8.795c-0.113-0.248-0.172-0.913-0.328-0.663c-0.039-0.509,0.183-0.742,0.06-0.842
						c-0.092,0.691-0.32-0.213-0.483,0.457l-0.025-0.429c-0.088-0.089,0.093,0.584-0.066,0.476l0.231,0.125
						c-0.039,0.348-0.102,0.537-0.184,0.657c0.08,0.328,0.386,0.557,0.189,1.333l0.004-0.218c-0.046,0.638-0.184,0.377-0.233,0.506
						l0.015-0.139l-0.167,0.521c0.119-0.396-0.015-1.077-0.031-0.727c-0.131,0.745,0.074-0.19,0.053,0.376
						c-0.019,0.351-0.135,0.24-0.204,0.218l-0.062,0.625c-0.104-0.035,0.053-0.412-0.087-0.172l0.014,0.797
						c-0.287,0.106,0.002,0.874-0.318,1.186c0.035-0.569-0.098,0.034-0.171-0.07c-0.077,0.454-0.164,0.906-0.26,1.357
						c-0.064,0.119-0.006-0.373-0.037-0.165c-0.126,0.237-0.03,0.43-0.064,0.566c-0.095,0.1-0.253,0.999-0.42,0.915
						c-0.376,0.86,0.12,0.443-0.24,1.246c-0.138,0.076,0.184-0.668-0.04-0.333l-0.241,0.869c-0.024-0.095-0.11-0.223,0.014-0.535
						c-0.917,2.265-1.982,3.192-2.879,5.163c-0.264,0.203,0.029-0.235,0.059-0.467c-0.61,1.461-1.352,1.758-2.082,2.849l0.076,0.082
						c-1.326,1.312-2.612,3.117-4.237,4.429l0.232-0.114c-0.134,0.274-0.472,0.593-0.695,0.856
						c-0.077-0.009,0.035-0.333-0.393,0.091c0.119-0.051,0.341-0.186,0.317-0.097c-0.767,0.482-1.871,1.314-3.16,2.126
						c-1.281,0.822-2.755,1.606-4.104,2.146c-3.55,1.726-7.835,2.428-11.671,2.484c0.586-0.016,0.343,0.255-0.105,0.198
						c-1.202-0.457-2.114,0.022-3.321-0.422c-2.259-0.118-4.108-0.959-6.174-1.312l0.004-0.135
						c-0.273-0.159-0.383-0.101-0.692-0.207l0.021-0.03c-0.703-0.314-1.609-0.569-1.983-0.82l-0.087,0.119
						c-0.422-0.186-0.168-0.2-0.626-0.337l0.045-0.059l-0.551-0.129c0.163-0.193-1.135-0.633-1.386-0.935
						c-0.533-0.263-1.546-0.788-2.243-1.369c-0.064-0.198-0.943-0.868-1.434-1.376c-1.073-0.847-2.511-2.192-3.586-3.569
						l-0.106,0.129l-0.299-0.347c0.032-0.018,0.008-0.077,0.065-0.034c-0.077-0.39-0.698-0.792-0.82-1.16
						c0.014,0.275,0.172,0.271,0.326,0.48c0.166,0.346-0.179,0.158-0.419-0.298l0.035-0.014l-0.272-0.23
						c0.081-0.106-0.055-0.396,0.028-0.502c-0.872-1.211-1.591-1.981-2.255-3.392c0.197,0.08-0.524-0.986-0.163-0.813
						c-0.475-0.803-0.117,0.226-0.455-0.088c-0.108-0.237-0.281-0.463-0.214-0.544c0.103,0.089,0.054-0.254,0.159-0.069
						l-0.261-0.564c-0.005-0.063,0.079,0.051,0.119,0.107c-0.617-1.121-0.648-2.149-1.103-3.191
						c-0.109-0.056,0.104,0.439-0.006,0.386c-0.494-1.054-0.124-1.015-0.497-2.021l0.169,0.188c-0.157-0.314-0.299-0.441-0.31-1.018
						c0.123-0.124,0.208,0.448,0.336,0.698c-0.083-0.377-0.297-1.333-0.373-1.016c-0.13-0.451-0.024-0.642-0.027-0.893
						c-0.037-0.004-0.026,0.442-0.137,0.184c-0.019-0.64-0.141-1.609-0.184-2.384c0.036,0.004,0.088-0.054,0.109,0.013
						C3.728,33.87,4.048,33.916,3.978,33.07z"/>
					<path fill="#6E7072" d="M27.564,3.175l-0.318,0.031c0.006,0.032-0.001,0.071-0.139,0.134L27.564,3.175z"/>
					<path fill="#6E7072" d="M13.942,9.316c-0.023,0.034-0.047,0.067-0.063,0.103C13.935,9.365,13.944,9.336,13.942,9.316z"/>
					<path fill="#6E7072" d="M11.438,11.999c0.16-0.208-0.032-0.071-0.146-0.001C11.31,12.022,11.339,12.041,11.438,11.999z"/>
					<path fill="#6E7072" d="M36.128,2.598c-0.057,0.007-0.094,0.022-0.088,0.054C36.118,2.635,36.137,2.617,36.128,2.598z"/>
					<path fill="#6E7072" d="M56.141,14.431l-0.039-0.089C56.104,14.362,56.118,14.394,56.141,14.431z"/>
					<path fill="#6E7072" d="M55.506,13.244c-0.039-0.052-0.098-0.114-0.188-0.196C55.388,13.144,55.451,13.202,55.506,13.244z"/>
					<path fill="#6E7072" d="M30.339,2.504c-0.089,0.01-0.174,0.027-0.247,0.065C30.228,2.552,30.295,2.53,30.339,2.504z"/>
					<path fill="#6E7072" d="M55.115,12.857l-0.205-0.266c-0.008,0.005-0.016,0.006-0.024,0.014L55.115,12.857z"/>
					<path fill="#6E7072" d="M56.372,14.782c-0.072-0.108-0.175-0.251-0.231-0.351C56.207,14.589,56.282,14.696,56.372,14.782z"/>
					<path fill="#6E7072" d="M44.632,4.789l-0.034-0.012C44.333,4.729,44.493,4.771,44.632,4.789z"/>
					<polygon fill="#6E7072" points="53.962,11.931 53.936,11.894 53.841,11.85 					"/>
					<path fill="#6E7072" d="M57.137,15.998c-0.037-0.051-0.073-0.096-0.112-0.125l0.089,0.167
						C57.119,16.016,57.127,16.004,57.137,15.998z"/>
					<path fill="#6E7072" d="M48.906,7.426c0.108,0.007,0.159-0.003,0.178-0.024C48.989,7.341,48.917,7.323,48.906,7.426z"/>
				</g>
			</g>
		</g>
	</g>
</g>
<polygon fill="#6E7072" points="22.773,30.233 19.392,30.233 21.082,33.051 18.829,33.006 21.3,36.389 19.349,36.389 24.55,40.419 
	22.897,37.718 24.55,37.688 22.859,34.762 25.374,34.762 "/>
<rect x="36.337" y="12.858" fill="none" stroke="#6E7072" stroke-width="1.5" stroke-miterlimit="10" width="2.447" height="38.01"/>
<line fill="none" stroke="#6E7072" stroke-width="1.5" stroke-miterlimit="10" x1="52.378" y1="50.868" x2="10.197" y2="50.868"/>
<polyline fill="none" stroke="#6E7072" stroke-width="1.5" stroke-miterlimit="10" points="20.552,28.193 21.814,28.193 
	29.604,28.193 29.604,50.868 20.552,50.868 "/>
<polyline fill="none" stroke="#6E7072" stroke-width="1.5" stroke-miterlimit="10" points="20.552,50.868 14.516,50.868 
	14.516,28.193 20.552,28.193 "/>
<rect x="18.757" y="40.917" fill="#6E7072" width="6.689" height="9.951"/>
<polygon fill="none" stroke="#6E7072" stroke-miterlimit="10" points="41.04,15.84 42.313,15.765 42.887,14.622 42.183,13.557 
	40.909,13.634 40.337,14.775 "/>
<polygon fill="none" stroke="#6E7072" stroke-miterlimit="10" points="41.04,19.179 42.313,19.103 42.887,17.961 42.183,16.896 
	40.909,16.973 40.337,18.115 "/>
<polygon fill="none" stroke="#6E7072" stroke-miterlimit="10" points="41.04,22.52 42.313,22.443 42.887,21.302 42.183,20.234 
	40.909,20.312 40.337,21.453 "/>
<polygon fill="none" stroke="#6E7072" stroke-miterlimit="10" points="41.04,25.859 42.313,25.784 42.887,24.642 42.183,23.575 
	40.909,23.652 40.337,24.795 "/>
<line fill="none" stroke="#6E7072" stroke-width="1.5" stroke-miterlimit="10" x1="40.337" y1="14.775" x2="38.784" y2="14.697"/>
<line fill="none" stroke="#6E7072" stroke-width="1.5" stroke-miterlimit="10" x1="40.337" y1="18.075" x2="38.784" y2="18"/>
<line fill="none" stroke="#6E7072" stroke-width="1.5" stroke-miterlimit="10" x1="40.337" y1="21.415" x2="38.784" y2="21.339"/>
<line fill="none" stroke="#6E7072" stroke-width="1.5" stroke-miterlimit="10" x1="40.337" y1="24.757" x2="38.784" y2="24.681"/>
<path fill="none" stroke="#6E7072" stroke-width="1.5" stroke-miterlimit="10" d="M61.026,21.14c0,0-13.559,0.275-18.469-5.863"/>
<path fill="none" stroke="#6E7072" stroke-width="1.5" stroke-miterlimit="10" d="M41.611,25.824c0,0-1.298,10.935-12.341,11.179"/>
</svg>
