<?xml version="1.0" encoding="utf-8"?>
<!-- Generator: Adobe Illustrator 15.1.0, SVG Export Plug-In  -->
<!DOCTYPE svg PUBLIC "-//W3C//DTD SVG 1.1//EN" "http://www.w3.org/Graphics/SVG/1.1/DTD/svg11.dtd" [
	<!ENTITY ns_flows "http://ns.adobe.com/Flows/1.0/">
]>
<svg version="1.1"
	 xmlns="http://www.w3.org/2000/svg" xmlns:xlink="http://www.w3.org/1999/xlink" xmlns:a="http://ns.adobe.com/AdobeSVGViewerExtensions/3.0/"
	 x="0px" y="0px" width="66px" height="66px" viewBox="-0.623 -0.231 66 66"
	 overflow="visible" enable-background="new -0.623 -0.231 66 66" xml:space="preserve">
<defs>
</defs>
<g>
	<ellipse fill="#FFFFFF" cx="32.552" cy="32.335" rx="30.678" ry="30.925"/>
	<g>
		<g>
			<g>
				<g>
					<path fill="#6E7072" d="M53.388,8.592c0.024-0.001,0.048-0.007,0.07-0.024C53.417,8.566,53.396,8.577,53.388,8.592z"/>
					<path fill="#6E7072" d="M39.755,1.04l0.187,0.013C39.823,1.028,39.775,1.028,39.755,1.04z"/>
					<path fill="#6E7072" d="M59.213,15.854c-0.011-0.008-0.015-0.006-0.024-0.011l0.324,0.568L59.213,15.854z"/>
					<path fill="#6E7072" d="M8.653,10.372l0.144-0.159C8.731,10.284,8.683,10.325,8.653,10.372z"/>
					<path fill="#6E7072" d="M26.059,0.723c-0.055,0.04-0.156,0.072-0.255,0.103C25.932,0.803,26.032,0.775,26.059,0.723z"/>
					<path fill="#6E7072" d="M60.132,20.776l-0.009-0.271C60.088,20.525,60.084,20.625,60.132,20.776z"/>
					<path fill="#6E7072" d="M62.665,29.472c0.006-0.008,0.012-0.01,0.02-0.026C62.675,29.434,62.669,29.449,62.665,29.472z"/>
					<path fill="#6E7072" d="M62.506,25.863l-0.096-0.245C62.436,25.725,62.466,25.862,62.506,25.863z"/>
					<path fill="#6E7072" d="M62.36,25.503l0.05,0.115C62.393,25.552,62.377,25.498,62.36,25.503z"/>
					<path fill="#6E7072" d="M64.393,33.843c0.014-0.277-0.047-0.516-0.102-0.766L64.393,33.843z"/>
					<path fill="#6E7072" d="M0.882,39.26l-0.051-0.052C0.856,39.261,0.871,39.268,0.882,39.26z"/>
					<path fill="#6E7072" d="M63.578,33.469l0.026-0.19C63.587,33.348,63.579,33.411,63.578,33.469z"/>
					<path fill="#6E7072" d="M57.748,16.654c-0.211-0.172-0.402-0.678-0.479-0.624C57.434,16.25,57.574,16.617,57.748,16.654z"/>
					<path fill="#6E7072" d="M6.124,44.092l0.071,0.151C6.164,44.169,6.143,44.125,6.124,44.092z"/>
					<path fill="#6E7072" d="M63.578,33.469l-0.03,0.22c0.018-0.018,0.032-0.042,0.049-0.063
						C63.585,33.576,63.578,33.523,63.578,33.469z"/>
					<polygon fill="#6E7072" points="21.064,62.913 21.055,62.91 20.988,62.902 					"/>
					<path fill="#6E7072" d="M22.642,63.628l-0.361-0.087C22.464,63.613,22.567,63.629,22.642,63.628z"/>
					<path fill="#6E7072" d="M64.291,33.078l-0.067-0.434C64.232,32.8,64.261,32.941,64.291,33.078z"/>
					<path fill="#6E7072" d="M40.988,63.921l-0.161,0.056C40.897,63.959,40.95,63.941,40.988,63.921z"/>
					<path fill="#6E7072" d="M27.338,0.542l0.149-0.004C27.499,0.514,27.487,0.501,27.338,0.542z"/>
					<polygon fill="#6E7072" points="16.932,7.109 16.929,7.111 16.93,7.113 					"/>
					<path fill="#6E7072" d="M17.401,6.684c-0.18,0.079-0.38,0.287-0.469,0.425C17.098,7.005,17.241,6.889,17.401,6.684z"/>
					<path fill="#6E7072" d="M15.792,7.808l0.066-0.033C15.833,7.785,15.812,7.795,15.792,7.808z"/>
					<polygon fill="#6E7072" points="27.304,3.208 27.302,3.198 27.297,3.208 					"/>
					<path fill="#6E7072" d="M24.905,3.768c-0.047-0.006-0.108-0.004-0.175,0.004C24.774,3.779,24.833,3.779,24.905,3.768z"/>
					<polygon fill="#6E7072" points="11.312,12.02 11.31,12.016 11.302,12.026 					"/>
					<path fill="#6E7072" d="M3.978,33.144c-0.142-2.27-0.035-5.267,0.561-7.467c-0.074-0.525,0.097-1.232,0.27-1.941l0.267,0
						l0.106-0.6c0.149-0.209-0.097,0.457,0.128,0.074l-0.079-0.267c0.096-0.02,0.58-1.438,0.407-0.426
						c0.264-0.731,0.556-1.451,0.875-2.16c0.227-0.463-0.072-0.367,0.238-0.854c0.118-0.07-0.045,0.208,0.058,0.206
						c0.934-1.433,0.47-2.002,1.432-3.319l-0.046,0.134c0.092-0.268,0.387-0.701,0.364-0.725c-0.333,0.027-0.045,0.319-0.443,0.649
						c-0.158-0.154,0.24-0.582,0.085-0.646c0.283-0.271,0.303-0.529,0.491-0.808c0.436-0.387,0.863-1.088,1.265-1.314
						c0.124-0.255,0.154-0.637,0.548-1.094c0.412-0.209,0.052,0.18,0.491-0.211l-0.029-0.154c0.34-0.339,0.314-0.26,0.345-0.206
						c0.359-0.364,0.167-0.432,0.681-0.828l-0.167,0.338c0.303-0.368,0.452-0.493,0.942-0.934c0.039,0.063-0.157,0.24-0.312,0.357
						c0.389-0.107,0.389-0.48,0.551-0.593c-0.08-0.006-0.433,0.29-0.352,0.045c0.257-0.205,0.408-0.6,0.685-0.642l-0.19,0.329
						c0.452-0.526,0.172-0.364,0.809-0.833c-0.026,0.034,0.009,0.045,0.012,0.077c0.285-0.443,0.891-0.734,1.494-1.155l-0.093,0.11
						c0.212-0.212,0.286-0.393,0.422-0.479c-0.388,0.182-0.315,0.086-0.417,0.009c0.578-0.149,0.564-0.695,1.414-1.086
						c0.025,0.07-0.117,0.259-0.369,0.333c-0.143,0.354-0.081,0.518-0.476,0.915c0.25-0.24,0.576-0.481,0.553-0.361l-0.02-0.225
						c0.17-0.121,0.317-0.198,0.451-0.282c0.01-0.154-0.469,0.053-0.101-0.276c0.433-0.348,0.354,0.018,0.381-0.104
						c0.61-0.451,0.156-0.352,0.824-0.652c-0.055,0.05-0.162,0.149-0.226,0.164c0.49-0.191,1.11-0.65,1.355-0.506
						c-0.045,0.082-0.024,0.152-0.207,0.227l-0.01-0.036c-0.422,0.419,0.398-0.265,0.34,0.012c-0.093-0.096,0.567-0.4,0.876-0.512
						l-0.156-0.088c0.811-0.857,0.065,0.281,1.023-0.208c0.59-0.358-0.253,0.062,0.092-0.196c0.438-0.153,0.643-0.101,1.252-0.399
						c0.196-0.012,0.583-0.063,0.666,0.079c0.362-0.201,1.193-0.313,1.369-0.528C23.7,4.156,23.797,4.448,22.96,4.509l0.165-0.228
						c0.539-0.172,1.21-0.464,1.605-0.509c-0.084-0.009-0.13-0.04-0.091-0.085c0.766-0.271,0.958-0.484,1.745-0.606
						c0.132,0.123-0.327,0.192-0.651,0.284c0.522,0.002,0.519-0.118,1.305-0.221c0.065,0.118-0.523,0.091-0.586,0.237l0.846-0.209
						c-0.002,0.008,0.003,0.017,0.004,0.026c0.088-0.229,0.658-0.102,1.176-0.232c1.251-0.161,1.417-0.453,2.115-0.674
						c0.194,0.045,0.253,0.096,0.176,0.155c-0.319-0.075-0.259-0.004-0.364,0.059c0.43-0.053,0.949,0.155,0.715,0.253
						c0.674-0.087-0.25-0.103,0.163-0.186c0.311-0.009,0.621-0.014,0.932-0.01c-0.111-0.108-0.443-0.127,0.042-0.217
						c0.41-0.038,0.607-0.007,1.144,0.008c-0.08,0.052,0.162,0.168-0.237,0.154c0.257,0.043,0.656,0.07,0.817-0.032
						c-0.58-0.13,0.964-0.041,0.539-0.232L35.1,2.386c-0.134-0.013-0.154,0.054-0.35,0.02c0.153,0.176,0.481-0.005,0.688-0.003
						c0.204,0.047,0.734,0.129,0.771,0.196c0.188-0.026,0.633,0.078,0.704,0.172c0.276,0.006,0.037-0.104,0.125-0.146l0.923,0.171
						c0.032,0.1,0.062,0.365-0.082,0.373c0.36-0.016,0.174-0.243,0.695-0.132c-0.333,0.109,0.658,0.286,0.182,0.397
						c0.269,0.188,1.104,0.383,1.57,0.469c0.322-0.058-0.474-0.212-0.408-0.345c1.305,0.301,1.504-0.04,2.429,0.344l-0.232-0.125
						c0.615,0.133,0.544,0.121,0.929,0.137c-0.223,0.109,0.493,0.689,1.431,1.066c0.117-0.047-0.452-0.387-0.244-0.452l0.635,0.251
						c0.039,0.033-0.042,0.03-0.131,0.016c0.584,0.194,0.922,0.693,1.171,0.586l0.427,0.517l-0.163-0.214
						c0.115-0.039,0.73,0.256,0.869,0.3c0.657,0.255,0.835,0.461,1.099,0.755c-0.062-0.126-0.232-0.432,0.248-0.162
						c-0.155,0.237,0.911,0.718,0.812,0.836c0.185,0.124,0.452,0.422,0.543,0.338l-0.135,0.126c0.189-0.18,0.838,0.306,1.352,0.654
						c-0.321,0.18,0.549,0.404,0.557,0.822C51.754,9.248,52.399,10,52.61,9.93c0.358,0.316,0.174,0.444,0.21,0.579l0.221,0.088
						c0.099,0.243,0.718,0.88,1.019,1.319l0.484,0.222l0.052,0.199c0.09,0.023,0.384,0.311,0.273,0.069l0.167,0.209
						c0.187-0.132,0.29,0.244,0.706,0.598c0.049,0.12-0.014,0.127-0.109,0.056c0.165,0.21,0.004,0.193,0.036,0.353
						c-0.071-0.189,0.911,0.509,0.546-0.123c0.043-0.098,0.354,0.2,0.483,0.437l-0.064,0.249l0.358,0.131
						c0.271,0.32,0.264,0.541,0.435,0.831c-0.206-0.278-0.748-0.403-0.248,0.316c-0.282-0.366-0.502-0.487-0.677-0.652
						c0.1,0.151,0.137,0.234-0.098,0.057c0.448,0.515,0.232,0.113,0.639,0.652c-0.17,0.069-0.11,0.257,0.154,0.78l-0.128-0.438
						c0.029,0.005,0.06,0.021,0.087,0.043c-0.075-0.15-0.077-0.206-0.039-0.274c0.068,0.112,0.62,0.534,0.582,0.691
						c-0.119-0.735,0.811,0.904,0.726,0.446c0.084,0.042,0.339,0.449,0.281,0.539c-0.399-0.43,0.031,0.476-0.126,0.456
						c0.147,0.161-0.1-0.456,0.099-0.239c0.177,0.291,0.197,0.563,0.232,0.758l-0.096-0.109l0.17,0.5
						c0.12,0.036-0.099-0.519,0.167-0.113c0.024,0.13,0.278,0.544,0.207,0.561c-0.213-0.15-0.287,0.071-0.494-0.279
						c0.167,0.292,0.64,1.258,0.608,0.793l0.165,0.37c-0.037-0.261-0.214-0.97,0.152-0.237l-0.036,0.008l0.355,0.466l0.013,0.265
						c0.04-0.025,0.115,0.041,0.191,0.239c-0.03,0.072,0.024,0.264-0.049,0.276c0.236,0.564,0.296,0.488,0.376,0.543
						c0.133,0.318,0.143,0.45-0.014,0.337c0.14,0.447,0.418,1.216,0.418,1.549c0.255,0.577,0-0.134,0.221,0.182
						c-0.138,0.605,0.43,2.022,0.648,3.026c0.218-0.324,0.086,0.267,0.362,0.41c-0.121-0.202-0.053,0.996-0.274,0.124l0.116,0.535
						c-0.09,0.389-0.257-0.87-0.371-0.283c0.106,0.594,0.459,0.951,0.437,1.679c-0.217-0.22,0.12,0.544-0.113,0.386
						c-0.081-0.141-0.081-0.34-0.12-0.539l-0.023,0.127c0.067,1.327,0.269,0.36,0.459,1.049c0.077,0.816-0.114,0.651-0.203,0.703
						c-0.034,0.128,0.013,0.535,0.07,0.747c-0.137-0.49,0.089-0.921,0.221-0.699c-0.203,0.368,0.016,1.212,0.104,1.438
						c0.219-1.179,0.006-0.811,0.203-1.929c-0.084-0.148-0.269-0.109-0.246-0.775c0.135,0.406,0.108-0.039,0.13-0.159
						c-0.102,0.139-0.089-0.455-0.163-0.65c0.072-0.195,0.309,0.369,0.279-0.311l-0.284-0.093c0.005-0.266,0.212,0.086,0.07-0.463
						c0.18,0.283,0.209-0.123,0.349,0.633c0.113-0.941-0.315-1.38-0.544-2.053c0.03,0.068,0.067,0.069,0.099,0.136
						c-0.1-0.136-0.143-0.407-0.202-0.608c-0.037-0.471,0.196,0.337,0.241,0.205l-0.164-0.743c0.006-0.017,0.01-0.021,0.015-0.023
						c-0.076-0.188-0.149-0.366-0.1-0.45c0.138,0.2,0.249,0.267,0.349,0.402l-0.368-0.739c0.111,0.063-0.02-0.679,0.19-0.143
						c-0.115-0.381-0.227-0.763-0.355-1.14l0.146-0.149c-0.111-0.266-0.148-0.263-0.072,0.073c-0.065-0.413-0.863-1.619-0.457-1.532
						c-0.463-0.831-0.522-1.17-1.062-2.171c0.509,0.732-0.216-1.001,0.236-0.188c-0.158-0.528-0.379-0.551-0.597-0.919
						c-0.107-0.394,0.131-0.315,0.385,0.049l-0.302-0.423l0.037-0.008l-0.295-0.35c-0.134-0.462,0.118-0.175-0.092-0.618
						l-0.193-0.016l-0.077-0.334c-0.006,0.145-0.17-0.094-0.362-0.392l0.035-0.012l-0.244-0.355
						c0.303,0.316-0.173-0.354,0.025-0.246c-0.19-0.317-0.188-0.328-0.579-0.869l-0.028,0.159c-0.556-0.672,0.121-0.123-0.267-0.711
						l-0.08,0.108c-0.4-0.959-1.096-1.326-1.455-1.988c0.291,0.316,0.34,0.142,0.306,0.156c-0.43-0.483-1.093-1.307-1.66-1.693
						c-0.03-0.303-0.023-0.389-0.447-0.941c-0.357-0.352-0.429-0.387-0.619-0.428c-0.293-0.394-1.04-0.928-0.971-1.042
						c-0.153,0.003-0.312-0.308-0.575-0.411l-0.008-0.079l-0.051,0.124c-0.476-0.777-1.218-0.799-1.766-1.508L51.13,6.78
						l-0.325-0.177c-0.015-0.08,0.126-0.019,0.183-0.067c-0.455-0.342-0.922-0.668-1.394-0.988l0.228,0.266
						c-0.306-0.19-0.576-0.212-0.881-0.497c0.679,0.198-0.478-0.305-0.5-0.481l0.341,0.146c-0.438-0.248-0.438-0.248-0.467-0.116
						c-0.585-0.283-0.265-0.435-0.857-0.604l0.371,0.211c0.071,0.128-0.243,0.063-0.493-0.071c-0.05-0.048-0.201-0.193-0.002-0.105
						c-0.471-0.202-1.128-0.602-1.354-0.649c-0.233-0.153-0.113-0.197,0.037-0.163c-1.04-0.359-0.438-0.237-1.49-0.568l0.045-0.06
						l-0.381-0.064l-0.446-0.337l0.146,0.157c-0.34-0.118-0.567-0.15-0.949-0.328l0.195-0.043C42.158,1.961,42.073,1.689,41.1,1.56
						c-0.059-0.036,0.096-0.03,0.175-0.025c-0.91-0.076-0.606-0.369-1.537-0.386c0.062-0.021-0.023-0.088,0.018-0.11l-0.419-0.021
						l0.062-0.134L39.024,1.02l-0.219-0.196l-0.171,0.037C38.253,0.503,37.6,0.599,37.03,0.312l0.077,0.195
						c-1.545,0.148-3.454-0.576-5.315-0.357l0.03-0.145l-0.756,0.196C30.652,0.104,31.306,0.069,31.176,0
						c-0.812,0.12-0.33,0.226-1.27,0.334c-0.49-0.052,0.159-0.126,0.383-0.188c-0.883,0.126-2.169,0.367-2.802,0.392
						c-0.011,0.022-0.045,0.053-0.013,0.056c-0.573,0.155-1.349,0.239-1.983,0.393c0.001-0.068,0.157-0.113,0.312-0.161
						c-0.23,0.041-0.555,0.064-0.734,0.181l0.21-0.18c-0.497,0.088-1.402,0.451-1.549,0.342c0.074,0.037,0.079,0.148-0.338,0.266
						c-0.297-0.148-1.099,0.439-1.788,0.566c0.061-0.078,0.538-0.259,0.402-0.213c-0.35,0.06-0.611,0.265-0.871,0.441l0.056-0.117
						c-0.492,0.23-0.976,0.473-1.452,0.729c-0.316-0.114-1.371,0.675-1.339,0.485c-0.521,0.252,0.478-0.13-0.166,0.22
						C18.016,3.549,17.67,3.892,17.63,3.75l0.061-0.052l-0.446,0.251l0.218-0.276c-0.379,0.232-0.587,0.522-0.554,0.625
						c-0.403,0.134-0.876,0.497-1.104,0.487l0.113-0.111c-0.964,0.66-1.856,0.738-2.465,1.487c-0.067,0.024-0.083-0.009,0.036-0.094
						L12.9,6.499l0.072-0.19c-0.289,0.288-0.569,0.583-0.845,0.88l-0.034-0.065c-0.637,0.482-1.547,1.342-2.254,2.084l0.085-0.131
						C9.213,9.946,9.117,9.8,8.617,10.457c0.005-0.035,0.019-0.06,0.036-0.084l-0.487,0.555l0.056-0.168
						c-0.247,0.508-1.162,1.073-0.848,0.895c-0.143,0.284-0.406,0.754-0.388,0.883C6.507,13.181,6.79,12.634,6.446,13
						c-0.35,0.468-0.306,0.623-0.801,1.24l-0.052-0.053l-0.536,0.979l0.052-0.148c-0.31,0.791-0.73,0.791-0.774,1.521
						c-0.228,0.276-0.489,0.893-0.605,0.796c-0.392,0.976-0.69,1.733-1.029,2.712c-0.28,0.066-0.075,0.208-0.421,0.748l0.135,0.002
						c-0.502,1.365-1.295,2.894-1.588,4.501l-0.134,0.017l0.068,0.348C0.338,27.361,0.035,29.618,0,31.015
						c0.047,0.461,0.183,1.154,0.152,1.876l-0.019-0.076l0.345,3.945c-0.065-0.077-0.083,0.062-0.139-0.085
						c0.183,0.305,0.118,0.799,0.166,1.091l0.039-0.356c0.18,0.367,0.16,0.937,0.11,1.15l0.255,0.579
						c-0.003,0.043-0.009,0.108-0.028,0.121l0.089,0.093L0.877,39.71c0.069,0.143,0.301,0.93,0.528,1.132
						c-0.038,0.071,0.069,0.64-0.076,0.217c0.185,0.729,0.389,1.456,0.626,2.172l-0.06-0.354c0.109-0.081,0.399,0.531,0.472,0.877
						c-0.258-0.395-0.184,0.025-0.201,0.243c0.173,0.265,0.011-0.289,0.134-0.162c0.211,0.334,0.557,1.067,0.585,1.275l-0.137-0.191
						c0.25,0.461,0.138,0.773,0.367,1.238c0.285,0.38,0.357,0.725,0.51,0.543c0.335,0.578-0.019,0.297,0.058,0.501
						c0.234,0.235,0.618,1.088,0.584,1.247c0.448,0.163,0.821,1.616,1.133,1.583l0.174,0.545c0.069-0.025,0.265-0.025,0.542,0.324
						c0.172,0.39,0.015,0.379,0.029,0.526l0.383,0.071c1.17,2.147,3.497,4.383,5.408,6.238c0.957,0.715,2.229,1.509,3.38,2.273
						l-0.149-0.053c0.374,0.269,0.754,0.527,1.139,0.781c-0.266-0.208-0.535-0.407-0.792-0.623c0.269,0.136,0.5,0.208,0.745,0.36
						c1.232,0.866,2.999,1.903,4.797,2.434c1.234,0.125,0.66,0.54,1.832,0.69c-0.103-0.004-0.15,0.027-0.244,0.028
						c1.221,0.276,1.894,0.399,3.142,0.491c-0.204,0.275,0.792,0.157,0.653,0.291l0.124-0.104c0.255,0.133,0.895,0.259,0.789,0.334
						l0.566-0.07l0.029,0.133c0.72,0.126,2.283,0.166,2.651,0.434c1.818-0.062,4.662-0.083,6.917-0.403
						c0.299-0.153,0.949-0.271,1.452-0.386l0.571,0.034c0.508-0.158,1.002-0.478,1.497-0.514c0.001,0.018-0.016,0.035-0.045,0.053
						c0.507-0.168,1.019-0.237,1.449-0.524c0.559-0.168,1.119-0.292,0.998-0.096c-0.029-0.25,1.178-0.4,1.179-0.406
						c-0.011-0.017,1.801-0.607,4.375-2.064c2.569-1.445,5.846-3.882,8.569-7.16c2.752-3.245,4.868-7.295,5.921-11.013
						c1.087-3.718,1.178-7.013,0.913-8.814c-0.113-0.249-0.172-0.914-0.328-0.664c-0.039-0.51,0.183-0.743,0.06-0.844
						c-0.092,0.692-0.32-0.213-0.483,0.458l-0.025-0.43c-0.088-0.089,0.093,0.586-0.066,0.478l0.231,0.125
						c-0.039,0.35-0.102,0.539-0.184,0.659c0.079,0.329,0.386,0.559,0.189,1.336l0.004-0.218c-0.046,0.639-0.185,0.378-0.233,0.507
						l0.014-0.14l-0.166,0.522c0.119-0.396-0.015-1.079-0.031-0.729c-0.131,0.747,0.074-0.19,0.053,0.377
						c-0.019,0.352-0.135,0.241-0.205,0.218l-0.062,0.627c-0.105-0.035,0.053-0.413-0.088-0.173l0.014,0.8
						c-0.287,0.106,0.002,0.876-0.318,1.188c0.035-0.571-0.099,0.034-0.171-0.071c-0.077,0.456-0.165,0.909-0.261,1.36
						c-0.064,0.12-0.006-0.373-0.037-0.165c-0.126,0.237-0.031,0.431-0.064,0.567c-0.095,0.101-0.254,1.002-0.421,0.917
						c-0.377,0.863,0.12,0.444-0.24,1.25c-0.139,0.076,0.184-0.67-0.04-0.334l-0.243,0.871c-0.023-0.095-0.109-0.223,0.015-0.536
						c-0.919,2.271-1.985,3.201-2.885,5.176c-0.264,0.204,0.03-0.235,0.06-0.467c-0.612,1.463-1.354,1.762-2.086,2.855l0.075,0.082
						c-1.329,1.315-2.618,3.126-4.247,4.44l0.232-0.114c-0.134,0.274-0.472,0.594-0.696,0.857c-0.077-0.008,0.036-0.333-0.394,0.092
						c0.12-0.051,0.341-0.187,0.317-0.098c-0.768,0.483-1.875,1.318-3.167,2.133c-1.284,0.824-2.761,1.609-4.113,2.15
						c-3.559,1.73-7.854,2.435-11.7,2.491c0.588-0.016,0.344,0.255-0.105,0.198c-1.205-0.457-2.119,0.022-3.329-0.422
						c-2.265-0.119-4.119-0.962-6.19-1.317l0.004-0.134c-0.273-0.16-0.383-0.101-0.693-0.208l0.021-0.03
						c-0.704-0.315-1.613-0.571-1.988-0.822l-0.087,0.119c-0.423-0.186-0.169-0.2-0.628-0.338l0.045-0.059l-0.553-0.129
						c0.163-0.194-1.137-0.635-1.39-0.938c-0.534-0.264-1.549-0.79-2.249-1.372c-0.064-0.199-0.945-0.871-1.438-1.379
						c-1.076-0.85-2.518-2.199-3.596-3.579l-0.105,0.13l-0.3-0.348c0.032-0.018,0.008-0.078,0.065-0.035
						c-0.078-0.39-0.699-0.794-0.822-1.162c0.014,0.275,0.172,0.271,0.326,0.48c0.167,0.347-0.179,0.158-0.419-0.299l0.035-0.013
						l-0.273-0.231c0.081-0.106-0.056-0.396,0.028-0.503c-0.875-1.214-1.595-1.986-2.26-3.4c0.197,0.081-0.525-0.988-0.164-0.814
						c-0.476-0.806-0.116,0.226-0.455-0.089c-0.109-0.238-0.281-0.465-0.215-0.545c0.104,0.089,0.054-0.255,0.159-0.069
						l-0.262-0.566c-0.005-0.063,0.079,0.051,0.119,0.108c-0.618-1.125-0.65-2.155-1.105-3.2c-0.109-0.056,0.104,0.44-0.006,0.387
						c-0.495-1.057-0.125-1.017-0.498-2.026l0.169,0.188c-0.157-0.315-0.299-0.442-0.311-1.021c0.123-0.124,0.209,0.449,0.337,0.7
						c-0.084-0.378-0.298-1.336-0.374-1.019c-0.131-0.452-0.024-0.643-0.027-0.895c-0.037-0.004-0.026,0.444-0.137,0.184
						c-0.019-0.641-0.142-1.613-0.185-2.39c0.036,0.004,0.087-0.054,0.109,0.013C3.728,33.946,4.048,33.993,3.978,33.144z"/>
					<path fill="#6E7072" d="M27.623,3.176l-0.319,0.032c0.006,0.032-0.001,0.071-0.139,0.134L27.623,3.176z"/>
					<path fill="#6E7072" d="M13.968,9.333c-0.023,0.034-0.047,0.067-0.064,0.103C13.961,9.381,13.97,9.353,13.968,9.333z"/>
					<path fill="#6E7072" d="M11.458,12.021c0.16-0.209-0.032-0.071-0.146-0.001C11.329,12.044,11.358,12.063,11.458,12.021z"/>
					<path fill="#6E7072" d="M36.209,2.599c-0.058,0.007-0.095,0.022-0.089,0.054C36.198,2.635,36.217,2.618,36.209,2.599z"/>
					<path fill="#6E7072" d="M56.271,14.459l-0.04-0.089C56.232,14.391,56.247,14.422,56.271,14.459z"/>
					<path fill="#6E7072" d="M55.633,13.27c-0.039-0.052-0.098-0.114-0.188-0.196C55.515,13.169,55.578,13.228,55.633,13.27z"/>
					<path fill="#6E7072" d="M30.405,2.504c-0.089,0.01-0.174,0.027-0.248,0.065C30.294,2.553,30.361,2.53,30.405,2.504z"/>
					<path fill="#6E7072" d="M55.241,12.882l-0.205-0.266c-0.009,0.005-0.016,0.006-0.024,0.014L55.241,12.882z"/>
					<path fill="#6E7072" d="M56.502,14.811c-0.072-0.109-0.176-0.252-0.231-0.352C56.336,14.618,56.412,14.725,56.502,14.811z"/>
					<path fill="#6E7072" d="M44.733,4.795l-0.035-0.012C44.434,4.735,44.594,4.777,44.733,4.795z"/>
					<polygon fill="#6E7072" points="54.086,11.953 54.06,11.916 53.964,11.872 					"/>
					<path fill="#6E7072" d="M57.269,16.03c-0.037-0.051-0.073-0.096-0.112-0.124l0.089,0.167
						C57.251,16.048,57.259,16.037,57.269,16.03z"/>
					<path fill="#6E7072" d="M49.018,7.438c0.108,0.007,0.16-0.003,0.178-0.024C49.101,7.354,49.028,7.334,49.018,7.438z"/>
				</g>
			</g>
		</g>
	</g>
</g>
<polygon fill="#6E7072" points="46.61,11.022 51.576,11.022 49.093,15.161 52.403,15.096 48.775,20.061 51.64,20.061 44.001,25.981 
	46.429,22.014 44.001,21.971 46.484,17.672 42.792,17.672 "/>
<polygon fill="none" stroke="#6E7072" stroke-width="2" stroke-linecap="square" stroke-miterlimit="10" points="9.362,31.892 
	16.35,27.581 16.35,22.813 20.678,21.06 22.153,24.534 36.378,19.09 47.278,33.995 45.788,36.323 29.483,45.548 19.79,32.853 
	10.294,34.835 "/>
<polyline fill="none" stroke="#6E7072" stroke-width="2" stroke-linecap="square" stroke-miterlimit="10" points="12.343,38.325 
	12.343,45.548 28.319,55.143 43.738,46.107 43.738,41.908 "/>
<polygon fill="#6E7072" points="21.565,44.525 25.105,46.734 25.105,53.214 21.565,51.086 "/>
<polygon fill="#6E7072" points="15.977,40.434 15.977,36.323 19.237,37.63 19.237,41.908 "/>
<polygon fill="#6E7072" points="24.267,31.498 29.95,28.467 35.261,36.323 29.765,39.31 "/>
<polygon fill="#6E7072" points="31.254,27.733 36.845,24.534 42.153,32.32 36.704,35.602 "/>
</svg>
