<svg xmlns="http://www.w3.org/2000/svg">
    <symbol id="plus" viewBox="0 0 512 512">
        <g>
            <path d="M256 512C114.836 512 0 397.164 0 256S114.836 0 256 0s256 114.836 256 256-114.836 256-256 256zm0-480C132.4805 32 32 132.4805 32 256s100.4805 224 224 224 224-100.4805 224-224S379.5195 32 256 32z"/>
            <path d="M368 272H144c-8.832 0-16-7.168-16-16s7.168-16 16-16h224c8.832 0 16 7.168 16 16s-7.168 16-16 16z"/>
            <path d="M256 384c-8.832 0-16-7.168-16-16V144c0-8.832 7.168-16 16-16s16 7.168 16 16v224c0 8.832-7.168 16-16 16z"/>
        </g>
    </symbol>
    <symbol id="fleche_gauche" viewBox="-31.005 -43.053 23.0953 28.8694">
        <path d="M1.682 16.831s-3.783-2.428 0-4.855L19.313.654s3.783-2.428 3.783 2.067v23.361s0 4.496-3.783 2.068z" clip-path="url(#SVGID_2_)" transform="translate(-31.0057 -43.053)"/>
    </symbol>
    <symbol id="fleche_droite" viewBox="-31.005 -43.053 23.0953 28.8694">
        <path d="M-9.591-26.222s3.783-2.428 0-4.855l-17.631-11.322s-3.783-2.428-3.783 2.067v23.361s0 4.496 3.783 2.068z" clip-path="url(#SVGID_2_)"/>
    </symbol>
    <symbol id="souscrire" viewBox="0 0 367.805 367.805">
        <g>
            <path fill="#fff" d="M183.903.001c101.566 0 183.902 82.336 183.902 183.902s-82.336 183.902-183.902 183.902S.001 285.469.001 183.903C-.288 82.625 81.579.29 182.856.001c.349-.001.698-.001 1.047 0z"/>
            <path fill="#333" d="M285.78 133.225L155.168 263.837l-73.143-72.62 29.78-29.257 43.363 42.841 100.833-100.833z"/>
        </g>
    </symbol>
    <symbol id="coop" viewBox="-22.802 -28.931 68.642 75.849">
        <circle cx="11.381" cy="-20.558" r="8.373"/>
        <circle cx="-14.429" cy="-3.811" r="8.373"/>
        <circle cx="37.466" cy="-3.811" r="8.374"/>
        <path d="M-17.091 6.861s-18.335 25.626 27.812 40.057c0 0-29.734-24.341-.777-42.357 0 0-4.701-6.539-13.561-5.535 0 0-3.139 8.639-13.474 7.835zM40.254 6.861S58.59 32.487 12.442 46.918c0 0 29.734-24.341.777-42.357 0 0 4.701-6.539 13.562-5.535 0 0 3.137 8.639 13.473 7.835zM3.009-11.807S-.973-9.082-2.562-3.812c0 0 6.67-1.882 14.004 6.23 0 0 5.867-7.833 13.738-5.583 0 0-1.125-4.584-5.426-8.643 0 0-5.161 2.892-8.312 2.892s-8.433-2.891-8.433-2.891z"/>
        <path d="M18.929 20.871c-.278.318-.688.291-1.334.701.027-.021.048-.039.061-.055.197-.223-.764-.084-1.235.388-.382.404-.928.553-1.513.627-.587.079-1.207.088-1.767.241-.278.075-.586.084-.927.129-.882.191-1.761.225-2.652.173-.893-.051-1.796-.179-2.776-.375-.519-.114-.924-.415-1.302-.658-.149-.069-.304-.145-.459-.199-.079-.03-.155-.058-.226-.088a2.0164 2.0164 0 01-.193-.106c-.184-.118-.347-.234-.479-.384-.134-.143-.262-.272-.354-.437.121.164.253.272.378.403.064.062.126.131.203.19.076.058.155.118.246.185.05.033.079.041.087.03.036-.042-.174-.347-.267-.461-.038-.08-.254-.014-.296-.098-.068-.056-.123-.125-.171-.198-.044-.082-.085-.168-.131-.253-.028-.082-.146.034-.161-.006a.6256.6256 0 01-.085-.172c-.018-.06-.027-.126-.036-.183-.016-.114-.034-.21-.099-.262-.044-.045-.093-.084-.133-.126-.036-.042-.077-.081-.114-.122-.039-.054-.08-.11-.11-.176-.009-.043-.015-.094-.021-.142-.027-.15-.049-.312-.064-.473a.488.488 0 00.051-.008c0-.063-.012-.119-.063-.177-.001-.017-.003-.034-.003-.052.002-.003.003-.004.003-.007.007-.006.01-.015.012-.026l-.018-.006c-.003-.113-.001-.23.006-.339l.015.002c.011.192.069.377.22.526-.027-.02-.044-.021-.055-.01-.011.014-.014.042-.002.086l.102.043c-.007-.091-.011-.178-.037-.257-.022-.081-.052-.155-.133-.224 0 0 .017-.08.03-.119-.027-.049-.079-.04-.125-.046-.001-.038 0-.079 0-.119.046.039.103.116.147.183.052.062.095.116.095.116.101.46.315.865.569 1.216-.008.046-.026.086.017.109.044.014.078.029.109.05.039.05.076.1.116.147.012.02.024.038.037.059l-.008-.032c.103.097.208.194.311.295.019.027.042.05.058.067.064.084.132.168.233.145.021.017.043.031.062.045l-.019.004.03.004c.085.067.187.11.28.165.04.063.081.137.131.194-.051-.058-.091-.131-.131-.194.093.049.184.104.28.149.1.04.198.082.3.125.656.25 1.322.402 2 .504.683.097 1.383.138 2.128.104.807-.04 1.58-.156 2.325-.324.745-.168 1.463-.259 2.175-.403.713-.141 1.425-.331 2.122-.702.542-.271 1.61-.461 2.151-.604.789.051.633.833.605.885-.057.144-.123.25-.196.333m-13.848.262c.01.009.024.011.045.008.058.001.139-.028.216-.045.078.075.217.108.345.085-.089-.125-.214-.111-.345-.085-.039-.033-.064-.074-.068-.123.004.049.03.09.068.123-.077.017-.158.046-.216.045-.021.002-.035 0-.045-.008m-.171-.139c.044-.025.072-.021.094-.006-.022-.014-.049-.019-.094.006m-.716-.721c.044.065.098.116.171.105-.089-.083-.177-.166-.266-.246-.005-.006-.007-.013-.011-.018v.001c.005.016.003.026-.002.034-.01.011-.028.013-.048.013-.03-.009-.062-.011-.093-.011.018 0 .06.011.093.011.037.009.073.021.107.043.016.024.032.048.049.068m-1.147-1.314l-.006.056h.006c.004-.019.01-.035.016-.057zm14.548 2.613a.5567.5567 0 01-.08.051c.027-.017.051-.034.08-.051M4.156 20.213c-.003 0-.006-.003-.011-.007-.015-.023-.03-.048-.045-.073.02.028.038.052.053.073 0 .004.002.007.003.007m-.915-1.309a.153.153 0 01-.022-.023.222.222 0 00.022.023M7.511 14.911a.3181.3181 0 01-.077.062c-.072.038-.072-.053-.177.075-.003.005-.14-.081-.144-.075.04-.067.074.014-.008.088-.062-.008-.163.023-.236.113-.032.04-.138-.101-.156-.04-.025.092-.138-.03-.181.021-.08.099-.184.138-.3.163-.174.038-.374.048-.514.165-.067.062-.162.076-.251.127-.212.18-.502.352-.732.455-.226.103-.357.314-.547.487-.049.044-.147.088-.147.088-.071.013.014.405-.053.423-.015.009-.104-.17-.115-.157-.02.024-.228.132-.239.161-.013.028.052.247.036.266 0 .003-.002.005-.005.007a.0198.0198 0 00-.006.011c-.062.072.122.223.04.266.064-.069-.132-.216-.056-.285 0-.001.001-.002.002-.006.039-.047-.157-.056-.213-.034-.003 0-.006.002-.006.003-.006.007.004.027.016.051.012.021.022.043.016.051-.002.001-.004.001-.006.001l-.002.002c-.027.034.181.151.123.174-.003 0-.005.001-.006.004-.004.005.013.018.03.031.018.016.034.029.034.029s0 .001-.004.001c-.051.033-.18.02-.205.052a.0218.0218 0 00-.005.017c.002.038.005.07.012.104 0 .02-.001.038-.012.052a.2256.2256 0 01-.043.024c-.03-.024-.073-.042-.116-.062 0 .021.017.055.017.074 0-.02-.017-.054-.017-.074.043.021.086.038.116.062a.5895.5895 0 00-.164.122c-.007-.004-.01-.01-.017-.014.003.005.007.012.009.018-.032.032-.067.065-.097.102l-.01-.003c.026-.055.03-.109-.018-.188.018.023.042.026.056.01.002-.002.003-.004.004-.006l-.05-.041c-.014.012-.028.023-.04.037-.029.034-.038.074.014.123 0 0-.033.018-.049.026.012.021.05.029.082.038-.006.011-.012.021-.018.033-.059-.035-.11-.135-.11-.135.021-.078.042-.155.07-.229.025-.073.05-.146.083-.215.021 0 .043.004.048-.004.002-.003.002-.006.002-.011-.015-.021-.022-.037-.025-.052l.025-.06.022-.018-.016.004.068-.139a.1377.1377 0 01.026-.022c.013-.01.028-.018.038-.028.012-.016.014-.033-.005-.062l.014-.025.006.011-.002-.015.059-.102c.038-.067.085-.132.129-.195.034-.05.071-.096.107-.14.285-.348.491-.974.867-1.244.232-.17.447-.436.667-.607.236-.185.326-.335.635-.466.24-.102.466-.157.775-.247.178-.166.578-.204.796-.234 1.065.335.459.818.459.847-.024.149-.263.103-.303.154m-4.35 3.027c.007.012.018.039.03.057a.1954.1954 0 00-.03-.057m.126-.206a.0385.0385 0 00-.008.024.215.215 0 01.017.082l.021-.067.027-.062c-.024.008-.044.01-.057.023m.6-.882l.087-.021c.019-.039-.008-.068-.023-.1-.055.04-.104.083-.145.134-.004.004-.008.008-.012.013a.5858.5858 0 00-.097.178c.009-.046-.019-.055-.067-.015l.006.083c.057-.034.032-.257.079-.298.013-.012.024-.024.036-.037.027-.033.124.115.136.063m.061-.128l.004.009a.6594.6594 0 00.07-.047v-.004c-.025.014-.05.029-.074.042m-.757.7c.02-.003.035.01.045.024.008.014.017.028.028.04-.007-.008-.016-.025-.028-.04-.007-.016-.012-.032-.01-.047a.2356.2356 0 00-.035.023m.335-.446c.016.041.034.079.041.108.005.009.005.014.002.017.003-.003.003-.008-.002-.017-.007-.028-.026-.067-.041-.108m-.024.163c.002.001.002.005.003.006-.001-.002-.001-.005-.003-.006m.03-.038h0m-.031.034c0 .003 0 .003.001.004-.001-.001-.001-.001-.001-.004M3.489 17.101c.006-.005.022-.003.041 0h.001-.001c-.019-.002-.035-.004-.041 0m.008.034H3.5h-.003m-.25.242c.005-.003.009-.005.012-.011.012-.015.015-.034-.007-.064l-.054.115c.01-.008.014-.017.024-.021.001-.003.003-.003.003-.003v.006c.008-.007.016-.012.022-.022m.279-.401a.0382.0382 0 00.027-.019c.019-.022.022-.061.011-.11-.023 0-.034.004-.045.014-.018.025-.008.07.007.115M-.78 28.884c-.037-.002-.075.005-.119.019-.049 0-.057-.041-.075-.087.064.026.129.048.194.068M-.54 28.976a.5426.5426 0 00-.057-.035l.033.011zM-.276 29.104c-.064-.013-.118-.039-.168-.07.051.008.106.027.168.07"/>
        <path d="M-.444 29.034c-.04-.003-.08 0-.116.011.011-.007.02-.014.027-.021.011-.014.011-.029-.003-.047l-.004-.001c.032.019.063.039.096.058M-.56 29.045c-.027.014-.065.022-.082.028a.4936.4936 0 01.082-.028m-.082.028l-.002.003.002-.003M.489 30.168c-.009.01-.036.01-.083-.011-.367-.146-.603-.252-.922-.407-.244-.166-.476-.324-.723-.493-.069-.039-.146-.059-.222-.076.103.014.208.03.322.051.155.018.245.271.452.391.009.01.019.001.032-.015a.175.175 0 00.016-.019c.006-.006.01-.013.016-.021.022-.024.047-.041.073-.015.145.103.256.229.412.272.059.06.23-.079.289-.021.118.078.374.319.338.364M-1.867 28.576c-.034.014-.069.027-.103.041-.05-.029-.066-.059-.05-.074.005-.011.021-.015.042-.017-.208 0-.375-.067-.533-.161h.002a.0719.0719 0 01.018-.021.0951.0951 0 01.015-.02c.018-.022.042-.04.079-.039.022.032.071.096.071.096.198-.035.326.079.459.195M-2.511 28.365l-.01.011c-.031-.022-.061-.047-.091-.068l.006-.001c.03.019.064.039.095.058M17.535 30.037c-.305.344-.714.267-1.413.647a.4824.4824 0 00.074-.06c.172-.195-.772-.124-1.264.307-.41.376-.96.484-1.545.517-.582.038-1.197.004-1.757.124-.281.055-.581.05-.922.075-.875.15-1.729.143-2.589.093-.861-.048-1.729-.153-2.657-.221-.492-.046-.9-.26-1.296-.394-.292-.071-.624-.046-.865-.086-.38-.069-.695-.195-.989-.325.341.097.585.193.97.289.047.01.071.009.082-.001.039-.046-.252-.252-.381-.318-.067-.05-.218.106-.282.056-.159-.035-.291-.129-.448-.216-.022-.019-.04-.01-.057.009-.009.009-.018.023-.027.035-.006.014-.015.025-.021.034-.006.009-.012.011-.02.005-.224-.09-.347-.336-.504-.327-.119-.003-.222-.005-.327-.007-.064-.007-.129-.017-.189-.042l-.114-.074c-.272-.168-.585-.362-.875-.529l.009-.013c-.033-.017-.069-.031-.104-.047.104-.055.376-.079.376-.079.115.038.227.073.338.109.113.03.225.06.335.092.223.055.438.114.656.156.024.039.041.081.089.073.04-.021.079-.031.117-.034.064.013.126.025.19.036.021.008.04.02.062.027l.001.002c.021.02.021.037.006.05-.002.007-.011.011-.019.018a.3778.3778 0 00-.082.043c.018-.011.055-.024.082-.043a.2917.2917 0 01.113-.021c-.036-.017-.069-.032-.102-.048l-.026-.021c.143.024.286.054.433.072.032.011.063.021.088.031.1.044.199.086.28.019.026.003.053.007.079.011l-.016.01.03-.009c.11.015.22.029.331.043.217.022.438.043.66.064 1.439.118 2.765.23 4.262.186.81-.038 1.589-.115 2.343-.251.753-.131 1.473-.175 2.193-.269.719-.093 1.438-.232 2.159-.553.556-.229 1.627-.34 2.168-.448.39.056.524.271.569.482.051.21-.013.418-.027.442-.056.116-.115.207-.177.279m-13.755.229c.098.044.239.039.361-.025-.122-.089-.248-.041-.361.025m-.19.11c.059-.026.123-.07.189-.109-.066.039-.13.082-.189.109M3.342 30.32c0 .001-.002.004-.003.004.001 0 .003-.004.003-.004m0 0zm-.77-.302c-.125-.016-.247-.039-.368-.06.032.012.063.021.085.033l.01.005h-.013c.025.011.052.021.077.027.073.032.145.045.209-.005m-1.553.114zm.07-.114c-.02.04-.041.079-.07.112.029-.032.05-.072.07-.112m-.098.139l.002-.002s0 .001-.002.002m.101-.145v0m-.214-.011c.061.009.156-.004.217.004-.061-.008-.156.005-.217-.004m-.238-.283c-.016.021.002.049.061.072l.097-.059c-.151-.09-.297-.19-.488-.126 0 0-.057-.057-.084-.086a.091.091 0 00-.057.031c-.018.018-.028.044-.043.064.172.071.348.112.556.083-.022.007-.033.015-.042.021m15.481.966c-.024.013-.051.029-.083.045.027-.015.055-.032.083-.045M.707 29.696c-.01.001-.019.001-.026.002a.1836.1836 0 01.026-.002"/>
        <path d="M2.462 30.044a.3778.3778 0 01-.1-.02c-.021-.009-.044-.017-.064-.027a.364.364 0 01.164.047"/>
        <path d="M2.572 30.018c-.064.05-.136.036-.209.006a.37.37 0 00.1.02c-.061-.032-.113-.045-.164-.047l-.01-.005c-.022-.012-.053-.021-.085-.033.121.02.243.044.368.059M9.691 27.548a.2402.2402 0 00-.044.037c-.005.007-.011.016-.019.025-.026.021-.042-.017-.064-.047zM9.829 27.53l-.023.004.043.012zM10.03 27.566c-.04.013-.076.009-.112-.002.03-.014.066-.014.112.002M9.918 27.564a.183.183 0 00-.056.042c-.003.003-.004.007-.007.009.015-.025.019-.052-.005-.068v-.001c.021.008.044.013.068.018"/>
        <path d="M9.817 27.677v-.003.003m0-.003a.4971.4971 0 01.038-.059c-.011.022-.029.043-.038.059M10.723 28.298c-.006.006-.022.013-.042.013-.242-.008-.401-.039-.62-.062-.179-.058-.349-.128-.528-.18-.049-.007-.096.01-.144.021.061-.028.122-.056.193-.083.091-.052.205.154.353.186.001.004.005.004.006 0 .005-.005.008-.028.011-.052.005-.023.009-.049.019-.06.006-.007.012-.007.02 0 .108.042.203.111.301.107.015.01.03 0 .046-.019.011-.012.021-.028.033-.042.009-.016.021-.03.03-.044.016-.019.032-.026.047-.019.091.036.313.189.275.234M8.956 27.783c-.05-.008-.062-.04-.034-.071.001-.004.002-.006.006-.006-.117.087-.228.102-.34.086.009-.038.009-.084.033-.109.004-.004.006-.008.01-.01.021.019.063.055.063.055.001-.001.003-.001.003-.004.103-.114.202-.068.305-.021zM8.586 27.806a.484.484 0 00-.067-.023l.003-.004c.023.005.046.009.068.014zM20.939 26.444c-.164.187-.406.143-.754.437.002-.005.006-.01.012-.015.092-.104.004-.16-.143-.151-.146.012-.355.093-.506.263a.7002.7002 0 00-.074.1c-.035.06-.074.111-.113.156-.452.515-1.236.242-1.824.499-.162.068-.344.072-.547.119-1.011.391-2.023.287-3.126.486-.294.038-.57-.077-.827-.131-.185-.006-.369.097-.517.116-.229.028-.438-.012-.637-.062.218.005.379.037.619.032.023-.002.036-.007.042-.015.04-.044-.19-.187-.285-.217-.013-.009-.027-.002-.039.014a.2643.2643 0 00-.034.049c-.012.018-.022.034-.033.047-.015.017-.028.022-.044.017-.097.009-.194-.057-.302-.092-.01-.005-.017-.005-.021 0-.009.012-.013.038-.015.062-.002.023-.004.047-.01.052 0 .003-.002.004-.006.003-.147-.023-.274-.223-.361-.168-.067.034-.128.062-.188.094-.039.012-.075.021-.117.02-.026-.014-.053-.024-.081-.036-.196-.082-.42-.152-.625-.207l.003-.016c-.024 0-.047-.004-.071-.007.011-.023.03-.047.052-.071.059-.067.139-.135.139-.135.294-.017.574-.04.841-.084.023.03.042.065.068.044a.1737.1737 0 01.026-.037.2098.2098 0 01.032-.029l.119-.021.042.009-.022-.012.268-.053c.022.004.042.005.059.008.054.014.108.026.146-.016.006-.009.016-.021.022-.037l.046-.011-.006.016.015-.017.202-.045c.13-.029.263-.06.397-.092.87-.209 1.681-.313 2.58-.531.485-.127.946-.271 1.396-.449.886-.347 1.765-.288 2.617-.878.326-.212 1-.269 1.344-.321.508.171.42.911.404.955-.046.177-.097.283-.163.358m-8.31 1.02c.057.019.123-.008.176-.067.011-.011.02-.026.03-.038-.063-.04-.111-.019-.153.028a.519.519 0 00-.053.077m-.157.134c.022.025.046.047.062.028-.016.018-.04-.003-.062-.028m.07.017c-.002.003-.004.008-.005.01.001-.002.003-.007.005-.01m.087-.151c-.03.053-.059.112-.085.149l-.001.002.001-.002c.027-.037.055-.097.085-.149m-.085-.073c.013.02.025.034.04.046-.015-.011-.027-.026-.04-.046m-.14.185c-.007.008-.013.021-.017.043.004-.021.01-.035.017-.043m.003-.001zm-.651.015c.037.004.071.002.097-.026a.1058.1058 0 00.02-.037l-.224.045c.019.004.041.005.056.008.002.001.004.001.006.001-.004.002-.006.004-.01.005.02 0 .039.004.055.004m-.121-.022l.002.001c.022.016.021.041.008.067a.4749.4749 0 00-.037.063c.006-.015.025-.039.037-.063.004-.005.008-.011.012-.014.014-.018.03-.03.044-.038a.6289.6289 0 01-.066-.016m-.731.442c.036-.011.088-.054.124-.065-.036.011-.088.054-.124.065m-.187-.223c-.03.037-.018.072.036.076l.041-.085c-.102-.035-.202-.072-.289.027-.007.007-.013.016-.019.023 0 0-.046-.036-.07-.051-.003.001-.004.004-.006.005-.024.029-.021.076-.024.116.112.007.224-.015.333-.113.001.002-.001.002-.002.002m9.468-.906c-.016.013-.031.024-.049.04.018-.016.029-.028.049-.04m-9.453.893c-.003.004-.009.008-.012.012.003-.004.006-.008.012-.012M9.786 24.405a.2933.2933 0 00-.078.062c-.036.021-.055-.016-.08-.049zM9.988 24.401c-.018-.004-.037-.009-.053-.011l.029-.002zM10.212 24.419a.2765.2765 0 01-.14 0c.039-.013.084-.017.14 0M10.072 24.419c-.03.013-.058.03-.078.051.015-.023.022-.051-.006-.068.026.005.055.014.084.017"/>
        <path d="M9.942 24.532s0-.001.002-.001c-.002 0-.002.001-.002.001m.002-.001a.1914.1914 0 01.033-.041c.006-.009.01-.013.018-.021-.008.011-.017.022-.024.031-.004.001-.006.006-.006.008-.004.002-.006.004-.008.006a.0545.0545 0 00-.013.017M11.063 25.152c-.008.008-.024.014-.056.014-.302-.004-.499-.043-.771-.062-.223-.058-.432-.125-.658-.179-.062-.007-.12.006-.178.017.076-.025.154-.05.242-.077.112-.051.255.156.437.186.004.001.007.001.008-.002.008-.006.011-.029.016-.053.004-.021.01-.045.02-.055.008-.008.019-.011.03-.005.133.043.25.11.374.106.057.034.139-.152.195-.118.113.038.384.181.341.228M8.861 24.635c-.058-.009-.075-.039-.049-.065.005-.008.01-.011.016-.015-.147.088-.285.103-.425.086.007-.036.009-.079.033-.104.005-.007.011-.01.02-.016.026.02.083.058.083.058.125-.12.253-.075.383-.026zM8.399 24.655c-.031-.008-.059-.017-.085-.025l.003-.004c.027.004.055.012.086.015zM23.861 22.585c-.205.23-.51.203-.957.55.012-.008.02-.018.027-.025.098-.113-.025-.155-.219-.121-.191.036-.455.152-.637.356-.018.021-.037.043-.055.068-.027.041-.057.079-.088.115-.559.633-1.57.414-2.332.729-.203.084-.432.102-.681.167-1.271.473-2.541.431-3.923.689-.37.047-.714-.061-1.036-.101-.229.005-.462.112-.649.133-.291.029-.547 0-.793-.047.271 0 .469.024.772.016.031-.001.047-.008.055-.016.042-.047-.236-.185-.352-.211-.023-.013-.045.008-.069.036-.008.01-.017.019-.025.029a.2254.2254 0 00-.024.03c-.025.027-.05.047-.071.034-.122.014-.243-.048-.379-.079-.012-.005-.021-.004-.027.003-.01.013-.016.038-.018.061-.004.024-.006.045-.013.054-.002.001-.006.004-.009.001-.184-.019-.339-.221-.45-.165-.085.03-.162.062-.236.093-.048.012-.096.024-.147.021-.032-.01-.067-.021-.101-.033-.242-.079-.52-.139-.775-.203l.002-.016c-.028-.001-.057-.005-.087-.009.004-.008.01-.014.019-.021.071-.082.227-.178.227-.177.37-.018.719-.057 1.057-.1.029.031.052.065.083.045.004-.006.007-.011.01-.013a.259.259 0 01.064-.054l.149-.02.053.01-.024-.014.336-.061c.025.001.05.003.071.006.074.011.144.021.19-.029.006-.007.013-.019.019-.029l.06-.011-.01.017.02-.021c.084-.015.169-.032.253-.049.165-.033.333-.061.501-.1 1.091-.251 2.108-.38 3.233-.665.606-.15 1.181-.342 1.738-.549 1.111-.424 2.205-.444 3.256-1.128.406-.248 1.234-.381 1.656-.478.629.11.531.869.516.917-.051.171-.108.283-.18.365m-10.387 1.697c.08.021.175-.018.248-.101.002-.003.006-.008.009-.012-.091-.046-.162 0-.22.067-.014.017-.028.032-.037.046M13.369 24.426zm.029-.035c-.01.012-.02.025-.028.033.008-.008.018-.022.028-.033m-.036.044c0-.002.001-.004.001-.004s0 .002-.001.004m.068-.09a.515.515 0 00-.029.041c.009-.014.018-.028.029-.041m.042-.061c-.009.015-.022.029-.031.045.009-.016.022-.03.031-.045m-.286.117c.024-.029.056-.004.087.018-.031-.022-.063-.047-.087-.018m.183-.189c.009.014.019.023.032.035a.2072.2072 0 01-.032-.035m-.203.228c0 .003-.001.004-.001.006-.001-.002.001-.003.001-.006m.013-.03c-.004.008-.009.02-.013.029.004-.009.008-.021.013-.029m.005-.005c-.002.001-.002.002-.004.002.002 0 .002-.001.004-.002m0-.003zm-.809.03c.05.004.097 0 .129-.039a.0859.0859 0 00.021-.028l-.283.054c-.003 0-.01-.002-.016-.002h.002c.028.016.021.041.007.069-.001.001-.004.001-.007.005a.476.476 0 00-.039.057c.008-.015.031-.038.046-.062.021-.025.044-.045.075-.056-.022-.006-.045-.009-.066-.012.026 0 .048.001.07.005.003 0 .003.001.006.001-.003 0-.006.002-.01.006.023.002.043.002.065.002m-1.077.43c.047-.014.111-.055.157-.067-.046.012-.11.054-.157.067m-.236-.211c-.03.034-.012.065.05.067l.052-.085c-.133-.038-.265-.07-.383.051 0 0-.059-.034-.088-.05a.0374.0374 0 00-.015.013c-.024.027-.024.069-.029.105.144.012.28-.007.42-.11-.001.005-.007.007-.007.009m11.842-1.516c-.016.015-.035.029-.057.047.018-.017.039-.033.057-.047M11.09 24.629a.0718.0718 0 01-.02.014c.006-.004.012-.008.02-.014"/>
    </symbol>
    <symbol id="photovolt" viewBox="0 0 65 48">
        <g>
            <path d="M18.8542 39.2809l-3.4193 6.7914-15.0292-1.003 4.8404-6.5754zM22.184 32.8636l-2.834 5.6782-13.6287-.7907 3.9253-5.5151zM24.8072 27.4489l-2.494 4.7226-12.2713-.5878 3.2513-4.6064zM27.1682 22.8124l-1.9767 4.0523-11.5096-.4738 2.8985-3.9131zM34.0649 39.7148l-2.0032 6.9609-14.8194-.6086 3.4313-6.7792zM36.053 33.1391l-1.6537 5.8193-13.4093-.4341 2.7436-5.6779zM37.5504 27.595l-1.5047 4.8422-12.052-.2598 2.2677-4.7463zM38.9488 22.8435l-1.1346 4.148-11.2887-.1657 2.0563-4.0312zM49.3233 39.8667l-.2888 7.1779-14.4616-.1333 1.709-7.0432zM49.686 33.0816l-.2162 6.0006-13.0649-.0037 1.3055-5.8949zM49.8208 27.3651l-.3108 4.999-11.704.1276 1.064-4.923zM50.0466 22.4619l-.117 4.2807-10.9483.2009 1.0364-4.1907zM62.784 39.589l2.0253 7.0862-14.092.259.309-7.1663zM61.8295 32.7188l.9441 6.0712-11.782.1787.1347-5.9987zM60.856 26.9359l.6675 5.0597-10.44.2733.089-5.0086zM60.134 21.972l.713 4.3297-9.6876.3247.1988-4.2663zM44.8242 6.0903l-2.447-5.864-4.3058 4.6733L33.571.413l-2.1815 5.9678-5.8767-2.4162.2625 6.349-6.3549.0077 2.676 5.7632-5.864 2.4469 3.1805 2.9298 3.2783-.0373c.0394-.5688.103-1.1425.2045-1.7186C24.3982 11.1848 32.2784 5.452 40.4957 6.901c6.9537 1.226 11.902 7.2032 12.3575 14.1732l4.1914-.05 3.4515-3.4612-5.97-2.1808 2.4181-5.8764-6.35.2623-.0084-6.356-5.7616 2.6782z"/>
            <path fill="#fff" d="M24.8422 20.6507C26.167 13.1376 33.2534 8.1057 40.67 9.4134c5.9729 1.0532 10.3331 5.902 11.1128 11.673l1.0713-.011c-.4556-6.97-5.404-12.9472-12.3576-14.1733-8.2173-1.4489-16.0975 4.2838-17.5999 12.8044-.1016.576-.165 1.1488-.2045 1.7186l2.0563-.0233c.0301-.2516.0496-.5.0938-.7511z"/>
            <path d="M40.67 9.4134c-7.4166-1.3077-14.503 3.7242-15.8278 11.2373-.0442.251-.0637.4995-.0936.75l27.034-.3132c-.7793-5.773-5.1397-10.621-11.1126-11.674z"/>
        </g>
    </symbol>
    <symbol id="prod" viewBox="-22.802 -28.931 37.75 58.75">
        <path d="M1.948-12.681l13-.25-14.25 19.5h11.25l-30 23.25 9.532-15.577-9.532-.173 9.754-16.885h-14.504l15-26.115h19.5z"/>
    </symbol>
    <symbol id="capital" viewBox="-22.802 -28.931 70.2584 66.29">
        <path d="M44.2524-5.372l3.204-.645-6.702-1.106 1.369 1.475-4.293.503 1.616 1.676-.917.193c-8.237-15.438-27.996-13.637-32.863-12.49-8.477 1.997-14.875 5.125-14.875 5.125-5.125-2.875-6.875-1.5-6.875-1.5-1.125 4 1.25 8.375 1.25 8.375-4.375 4.75-3.75 11.292-3.75 11.292-2.375.417-5 3.708-4 8.833s7.625 5.125 7.625 5.125c2.125 4.25 4.875 6 4.875 6l.375 7 3.875.25.125-4.375 1.125.5.5 6.5h5.5l-.5-4.249s-13.625-.126 12.625-.001c1.127.005 2.21-.026 3.25-.09.505-.031 1-.07 1.486-.116.298-.028.579-.07.869-.104l.457 1.654h4.375l-.329-2.446c1.228-.3 2.382-.649 3.453-1.048l.563 4.963s4.5.125 4.5.078c0-.028-.347-5.796-.618-7.178 9.466-5.706 10.618-15.088 10.618-15.088.021-5.756-.874-10.426-2.378-14.242l3.964-.913-1.765-1.904 3.401-.774zm-57.274 5.231c.587 0 1.062.868 1.062 1.938 0 1.07-.476 1.938-1.062 1.938-.586 0-1.062-.868-1.062-1.938 0-1.07.475-1.938 1.062-1.938zm-5.437 14.75c-.587 0-1.062-.434-1.062-.969 0-.535.476-.969 1.062-.969.586 0 1.062.434 1.062.969 0 .535-.475.969-1.062.969zm4.375.968c-.587 0-1.062-.434-1.062-.969 0-.535.476-.969 1.062-.969.586 0 1.062.434 1.062.969 0 .535-.475.969-1.062.969zm1.062 4.782c9.438-8.625-1.062-13.625-1.062-13.625s6.625-2.5 8.375 4.125-7.313 9.5-7.313 9.5zm7.313-14.135c-.587 0-1.062-.868-1.062-1.938 0-1.07.476-1.938 1.062-1.938.586 0 1.062.868 1.062 1.938 0 1.07-.475 1.938-1.062 1.938zm10.75-19.74c10.991-3.274 16.5 0 16.5 0v2.125c-7.625-3-16.5 0-16.5 0zm-6.125 11.5s-3-5.125-1.875-7.375 7.75 2.125 8.5 2.5-4-.75-6.625 4.875zm26.226 16.107L7.2154 27.987l5.696-9.31-5.696-.104 5.83-10.09h-8.668l8.963-15.606h11.654l-5.827 9.711 7.769-.149-8.516 11.652z"/>
        <circle cx="13.3084" cy="-21.061" r="7.37" stroke="#fff" stroke-miterlimit="10"/>
        <path fill="#fff" d="M15.6564-17.488c-.408.229-1.104.456-1.871.456-1.188 0-2.255-.479-2.926-1.367-.324-.408-.564-.924-.672-1.56h-.779v-.852h.66v-.203c0-.12.012-.24.012-.36h-.671v-.852h.803c.144-.647.444-1.199.828-1.631.672-.779 1.631-1.235 2.771-1.235.72 0 1.367.168 1.799.36l-.336 1.367c-.312-.132-.815-.288-1.343-.288-.564 0-1.091.204-1.463.647-.18.192-.3.468-.384.779h2.986v.852h-3.166c-.012.12-.012.24-.012.372v.191h3.178v.852h-3.01c.084.36.216.636.396.84.384.432.947.611 1.547.611.552 0 1.116-.18 1.367-.312z"/>
    </symbol>
    <symbol id="logo" viewBox="0 0 171.9703 129.4642">
        <path fill="#caac6f" d="M156.127 50.444c-2.041 2.313-4.992 2.101-9.688 5.089.204-.146.354-.28.457-.398 1.414-1.605-5.56-.612-8.955 2.812-2.774 2.93-6.739 4.002-10.979 4.549-4.243.571-8.739.64-12.793 1.739-2.031.56-4.254.613-6.734.937-6.385 1.392-12.743 1.622-19.203 1.26-6.471-.384-13.026-1.303-20.122-2.72-3.761-.835-6.703-3.009-9.444-4.783-1.065-.494-2.193-1.045-3.325-1.442-.56-.214-1.117-.406-1.634-.626-.507-.255-.982-.511-1.406-.78-1.333-.843-2.519-1.699-3.476-2.774-.971-1.039-1.894-1.986-2.559-3.163.882 1.178 1.833 1.973 2.734 2.92.471.446.921.957 1.468 1.378.549.423 1.135.863 1.79 1.333.371.249.566.302.636.222.266-.3-1.259-2.509-1.935-3.331-.281-.575-1.844-.113-2.144-.71-.503-.413-.9-.905-1.255-1.445-.319-.588-.604-1.208-.952-1.823-.203-.606-1.056.253-1.163-.056-.279-.395-.471-.821-.621-1.242-.128-.442-.181-.901-.25-1.315-.131-.832-.247-1.522-.725-1.909-.328-.315-.668-.607-.961-.904-.281-.304-.553-.598-.823-.889-.297-.395-.586-.795-.796-1.27-.078-.319-.112-.688-.165-1.034a39.629 39.629 0 01-.464-3.425c.124-.012.253-.033.376-.044.01-.461-.095-.881-.47-1.286-.007-.13-.012-.26-.017-.391.01-.008.017-.017.027-.028.045-.05.073-.121.078-.21l-.115-.029c-.026-.837-.016-1.666.035-2.463l.11.018c.081 1.39.501 2.738 1.584 3.821-.179-.145-.319-.167-.397-.079-.082.094-.098.303-.021.624l.751.313c-.047-.653-.086-1.289-.267-1.866-.171-.584-.395-1.132-.968-1.622 0 0 .128-.578.234-.861-.21-.363-.586-.293-.917-.332-.01-.287-.009-.576 0-.867.334.274.744.843 1.071 1.315.368.463.674.851.674.851.732 3.334 2.291 6.271 4.132 8.811-.058.326-.184.621.125.809.317.081.57.206.783.352.283.358.556.725.852 1.068.084.134.171.271.26.41l-.07-.232c.758.718 1.512 1.429 2.268 2.143.131.204.302.357.418.507.473.592.965 1.201 1.693 1.039.148.104.3.212.451.32l-.148.017.229.042c.604.487 1.347.798 2.023 1.192.302.46.595.985.957 1.419-.362-.434-.655-.959-.957-1.419.683.355 1.336.756 2.042 1.081.717.298 1.442.601 2.176.905 4.759 1.824 9.565 2.927 14.501 3.651 4.938.714 10.027.998 15.421.755 5.841-.291 11.441-1.127 16.851-2.346 5.387-1.214 10.579-1.88 15.758-2.913 5.167-1.029 10.316-2.412 15.388-5.108 3.91-1.943 11.666-3.336 15.592-4.37 5.709.374 4.574 6.043 4.381 6.418-.419 1.028-.883 1.79-1.407 2.385M55.744 52.338c.081.069.184.098.323.06.437.007 1.014-.198 1.568-.309.573.524 1.567.777 2.512.593-.642-.89-1.569-.799-2.512-.593-.279-.251-.458-.562-.5-.917.042.355.221.666.5.917-.554.111-1.132.316-1.568.309-.139.038-.242.009-.323-.06m-1.225-1.009c.325-.17.526-.146.667-.027-.141-.119-.342-.143-.667.027m-5.19-5.204c.32.462.69.824 1.235.763-.642-.598-1.282-1.195-1.923-1.791-.026-.044-.055-.091-.082-.136l.003.014c.032.115.014.194-.032.246-.064.074-.191.096-.336.094a3.4687 3.4687 0 00-.675-.078c.139.003.432.076.675.078.267.061.527.158.774.319.111.166.229.333.361.491m-8.314-9.524l-.038.384.032.005c.034-.13.072-.265.109-.399zm105.423 18.932c-.158.115-.345.24-.565.372.189-.129.379-.254.565-.372m-97.389-9.844a.7675.7675 0 00-.081-.055c-.11-.18-.217-.354-.321-.529.139.191.272.37.369.528.011.019.023.037.033.056m-6.638-9.498a4.076 4.076 0 01-.164-.158c.052.042.108.096.164.158M73.353 7.251c-.164.2-.349.331-.559.448-.522.293-.519-.376-1.278.548-.024.03-1.013-.576-1.039-.546.293-.473.534.106-.05.651-.462-.074-1.181.161-1.726.824-.229.279-.985-.749-1.122-.309-.187.674-1.002-.208-1.314.171-.576.704-1.338.988-2.17 1.178-1.275.277-2.717.337-3.73 1.203-.492.445-1.173.547-1.822.915-1.531 1.296-3.638 2.551-5.299 3.297-1.652.741-2.604 2.275-3.968 3.532-.366.311-1.08.631-1.08.631-.494.1.106 2.933-.359 3.063-.112.066-.763-1.232-.842-1.137-.146.178-1.65.962-1.741 1.171-.092.207.384 1.789.267 1.929a.5823.5823 0 01-.04.045c-.019.025-.037.048-.058.072-.434.529.891 1.622.288 1.926.477-.497-.941-1.551-.394-2.071.008-.008.017-.018.024-.024.281-.344-1.144-.416-1.556-.26-.023.001-.039.007-.047.019-.044.053.038.212.119.369.082.157.164.313.124.365-.01.012-.026.018-.05.018-.003.005-.005.009-.01.012-.201.245 1.304 1.097.896 1.262-.023.003-.039.008-.046.018-.035.042.089.146.215.243.128.099.257.191.241.212-.003.003-.005.004-.013.005-.385.236-1.303.133-1.492.365-.029.033-.04.074-.033.125.012.271.035.516.072.753 0 .138-.007.27-.087.382-.099.052-.201.106-.302.161-.231-.159-.534-.302-.84-.445-.003.145.115.388.112.526.003-.138-.115-.382-.112-.526.306.143.609.286.84.445-.444.231-.841.539-1.209.883a.4605.4605 0 01-.098-.099c.021.044.04.091.056.139-.246.232-.478.482-.702.734l-.075-.024c.194-.391.223-.785-.131-1.355.126.169.309.197.414.068a.348.348 0 00.031-.047l-.371-.297c-.103.085-.205.177-.286.275-.203.246-.269.536.109.9 0 0-.242.125-.361.186.086.15.363.199.593.271-.042.08-.084.158-.124.239-.421-.252-.809-.971-.809-.971.16-.575.309-1.13.52-1.657.18-.538.356-1.065.587-1.566.149-.001.306.021.352-.034.014-.017.017-.041.008-.074-.101-.146-.148-.267-.167-.375l.183-.45.153-.109-.113.026.488-1c.064-.058.126-.116.187-.154.104-.073.214-.14.283-.224.086-.105.107-.241-.033-.455l.099-.174.04.078-.021-.109.427-.74c.283-.482.618-.934.943-1.416.249-.352.507-.688.771-1.012 2.068-2.516 3.543-7.038 6.289-9.015 1.682-1.236 3.235-3.138 4.831-4.396 1.695-1.339 2.36-2.426 4.602-3.372 1.739-.734 3.385-1.142 5.621-1.799C67.74.501 70.646.205 72.224 0c7.727 2.427 3.332 5.921 3.338 6.131-.185 1.085-1.915.762-2.209 1.12M41.835 29.208c.058.081.134.267.231.391a2.1964 2.1964 0 00-.231-.391c-.003-.004-.004-.008-.007-.011.002.003.004.006.007.011m.91-1.498c-.033.042-.055.094-.055.164.087.223.124.414.128.593l.145-.48.203-.462c-.167.053-.336.084-.421.185m4.343-6.396s.425-.106.638-.16c.137-.28-.057-.48-.167-.702-.391.275-.75.583-1.053.951-.026.033-.053.066-.079.1-.299.362-.54.786-.702 1.281.069-.326-.139-.388-.491-.089l.047.588c.407-.24.244-1.858.564-2.162.095-.083.183-.173.261-.27.204-.244.91.843.982.463m.437-.934l.035.073c.168-.113.337-.228.507-.342l.003-.03c-.179.098-.361.197-.545.299m-5.475 5.071l.006-.001c.136-.025.24.065.325.177.05.098.116.2.192.296-.049-.062-.109-.188-.192-.296-.058-.119-.089-.233-.081-.341-.08.058-.166.11-.25.165m2.74-2.318c0-.001.001-.002.003-.004-.001.001-.003.003-.003.004m-.304-.908c.099.286.232.575.29.784.031.059.036.095.019.117.017-.021.013-.058-.019-.117-.057-.208-.191-.497-.29-.784m-.177 1.182c.009.012.017.023.027.035-.01-.012-.018-.023-.027-.035m.219-.274c.009.001.017.002.027.004-.01-.002-.019-.003-.027-.004m-.234.249c.005.008.01.016.016.023a.1882.1882 0 01-.016-.023m.226-.25h.003-.003m-.307.005c.042-.05.168-.029.294-.008.001 0 .004.001.007.002-.002 0-.005-.002-.007-.002-.126-.021-.252-.042-.294.008m.071.231c.001.004.003.005.006.008-.004-.003-.005-.004-.006-.008m-1.822 1.769c.03-.026.061-.053.083-.081.095-.115.112-.259-.052-.48l-.394.843c.063-.061.124-.117.184-.157.007-.004.013-.009.021-.014-.003.012-.004.024-.006.037.063-.046.117-.093.164-.148m2.024-2.912c.08-.024.148-.07.199-.132.134-.164.163-.449.069-.812-.155 0-.256.044-.317.118-.138.169-.07.496.049.826"/>
        <path fill="#fabb00" d="M13.275 108.523c-.266-.006-.547.031-.868.139-.354.001-.409-.313-.54-.627.459.183.931.344 1.408.488M15.019 109.198c-.137-.09-.282-.177-.424-.257l.251.077zM16.92 110.121c-.456-.093-.853-.286-1.224-.502.384.045.793.192 1.224.502M15.697 109.618a2.265 2.265 0 00-.827.062c.079-.04.148-.087.194-.139.079-.09.092-.198-.035-.336l-.01-.007c.225.137.446.278.678.42M14.869 109.68c-.197.102-.473.168-.599.229.188-.095.389-.174.599-.229m-.599.228a.037.037 0 01-.014.007c.005-.001.01-.005.014-.007M22.462 117.823c-.063.073-.247.065-.587-.059-2.667-1.071-4.37-1.843-6.684-2.972-1.775-1.193-3.461-2.336-5.228-3.573-.522-.283-1.068-.411-1.614-.551.746.11 1.502.227 2.328.38 1.115.125 1.775 1.962 3.28 2.822.062.064.136.01.224-.089.036-.042.075-.092.115-.141.04-.051.082-.104.125-.153.157-.178.333-.306.517-.109 1.054.735 1.866 1.652 2.991 1.989.421.419 1.661-.586 2.077-.171.869.565 2.726 2.321 2.456 2.627M5.392 106.285c-.249.102-.498.204-.75.306-.362-.218-.48-.428-.369-.553.055-.06.158-.101.313-.115-1.506 0-2.724-.477-3.862-1.153.004-.006.01-.013.016-.017.039-.046.078-.093.117-.142.037-.047.075-.096.116-.141.139-.158.301-.286.566-.274.172.232.519.699.519.699 1.441-.269 2.376.555 3.334 1.39M.724 104.77l-.075.081c-.22-.171-.438-.342-.649-.506l.039-.013c.229.146.46.294.685.438M145.999 116.875c-2.206 2.502-5.169 1.935-10.247 4.693.253-.158.431-.301.544-.429 1.251-1.42-5.588-.892-9.149 2.225-2.964 2.72-6.972 3.501-11.198 3.746-4.236.28-8.683.019-12.741.899-2.035.402-4.224.359-6.675.547-6.339 1.084-12.535 1.041-18.774.675-6.247-.356-12.538-1.113-19.256-1.602-3.559-.332-6.522-1.88-9.383-2.861-2.123-.522-4.524-.337-6.283-.617-2.753-.503-5.031-1.411-7.164-2.366 2.469.711 4.243 1.411 7.032 2.104.342.07.524.058.587-.014.281-.319-1.826-1.812-2.765-2.305-.473-.366-1.576.774-2.052.405-1.148-.242-2.097-.932-3.239-1.562-.167-.14-.3-.073-.415.057-.066.076-.128.174-.184.269-.056.093-.107.186-.158.241-.053.059-.102.083-.154.042-1.614-.658-2.513-2.449-3.653-2.378-.851-.017-1.62-.033-2.374-.047-.464-.058-.919-.128-1.376-.303-.266-.175-.54-.354-.814-.536-1.982-1.234-4.242-2.625-6.341-3.848l.065-.092c-.251-.105-.501-.22-.751-.34.753-.386 2.726-.566 2.726-.566.829.271 1.645.536 2.45.799.82.22 1.63.438 2.43.653 1.608.402 3.174.834 4.75 1.142.18.283.28.584.638.523.297-.145.575-.215.84-.241.462.087.922.174 1.378.258.151.066.305.134.458.203l.011.008c.16.138.145.26.05.366-.037.045-.087.085-.146.124-.207.081-.405.188-.583.311.113-.078.388-.18.583-.311.251-.098.52-.158.816-.158-.249-.118-.491-.227-.731-.34l-.194-.157c1.054.183 2.091.402 3.151.534.232.078.457.149.635.226.722.305 1.443.61 2.031.134.187.023.376.049.567.072l-.131.084.232-.069c.796.104 1.597.207 2.398.312 1.571.152 3.158.306 4.783.462 10.432.852 20.038 1.663 30.889 1.336 5.875-.27 11.506-.833 16.981-1.808 5.455-.959 10.678-1.27 15.897-1.949 5.21-.676 10.424-1.679 15.646-4.001 4.019-1.651 11.788-2.479 15.721-3.246 2.826.391 3.803 1.958 4.131 3.494.347 1.528-.112 3.029-.207 3.2-.403.836-.825 1.485-1.282 2.002m-99.679 1.663c.716.332 1.733.282 2.612-.168-.89-.656-1.786-.304-2.612.168m-1.377.798c.003 0 .004-.003.009-.006.412-.183.875-.508 1.369-.792-.494.283-.957.609-1.369.792-.005.003-.006.006-.009.006m.596-1.529c.089.181.214.339.366.47-.152-.131-.277-.288-.366-.47m-.749 1.603a.382.382 0 010 0m-1.64-.48c-.007.01-.016.02-.024.029.009-.009.017-.02.024-.029m0 0l.001-.001zm-5.601-2.183c-.895-.109-1.768-.29-2.652-.432.232.086.449.165.623.246.021.009.041.019.062.027a1.6335 1.6335 0 00-.099 0c.185.078.375.151.571.209.532.215 1.047.315 1.495-.05m-11.242.815l.001-.001zm.511-.81c-.146.287-.299.569-.505.803.206-.234.359-.516.505-.803m-.711 1.005c.009-.007.017-.013.024-.02-.007.007-.015.013-.024.02M25.283 116.627c.449.056 1.136-.033 1.585.024-.449-.057-1.136.032-1.585-.024m-1.713-2.055c-.125.141.016.345.435.521l.704-.428c-1.096-.652-2.143-1.38-3.537-.903 0 0-.418-.417-.625-.623-.191.016-.317.101-.417.212-.12.135-.197.313-.299.467 1.235.517 2.518.826 4.025.618-.138.031-.236.08-.286.136m112.182 6.997c-.164.104-.36.214-.59.331.199-.116.397-.225.59-.331m-111.704-7.161c-.064.01-.127.02-.191.027.054-.011.119-.021.191-.027"/>
        <path fill="#009ee0" d="M89.159 98.847c-.104.062-.203.146-.303.26-.049.054-.099.116-.147.189-.197.146-.309-.118-.465-.348zM90.006 98.746l.304.082-.144-.103zM91.614 98.981c-.279.081-.553.05-.814-.012.225-.101.492-.116.814.012M90.798 98.968c-.149.068-.283.174-.401.306-.016.017-.031.036-.047.055.092-.181.134-.369-.033-.499l-.007-.003c.162.05.322.102.488.141"/>
        <path fill="#009ee0" d="M90.069 99.775c.003-.007.007-.014.01-.021-.003.007-.007.014-.01.021m.01-.022c.079-.154.169-.297.271-.425-.082.165-.215.323-.271.425M96.634 104.27c-.046.053-.146.084-.312.086-1.75-.044-2.896-.26-4.478-.427-1.297-.423-2.535-.939-3.836-1.315-.363-.042-.699.066-1.038.163.442-.206.892-.41 1.392-.608.652-.359 1.498 1.138 2.559 1.363.019.014.035.011.049-.004.042-.046.061-.211.086-.383.027-.172.06-.352.126-.425.041-.046.091-.053.16-.003.777.3 1.46.813 2.18.774.102.073.214 0 .329-.13.076-.086.154-.197.231-.309.078-.113.155-.225.229-.312.115-.128.226-.198.328-.126.666.234 2.277 1.336 1.995 1.656M83.839 100.554c-.359-.059-.448-.3-.246-.53a.3168.3168 0 01.044-.046c-.842.648-1.647.746-2.458.629.056-.286.065-.607.231-.794.023-.026.049-.05.079-.07.155.135.467.402.467.402.008-.009.017-.017.024-.026.729-.827 1.455-.494 2.197-.162z"/>
        <path fill="#009ee0" d="M81.159 100.711c-.167-.059-.333-.116-.494-.174l.021-.029c.165.041.332.072.495.099zM170.691 90.83c-1.205 1.369-2.957 1.042-5.489 3.174.034-.034.064-.067.095-.101.666-.755.039-1.175-1.026-1.096-1.066.081-2.572.659-3.666 1.899a5.739 5.739 0 00-.538.722c-.251.429-.525.807-.818 1.14-3.291 3.733-8.953 1.744-13.233 3.604-1.17.501-2.503.523-3.946.865-7.329 2.838-14.682 2.077-22.66 3.524-2.128.29-4.139-.556-6.006-.948-1.334-.044-2.668.711-3.735.842-1.675.208-3.177-.083-4.613-.457 1.568.049 2.743.28 4.481.235.159-.01.257-.043.305-.098.289-.326-1.379-1.357-2.06-1.576-.099-.064-.198-.004-.3.109-.079.09-.159.217-.241.343-.081.128-.162.253-.243.345-.101.115-.2.174-.297.107-.711.073-1.416-.395-2.208-.652-.066-.046-.116-.036-.152.004-.066.075-.09.26-.107.437-.019.18-.029.349-.069.394-.012.014-.027.017-.045.006-1.067-.165-1.998-1.61-2.629-1.215-.478.24-.92.461-1.352.677-.275.087-.548.162-.85.139-.192-.083-.391-.168-.589-.256-1.422-.594-3.035-1.103-4.52-1.503l.014-.108c-.168-.008-.337-.028-.508-.054.086-.164.221-.343.375-.519.434-.493 1.015-.955 1.015-.955 2.139-.128 4.151-.308 6.101-.624.169.217.299.476.49.314.06-.1.126-.187.188-.258.078-.087.155-.157.235-.212l.851-.149.31.062-.148-.093 1.936-.372c.152.016.297.029.419.056.392.09.788.18 1.047-.113.059-.069.112-.158.157-.273l.344-.072-.057.113.121-.126 1.458-.323c.951-.22 1.913-.441 2.893-.667 6.294-1.52 12.176-2.273 18.689-3.843 3.516-.934 6.863-1.976 10.099-3.263 6.441-2.522 12.821-2.086 18.977-6.363 2.375-1.535 7.248-1.945 9.735-2.34 3.68 1.247 3.048 6.617 2.943 6.938-.321 1.271-.705 2.052-1.173 2.58m-60.235 7.405c.411.129.888-.053 1.277-.494.073-.083.144-.175.21-.275-.451-.292-.803-.131-1.101.207-.139.157-.266.354-.386.562m-1.135.97c.169.169.336.34.455.205-.119.135-.286-.036-.455-.205m1.135-.97c-.227.388-.425.81-.625 1.08 0 .003-.003.006-.004.009.001-.003.004-.006.004-.009.201-.27.399-.692.625-1.08m-.615-.525c.082.138.175.249.277.334-.103-.086-.196-.197-.277-.334m-1.015 1.331c-.049.061-.092.164-.131.323.04-.159.083-.263.131-.323m.011-.01v-.001zm-4.711.11c.266.038.51.018.691-.187.06-.069.11-.157.154-.271l-1.625.33c.155.013.299.027.417.055.014.003.029.006.042.009a.5936.5936 0 01-.057.027c.124.023.251.036.378.037m-.878-.149l.01.004c.172.119.141.306.059.493-.101.135-.185.29-.255.454.046-.106.176-.277.255-.454.03-.042.062-.081.095-.118.098-.112.21-.203.335-.267-.171-.03-.334-.073-.499-.112m-5.294 3.194c.27-.086.634-.379.904-.465-.27.086-.634.379-.904.465m-1.357-1.607c-.231.263-.132.521.257.553l.293-.621c-.732-.26-1.456-.52-2.089.198-.043.049-.087.104-.128.161 0 0-.34-.243-.51-.364a.3524.3524 0 00-.052.05c-.172.197-.148.534-.177.83.825.053 1.62-.103 2.418-.821a.0407.0407 0 01-.012.014m68.605-6.575c-.094.093-.204.19-.335.292.113-.102.226-.2.335-.292m-68.494 6.472c-.033.03-.064.06-.098.09.03-.032.062-.06.098-.09"/>
        <path fill="#bdcd00" d="M89.86 76.065c-.191.095-.382.235-.576.455-.249.147-.383-.113-.577-.343zM91.306 76.036a5.0261 5.0261 0 00-.38-.079l.204-.021zM92.942 76.177c-.353.081-.693.055-1.025-.004.289-.103.623-.121 1.025.004"/>
        <path fill="#bdcd00" d="M91.918 76.173c-.215.079-.406.204-.57.363.119-.182.176-.37-.032-.497l-.01-.003c.203.048.403.098.612.137M90.983 76.985c.001-.002.003-.006.004-.007-.001.001-.002.005-.004.007m.005-.007c.069-.107.146-.208.229-.302.042-.048.087-.095.132-.14-.05.076-.112.152-.172.22-.018.02-.032.038-.047.055a.9199.9199 0 00-.046.051c-.04.043-.075.082-.096.116M99.114 81.479c-.055.062-.182.1-.405.108-2.192-.038-3.632-.332-5.594-.459-1.604-.412-3.139-.916-4.764-1.283-.454-.058-.877.035-1.303.115.558-.18 1.129-.363 1.754-.562.821-.366 1.851 1.126 3.168 1.343.026.015.049.007.067-.014.047-.053.076-.208.111-.371.034-.162.076-.333.151-.417.053-.059.121-.078.215-.02.965.295 1.804.796 2.704.759.422.251 1.007-1.101 1.425-.853.823.274 2.769 1.315 2.471 1.654M83.154 77.72c-.421-.055-.547-.268-.358-.482a.6176.6176 0 01.105-.093c-1.06.645-2.068.741-3.085.622.063-.264.075-.562.243-.752.038-.043.083-.08.141-.111.195.134.592.403.592.403.922-.857 1.85-.521 2.791-.182zM79.788 77.87c-.208-.059-.417-.118-.619-.174l.024-.027c.207.037.417.071.622.098z"/>
    </symbol>
</svg>