<?xml version="1.0" encoding="UTF-8" standalone="no"?><svg xmlns="http://www.w3.org/2000/svg" xmlns:xlink="http://www.w3.org/1999/xlink"><symbol viewBox="-33.89 -43.05 28.87 28.87" overflow="visible" id="fleche_droite" xmlns="http://www.w3.org/2000/svg"><path clip-path="url(#SVGID_2_)" d="M-9.591-26.222s3.783-2.428 0-4.855l-17.631-11.322s-3.783-2.428-3.783 2.067v23.361s0 4.496 3.783 2.068z"/></symbol><symbol viewBox="-33.89 -43.05 28.87 28.87" overflow="visible" id="fleche_gauche" xmlns="http://www.w3.org/2000/svg"><path d="M1.682 16.831s-3.783-2.428 0-4.855L19.313.654s3.783-2.428 3.783 2.067v23.361s0 4.496-3.783 2.068z" clip-path="url(#SVGID_2_)" transform="translate(-31.006 -43.053)"/></symbol><symbol viewBox="-39.73 -37.23 36.97 36.97" overflow="visible" id="plus" xmlns="http://www.w3.org/2000/svg"><path fill="none" d="M-11.04-18.695h-20.401M-21.241-28.943v20.4"/><g transform="translate(-39.727 -37.15)"><defs><path id="ca" d="M0 0h36.972v36.815H0z"/></defs><clipPath id="cb"><use xlink:href="#ca" overflow="visible" width="100%" height="100%"/></clipPath><ellipse clip-path="url(#cb)" cx="18.487" cy="18.408" rx="16.921" ry="16.843" fill="none"/></g></symbol><symbol viewBox="-0.562 -0.422 65 65" overflow="visible" id="schema_epargne_citoyenne" xmlns="http://www.w3.org/2000/svg"><ellipse fill="#FFF" cx="32.217" cy="31.998" rx="30.342" ry="30.586"/><g fill="#6E7072"><path d="M52.83 8.508a.123.123 0 00.07-.024c-.041-.002-.061.008-.07.024zM39.344 1.031l.185.013c-.118-.024-.165-.023-.185-.013zM58.592 15.693c-.012-.009-.015-.006-.025-.011l.322.562-.297-.551zM8.566 10.263l.143-.157c-.066.069-.113.11-.143.157zM25.792.717a.98.98 0 01-.252.102c.126-.023.225-.051.252-.102zM59.486 20.568l-.007-.268c-.036.02-.04.118.007.268zM61.996 29.166c.006-.008.012-.01.02-.025-.011-.013-.016.002-.02.025zM61.842 25.596l-.095-.242c.025.106.055.241.095.242zM61.698 25.24l.049.114c-.018-.066-.033-.119-.049-.114zM63.723 33.49c.014-.274-.047-.511-.102-.757l.102.757zM.875 38.851L.824 38.8c.025.053.04.058.051.051zM62.907 33.119l.027-.188a.843.843 0 00-.027.188zM57.128 16.494c-.211-.17-.398-.67-.476-.616.164.216.302.58.476.616zM6.096 43.617l.07.15a1.27 1.27 0 00-.07-.15zM62.907 33.119l-.03.218c.019-.018.033-.042.049-.063a.664.664 0 01-.019-.155zM20.848 62.259l-.01-.004-.066-.007zM22.409 62.968l-.357-.085c.181.069.282.086.357.085zM63.621 32.732l-.068-.43c.009.155.037.295.068.43zM40.565 63.257l-.159.056a.824.824 0 00.159-.056zM27.058.538l.147-.004c.012-.024 0-.037-.147.004zM16.774 7.059l-.003.002.001.001zM17.238 6.637c-.178.079-.376.285-.463.422.164-.103.305-.219.463-.422zM15.647 7.749l.066-.032a.311.311 0 00-.066.032zM27.029 3.203l-.002-.01-.005.01zM24.657 3.757a.684.684 0 00-.173.004.57.57 0 00.173-.004zM11.22 11.915l-.002-.004-.007.01z"/><path d="M3.978 32.797c-.142-2.244-.037-5.205.551-7.38-.075-.519.094-1.219.265-1.919l.266.001.104-.593c.148-.207-.095.452.128.074l-.081-.264c.096-.019.574-1.42.405-.42.261-.722.549-1.434.865-2.134.224-.458-.074-.364.233-.845.118-.069-.044.206.059.204.925-1.415.459-1.981 1.411-3.282l-.044.131c.091-.265.383-.693.359-.717-.332.026-.043.316-.438.642-.158-.154.236-.576.082-.641.28-.267.299-.523.485-.799.433-.381.854-1.075 1.252-1.297.122-.253.15-.632.539-1.084.409-.206.053.18.487-.207l-.03-.153c.336-.335.311-.256.342-.203.355-.359.165-.429.673-.819l-.164.335c.299-.364.447-.487.932-.923.039.063-.155.238-.309.354.386-.104.384-.475.544-.587-.08-.007-.429.286-.35.042.254-.202.402-.594.677-.634l-.187.326c.446-.521.169-.361.799-.824-.026.034.009.045.012.076.281-.439.88-.726 1.477-1.142l-.091.109c.209-.209.282-.389.416-.475-.384.18-.312.085-.413.008.573-.146.556-.69 1.397-1.075.025.07-.114.258-.364.33-.14.351-.077.514-.467.908.247-.237.569-.477.546-.357l-.021-.224c.168-.12.314-.195.446-.278.009-.153-.465.05-.102-.275.428-.345.351.02.377-.102.603-.446.153-.349.814-.646-.055.05-.16.148-.224.163.486-.188 1.098-.644 1.342-.499-.044.082-.023.152-.204.225l-.01-.036c-.416.417.394-.262.337.013-.092-.096.561-.396.867-.507l-.156-.088c.8-.853.066.28 1.013-.203.583-.355-.251.061.09-.195.434-.151.636-.098 1.238-.393.194-.012.577-.062.659.081.357-.2 1.18-.309 1.354-.523-.701.066-.604.359-1.432.417l.162-.227c.533-.17 1.196-.46 1.586-.503-.083-.01-.129-.04-.09-.086.756-.269.946-.48 1.724-.601.131.123-.322.191-.643.282.517.003.513-.117 1.29-.218.064.119-.518.09-.579.236l.836-.208c-.002.008.003.017.005.026.087-.229.65-.1 1.162-.23 1.236-.159 1.4-.451 2.091-.672.192.045.25.097.174.155-.316-.075-.256-.004-.36.058.425-.053.939.156.707.253.667-.087-.247-.103.16-.185.307-.009.614-.014.922-.01-.109-.108-.438-.128.042-.217.405-.038.601-.007 1.13.008-.078.052.161.168-.234.154.254.043.649.069.809-.033-.573-.13.953-.041.533-.232l.572.143c-.133-.013-.152.055-.346.021.152.176.477-.005.681-.004.202.047.726.128.762.195.188-.027.626.077.696.171.273.005.037-.104.124-.146l.912.169c.031.1.06.365-.082.373.356-.017.172-.244.688-.133-.33.109.649.284.179.397.266.188 1.09.379 1.553.465.318-.059-.469-.211-.403-.343 1.29.297 1.487-.044 2.402.335l-.227-.126c.608.13.538.119.918.133-.221.11.486.687 1.413 1.059.116-.047-.445-.384-.24-.45l.628.248c.039.033-.041.03-.13.016.579.191.911.688 1.158.58l.42.513-.16-.212c.114-.04.723.252.859.295.651.251.826.456 1.087.748-.062-.125-.229-.43.247-.163-.155.237.899.711.801.83.183.122.446.418.537.334l-.135.126c.188-.18.829.3 1.338.644-.32.181.543.399.549.815.241-.108.878.637 1.088.566.354.312.17.441.206.575l.219.086c.097.241.709.871 1.005 1.306l.48.218.051.198c.09.022.38.307.272.067l.164.207c.187-.132.288.241.699.59.049.119-.014.127-.108.056.163.208.003.191.033.35-.069-.188.905.5.545-.125.044-.097.353.197.479.431l-.065.249.355.128c.268.316.26.536.429.823-.204-.275-.743-.396-.248.314-.279-.361-.498-.48-.671-.644.098.149.134.232-.099.058.444.508.231.11.633.643-.169.07-.11.256.149.773l-.124-.434a.203.203 0 01.086.042c-.074-.149-.076-.203-.038-.271.068.111.615.526.577.683-.115-.729.803.893.721.438.084.041.336.444.278.533-.396-.425.029.472-.128.453.146.158-.097-.451.1-.237.175.287.194.558.229.75l-.095-.108.167.494c.119.035-.097-.514.166-.113.024.129.276.538.205.555-.212-.148-.287.072-.491-.275.164.289.632 1.243.603.783l.163.366c-.035-.258-.209-.96.153-.236l-.036.009.353.459.012.263c.04-.025.115.04.189.236-.029.071.024.262-.049.273.234.558.293.482.373.537.132.314.141.445-.015.334.138.442.414 1.202.412 1.532.253.57.001-.133.221.179-.14.599.423 2 .64 2.993.219-.322.086.264.361.405-.12-.2-.055.984-.274.122l.115.529c-.09.385-.255-.86-.37-.279.104.587.456.939.434 1.66-.217-.217.119.538-.113.382-.082-.14-.081-.336-.12-.533l-.023.126c.066 1.312.269.356.458 1.037.076.807-.114.645-.204.696-.034.127.013.528.07.739-.137-.485.089-.912.221-.692-.203.364.017 1.199.104 1.422.219-1.166.006-.801.203-1.908-.084-.147-.268-.108-.245-.766.135.401.108-.038.131-.158-.102.137-.089-.449-.163-.643.072-.193.309.364.279-.308l-.283-.092c.005-.263.212.085.071-.458.179.279.209-.122.347.626.115-.932-.313-1.365-.54-2.03.03.067.067.068.098.135-.099-.135-.142-.402-.2-.601-.036-.466.195.333.241.202l-.162-.735c.005-.017.009-.021.015-.022-.076-.187-.148-.361-.099-.445.137.198.247.264.348.397l-.367-.731c.111.062-.018-.672.19-.142-.114-.377-.224-.754-.351-1.127l.146-.148c-.111-.263-.147-.259-.073.072-.063-.409-.856-1.6-.451-1.516-.46-.821-.518-1.157-1.052-2.147.505.724-.211-.991.236-.187-.155-.522-.376-.544-.592-.908-.104-.39.132-.313.384.047l-.299-.418.036-.008-.292-.345c-.131-.458.118-.175-.089-.612l-.192-.015-.076-.332c-.006.144-.169-.092-.359-.387l.035-.012-.241-.352c.301.312-.171-.351.025-.244-.188-.313-.186-.324-.572-.859l-.029.157c-.551-.664.122-.123-.262-.705l-.08.107c-.395-.95-1.086-1.311-1.439-1.967.288.313.337.139.303.154-.426-.478-1.081-1.293-1.643-1.674-.029-.301-.021-.386-.44-.934-.354-.349-.425-.383-.613-.422-.29-.391-1.029-.918-.96-1.031-.152.004-.308-.304-.569-.406l-.008-.079-.051.124c-.469-.771-1.206-.789-1.746-1.492l.14.06-.321-.174c-.014-.079.125-.02.182-.068-.45-.339-.912-.662-1.379-.978l.225.264c-.306-.186-.576-.206-.876-.488.673.194-.472-.302-.494-.477l.338.144c-.433-.245-.433-.245-.462-.113-.579-.279-.262-.432-.849-.598l.367.209c.07.127-.241.063-.488-.068-.049-.048-.198-.192-.002-.105-.465-.199-1.115-.595-1.34-.641-.23-.153-.111-.197.037-.164-1.029-.354-.433-.234-1.475-.561l.045-.06-.377-.063-.441-.335.146.156c-.337-.117-.562-.147-.94-.324l.193-.044c-.967-.277-1.05-.549-2.014-.675-.059-.036.095-.031.174-.025-.901-.073-.601-.367-1.521-.381.062-.022-.023-.089.018-.11l-.415-.02.062-.134-.37.137-.217-.196-.17.038c-.377-.357-1.023-.261-1.586-.547l.076.195c-1.529.151-3.418-.572-5.259-.354l.029-.145-.748.196c-.41-.099.237-.134.108-.203-.804.119-.327.226-1.257.333-.485-.052.157-.126.379-.188-.874.126-2.146.365-2.772.389-.011.022-.045.053-.012.056-.567.154-1.334.237-1.962.389 0-.068.155-.113.309-.161-.228.041-.55.063-.727.179l.208-.179c-.492.087-1.387.447-1.533.338.073.037.079.148-.334.265-.295-.148-1.087.436-1.77.56.06-.077.532-.256.397-.211-.346.058-.604.263-.861.438l.055-.116c-.486.228-.966.468-1.436.723-.314-.115-1.356.668-1.326.479-.516.25.473-.127-.163.219-.216 0-.559.341-.599.199l.06-.051-.441.248.215-.275c-.375.23-.58.519-.547.621-.399.132-.867.491-1.093.48l.111-.111c-.954.654-1.839.727-2.44 1.47-.066.024-.082-.009.036-.093l-.582.428.07-.189c-.285.285-.562.577-.834.872l-.034-.065c-.63.477-1.531 1.328-2.231 2.063l.084-.13c-.704.863-.8.716-1.294 1.367a.19.19 0 01.035-.083l-.482.549.054-.167c-.242.503-1.151 1.061-.839.885-.141.282-.401.748-.382.875-.474.638-.195.096-.535.458-.346.463-.302.617-.793 1.228l-.052-.053-.53.969.051-.147c-.305.783-.724.782-.765 1.506-.226.273-.484.883-.601.788a54.897 54.897 0 00-1.016 2.685c-.279.064-.074.206-.418.74l.135.002c-.497 1.351-1.284 2.863-1.574 4.454l-.134.014.069.344C.335 27.075.035 29.309 0 30.691c.048.457.184 1.142.153 1.856l-.019-.076.343 3.904c-.065-.076-.084.062-.139-.084.182.302.117.791.164 1.08l.039-.353c.18.363.159.927.108 1.138l.254.573c-.003.043-.01.108-.028.12l.088.092-.095.354c.069.141.299.919.525 1.119-.039.07.067.634-.077.215.183.723.385 1.44.619 2.149l-.059-.35c.109-.081.397.524.468.866-.256-.389-.184.026-.202.243.172.261.012-.287.134-.161.209.329.552 1.055.58 1.262l-.136-.19c.248.457.135.767.362 1.227.283.375.354.718.506.536.332.572-.02.295.056.497.232.232.611 1.076.578 1.234.447.16.812 1.6 1.123 1.566l.17.539c.069-.024.264-.025.538.32.17.386.014.375.026.521l.381.069c1.156 2.128 3.46 4.338 5.35 6.176.948.707 2.207 1.491 3.346 2.249l-.147-.053c.369.267.746.523 1.126.775-.263-.207-.529-.405-.784-.618.267.134.495.204.738.355 1.219.858 2.967 1.886 4.747 2.409 1.223.121.652.538 1.812.684-.102-.003-.148.028-.242.029 1.209.273 1.874.394 3.11.483-.202.275.784.155.646.289l.123-.104c.252.132.885.258.78.333l.561-.071.028.133c.713.124 2.259.163 2.624.431 1.8-.064 4.614-.084 6.845-.4.296-.153.939-.27 1.438-.383l.565.035c.502-.157.99-.476 1.481-.51.001.018-.015.035-.045.053.502-.166 1.009-.234 1.435-.521.553-.166 1.107-.287.988-.092-.03-.25 1.165-.396 1.166-.402-.01-.016 1.783-.6 4.332-2.043 2.542-1.43 5.785-3.84 8.48-7.085 2.725-3.213 4.817-7.222 5.858-10.9 1.074-3.681 1.163-6.942.897-8.724-.114-.246-.173-.905-.329-.657-.039-.505.183-.735.06-.835-.092.685-.32-.211-.483.453l-.025-.425c-.088-.088.093.579-.066.473l.231.124c-.039.345-.102.533-.184.651.08.325.386.553.19 1.321l.004-.215c-.046.632-.184.374-.233.501l.015-.138-.166.517c.118-.393-.017-1.068-.032-.721-.13.738.074-.188.053.372-.018.349-.134.239-.204.217l-.062.619c-.104-.034.053-.408-.087-.171l.015.791c-.287.104.003.866-.317 1.176.035-.564-.098.033-.171-.07-.076.45-.162.898-.257 1.345-.064.118-.007-.369-.037-.163-.126.234-.03.426-.063.562-.096.099-.251.99-.419.906-.373.853.122.44-.236 1.235-.138.075.182-.661-.041-.33l-.239.861c-.023-.094-.11-.221.013-.53-.91 2.244-1.971 3.162-2.858 5.115-.262.2.029-.233.057-.463-.603 1.448-1.341 1.74-2.064 2.821l.075.082c-1.316 1.298-2.589 3.089-4.2 4.387l.23-.112c-.131.272-.466.589-.688.85-.077-.009.034-.331-.39.089.118-.05.337-.184.314-.095-.76.477-1.855 1.301-3.133 2.105-1.27.814-2.729 1.591-4.065 2.124-3.517 1.712-7.764 2.405-11.564 2.462.581-.016.34.255-.104.198-1.191-.457-2.095.022-3.291-.42-2.239-.116-4.07-.953-6.118-1.3l.004-.135c-.27-.158-.379-.099-.686-.205l.021-.03c-.696-.312-1.595-.563-1.965-.812l-.087.118c-.418-.184-.166-.198-.621-.334l.045-.059-.547-.126c.163-.194-1.124-.628-1.373-.928-.528-.26-1.532-.779-2.223-1.355-.062-.198-.933-.861-1.42-1.364-1.063-.839-2.489-2.173-3.553-3.537l-.106.129-.297-.344c.032-.018.009-.077.065-.034-.075-.387-.691-.784-.812-1.149.013.273.17.268.322.476.164.343-.179.158-.416-.294l.035-.014-.271-.228c.081-.106-.053-.393.03-.5-.864-1.199-1.579-1.961-2.235-3.359.196.079-.52-.977-.16-.807-.471-.795-.117.224-.453-.086-.107-.235-.279-.458-.212-.538.103.087.055-.253.159-.07l-.26-.56c-.004-.062.079.051.119.107-.612-1.111-.64-2.131-1.092-3.163-.109-.055.103.436-.007.383-.491-1.044-.122-1.006-.492-2.003l.169.186c-.156-.312-.298-.437-.308-1.008.123-.123.208.443.335.691-.083-.374-.295-1.32-.371-1.006-.13-.447-.023-.636-.026-.886-.037-.003-.026.439-.137.183-.018-.633-.139-1.595-.182-2.362.036.005.087-.053.109.013-.222-.597.098-.552.028-1.39z"/><path d="M27.344 3.171l-.315.031c.006.032-.001.071-.137.134l.452-.165zM13.845 9.257c-.023.034-.046.066-.063.102.056-.053.065-.082.063-.102zM11.365 11.917c.158-.207-.032-.07-.145-.002.017.024.047.043.145.002zM35.832 2.597c-.057.007-.094.022-.088.054.078-.018.097-.035.088-.054zM55.666 14.324l-.039-.088c.002.02.017.051.039.088zM55.038 13.146a1.426 1.426 0 00-.187-.194c.07.095.133.152.187.194zM30.094 2.504a.72.72 0 00-.245.064.631.631 0 00.245-.064zM54.65 12.763l-.203-.263c-.008.005-.016.006-.024.014l.227.249zM55.896 14.672c-.072-.107-.174-.25-.229-.348a.949.949 0 00.229.348zM44.261 4.766l-.034-.011c-.263-.047-.104-.006.034.011zM53.506 11.847l-.027-.037-.094-.043zM56.652 15.877a.591.591 0 00-.111-.123l.088.166c.006-.025.014-.036.023-.043zM48.496 7.382c.107.006.158-.004.177-.025-.094-.06-.166-.078-.177.025z"/></g><path fill="#6E7072" d="M23.303 12.517l5.718 8.396s5.836 3.633 9.063-.518c3.137-4.039 3.785-8.002 3.785-8.002l-9.043.124s.922-1.936-1.372-1.984c-2.295-.048-2.108 2.921-2.108 2.921l-6.043-.937z"/><path fill="#6E7072" d="M39.324 21.804s11.154 12.401 10.115 18.81c-1.041 6.409-3.945 13.536-16.438 12.797-12.492-.739-18.826-3.306-18.006-15.515.518-7.688 12.09-16.984 12.09-16.984s4.12 6.206 12.239.892z"/><path fill="#FFF" d="M37.492 42.186c-.688.389-1.863.767-3.158.767-2.007 0-3.808-.808-4.943-2.308-.547-.686-.954-1.559-1.136-2.635h-1.314v-1.44h1.112v-.343c0-.202.019-.403.019-.604h-1.131v-1.439h1.354a6.11 6.11 0 011.398-2.751c1.135-1.318 2.755-2.095 4.679-2.095 1.219 0 2.311.287 3.041.611l-.566 2.312c-.527-.228-1.379-.485-2.271-.485-.953 0-1.844.344-2.471 1.09-.305.324-.507.793-.648 1.318H36.5v1.439h-5.345c-.021.201-.021.402-.021.625v.322H36.5v1.439h-5.084c.145.611.365 1.076.668 1.42.649.73 1.602 1.034 2.614 1.034.932 0 1.887-.304 2.312-.53l.482 2.253z"/></symbol><symbol viewBox="-0.58 -0.46 65 65" overflow="visible" id="schema_installateurs_pros" xmlns="http://www.w3.org/2000/svg"><ellipse fill="#FFF" cx="32.216" cy="31.998" rx="30.342" ry="30.586"/><g fill="#6E7072"><path d="M52.829 8.508a.12.12 0 00.07-.025c-.04-.001-.06.009-.07.025zM39.344 1.031l.185.013c-.118-.024-.166-.023-.185-.013zM58.591 15.693c-.012-.008-.015-.006-.024-.011l.321.562-.297-.551zM8.566 10.263l.143-.158c-.066.07-.113.111-.143.158zM25.792.717a.98.98 0 01-.252.102c.126-.023.225-.051.252-.102zM59.485 20.568l-.007-.268c-.036.02-.04.118.007.268zM61.995 29.166c.006-.008.012-.01.02-.025-.01-.013-.016.002-.02.025zM61.841 25.596l-.095-.242c.025.106.055.241.095.242zM61.697 25.24l.049.114c-.017-.066-.033-.119-.049-.114zM63.722 33.49c.014-.274-.047-.511-.102-.758l.102.758zM.875 38.85l-.051-.051c.025.053.04.059.051.051zM62.906 33.119l.027-.188a.843.843 0 00-.027.188zM57.127 16.494c-.21-.17-.398-.67-.476-.617.164.217.302.581.476.617zM6.096 43.617l.07.149a1.32 1.32 0 00-.07-.149zM62.906 33.119l-.03.218c.019-.018.033-.041.049-.063a.664.664 0 01-.019-.155zM20.847 62.258l-.009-.004-.066-.006zM22.408 62.967l-.357-.085c.181.07.283.086.357.085zM63.62 32.732l-.068-.429c.009.154.037.294.068.429zM40.564 63.256l-.159.056a.761.761 0 00.159-.056zM27.057.538l.148-.004c.012-.024 0-.037-.148.004zM16.774 7.059l-.003.002.001.001zM17.238 6.637c-.178.079-.376.285-.463.422.164-.103.305-.219.463-.422zM15.647 7.749l.066-.032a.311.311 0 00-.066.032zM27.029 3.203l-.002-.01-.006.01zM24.657 3.757a.684.684 0 00-.173.004.57.57 0 00.173-.004zM11.22 11.915l-.001-.004-.008.009z"/><path d="M3.978 32.796c-.142-2.244-.037-5.205.552-7.38-.075-.519.094-1.219.264-1.919l.266.001.104-.593c.148-.206-.095.452.128.074l-.081-.265c.096-.019.574-1.42.405-.42.261-.722.55-1.434.865-2.134.225-.458-.074-.364.234-.845.117-.07-.044.206.059.203.925-1.415.459-1.981 1.412-3.282l-.045.134c.09-.265.382-.693.358-.717-.332.025-.043.316-.438.641-.158-.153.237-.575.082-.64.28-.267.299-.523.485-.799.433-.381.854-1.075 1.253-1.298.122-.253.149-.632.539-1.083.409-.206.053.18.487-.207l-.03-.153c.336-.335.311-.257.343-.203.355-.359.164-.429.672-.819l-.164.336c.299-.364.447-.487.932-.923.039.063-.155.238-.309.354.386-.104.384-.475.544-.587-.079-.007-.428.286-.349.042.254-.202.402-.594.676-.634l-.187.326c.446-.521.169-.361.799-.824-.026.034.009.045.012.076.281-.439.88-.726 1.477-1.142l-.091.109c.209-.21.282-.39.416-.476-.383.18-.312.085-.413.008.573-.146.556-.69 1.397-1.075.025.07-.114.258-.364.33-.141.351-.078.514-.468.908.247-.237.569-.477.546-.357l-.021-.224c.168-.12.314-.195.446-.278.009-.153-.465.05-.102-.275.428-.345.351.019.377-.102.603-.446.153-.349.814-.646-.055.05-.16.148-.224.163.486-.188 1.098-.644 1.342-.499-.044.082-.023.152-.204.225l-.01-.036c-.416.417.394-.262.337.013-.093-.096.561-.396.866-.507l-.155-.088c.8-.853.066.28 1.013-.203.583-.355-.251.062.09-.195.434-.151.636-.098 1.238-.393.194-.012.577-.062.659.081.357-.2 1.18-.309 1.354-.523-.701.066-.604.359-1.432.417l.162-.227c.533-.17 1.196-.46 1.586-.503-.083-.01-.129-.04-.09-.085.757-.269.946-.481 1.725-.601.131.123-.323.191-.643.282.517.003.513-.117 1.29-.218.064.119-.517.09-.579.236l.836-.208c-.002.008.003.017.004.026.087-.229.65-.1 1.162-.23 1.237-.159 1.401-.45 2.091-.672.192.045.25.097.174.155-.316-.075-.256-.004-.36.058.425-.053.938.156.707.253.666-.087-.248-.103.16-.185.307-.009.614-.014.921-.01-.109-.108-.438-.128.042-.217.405-.038.601-.007 1.13.008-.078.052.161.168-.234.154.254.043.649.069.808-.033-.572-.13.954-.041.534-.232l.572.143c-.133-.013-.152.055-.346.021.151.176.477-.005.681-.004.201.047.726.128.762.195.187-.027.625.077.695.171.274.005.038-.104.125-.146l.912.169c.031.1.06.365-.082.373.356-.017.172-.244.688-.133-.33.109.649.284.179.397.266.188 1.09.379 1.552.465.318-.059-.468-.211-.403-.343 1.29.297 1.488-.044 2.402.335l-.225-.127c.608.13.538.119.918.133-.221.11.486.687 1.413 1.059.115-.048-.446-.385-.24-.45l.628.248c.038.032-.042.03-.13.016.578.191.91.688 1.158.58l.42.514-.161-.213c.115-.04.724.252.86.296.651.251.826.456 1.086.748-.062-.125-.229-.43.247-.163-.155.237.9.711.801.83.183.122.446.418.537.334l-.135.126c.189-.18.83.3 1.339.645-.32.181.543.399.548.815.241-.108.878.637 1.088.566.355.312.171.441.206.575l.219.086c.097.242.709.871 1.006 1.306l.479.218.051.198c.09.022.38.307.272.067l.165.207c.186-.132.287.241.699.59.048.119-.014.127-.109.056.163.208.003.192.033.35-.069-.188.905.501.545-.125.044-.098.353.197.479.431l-.064.248.355.128c.269.316.261.536.429.822-.204-.275-.743-.396-.248.315-.279-.362-.498-.481-.671-.644.099.149.134.232-.098.058.443.508.23.11.632.643-.169.07-.11.256.15.774l-.125-.435a.194.194 0 01.086.043c-.074-.149-.075-.204-.037-.272.067.111.614.526.576.683-.115-.728.803.893.722.439.083.041.335.444.277.533-.396-.425.029.472-.128.453.146.159-.097-.451.1-.237.175.287.194.558.229.75l-.095-.108.167.494c.119.035-.096-.514.167-.113.023.129.275.538.204.555-.211-.148-.287.072-.491-.275.164.289.633 1.244.603.783l.163.366c-.035-.258-.209-.96.153-.236l-.036.008.353.46.012.262c.04-.025.115.04.19.236-.03.071.023.262-.05.273.234.558.293.483.373.537.132.314.141.445-.015.334.138.442.414 1.203.412 1.532.253.57.001-.133.221.179-.14.6.423 2 .64 2.993.219-.321.086.264.361.405-.12-.2-.055.985-.274.122l.115.529c-.09.385-.255-.86-.37-.279.104.587.456.939.434 1.66-.217-.217.119.538-.113.382-.082-.14-.081-.336-.12-.533l-.023.126c.066 1.312.269.355.458 1.036.076.807-.114.645-.204.696-.034.127.013.528.07.739-.137-.485.089-.912.221-.691-.203.363.017 1.198.104 1.422.219-1.166.006-.801.203-1.908-.084-.147-.268-.108-.245-.766.135.401.108-.038.131-.158-.102.137-.089-.449-.163-.643.072-.193.309.364.279-.308l-.283-.092c.005-.263.212.085.071-.458.179.279.209-.122.347.626.115-.932-.313-1.365-.54-2.03.03.067.067.068.098.135-.099-.135-.141-.402-.2-.601-.036-.466.195.333.241.202l-.162-.735c.005-.017.009-.021.015-.022-.076-.186-.148-.361-.099-.445.137.198.247.264.348.397l-.367-.73c.111.062-.018-.673.19-.142-.113-.377-.224-.754-.351-1.127l.146-.148c-.111-.263-.147-.259-.073.072-.063-.409-.856-1.6-.451-1.516-.46-.821-.518-1.157-1.052-2.147.505.723-.211-.992.236-.187-.155-.522-.375-.544-.592-.908-.104-.39.133-.313.384.046l-.299-.418.037-.008-.293-.345c-.131-.458.118-.174-.089-.612l-.192-.015-.076-.332c-.006.144-.169-.093-.359-.387l.035-.012-.241-.351c.301.312-.171-.351.026-.245-.188-.313-.187-.324-.573-.859l-.029.157c-.55-.664.122-.123-.262-.705l-.08.107c-.395-.95-1.086-1.311-1.439-1.967.288.313.338.139.303.153-.425-.478-1.081-1.292-1.643-1.674-.029-.301-.021-.386-.44-.934-.354-.348-.425-.383-.613-.422-.29-.391-1.029-.918-.96-1.031-.152.004-.308-.305-.569-.407l-.008-.078-.051.124c-.468-.771-1.205-.789-1.746-1.492l.141.06-.321-.174c-.015-.079.124-.02.181-.068a32.027 32.027 0 00-1.379-.978l.225.264c-.307-.186-.576-.206-.876-.488.673.194-.473-.302-.494-.478l.338.144c-.434-.245-.433-.245-.463-.113-.578-.279-.261-.432-.849-.598l.368.209c.069.127-.241.064-.489-.068-.049-.048-.198-.192-.001-.105-.466-.199-1.116-.595-1.341-.641-.229-.153-.111-.197.038-.164-1.029-.354-.433-.234-1.476-.561l.046-.059-.378-.062-.44-.335.145.156c-.336-.117-.562-.147-.939-.324l.193-.044c-.967-.277-1.05-.548-2.014-.675-.059-.036.095-.03.173-.025-.901-.073-.6-.367-1.521-.381.062-.022-.022-.089.019-.11l-.415-.02.062-.134-.37.137-.217-.196-.17.038c-.377-.357-1.023-.261-1.587-.547l.077.195c-1.529.151-3.418-.572-5.26-.354l.03-.145-.748.196c-.41-.1.237-.135.107-.204-.804.12-.326.226-1.256.333-.485-.052.157-.125.379-.188-.874.126-2.147.365-2.772.389-.011.022-.045.053-.013.056-.566.154-1.334.237-1.962.389 0-.068.155-.113.309-.161-.228.041-.55.063-.727.179l.208-.179c-.492.087-1.387.447-1.533.338.073.037.078.148-.334.265-.295-.148-1.087.436-1.77.56.06-.077.532-.256.397-.211-.346.058-.604.263-.861.437l.055-.116c-.486.228-.966.468-1.436.723-.314-.115-1.356.668-1.326.479-.516.25.473-.127-.163.219-.217 0-.559.341-.599.199l.06-.051-.442.249.215-.275c-.375.23-.58.519-.547.621-.399.132-.867.491-1.093.48l.111-.111c-.954.654-1.839.727-2.44 1.47-.066.024-.082-.009.036-.093l-.582.428.072-.189c-.285.285-.562.578-.834.872l-.034-.065c-.63.478-1.531 1.329-2.231 2.063l.084-.13c-.704.862-.8.716-1.294 1.367a.185.185 0 01.035-.083l-.482.549.054-.167c-.242.503-1.151 1.061-.839.885-.141.282-.401.748-.382.875-.474.638-.195.096-.535.458-.346.464-.302.617-.792 1.228l-.052-.053-.53.969.051-.147c-.305.783-.724.781-.765 1.506-.226.273-.484.883-.6.788a53.89 53.89 0 00-1.016 2.685c-.279.064-.074.207-.418.74l.135.002c-.497 1.351-1.285 2.863-1.574 4.454l-.135.014.069.344c-.42 1.68-.72 3.914-.755 5.296.048.457.184 1.142.153 1.857l-.019-.076.343 3.904c-.065-.076-.084.062-.139-.084.182.302.117.791.164 1.08l.039-.353c.18.363.159.927.108 1.138l.254.573c-.004.043-.01.108-.028.12l.088.092-.095.354c.069.142.298.92.525 1.12-.039.07.067.634-.077.215.183.723.385 1.44.619 2.149l-.059-.35c.109-.081.397.524.468.866-.256-.389-.183.026-.202.242.171.262.012-.286.134-.16.209.329.552 1.055.58 1.262l-.136-.19c.247.457.134.767.362 1.227.283.375.354.718.506.536.332.572-.021.295.056.497.232.231.611 1.076.578 1.233.446.161.812 1.601 1.123 1.566l.17.54c.069-.025.264-.026.538.319.169.387.014.376.026.522l.381.069c1.156 2.127 3.459 4.337 5.349 6.176.948.707 2.207 1.491 3.346 2.249l-.147-.053c.37.267.746.523 1.126.774-.263-.206-.529-.404-.784-.617.267.134.495.204.738.355 1.219.858 2.967 1.886 4.747 2.409 1.223.121.652.538 1.812.684-.102-.003-.148.027-.242.029 1.209.272 1.875.394 3.111.483-.202.275.784.155.646.289l.123-.104c.252.132.885.258.78.332l.56-.07.028.133c.713.124 2.259.163 2.624.431 1.8-.063 4.614-.084 6.845-.4.296-.153.939-.27 1.438-.383l.566.035c.502-.157.99-.475 1.48-.51.001.018-.015.035-.045.053.502-.166 1.009-.234 1.435-.52.553-.167 1.107-.288.988-.093-.03-.25 1.166-.396 1.167-.402-.01-.016 1.782-.6 4.331-2.043 2.542-1.43 5.785-3.84 8.48-7.085 2.725-3.213 4.817-7.221 5.858-10.9 1.074-3.681 1.163-6.941.897-8.724-.114-.246-.173-.905-.329-.657-.039-.505.183-.735.06-.835-.092.686-.32-.211-.483.453l-.025-.425c-.088-.088.093.58-.066.473l.231.124c-.039.346-.102.533-.184.651.08.326.386.554.19 1.322l.004-.216c-.046.633-.184.374-.233.502l.015-.139-.166.517c.118-.393-.017-1.067-.032-.721-.13.739.074-.188.053.373-.018.349-.134.238-.204.216l-.062.62c-.104-.035.053-.408-.087-.171l.015.791c-.287.104.003.866-.317 1.175.035-.564-.098.033-.171-.07-.076.45-.162.898-.257 1.346-.064.118-.007-.37-.037-.164-.126.234-.03.427-.063.562-.096.099-.251.991-.419.906-.373.853.122.44-.236 1.236-.138.075.182-.662-.041-.33l-.239.86c-.023-.093-.11-.221.013-.53-.91 2.245-1.971 3.162-2.858 5.115-.262.201.029-.233.057-.463-.603 1.448-1.341 1.741-2.064 2.822l.075.081c-1.316 1.298-2.589 3.089-4.2 4.388l.23-.113c-.131.272-.466.589-.688.85-.077-.009.034-.331-.39.089.118-.05.338-.184.314-.095-.76.477-1.855 1.301-3.133 2.105-1.27.814-2.729 1.591-4.065 2.124-3.517 1.712-7.764 2.405-11.564 2.462.582-.016.34.255-.104.198-1.191-.457-2.095.022-3.291-.42-2.239-.116-4.07-.953-6.118-1.3l.005-.135c-.27-.158-.379-.1-.686-.205l.021-.03c-.696-.312-1.595-.563-1.965-.812l-.086.118c-.418-.184-.167-.198-.621-.334l.045-.059-.547-.126c.163-.194-1.124-.628-1.373-.928-.527-.261-1.532-.78-2.223-1.355-.062-.198-.933-.862-1.419-1.365-1.063-.838-2.489-2.172-3.554-3.536l-.106.129-.297-.344c.032-.018.009-.077.065-.034-.075-.387-.691-.785-.812-1.149.013.273.17.268.322.476.164.343-.18.158-.417-.295l.035-.014-.271-.228c.081-.105-.053-.393.03-.499-.864-1.199-1.579-1.962-2.235-3.359.196.079-.52-.977-.16-.807-.471-.796-.117.224-.453-.086-.107-.235-.279-.459-.212-.538.103.087.055-.253.159-.07l-.259-.56c-.004-.062.078.051.119.107-.612-1.111-.64-2.131-1.092-3.163-.109-.055.103.436-.007.383-.491-1.044-.122-1.006-.492-2.003l.169.186c-.156-.312-.298-.437-.308-1.008.123-.123.208.443.335.691-.083-.374-.295-1.32-.371-1.006-.13-.447-.023-.636-.025-.886-.037-.003-.026.439-.137.183-.018-.633-.139-1.595-.182-2.362.036.005.087-.053.109.013-.224-.599.096-.553.026-1.392z"/><path d="M27.344 3.171l-.315.031c.006.032-.001.071-.138.134l.453-.165zM13.845 9.257c-.023.034-.046.066-.063.102.056-.053.065-.082.063-.102zM11.365 11.917c.158-.207-.032-.071-.145-.002.017.024.047.043.145.002zM35.832 2.597c-.058.007-.094.022-.088.054.077-.018.096-.035.088-.054zM55.665 14.325l-.039-.088a.273.273 0 00.039.088zM55.037 13.146a1.426 1.426 0 00-.187-.194.92.92 0 00.187.194zM30.094 2.504a.72.72 0 00-.245.064.637.637 0 00.245-.064zM54.649 12.763l-.202-.263c-.009.005-.017.007-.025.014l.227.249zM55.895 14.672c-.072-.107-.174-.249-.229-.347a.953.953 0 00.229.347zM44.261 4.766l-.034-.011c-.263-.047-.105-.006.034.011zM53.505 11.847l-.026-.036-.094-.044zM56.651 15.877a.589.589 0 00-.111-.123l.088.166c.006-.024.014-.036.023-.043zM48.495 7.382c.108.007.158-.004.177-.025-.094-.06-.165-.078-.177.025z"/></g><ellipse fill="#6E7072" cx="32.637" cy="14.366" rx="4.254" ry="4.304"/><path fill="#6E7072" d="M27.592 20.353h9.299s.926.13 1.223 1.121c0 0 1.154 2.935 3.396 4.518 2.244 1.582 5.178 3.135 5.178 3.135s.76 1.517-.164 2.045c-.924.527-1.748.791-4.551-1.122-2.803-1.914-3.895-2.968-3.895-2.968l.035 7.19-.035 19.229s-.229 1.846-2.373 1.88c-2.145.032-2.506-1.715-2.506-1.715l.131-16.559-1.121-.099.032 16.458s0 1.816-2.375 1.914c-2.374.099-2.507-1.781-2.507-1.781V24.74s-1.945 2.11-2.011 5.442c-.068 3.33.264 7.188.264 7.188s-.298 1.188-1.387 1.288c-1.089.099-1.714-.789-1.714-.789s-.957-6.138 0-9.997 2.839-6.398 5.081-7.519z"/><path fill="#6E7072" d="M17.664 32.359s-6.911 2.505-2.559 10.488c0 0 .778.792 1.636.33.856-.463.526-1.518.526-1.518s-2.522-5.227.66-6.729c0 0 1.767-.54 3.893 1.056 3.232 2.426 12.666 4.486 17.152.989 4.486-3.495 8.84-10.555 8.84-10.555s2.979.503 4.43-2.335l.387.225 1.715-3.232-1.123-.725 1.781-3.102s.221-.508-.109-.706c-.33-.197-.633.166-.633.166l-1.83 3.18-3.496-1.914 1.848-3.034s.189-.345-.197-.577c-.293-.175-.604.118-.604.118l-1.904 2.967-1.092-.595-1.877 3.166.463.331s-2.215 2.701.195 4.814c0 0-5.773 8.239-7.652 9.5-3.365 2.26-8.162 2.461-16.292-1.584-.002 0-1.961-1.406-4.158-.724z"/></symbol><symbol viewBox="-0.695 -0.077 66 66" overflow="visible" id="schema_installation_photovoltaique" xmlns="http://www.w3.org/2000/svg"><ellipse fill="#FFF" cx="32.48" cy="32.263" rx="30.605" ry="30.852"/><g fill="#6E7072"><path d="M53.268 8.574a.113.113 0 00.07-.025c-.041-.001-.061.009-.07.025zM39.667 1.038l.187.013c-.119-.025-.167-.024-.187-.013zM59.08 15.819c-.011-.008-.015-.006-.024-.011l.324.567-.3-.556zM8.634 10.348l.144-.159c-.066.071-.113.112-.144.159zM26.001.722c-.055.04-.156.072-.254.103.128-.024.228-.052.254-.103zM59.994 20.731l-.009-.27c-.036.02-.039.12.009.27zM62.521 29.406c.007-.008.013-.01.02-.026-.01-.011-.015.003-.02.026zM62.363 25.805l-.095-.244c.025.107.055.243.095.244zM62.218 25.446l.05.115c-.018-.066-.034-.12-.05-.115zM64.249 33.768c.014-.276-.047-.516-.102-.764l.102.764zM.881 39.172L.83 39.12c.024.053.04.06.051.052zM63.434 33.394l.026-.189a.83.83 0 00-.026.189zM57.616 16.619c-.212-.172-.402-.676-.479-.622.164.219.305.586.479.622zM6.118 43.989l.071.151a1.36 1.36 0 00-.071-.151zM63.434 33.394l-.03.22c.018-.018.032-.042.049-.063a.688.688 0 01-.019-.157zM21.018 62.771l-.01-.002-.067-.008zM22.592 63.486l-.36-.087a.993.993 0 00.36.087zM64.147 33.004l-.067-.434c.008.156.037.297.067.434zM40.897 63.778l-.161.056a.786.786 0 00.161-.056zM27.278.541l.149-.004c.012-.024 0-.037-.149.004zM16.898 7.098l-.002.002v.002zM17.366 6.673c-.179.08-.379.287-.468.425.166-.103.309-.22.468-.425zM15.761 7.795l.066-.032a.311.311 0 00-.066.032zM27.246 3.207l-.002-.011-.006.011zM24.852 3.766a.742.742 0 00-.174.004.65.65 0 00.174-.004zM11.292 11.997l-.001-.004-.008.01z"/><path d="M3.978 33.069c-.142-2.265-.035-5.254.559-7.449-.074-.523.096-1.229.269-1.937l.266.001.105-.599c.149-.208-.096.456.128.074l-.08-.266c.096-.02.578-1.434.407-.425.263-.729.555-1.448.874-2.154.226-.462-.073-.367.237-.852.118-.071-.045.207.058.205.932-1.429.467-1.998 1.427-3.311l-.046.134c.092-.267.386-.7.363-.724-.333.027-.045.319-.442.647-.158-.154.239-.58.085-.645.282-.27.302-.528.49-.806.435-.385.861-1.085 1.262-1.311.124-.255.153-.636.546-1.092.412-.208.053.18.49-.21l-.029-.153c.339-.339.313-.259.345-.206.358-.363.167-.432.68-.826l-.167.338c.302-.367.451-.491.94-.931.039.063-.156.239-.312.356.388-.106.388-.479.549-.592-.08-.006-.432.289-.351.044.256-.204.407-.598.683-.64l-.189.328c.451-.525.171-.363.807-.831-.027.034.009.045.012.077.284-.442.889-.733 1.491-1.153l-.092.11c.211-.211.285-.392.42-.478-.387.182-.314.086-.416.009.577-.148.562-.694 1.411-1.083.025.07-.116.258-.368.332-.143.354-.08.518-.474.914.25-.24.575-.481.551-.36l-.02-.225c.169-.121.316-.197.45-.281.009-.154-.469.052-.102-.276.432-.348.354.018.38-.103.608-.45.155-.351.822-.651-.055.05-.162.149-.226.164.489-.191 1.107-.649 1.353-.504-.045.082-.024.152-.206.226l-.01-.035c-.421.418.397-.264.34.012-.093-.095.566-.399.875-.511l-.157-.088c.809-.856.066.28 1.021-.207.588-.357-.253.062.091-.196.438-.152.642-.101 1.25-.397.195-.012.581-.063.664.08.361-.201 1.19-.313 1.366-.528-.707.068-.61.361-1.445.421l.164-.228c.538-.171 1.207-.463 1.601-.508-.084-.009-.13-.039-.091-.085.764-.271.956-.483 1.74-.604.132.123-.325.191-.648.283.521.003.518-.118 1.301-.22.065.118-.521.09-.584.237l.844-.208c-.002.008.003.016.005.025.088-.229.656-.101 1.173-.232 1.248-.16 1.414-.452 2.11-.674.194.045.252.097.176.155-.319-.075-.258-.004-.363.059.429-.053.947.155.713.253.672-.087-.25-.104.162-.186.31-.009.62-.014.93-.01-.11-.108-.442-.128.043-.217.408-.038.606-.007 1.14.008-.079.052.163.168-.236.154.256.043.655.069.815-.032-.578-.13.962-.041.538-.232l.577.143c-.133-.013-.153.055-.348.021.152.175.48-.005.687-.004.203.047.732.129.769.196.188-.026.631.078.702.172.275.005.037-.104.125-.146l.92.17c.032.1.062.365-.082.373.359-.017.174-.243.694-.132-.332.109.656.285.181.397.269.188 1.101.382 1.567.468.32-.058-.473-.212-.408-.344 1.302.3 1.501-.041 2.424.342l-.234-.125c.613.132.542.12.926.135-.223.109.492.689 1.427 1.064.117-.047-.45-.387-.243-.451l.633.25c.039.033-.041.03-.131.016.584.194.92.692 1.17.585l.424.516-.162-.214c.115-.039.729.255.867.299.656.254.833.46 1.096.754-.062-.126-.231-.432.248-.163-.155.237.909.716.81.835.184.124.451.421.542.338l-.137.128c.189-.18.836.304 1.349.652-.32.18.548.403.556.821.242-.108.885.643 1.096.573.358.315.173.443.21.578l.22.088c.099.243.716.878 1.016 1.316l.483.222.052.199c.09.023.383.31.273.069l.166.208c.187-.131.29.244.705.597.049.119-.014.127-.109.056.165.209.004.192.035.353-.071-.189.91.507.546-.124.044-.098.354.2.482.435l-.064.25.357.13c.271.319.264.54.434.829-.206-.277-.747-.401-.248.315-.281-.365-.501-.486-.675-.65.099.15.135.234-.099.058.447.513.232.112.638.65-.17.069-.11.257.153.779l-.128-.438c.03.005.06.021.087.043-.074-.15-.076-.205-.038-.274.068.112.618.532.581.689-.119-.733.808.902.725.444.083.042.338.448.28.538-.399-.429.031.475-.127.456.147.16-.099-.455.099-.239.177.29.197.562.232.756l-.096-.109.169.499c.12.035-.098-.518.167-.113.024.13.278.542.207.56-.213-.15-.287.071-.494-.279.166.292.639 1.255.607.791l.164.37c-.036-.26-.212-.968.153-.237l-.036.008.354.464.013.265c.04-.025.114.041.19.238-.03.072.024.264-.049.275.236.562.295.487.376.542.133.317.142.449-.015.336.14.446.418 1.213.417 1.545.255.575 0-.134.221.181-.138.604.429 2.018.647 3.019.218-.324.085.267.361.409-.12-.202-.053.994-.274.123l.116.534c-.09.388-.257-.868-.371-.282.105.592.458.948.437 1.675-.218-.219.119.543-.114.385-.081-.141-.08-.339-.119-.538l-.024.127c.067 1.324.269.359.459 1.046.077.814-.114.65-.203.702-.034.128.013.533.07.745-.137-.489.089-.919.221-.697-.203.367.016 1.209.104 1.435.219-1.176.006-.809.203-1.924-.084-.148-.269-.109-.246-.773.135.405.108-.039.13-.159-.101.138-.088-.454-.162-.648.071-.195.309.368.278-.31l-.283-.093c.004-.265.212.086.07-.462.18.282.209-.123.348.632.114-.939-.314-1.376-.542-2.048.029.067.066.069.098.136-.1-.136-.143-.405-.202-.606-.037-.47.196.336.241.204l-.163-.741c.006-.017.01-.021.015-.023-.076-.188-.149-.365-.1-.449.138.2.249.267.349.401l-.368-.737c.111.063-.02-.678.19-.143-.115-.38-.226-.761-.354-1.137l.146-.149c-.112-.265-.148-.262-.073.073-.064-.412-.861-1.615-.456-1.529-.462-.828-.521-1.167-1.059-2.166.508.73-.215-1 .235-.188-.157-.526-.378-.549-.595-.917-.107-.393.131-.314.384.048l-.301-.422.037-.007-.294-.349c-.134-.461.117-.175-.092-.616l-.193-.016-.077-.334c-.006.145-.169-.094-.361-.391l.035-.011-.243-.355c.303.315-.173-.354.025-.246-.189-.316-.188-.327-.577-.867l-.029.158c-.555-.669.122-.123-.266-.709l-.08.108c-.399-.958-1.094-1.323-1.451-1.984.29.316.339.141.305.156-.429-.482-1.091-1.304-1.656-1.689-.03-.302-.023-.388-.445-.939-.357-.352-.429-.386-.618-.426-.293-.394-1.038-.926-.969-1.04-.153.003-.311-.307-.574-.411l-.008-.079-.051.124c-.474-.775-1.215-.796-1.762-1.504l.142.061-.324-.176c-.015-.08.126-.019.183-.067-.454-.342-.92-.667-1.391-.986l.227.266c-.305-.19-.575-.211-.879-.496.678.197-.476-.305-.499-.48l.341.145c-.437-.247-.437-.247-.466-.115-.583-.282-.265-.434-.855-.603l.37.211c.071.127-.242.063-.492-.07-.049-.049-.2-.193-.002-.105-.469-.201-1.125-.6-1.352-.647-.232-.153-.112-.197.038-.163-1.038-.358-.438-.236-1.488-.566l.046-.06-.38-.063-.445-.337.146.157c-.339-.118-.566-.149-.948-.327l.195-.044c-.975-.28-1.06-.552-2.031-.68-.059-.036.096-.03.175-.025-.908-.076-.605-.368-1.534-.385.062-.022-.023-.089.018-.11l-.418-.021.062-.134-.373.136-.22-.2-.172.037c-.38-.358-1.032-.263-1.6-.549l.077.196c-1.542.149-3.446-.576-5.303-.356l.03-.145-.754.196c-.413-.098.239-.133.109-.202-.811.12-.329.226-1.267.333-.489-.052.159-.126.383-.188-.881.126-2.165.367-2.795.391-.012.022-.046.053-.013.056-.572.155-1.346.239-1.979.392.001-.068.157-.113.312-.161-.229.041-.554.064-.732.181l.209-.18c-.496.088-1.399.45-1.546.341.074.037.079.148-.337.266-.297-.148-1.097.438-1.785.565.061-.078.537-.258.401-.213-.349.059-.609.265-.868.44l.056-.117c-.491.229-.974.472-1.449.728-.315-.115-1.367.673-1.336.484-.52.251.476-.13-.165.22-.218.001-.563.343-.604.201l.061-.051-.445.25.217-.276c-.378.232-.585.522-.553.624-.402.133-.874.495-1.102.485l.113-.111c-.962.659-1.852.735-2.46 1.483-.067.025-.082-.008.036-.093l-.587.431.072-.19c-.288.287-.567.582-.842.878l-.034-.065c-.635.482-1.543 1.339-2.25 2.081l.085-.132c-.71.869-.807.723-1.305 1.378a.184.184 0 01.036-.084l-.486.553.055-.168c-.246.507-1.16 1.07-.846.893-.143.284-.405.753-.387.881-.478.643-.195.098-.538.462-.349.468-.306.622-.8 1.238l-.052-.053-.535.977.051-.148c-.309.789-.729.789-.772 1.519-.227.276-.488.891-.604.794a55.158 55.158 0 00-1.026 2.706c-.28.065-.075.208-.42.746l.136.003c-.501 1.362-1.292 2.887-1.584 4.491l-.134.018.068.347C.339 27.3.036 29.552 0 30.946c.048.46.184 1.151.153 1.872l-.019-.078.345 3.937c-.065-.076-.084.063-.139-.085.183.305.118.798.166 1.089l.039-.355c.18.366.16.935.109 1.147l.255.578c-.004.043-.01.108-.028.121l.088.092-.094.357c.069.142.3.927.527 1.13-.039.07.068.638-.077.216.185.728.388 1.452.625 2.167l-.06-.353c.11-.082.4.53.472.874-.257-.393-.184.026-.201.244.172.263.011-.289.134-.162.21.332.556 1.064.584 1.272l-.137-.191c.249.46.137.772.366 1.235.284.379.356.724.509.542.334.577-.019.297.057.5.234.234.616 1.086.583 1.244.448.162.819 1.612 1.131 1.579l.173.544c.069-.025.265-.025.541.323.172.389.015.378.029.525l.383.071c1.167 2.144 3.489 4.372 5.395 6.225.955.713 2.224 1.505 3.373 2.269l-.149-.054c.373.269.752.527 1.136.781-.265-.208-.533-.408-.791-.623.269.136.499.207.744.359 1.229.865 2.992 1.899 4.787 2.429 1.232.124.658.54 1.828.688-.103-.003-.15.027-.244.029 1.219.275 1.89.397 3.136.489-.203.275.791.157.651.29l.124-.104c.254.133.893.259.787.334l.565-.07.029.133c.718.126 2.277.165 2.645.433 1.814-.062 4.652-.083 6.901-.402.299-.153.947-.271 1.449-.386l.57.034c.507-.157.999-.477 1.493-.512.001.018-.015.035-.045.053.506-.168 1.017-.237 1.446-.523.557-.168 1.116-.291.996-.096-.03-.249 1.175-.399 1.176-.405-.01-.016 1.798-.605 4.366-2.06 2.563-1.441 5.833-3.872 8.55-7.144 2.747-3.238 4.857-7.279 5.908-10.988 1.084-3.71 1.175-6.998.909-8.795-.113-.248-.172-.913-.328-.663-.039-.509.183-.742.06-.842-.092.691-.32-.213-.483.457l-.025-.429c-.088-.089.093.584-.066.476l.231.125c-.039.348-.102.537-.184.657.08.328.386.557.189 1.333l.004-.218c-.046.638-.184.377-.233.506l.015-.139-.167.521c.119-.396-.015-1.077-.031-.727-.131.745.074-.19.053.376-.019.351-.135.24-.204.218l-.062.625c-.104-.035.053-.412-.087-.172l.014.797c-.287.106.002.874-.318 1.186.035-.569-.098.034-.171-.07-.077.454-.164.906-.26 1.357-.064.119-.006-.373-.037-.165-.126.236-.03.43-.064.566-.095.1-.253.999-.42.914-.376.86.12.443-.24 1.247-.138.075.184-.668-.04-.333l-.242.868c-.023-.094-.109-.222.015-.535-.917 2.266-1.982 3.193-2.879 5.163-.264.204.029-.234.059-.466-.61 1.46-1.352 1.758-2.082 2.849l.076.082c-1.326 1.312-2.612 3.117-4.237 4.429l.232-.114c-.134.274-.472.593-.695.855-.077-.008.036-.332-.393.092.12-.051.341-.187.317-.097-.767.481-1.871 1.313-3.16 2.126-1.281.822-2.754 1.606-4.104 2.145-3.549 1.727-7.835 2.429-11.67 2.485.587-.016.343.255-.104.198-1.202-.457-2.114.022-3.321-.422-2.259-.118-4.108-.959-6.175-1.312l.004-.135c-.272-.159-.382-.101-.692-.207l.021-.031c-.703-.313-1.61-.568-1.983-.818l-.087.118c-.422-.186-.168-.2-.626-.337l.045-.059-.551-.129c.163-.193-1.135-.633-1.386-.935-.533-.263-1.546-.788-2.243-1.369-.064-.198-.943-.868-1.434-1.376-1.073-.847-2.511-2.192-3.586-3.569l-.105.13-.3-.348c.032-.018.008-.077.065-.034-.077-.39-.697-.792-.82-1.16.014.275.172.271.326.48.166.346-.179.158-.419-.298l.035-.014-.272-.23c.081-.105-.055-.395.028-.502-.872-1.211-1.591-1.981-2.255-3.392.197.08-.524-.985-.163-.813-.474-.803-.117.226-.455-.088-.108-.237-.28-.463-.214-.543.103.088.054-.255.159-.07l-.262-.564c-.005-.062.079.051.119.107-.617-1.121-.648-2.149-1.102-3.191-.109-.056.104.439-.006.386-.494-1.054-.124-1.015-.497-2.021l.169.188c-.157-.315-.299-.441-.31-1.018.123-.124.208.447.336.698-.083-.378-.297-1.333-.373-1.017-.13-.45-.024-.642-.027-.893-.037-.004-.026.443-.137.184-.019-.639-.141-1.609-.184-2.384.036.004.088-.054.109.013-.231-.604.089-.558.019-1.404z"/><path d="M27.563 3.175l-.318.032c.006.032-.002.071-.139.134l.457-.166zM13.942 9.316c-.023.034-.047.067-.063.103.056-.054.065-.083.063-.103zM11.438 11.998c.16-.208-.032-.07-.146-.001.018.024.047.044.146.001zM36.128 2.598c-.058.007-.095.022-.089.054.079-.017.097-.035.089-.054zM56.14 14.43l-.039-.088c.002.02.017.051.039.088zM55.505 13.243a1.498 1.498 0 00-.188-.196c.07.096.134.154.188.196zM30.339 2.504a.725.725 0 00-.247.064.632.632 0 00.247-.064zM55.115 12.856l-.205-.266c-.008.005-.016.007-.024.015l.229.251zM56.373 14.781c-.073-.108-.176-.251-.232-.351a.98.98 0 00.232.351zM44.631 4.789l-.034-.012c-.264-.048-.104-.006.034.012zM53.961 11.93l-.026-.037-.095-.043zM57.136 15.997a.574.574 0 00-.112-.124l.089.167c.006-.025.013-.037.023-.043zM48.906 7.426c.108.007.159-.003.178-.024-.095-.061-.167-.079-.178.024z"/></g><path fill="#6E7072" d="M13.92 40.981l3.025-4.939 8.432.41-2.144 5.086zM17.241 35.484l2.455-4.145 7.768.31-1.776 4.251zM19.944 30.852l2.031-3.46 7.135.205-1.563 3.538zM22.216 26.951l1.812-2.94 6.562.115-1.238 3.033zM24.353 41.514l2.151-5.076 8.301.148-1.264 5.191zM26.707 35.866l1.719-4.247 7.636.06-1.048 4.343zM28.589 31.119l1.422-3.554 6.998-.017-.949 3.609zM30.179 27.114l1.289-3.017 6.427-.095-.72 3.094zM34.919 41.854l1.118-5.188 8.227-.159-.204 5.334zM36.147 36.081l.942-4.387 7.424-.226-.155 4.455zM37.149 31.178l.68-3.666 6.789-.289-.211 3.712zM37.901 27.045l.641-3.066 6.231-.248-.085 3.029zM45.104 41.736l.217-5.324 7.562-.281.957 5.237zM9.861 47.488l3.426-5.595 9.557.467-2.429 5.759zM21.685 48.089l2.439-5.75 9.169.161-1.2 5.89zM33.549 48.479l1.16-5.886 9.354.071-.374 5.803zM44.888 48.336l.184-5.639 8.993-.432 1.035 5.662zM45.302 35.821l.105-4.456 6.635-.321.711 4.499zM45.383 30.845l.071-3.716 6.006-.361.498 3.711zM45.452 26.658l-.015-2.927 5.493-.335.441 2.906zM41.422 11.714l-1.814-4.143-3.007 3.38-3.259-3.137-1.48 4.274-4.211-1.647.266 4.517-4.523.086 1.976 4.069-4.145 1.814 2.301 2.044 2.335-.066c.022-.407.06-.813.123-1.227.962-6.083 6.501-10.262 12.37-9.333 4.961.785 8.56 4.979 8.973 9.936l2.982-.089 2.413-2.507-4.277-1.477 1.648-4.213-4.517.265-.088-4.522-4.066 1.976z"/><path fill="#FFF" d="M27.381 22.328c.848-5.364 5.828-9.036 11.126-8.196 4.264.676 7.429 4.072 8.055 8.17l.764-.021c-.413-4.956-4.012-9.15-8.973-9.936-5.869-.929-11.408 3.25-12.37 9.333-.063.413-.101.819-.123 1.227l1.462-.044c.018-.175.028-.352.059-.533z"/><path fill="#6E7072" d="M38.507 14.132c-5.298-.84-10.278 2.832-11.126 8.196-.031.181-.041.357-.06.533l19.24-.56c-.625-4.097-3.79-7.493-8.054-8.169z"/></symbol><symbol viewBox="-0.623 -0.231 66 66" overflow="visible" id="schema_production_maison" xmlns="http://www.w3.org/2000/svg"><ellipse fill="#FFF" cx="32.552" cy="32.335" rx="30.678" ry="30.925"/><g fill="#6E7072"><path d="M53.388 8.592a.118.118 0 00.07-.024c-.041-.002-.062.009-.07.024zM39.755 1.04l.187.013c-.119-.025-.167-.025-.187-.013zM59.213 15.854c-.011-.008-.015-.006-.024-.011l.324.568-.3-.557zM8.653 10.372l.144-.159c-.066.071-.114.112-.144.159zM26.059.723a1.01 1.01 0 01-.255.103c.128-.023.228-.051.255-.103zM60.132 20.776l-.009-.271c-.035.02-.039.12.009.271zM62.665 29.472c.006-.008.012-.01.02-.026-.01-.012-.016.003-.02.026zM62.506 25.863l-.096-.245c.026.107.056.244.096.245zM62.36 25.503l.05.115c-.017-.066-.033-.12-.05-.115zM64.393 33.843c.014-.277-.047-.516-.102-.766l.102.766zM.882 39.26l-.051-.052c.025.053.04.06.051.052zM63.578 33.469l.026-.19a.854.854 0 00-.026.19zM57.748 16.654c-.211-.172-.402-.678-.479-.624.165.22.305.587.479.624zM6.124 44.092l.071.151a1.36 1.36 0 00-.071-.151zM63.578 33.469l-.03.22c.018-.018.032-.042.049-.063a.675.675 0 01-.019-.157zM21.064 62.913l-.009-.003-.067-.008zM22.642 63.628l-.361-.087c.183.072.286.088.361.087zM64.291 33.078l-.067-.434c.008.156.037.297.067.434zM40.988 63.921l-.161.056a.77.77 0 00.161-.056zM27.338.542l.149-.004c.012-.024 0-.037-.149.004zM16.932 7.109l-.003.002.001.002zM17.401 6.684c-.18.079-.38.287-.469.425.166-.104.309-.22.469-.425zM15.792 7.808l.066-.033a.37.37 0 00-.066.033zM27.304 3.208l-.002-.01-.005.01zM24.905 3.768a.751.751 0 00-.175.004.583.583 0 00.175-.004zM11.312 12.02l-.002-.004-.008.01z"/><path d="M3.978 33.144c-.142-2.27-.035-5.267.561-7.467-.074-.525.097-1.232.27-1.941h.267l.106-.6c.149-.209-.097.457.128.074l-.079-.267c.096-.02.58-1.438.407-.426.264-.731.556-1.451.875-2.16.227-.463-.072-.367.238-.854.118-.07-.045.208.058.206.934-1.433.47-2.002 1.432-3.319l-.046.134c.092-.268.387-.701.364-.725-.333.027-.045.319-.443.649-.158-.154.24-.582.085-.646.283-.271.303-.529.491-.808.436-.387.863-1.088 1.265-1.314.124-.255.154-.637.548-1.094.412-.209.052.18.491-.211l-.029-.154c.34-.339.314-.26.345-.206.359-.364.167-.432.681-.828l-.167.338c.303-.368.452-.493.942-.934.039.063-.157.24-.312.357.389-.107.389-.48.551-.593-.08-.006-.433.29-.352.045.257-.205.408-.6.685-.642l-.19.329c.452-.526.172-.364.809-.833-.026.034.009.045.012.077.285-.443.891-.734 1.494-1.155l-.093.11c.212-.212.286-.393.422-.479-.388.182-.315.086-.417.009.578-.149.564-.695 1.414-1.086.025.07-.117.259-.369.333-.143.354-.081.518-.476.915.25-.24.576-.481.553-.361l-.02-.225c.17-.121.317-.198.451-.282.01-.154-.469.053-.101-.276.433-.348.354.018.381-.104.61-.451.156-.352.824-.652-.055.05-.162.149-.226.164.49-.191 1.11-.65 1.355-.506-.045.082-.024.152-.207.227l-.01-.036c-.422.419.398-.265.34.012-.093-.096.567-.4.876-.512l-.156-.088c.811-.857.065.281 1.023-.208.59-.358-.253.062.092-.196.438-.153.643-.101 1.252-.399.196-.012.583-.063.666.079.362-.201 1.193-.313 1.369-.528-.708.069-.611.361-1.448.422l.165-.228c.539-.172 1.21-.464 1.605-.509-.084-.009-.13-.04-.091-.085.766-.271.958-.484 1.745-.606.132.123-.327.192-.651.284.522.002.519-.118 1.305-.221.065.118-.523.091-.586.237l.846-.209c-.002.008.003.017.004.026.088-.229.658-.102 1.176-.232 1.251-.161 1.417-.453 2.115-.674.194.045.253.096.176.155-.319-.075-.259-.004-.364.059.43-.053.949.155.715.253.674-.087-.25-.103.163-.186.311-.009.621-.014.932-.01-.111-.108-.443-.127.042-.217.41-.038.607-.007 1.144.008-.08.052.162.168-.237.154.257.043.656.07.817-.032-.58-.13.964-.041.539-.232l.58.142c-.134-.013-.154.054-.35.02.153.176.481-.005.688-.003.204.047.734.129.771.196.188-.026.633.078.704.172.276.006.037-.104.125-.146l.923.171c.032.1.062.365-.082.373.36-.016.174-.243.695-.132-.333.109.658.286.182.397.269.188 1.104.383 1.57.469.322-.058-.474-.212-.408-.345 1.305.301 1.504-.04 2.429.344l-.232-.125c.615.133.544.121.929.137-.223.109.493.689 1.431 1.066.117-.047-.452-.387-.244-.452l.635.251c.039.033-.042.03-.131.016.584.194.922.693 1.171.586l.427.517-.163-.214c.115-.039.73.256.869.3.657.255.835.461 1.099.755-.062-.126-.232-.432.248-.162-.155.237.911.718.812.836.185.124.452.422.543.338l-.135.126c.189-.18.838.306 1.352.654-.321.18.549.404.557.822.239-.105.884.647 1.095.577.358.316.174.444.21.579l.221.088c.099.243.718.88 1.019 1.319l.484.222.052.199c.09.023.384.311.273.069l.167.209c.187-.132.29.244.706.598.049.12-.014.127-.109.056.165.21.004.193.036.353-.071-.189.911.509.546-.123.043-.098.354.2.483.437l-.064.249.358.131c.271.32.264.541.435.831-.206-.278-.748-.403-.248.316-.282-.366-.502-.487-.677-.652.1.151.137.234-.098.057.448.515.232.113.639.652-.17.069-.11.257.154.78l-.128-.438c.029.005.06.021.087.043-.075-.15-.077-.206-.039-.274.068.112.62.534.582.691-.119-.735.811.904.726.446.084.042.339.449.281.539-.399-.43.031.476-.126.456.147.161-.1-.456.099-.239.177.291.197.563.232.758l-.096-.109.17.5c.12.036-.099-.519.167-.113.024.13.278.544.207.561-.213-.15-.287.071-.494-.279.167.292.64 1.258.608.793l.165.37c-.037-.261-.214-.97.152-.237l-.036.008.355.466.013.265c.04-.025.115.041.191.239-.03.072.024.264-.049.276.236.564.296.488.376.543.133.318.143.45-.014.337.14.447.418 1.216.418 1.549.255.577 0-.134.221.182-.138.605.43 2.022.648 3.026.218-.324.086.267.362.41-.121-.202-.053.996-.274.124l.116.535c-.09.389-.257-.87-.371-.283.106.594.459.951.437 1.679-.217-.22.12.544-.113.386-.081-.141-.081-.34-.12-.539l-.023.127c.067 1.327.269.36.459 1.049.077.816-.114.651-.203.703-.034.128.013.535.07.747-.137-.49.089-.921.221-.699-.203.368.016 1.212.104 1.438.219-1.179.006-.811.203-1.929-.084-.148-.269-.109-.246-.775.135.406.108-.039.13-.159-.102.139-.089-.455-.163-.65.072-.195.309.369.279-.311l-.284-.093c.005-.266.212.086.07-.463.18.283.209-.123.349.633.113-.941-.315-1.38-.544-2.053.03.068.067.069.099.136-.1-.136-.143-.407-.202-.608-.037-.471.196.337.241.205l-.164-.743c.006-.017.01-.021.015-.023-.076-.188-.149-.366-.1-.45.138.2.249.267.349.402l-.368-.739c.111.063-.02-.679.19-.143-.115-.381-.227-.763-.355-1.14l.146-.149c-.111-.266-.148-.263-.072.073-.065-.413-.863-1.619-.457-1.532-.463-.831-.522-1.17-1.062-2.171.509.732-.216-1.001.236-.188-.158-.528-.379-.551-.597-.919-.107-.394.131-.315.385.049l-.302-.423.037-.008-.295-.35c-.134-.462.118-.175-.092-.618l-.193-.016-.077-.334c-.006.145-.17-.094-.362-.392l.035-.012-.244-.355c.303.316-.173-.354.025-.246-.19-.317-.188-.328-.579-.869l-.028.159c-.556-.672.121-.123-.267-.711l-.08.108c-.4-.959-1.096-1.326-1.455-1.988.291.316.34.142.306.156-.43-.483-1.093-1.307-1.66-1.693-.03-.303-.023-.389-.447-.941-.357-.352-.429-.387-.619-.428-.293-.394-1.04-.928-.971-1.042-.153.003-.312-.308-.575-.411l-.008-.079-.051.124c-.476-.777-1.218-.799-1.766-1.508l.142.061-.325-.177c-.015-.08.126-.019.183-.067a35.036 35.036 0 00-1.394-.988l.228.266c-.306-.19-.576-.212-.881-.497.679.198-.478-.305-.5-.481l.341.146c-.438-.248-.438-.248-.467-.116-.585-.283-.265-.435-.857-.604l.371.211c.071.128-.243.063-.493-.071-.05-.048-.201-.193-.002-.105-.471-.202-1.128-.602-1.354-.649-.233-.153-.113-.197.037-.163-1.04-.359-.438-.237-1.49-.568l.045-.06-.381-.064-.446-.337.146.157c-.34-.118-.567-.15-.949-.328l.195-.043c-.979-.281-1.064-.553-2.037-.682-.059-.036.096-.03.175-.025-.91-.076-.606-.369-1.537-.386.062-.021-.023-.088.018-.11l-.419-.021.062-.134-.375.136-.219-.196-.171.037C38.253.503 37.6.599 37.03.312l.077.195c-1.545.148-3.454-.576-5.315-.357l.03-.145-.756.196c-.414-.097.24-.132.11-.201-.812.12-.33.226-1.27.334-.49-.052.159-.126.383-.188-.883.126-2.169.367-2.802.392-.011.022-.045.053-.013.056-.573.155-1.349.239-1.983.393.001-.068.157-.113.312-.161-.23.041-.555.064-.734.181l.21-.18c-.497.088-1.402.451-1.549.342.074.037.079.148-.338.266-.297-.148-1.099.439-1.788.566.061-.078.538-.259.402-.213-.35.06-.611.265-.871.441l.056-.117c-.492.23-.976.473-1.452.729-.316-.114-1.371.675-1.339.485-.521.252.478-.13-.166.22-.218.003-.564.346-.604.204l.061-.052-.446.251.218-.276c-.379.232-.587.522-.554.625-.403.134-.876.497-1.104.487l.113-.111c-.964.66-1.856.738-2.465 1.487-.067.024-.083-.009.036-.094l-.589.432.072-.19c-.289.288-.569.583-.845.88l-.034-.065c-.637.482-1.547 1.342-2.254 2.084l.085-.131c-.711.869-.807.723-1.307 1.38a.184.184 0 01.036-.084l-.487.555.056-.168c-.247.508-1.162 1.073-.848.895-.143.284-.406.754-.388.883-.479.643-.196.096-.54.462-.35.468-.306.623-.801 1.24l-.052-.053-.536.979.052-.148c-.31.791-.73.791-.774 1.521-.228.276-.489.893-.605.796-.392.976-.69 1.733-1.029 2.712-.28.066-.075.208-.421.748l.135.002c-.502 1.365-1.295 2.894-1.588 4.501l-.134.017.068.348C.338 27.361.035 29.618 0 31.015c.047.461.183 1.154.152 1.876l-.019-.076.345 3.945c-.065-.077-.083.062-.139-.085.183.305.118.799.166 1.091l.039-.356c.18.367.16.937.11 1.15l.255.579c-.003.043-.009.108-.028.121l.089.093-.093.357c.069.143.301.93.528 1.132-.038.071.069.64-.076.217.185.729.389 1.456.626 2.172l-.06-.354c.109-.081.399.531.472.877-.258-.395-.184.025-.201.243.173.265.011-.289.134-.162.211.334.557 1.067.585 1.275l-.137-.191c.25.461.138.773.367 1.238.285.38.357.725.51.543.335.578-.019.297.058.501.234.235.618 1.088.584 1.247.448.163.821 1.616 1.133 1.583l.174.545c.069-.025.265-.025.542.324.172.39.015.379.029.526l.383.071c1.17 2.147 3.497 4.383 5.408 6.238.957.715 2.229 1.509 3.38 2.273l-.149-.053a34.2 34.2 0 001.139.781c-.266-.208-.535-.407-.792-.623.269.136.5.208.745.36 1.232.866 2.999 1.903 4.797 2.434 1.234.125.66.54 1.832.69-.103-.004-.15.027-.244.028 1.221.276 1.894.399 3.142.491-.204.275.792.157.653.291l.124-.104c.255.133.895.259.789.334l.566-.07.029.133c.72.126 2.283.166 2.651.434 1.818-.062 4.662-.083 6.917-.403.299-.153.949-.271 1.452-.386l.571.034c.508-.158 1.002-.478 1.497-.514.001.018-.016.035-.045.053.507-.168 1.019-.237 1.449-.524.559-.168 1.119-.292.998-.096-.029-.25 1.178-.4 1.179-.406-.011-.017 1.801-.607 4.375-2.064 2.569-1.445 5.846-3.882 8.569-7.16 2.752-3.245 4.868-7.295 5.921-11.013 1.087-3.718 1.178-7.013.913-8.814-.113-.249-.172-.914-.328-.664-.039-.51.183-.743.06-.844-.092.692-.32-.213-.483.458l-.025-.43c-.088-.089.093.586-.066.478l.231.125c-.039.35-.102.539-.184.659.079.329.386.559.189 1.336l.004-.218c-.046.639-.185.378-.233.507l.014-.14-.166.522c.119-.396-.015-1.079-.031-.729-.131.747.074-.19.053.377-.019.352-.135.241-.205.218l-.062.627c-.105-.035.053-.413-.088-.173l.014.8c-.287.106.002.876-.318 1.188.035-.571-.099.034-.171-.071-.077.456-.165.909-.261 1.36-.064.12-.006-.373-.037-.165-.126.237-.031.431-.064.567-.095.101-.254 1.002-.421.917-.377.863.12.444-.24 1.25-.139.076.184-.67-.04-.334l-.243.871c-.023-.095-.109-.223.015-.536-.919 2.271-1.985 3.201-2.885 5.176-.264.204.03-.235.06-.467-.612 1.463-1.354 1.762-2.086 2.855l.075.082c-1.329 1.315-2.618 3.126-4.247 4.44l.232-.114c-.134.274-.472.594-.696.857-.077-.008.036-.333-.394.092.12-.051.341-.187.317-.098-.768.483-1.875 1.318-3.167 2.133-1.284.824-2.761 1.609-4.113 2.15-3.559 1.73-7.854 2.435-11.7 2.491.588-.016.344.255-.105.198-1.205-.457-2.119.022-3.329-.422-2.265-.119-4.119-.962-6.19-1.317l.004-.134c-.273-.16-.383-.101-.693-.208l.021-.03c-.704-.315-1.613-.571-1.988-.822l-.087.119c-.423-.186-.169-.2-.628-.338l.045-.059-.553-.129c.163-.194-1.137-.635-1.39-.938-.534-.264-1.549-.79-2.249-1.372-.064-.199-.945-.871-1.438-1.379-1.076-.85-2.518-2.199-3.596-3.579l-.105.13-.3-.348c.032-.018.008-.078.065-.035-.078-.39-.699-.794-.822-1.162.014.275.172.271.326.48.167.347-.179.158-.419-.299l.035-.013-.273-.231c.081-.106-.056-.396.028-.503-.875-1.214-1.595-1.986-2.26-3.4.197.081-.525-.988-.164-.814-.476-.806-.116.226-.455-.089-.109-.238-.281-.465-.215-.545.104.089.054-.255.159-.069l-.262-.566c-.005-.063.079.051.119.108-.618-1.125-.65-2.155-1.105-3.2-.109-.056.104.44-.006.387-.495-1.057-.125-1.017-.498-2.026l.169.188c-.157-.315-.299-.442-.311-1.021.123-.124.209.449.337.7-.084-.378-.298-1.336-.374-1.019-.131-.452-.024-.643-.027-.895-.037-.004-.026.444-.137.184-.019-.641-.142-1.613-.185-2.39.036.004.087-.054.109.013-.229-.603.091-.556.021-1.405z"/><path d="M27.623 3.176l-.319.032c.006.032-.001.071-.139.134l.458-.166zM13.968 9.333c-.023.034-.047.067-.064.103.057-.055.066-.083.064-.103zM11.458 12.021c.16-.209-.032-.071-.146-.001.017.024.046.043.146.001zM36.209 2.599c-.058.007-.095.022-.089.054.078-.018.097-.035.089-.054zM56.271 14.459l-.04-.089a.215.215 0 00.04.089zM55.633 13.27a1.498 1.498 0 00-.188-.196c.07.095.133.154.188.196zM30.405 2.504a.715.715 0 00-.248.065.623.623 0 00.248-.065zM55.241 12.882l-.205-.266c-.009.005-.016.006-.024.014l.229.252zM56.502 14.811c-.072-.109-.176-.252-.231-.352a.974.974 0 00.231.352zM44.733 4.795l-.035-.012c-.264-.048-.104-.006.035.012zM54.086 11.953l-.026-.037-.096-.044zM57.269 16.03a.551.551 0 00-.112-.124l.089.167c.005-.025.013-.036.023-.043zM49.018 7.438c.108.007.16-.003.178-.024-.095-.06-.168-.08-.178.024z"/></g><path fill="#6E7072" d="M46.61 11.022h4.966l-2.483 4.139 3.31-.065-3.628 4.965h2.865l-7.639 5.92 2.428-3.967-2.428-.043 2.483-4.299h-3.692z"/><path fill="none" stroke="#6E7072" stroke-width="2" stroke-linecap="square" stroke-miterlimit="10" d="M9.362 31.892l6.988-4.311v-4.768l4.328-1.753 1.475 3.474 14.225-5.444 10.9 14.905-1.49 2.328-16.305 9.225-9.693-12.695-9.496 1.982z"/><path fill="none" stroke="#6E7072" stroke-width="2" stroke-linecap="square" stroke-miterlimit="10" d="M12.343 38.325v7.223l15.976 9.595 15.419-9.036v-4.199"/><path fill="#6E7072" d="M21.565 44.525l3.54 2.209v6.48l-3.54-2.128zM15.977 40.434v-4.111l3.26 1.307v4.278zM24.267 31.498l5.683-3.031 5.311 7.856-5.496 2.987zM31.254 27.733l5.591-3.199 5.308 7.786-5.449 3.282z"/></symbol></svg>