<svg xmlns="http://www.w3.org/2000/svg">
    <symbol id="plus" viewBox="0 0 512 512">
        <g>
            <path d="M256 512C114.836 512 0 397.164 0 256S114.836 0 256 0s256 114.836 256 256-114.836 256-256 256zm0-480C132.4805 32 32 132.4805 32 256s100.4805 224 224 224 224-100.4805 224-224S379.5195 32 256 32z"/>
            <path d="M368 272H144c-8.832 0-16-7.168-16-16s7.168-16 16-16h224c8.832 0 16 7.168 16 16s-7.168 16-16 16z"/>
            <path d="M256 384c-8.832 0-16-7.168-16-16V144c0-8.832 7.168-16 16-16s16 7.168 16 16v224c0 8.832-7.168 16-16 16z"/>
        </g>
    </symbol>
    <symbol id="fleche_gauche" viewBox="-31.005 -43.053 23.0953 28.8694">
        <path d="M1.682 16.831s-3.783-2.428 0-4.855L19.313.654s3.783-2.428 3.783 2.067v23.361s0 4.496-3.783 2.068z" clip-path="url(#SVGID_2_)" transform="translate(-31.0057 -43.053)"/>
    </symbol>
    <symbol id="fleche_droite" viewBox="-31.005 -43.053 23.0953 28.8694">
        <path d="M-9.591-26.222s3.783-2.428 0-4.855l-17.631-11.322s-3.783-2.428-3.783 2.067v23.361s0 4.496 3.783 2.068z" clip-path="url(#SVGID_2_)"/>
    </symbol>
    <symbol id="souscrire" viewBox="0 0 367.805 367.805">
        <g>
            <path fill="#fff" d="M183.903.001c101.566 0 183.902 82.336 183.902 183.902s-82.336 183.902-183.902 183.902S.001 285.469.001 183.903C-.288 82.625 81.579.29 182.856.001c.349-.001.698-.001 1.047 0z" data-original="#3bb54a"/>
            <path fill="#333" d="M285.78 133.225L155.168 263.837l-73.143-72.62 29.78-29.257 43.363 42.841 100.833-100.833z" data-original="#d4e1f4"/>
        </g>
    </symbol>
    <symbol id="coop" viewBox="-22.802 -28.931 68.642 75.849">
        <circle cx="11.381" cy="-20.558" r="8.373"/>
        <circle cx="-14.429" cy="-3.811" r="8.373"/>
        <circle cx="37.466" cy="-3.811" r="8.374"/>
        <path d="M-17.091 6.861s-18.335 25.626 27.812 40.057c0 0-29.734-24.341-.777-42.357 0 0-4.701-6.539-13.561-5.535 0 0-3.139 8.639-13.474 7.835zM40.254 6.861S58.59 32.487 12.442 46.918c0 0 29.734-24.341.777-42.357 0 0 4.701-6.539 13.562-5.535 0 0 3.137 8.639 13.473 7.835zM3.009-11.807S-.973-9.082-2.562-3.812c0 0 6.67-1.882 14.004 6.23 0 0 5.867-7.833 13.738-5.583 0 0-1.125-4.584-5.426-8.643 0 0-5.161 2.892-8.312 2.892s-8.433-2.891-8.433-2.891z"/>
        <path d="M18.929 20.871c-.278.318-.688.291-1.334.701.027-.021.048-.039.061-.055.197-.223-.764-.084-1.235.388-.382.404-.928.553-1.513.627-.587.079-1.207.088-1.767.241-.278.075-.586.084-.927.129-.882.191-1.761.225-2.652.173-.893-.051-1.796-.179-2.776-.375-.519-.114-.924-.415-1.302-.658-.149-.069-.304-.145-.459-.199-.079-.03-.155-.058-.226-.088a2.0164 2.0164 0 01-.193-.106c-.184-.118-.347-.234-.479-.384-.134-.143-.262-.272-.354-.437.121.164.253.272.378.403.064.062.126.131.203.19.076.058.155.118.246.185.05.033.079.041.087.03.036-.042-.174-.347-.267-.461-.038-.08-.254-.014-.296-.098-.068-.056-.123-.125-.171-.198-.044-.082-.085-.168-.131-.253-.028-.082-.146.034-.161-.006a.6256.6256 0 01-.085-.172c-.018-.06-.027-.126-.036-.183-.016-.114-.034-.21-.099-.262-.044-.045-.093-.084-.133-.126-.036-.042-.077-.081-.114-.122-.039-.054-.08-.11-.11-.176-.009-.043-.015-.094-.021-.142-.027-.15-.049-.312-.064-.473a.488.488 0 00.051-.008c0-.063-.012-.119-.063-.177-.001-.017-.003-.034-.003-.052.002-.003.003-.004.003-.007.007-.006.01-.015.012-.026l-.018-.006c-.003-.113-.001-.23.006-.339l.015.002c.011.192.069.377.22.526-.027-.02-.044-.021-.055-.01-.011.014-.014.042-.002.086l.102.043c-.007-.091-.011-.178-.037-.257-.022-.081-.052-.155-.133-.224 0 0 .017-.08.03-.119-.027-.049-.079-.04-.125-.046-.001-.038 0-.079 0-.119.046.039.103.116.147.183.052.062.095.116.095.116.101.46.315.865.569 1.216-.008.046-.026.086.017.109.044.014.078.029.109.05.039.05.076.1.116.147.012.02.024.038.037.059l-.008-.032c.103.097.208.194.311.295.019.027.042.05.058.067.064.084.132.168.233.145.021.017.043.031.062.045l-.019.004.03.004c.085.067.187.11.28.165.04.063.081.137.131.194-.051-.058-.091-.131-.131-.194.093.049.184.104.28.149.1.04.198.082.3.125.656.25 1.322.402 2 .504.683.097 1.383.138 2.128.104.807-.04 1.58-.156 2.325-.324.745-.168 1.463-.259 2.175-.403.713-.141 1.425-.331 2.122-.702.542-.271 1.61-.461 2.151-.604.789.051.633.833.605.885-.057.144-.123.25-.196.333m-13.848.262c.01.009.024.011.045.008.058.001.139-.028.216-.045.078.075.217.108.345.085-.089-.125-.214-.111-.345-.085-.039-.033-.064-.074-.068-.123.004.049.03.09.068.123-.077.017-.158.046-.216.045-.021.002-.035 0-.045-.008m-.171-.139c.044-.025.072-.021.094-.006-.022-.014-.049-.019-.094.006m-.716-.721c.044.065.098.116.171.105-.089-.083-.177-.166-.266-.246-.005-.006-.007-.013-.011-.018v.001c.005.016.003.026-.002.034-.01.011-.028.013-.048.013-.03-.009-.062-.011-.093-.011.018 0 .06.011.093.011.037.009.073.021.107.043.016.024.032.048.049.068m-1.147-1.314l-.006.056h.006c.004-.019.01-.035.016-.057zm14.548 2.613a.5567.5567 0 01-.08.051c.027-.017.051-.034.08-.051M4.156 20.213c-.003 0-.006-.003-.011-.007-.015-.023-.03-.048-.045-.073.02.028.038.052.053.073 0 .004.002.007.003.007m-.915-1.309a.153.153 0 01-.022-.023.222.222 0 00.022.023M7.511 14.911a.3181.3181 0 01-.077.062c-.072.038-.072-.053-.177.075-.003.005-.14-.081-.144-.075.04-.067.074.014-.008.088-.062-.008-.163.023-.236.113-.032.04-.138-.101-.156-.04-.025.092-.138-.03-.181.021-.08.099-.184.138-.3.163-.174.038-.374.048-.514.165-.067.062-.162.076-.251.127-.212.18-.502.352-.732.455-.226.103-.357.314-.547.487-.049.044-.147.088-.147.088-.071.013.014.405-.053.423-.015.009-.104-.17-.115-.157-.02.024-.228.132-.239.161-.013.028.052.247.036.266 0 .003-.002.005-.005.007a.0198.0198 0 00-.006.011c-.062.072.122.223.04.266.064-.069-.132-.216-.056-.285 0-.001.001-.002.002-.006.039-.047-.157-.056-.213-.034-.003 0-.006.002-.006.003-.006.007.004.027.016.051.012.021.022.043.016.051-.002.001-.004.001-.006.001l-.002.002c-.027.034.181.151.123.174-.003 0-.005.001-.006.004-.004.005.013.018.03.031.018.016.034.029.034.029s0 .001-.004.001c-.051.033-.18.02-.205.052a.0218.0218 0 00-.005.017c.002.038.005.07.012.104 0 .02-.001.038-.012.052a.2256.2256 0 01-.043.024c-.03-.024-.073-.042-.116-.062 0 .021.017.055.017.074 0-.02-.017-.054-.017-.074.043.021.086.038.116.062a.5895.5895 0 00-.164.122c-.007-.004-.01-.01-.017-.014.003.005.007.012.009.018-.032.032-.067.065-.097.102l-.01-.003c.026-.055.03-.109-.018-.188.018.023.042.026.056.01.002-.002.003-.004.004-.006l-.05-.041c-.014.012-.028.023-.04.037-.029.034-.038.074.014.123 0 0-.033.018-.049.026.012.021.05.029.082.038-.006.011-.012.021-.018.033-.059-.035-.11-.135-.11-.135.021-.078.042-.155.07-.229.025-.073.05-.146.083-.215.021 0 .043.004.048-.004.002-.003.002-.006.002-.011-.015-.021-.022-.037-.025-.052l.025-.06.022-.018-.016.004.068-.139a.1377.1377 0 01.026-.022c.013-.01.028-.018.038-.028.012-.016.014-.033-.005-.062l.014-.025.006.011-.002-.015.059-.102c.038-.067.085-.132.129-.195.034-.05.071-.096.107-.14.285-.348.491-.974.867-1.244.232-.17.447-.436.667-.607.236-.185.326-.335.635-.466.24-.102.466-.157.775-.247.178-.166.578-.204.796-.234 1.065.335.459.818.459.847-.024.149-.263.103-.303.154m-4.35 3.027c.007.012.018.039.03.057a.1954.1954 0 00-.03-.057m.126-.206a.0385.0385 0 00-.008.024.215.215 0 01.017.082l.021-.067.027-.062c-.024.008-.044.01-.057.023m.6-.882l.087-.021c.019-.039-.008-.068-.023-.1-.055.04-.104.083-.145.134-.004.004-.008.008-.012.013a.5858.5858 0 00-.097.178c.009-.046-.019-.055-.067-.015l.006.083c.057-.034.032-.257.079-.298.013-.012.024-.024.036-.037.027-.033.124.115.136.063m.061-.128l.004.009a.6594.6594 0 00.07-.047v-.004c-.025.014-.05.029-.074.042m-.757.7c.02-.003.035.01.045.024.008.014.017.028.028.04-.007-.008-.016-.025-.028-.04-.007-.016-.012-.032-.01-.047a.2356.2356 0 00-.035.023m.335-.446c.016.041.034.079.041.108.005.009.005.014.002.017.003-.003.003-.008-.002-.017-.007-.028-.026-.067-.041-.108m-.024.163c.002.001.002.005.003.006-.001-.002-.001-.005-.003-.006m.03-.038h0m-.031.034c0 .003 0 .003.001.004-.001-.001-.001-.001-.001-.004M3.489 17.101c.006-.005.022-.003.041 0h.001-.001c-.019-.002-.035-.004-.041 0m.008.034H3.5h-.003m-.25.242c.005-.003.009-.005.012-.011.012-.015.015-.034-.007-.064l-.054.115c.01-.008.014-.017.024-.021.001-.003.003-.003.003-.003v.006c.008-.007.016-.012.022-.022m.279-.401a.0382.0382 0 00.027-.019c.019-.022.022-.061.011-.11-.023 0-.034.004-.045.014-.018.025-.008.07.007.115M-.78 28.884c-.037-.002-.075.005-.119.019-.049 0-.057-.041-.075-.087.064.026.129.048.194.068M-.54 28.976a.5426.5426 0 00-.057-.035l.033.011zM-.276 29.104c-.064-.013-.118-.039-.168-.07.051.008.106.027.168.07"/>
        <path d="M-.444 29.034c-.04-.003-.08 0-.116.011.011-.007.02-.014.027-.021.011-.014.011-.029-.003-.047l-.004-.001c.032.019.063.039.096.058M-.56 29.045c-.027.014-.065.022-.082.028a.4936.4936 0 01.082-.028m-.082.028l-.002.003.002-.003M.489 30.168c-.009.01-.036.01-.083-.011-.367-.146-.603-.252-.922-.407-.244-.166-.476-.324-.723-.493-.069-.039-.146-.059-.222-.076.103.014.208.03.322.051.155.018.245.271.452.391.009.01.019.001.032-.015a.175.175 0 00.016-.019c.006-.006.01-.013.016-.021.022-.024.047-.041.073-.015.145.103.256.229.412.272.059.06.23-.079.289-.021.118.078.374.319.338.364M-1.867 28.576c-.034.014-.069.027-.103.041-.05-.029-.066-.059-.05-.074.005-.011.021-.015.042-.017-.208 0-.375-.067-.533-.161h.002a.0719.0719 0 01.018-.021.0951.0951 0 01.015-.02c.018-.022.042-.04.079-.039.022.032.071.096.071.096.198-.035.326.079.459.195M-2.511 28.365l-.01.011c-.031-.022-.061-.047-.091-.068l.006-.001c.03.019.064.039.095.058M17.535 30.037c-.305.344-.714.267-1.413.647a.4824.4824 0 00.074-.06c.172-.195-.772-.124-1.264.307-.41.376-.96.484-1.545.517-.582.038-1.197.004-1.757.124-.281.055-.581.05-.922.075-.875.15-1.729.143-2.589.093-.861-.048-1.729-.153-2.657-.221-.492-.046-.9-.26-1.296-.394-.292-.071-.624-.046-.865-.086-.38-.069-.695-.195-.989-.325.341.097.585.193.97.289.047.01.071.009.082-.001.039-.046-.252-.252-.381-.318-.067-.05-.218.106-.282.056-.159-.035-.291-.129-.448-.216-.022-.019-.04-.01-.057.009-.009.009-.018.023-.027.035-.006.014-.015.025-.021.034-.006.009-.012.011-.02.005-.224-.09-.347-.336-.504-.327-.119-.003-.222-.005-.327-.007-.064-.007-.129-.017-.189-.042l-.114-.074c-.272-.168-.585-.362-.875-.529l.009-.013c-.033-.017-.069-.031-.104-.047.104-.055.376-.079.376-.079.115.038.227.073.338.109.113.03.225.06.335.092.223.055.438.114.656.156.024.039.041.081.089.073.04-.021.079-.031.117-.034.064.013.126.025.19.036.021.008.04.02.062.027l.001.002c.021.02.021.037.006.05-.002.007-.011.011-.019.018a.3778.3778 0 00-.082.043c.018-.011.055-.024.082-.043a.2917.2917 0 01.113-.021c-.036-.017-.069-.032-.102-.048l-.026-.021c.143.024.286.054.433.072.032.011.063.021.088.031.1.044.199.086.28.019.026.003.053.007.079.011l-.016.01.03-.009c.11.015.22.029.331.043.217.022.438.043.66.064 1.439.118 2.765.23 4.262.186.81-.038 1.589-.115 2.343-.251.753-.131 1.473-.175 2.193-.269.719-.093 1.438-.232 2.159-.553.556-.229 1.627-.34 2.168-.448.39.056.524.271.569.482.051.21-.013.418-.027.442-.056.116-.115.207-.177.279m-13.755.229c.098.044.239.039.361-.025-.122-.089-.248-.041-.361.025m-.19.11c.059-.026.123-.07.189-.109-.066.039-.13.082-.189.109M3.342 30.32c0 .001-.002.004-.003.004.001 0 .003-.004.003-.004m0 0zm-.77-.302c-.125-.016-.247-.039-.368-.06.032.012.063.021.085.033l.01.005h-.013c.025.011.052.021.077.027.073.032.145.045.209-.005m-1.553.114zm.07-.114c-.02.04-.041.079-.07.112.029-.032.05-.072.07-.112m-.098.139l.002-.002s0 .001-.002.002m.101-.145v0m-.214-.011c.061.009.156-.004.217.004-.061-.008-.156.005-.217-.004m-.238-.283c-.016.021.002.049.061.072l.097-.059c-.151-.09-.297-.19-.488-.126 0 0-.057-.057-.084-.086a.091.091 0 00-.057.031c-.018.018-.028.044-.043.064.172.071.348.112.556.083-.022.007-.033.015-.042.021m15.481.966c-.024.013-.051.029-.083.045.027-.015.055-.032.083-.045M.707 29.696c-.01.001-.019.001-.026.002a.1836.1836 0 01.026-.002"/>
        <path d="M2.462 30.044a.3778.3778 0 01-.1-.02c-.021-.009-.044-.017-.064-.027a.364.364 0 01.164.047"/>
        <path d="M2.572 30.018c-.064.05-.136.036-.209.006a.37.37 0 00.1.02c-.061-.032-.113-.045-.164-.047l-.01-.005c-.022-.012-.053-.021-.085-.033.121.02.243.044.368.059M9.691 27.548a.2402.2402 0 00-.044.037c-.005.007-.011.016-.019.025-.026.021-.042-.017-.064-.047zM9.829 27.53l-.023.004.043.012zM10.03 27.566c-.04.013-.076.009-.112-.002.03-.014.066-.014.112.002M9.918 27.564a.183.183 0 00-.056.042c-.003.003-.004.007-.007.009.015-.025.019-.052-.005-.068v-.001c.021.008.044.013.068.018"/>
        <path d="M9.817 27.677v-.003.003m0-.003a.4971.4971 0 01.038-.059c-.011.022-.029.043-.038.059M10.723 28.298c-.006.006-.022.013-.042.013-.242-.008-.401-.039-.62-.062-.179-.058-.349-.128-.528-.18-.049-.007-.096.01-.144.021.061-.028.122-.056.193-.083.091-.052.205.154.353.186.001.004.005.004.006 0 .005-.005.008-.028.011-.052.005-.023.009-.049.019-.06.006-.007.012-.007.02 0 .108.042.203.111.301.107.015.01.03 0 .046-.019.011-.012.021-.028.033-.042.009-.016.021-.03.03-.044.016-.019.032-.026.047-.019.091.036.313.189.275.234M8.956 27.783c-.05-.008-.062-.04-.034-.071.001-.004.002-.006.006-.006-.117.087-.228.102-.34.086.009-.038.009-.084.033-.109.004-.004.006-.008.01-.01.021.019.063.055.063.055.001-.001.003-.001.003-.004.103-.114.202-.068.305-.021zM8.586 27.806a.484.484 0 00-.067-.023l.003-.004c.023.005.046.009.068.014zM20.939 26.444c-.164.187-.406.143-.754.437.002-.005.006-.01.012-.015.092-.104.004-.16-.143-.151-.146.012-.355.093-.506.263a.7002.7002 0 00-.074.1c-.035.06-.074.111-.113.156-.452.515-1.236.242-1.824.499-.162.068-.344.072-.547.119-1.011.391-2.023.287-3.126.486-.294.038-.57-.077-.827-.131-.185-.006-.369.097-.517.116-.229.028-.438-.012-.637-.062.218.005.379.037.619.032.023-.002.036-.007.042-.015.04-.044-.19-.187-.285-.217-.013-.009-.027-.002-.039.014a.2643.2643 0 00-.034.049c-.012.018-.022.034-.033.047-.015.017-.028.022-.044.017-.097.009-.194-.057-.302-.092-.01-.005-.017-.005-.021 0-.009.012-.013.038-.015.062-.002.023-.004.047-.01.052 0 .003-.002.004-.006.003-.147-.023-.274-.223-.361-.168-.067.034-.128.062-.188.094-.039.012-.075.021-.117.02-.026-.014-.053-.024-.081-.036-.196-.082-.42-.152-.625-.207l.003-.016c-.024 0-.047-.004-.071-.007.011-.023.03-.047.052-.071.059-.067.139-.135.139-.135.294-.017.574-.04.841-.084.023.03.042.065.068.044a.1737.1737 0 01.026-.037.2098.2098 0 01.032-.029l.119-.021.042.009-.022-.012.268-.053c.022.004.042.005.059.008.054.014.108.026.146-.016.006-.009.016-.021.022-.037l.046-.011-.006.016.015-.017.202-.045c.13-.029.263-.06.397-.092.87-.209 1.681-.313 2.58-.531.485-.127.946-.271 1.396-.449.886-.347 1.765-.288 2.617-.878.326-.212 1-.269 1.344-.321.508.171.42.911.404.955-.046.177-.097.283-.163.358m-8.31 1.02c.057.019.123-.008.176-.067.011-.011.02-.026.03-.038-.063-.04-.111-.019-.153.028a.519.519 0 00-.053.077m-.157.134c.022.025.046.047.062.028-.016.018-.04-.003-.062-.028m.07.017c-.002.003-.004.008-.005.01.001-.002.003-.007.005-.01m.087-.151c-.03.053-.059.112-.085.149l-.001.002.001-.002c.027-.037.055-.097.085-.149m-.085-.073c.013.02.025.034.04.046-.015-.011-.027-.026-.04-.046m-.14.185c-.007.008-.013.021-.017.043.004-.021.01-.035.017-.043m.003-.001zm-.651.015c.037.004.071.002.097-.026a.1058.1058 0 00.02-.037l-.224.045c.019.004.041.005.056.008.002.001.004.001.006.001-.004.002-.006.004-.01.005.02 0 .039.004.055.004m-.121-.022l.002.001c.022.016.021.041.008.067a.4749.4749 0 00-.037.063c.006-.015.025-.039.037-.063.004-.005.008-.011.012-.014.014-.018.03-.03.044-.038a.6289.6289 0 01-.066-.016m-.731.442c.036-.011.088-.054.124-.065-.036.011-.088.054-.124.065m-.187-.223c-.03.037-.018.072.036.076l.041-.085c-.102-.035-.202-.072-.289.027-.007.007-.013.016-.019.023 0 0-.046-.036-.07-.051-.003.001-.004.004-.006.005-.024.029-.021.076-.024.116.112.007.224-.015.333-.113.001.002-.001.002-.002.002m9.468-.906c-.016.013-.031.024-.049.04.018-.016.029-.028.049-.04m-9.453.893c-.003.004-.009.008-.012.012.003-.004.006-.008.012-.012M9.786 24.405a.2933.2933 0 00-.078.062c-.036.021-.055-.016-.08-.049zM9.988 24.401c-.018-.004-.037-.009-.053-.011l.029-.002zM10.212 24.419a.2765.2765 0 01-.14 0c.039-.013.084-.017.14 0M10.072 24.419c-.03.013-.058.03-.078.051.015-.023.022-.051-.006-.068.026.005.055.014.084.017"/>
        <path d="M9.942 24.532s0-.001.002-.001c-.002 0-.002.001-.002.001m.002-.001a.1914.1914 0 01.033-.041c.006-.009.01-.013.018-.021-.008.011-.017.022-.024.031-.004.001-.006.006-.006.008-.004.002-.006.004-.008.006a.0545.0545 0 00-.013.017M11.063 25.152c-.008.008-.024.014-.056.014-.302-.004-.499-.043-.771-.062-.223-.058-.432-.125-.658-.179-.062-.007-.12.006-.178.017.076-.025.154-.05.242-.077.112-.051.255.156.437.186.004.001.007.001.008-.002.008-.006.011-.029.016-.053.004-.021.01-.045.02-.055.008-.008.019-.011.03-.005.133.043.25.11.374.106.057.034.139-.152.195-.118.113.038.384.181.341.228M8.861 24.635c-.058-.009-.075-.039-.049-.065.005-.008.01-.011.016-.015-.147.088-.285.103-.425.086.007-.036.009-.079.033-.104.005-.007.011-.01.02-.016.026.02.083.058.083.058.125-.12.253-.075.383-.026zM8.399 24.655c-.031-.008-.059-.017-.085-.025l.003-.004c.027.004.055.012.086.015zM23.861 22.585c-.205.23-.51.203-.957.55.012-.008.02-.018.027-.025.098-.113-.025-.155-.219-.121-.191.036-.455.152-.637.356-.018.021-.037.043-.055.068-.027.041-.057.079-.088.115-.559.633-1.57.414-2.332.729-.203.084-.432.102-.681.167-1.271.473-2.541.431-3.923.689-.37.047-.714-.061-1.036-.101-.229.005-.462.112-.649.133-.291.029-.547 0-.793-.047.271 0 .469.024.772.016.031-.001.047-.008.055-.016.042-.047-.236-.185-.352-.211-.023-.013-.045.008-.069.036-.008.01-.017.019-.025.029a.2254.2254 0 00-.024.03c-.025.027-.05.047-.071.034-.122.014-.243-.048-.379-.079-.012-.005-.021-.004-.027.003-.01.013-.016.038-.018.061-.004.024-.006.045-.013.054-.002.001-.006.004-.009.001-.184-.019-.339-.221-.45-.165-.085.03-.162.062-.236.093-.048.012-.096.024-.147.021-.032-.01-.067-.021-.101-.033-.242-.079-.52-.139-.775-.203l.002-.016c-.028-.001-.057-.005-.087-.009.004-.008.01-.014.019-.021.071-.082.227-.178.227-.177.37-.018.719-.057 1.057-.1.029.031.052.065.083.045.004-.006.007-.011.01-.013a.259.259 0 01.064-.054l.149-.02.053.01-.024-.014.336-.061c.025.001.05.003.071.006.074.011.144.021.19-.029.006-.007.013-.019.019-.029l.06-.011-.01.017.02-.021c.084-.015.169-.032.253-.049.165-.033.333-.061.501-.1 1.091-.251 2.108-.38 3.233-.665.606-.15 1.181-.342 1.738-.549 1.111-.424 2.205-.444 3.256-1.128.406-.248 1.234-.381 1.656-.478.629.11.531.869.516.917-.051.171-.108.283-.18.365m-10.387 1.697c.08.021.175-.018.248-.101.002-.003.006-.008.009-.012-.091-.046-.162 0-.22.067-.014.017-.028.032-.037.046M13.369 24.426zm.029-.035c-.01.012-.02.025-.028.033.008-.008.018-.022.028-.033m-.036.044c0-.002.001-.004.001-.004s0 .002-.001.004m.068-.09a.515.515 0 00-.029.041c.009-.014.018-.028.029-.041m.042-.061c-.009.015-.022.029-.031.045.009-.016.022-.03.031-.045m-.286.117c.024-.029.056-.004.087.018-.031-.022-.063-.047-.087-.018m.183-.189c.009.014.019.023.032.035a.2072.2072 0 01-.032-.035m-.203.228c0 .003-.001.004-.001.006-.001-.002.001-.003.001-.006m.013-.03c-.004.008-.009.02-.013.029.004-.009.008-.021.013-.029m.005-.005c-.002.001-.002.002-.004.002.002 0 .002-.001.004-.002m0-.003zm-.809.03c.05.004.097 0 .129-.039a.0859.0859 0 00.021-.028l-.283.054c-.003 0-.01-.002-.016-.002h.002c.028.016.021.041.007.069-.001.001-.004.001-.007.005a.476.476 0 00-.039.057c.008-.015.031-.038.046-.062.021-.025.044-.045.075-.056-.022-.006-.045-.009-.066-.012.026 0 .048.001.07.005.003 0 .003.001.006.001-.003 0-.006.002-.01.006.023.002.043.002.065.002m-1.077.43c.047-.014.111-.055.157-.067-.046.012-.11.054-.157.067m-.236-.211c-.03.034-.012.065.05.067l.052-.085c-.133-.038-.265-.07-.383.051 0 0-.059-.034-.088-.05a.0374.0374 0 00-.015.013c-.024.027-.024.069-.029.105.144.012.28-.007.42-.11-.001.005-.007.007-.007.009m11.842-1.516c-.016.015-.035.029-.057.047.018-.017.039-.033.057-.047M11.09 24.629a.0718.0718 0 01-.02.014c.006-.004.012-.008.02-.014"/>
    </symbol>
    <symbol id="photovolt" viewBox="0 0 65 48">
        <g>
            <path d="M18.8542 39.2809l-3.4193 6.7914-15.0292-1.003 4.8404-6.5754zM22.184 32.8636l-2.834 5.6782-13.6287-.7907 3.9253-5.5151zM24.8072 27.4489l-2.494 4.7226-12.2713-.5878 3.2513-4.6064zM27.1682 22.8124l-1.9767 4.0523-11.5096-.4738 2.8985-3.9131zM34.0649 39.7148l-2.0032 6.9609-14.8194-.6086 3.4313-6.7792zM36.053 33.1391l-1.6537 5.8193-13.4093-.4341 2.7436-5.6779zM37.5504 27.595l-1.5047 4.8422-12.052-.2598 2.2677-4.7463zM38.9488 22.8435l-1.1346 4.148-11.2887-.1657 2.0563-4.0312zM49.3233 39.8667l-.2888 7.1779-14.4616-.1333 1.709-7.0432zM49.686 33.0816l-.2162 6.0006-13.0649-.0037 1.3055-5.8949zM49.8208 27.3651l-.3108 4.999-11.704.1276 1.064-4.923zM50.0466 22.4619l-.117 4.2807-10.9483.2009 1.0364-4.1907zM62.784 39.589l2.0253 7.0862-14.092.259.309-7.1663zM61.8295 32.7188l.9441 6.0712-11.782.1787.1347-5.9987zM60.856 26.9359l.6675 5.0597-10.44.2733.089-5.0086zM60.134 21.972l.713 4.3297-9.6876.3247.1988-4.2663zM44.8242 6.0903l-2.447-5.864-4.3058 4.6733L33.571.413l-2.1815 5.9678-5.8767-2.4162.2625 6.349-6.3549.0077 2.676 5.7632-5.864 2.4469 3.1805 2.9298 3.2783-.0373c.0394-.5688.103-1.1425.2045-1.7186C24.3982 11.1848 32.2784 5.452 40.4957 6.901c6.9537 1.226 11.902 7.2032 12.3575 14.1732l4.1914-.05 3.4515-3.4612-5.97-2.1808 2.4181-5.8764-6.35.2623-.0084-6.356-5.7616 2.6782z"/>
            <path fill="#fff" d="M24.8422 20.6507C26.167 13.1376 33.2534 8.1057 40.67 9.4134c5.9729 1.0532 10.3331 5.902 11.1128 11.673l1.0713-.011c-.4556-6.97-5.404-12.9472-12.3576-14.1733-8.2173-1.4489-16.0975 4.2838-17.5999 12.8044-.1016.576-.165 1.1488-.2045 1.7186l2.0563-.0233c.0301-.2516.0496-.5.0938-.7511z"/>
            <path d="M40.67 9.4134c-7.4166-1.3077-14.503 3.7242-15.8278 11.2373-.0442.251-.0637.4995-.0936.75l27.034-.3132c-.7793-5.773-5.1397-10.621-11.1126-11.674z"/>
        </g>
    </symbol>
    <symbol id="prod" viewBox="-22.802 -28.931 37.75 58.75">
        <path d="M1.948-12.681l13-.25-14.25 19.5h11.25l-30 23.25 9.532-15.577-9.532-.173 9.754-16.885h-14.504l15-26.115h19.5z"/>
    </symbol>
    <symbol id="capital" viewBox="-22.802 -28.931 70.2584 66.29">
        <path d="M44.2524-5.372l3.204-.645-6.702-1.106 1.369 1.475-4.293.503 1.616 1.676-.917.193c-8.237-15.438-27.996-13.637-32.863-12.49-8.477 1.997-14.875 5.125-14.875 5.125-5.125-2.875-6.875-1.5-6.875-1.5-1.125 4 1.25 8.375 1.25 8.375-4.375 4.75-3.75 11.292-3.75 11.292-2.375.417-5 3.708-4 8.833s7.625 5.125 7.625 5.125c2.125 4.25 4.875 6 4.875 6l.375 7 3.875.25.125-4.375 1.125.5.5 6.5h5.5l-.5-4.249s-13.625-.126 12.625-.001c1.127.005 2.21-.026 3.25-.09.505-.031 1-.07 1.486-.116.298-.028.579-.07.869-.104l.457 1.654h4.375l-.329-2.446c1.228-.3 2.382-.649 3.453-1.048l.563 4.963s4.5.125 4.5.078c0-.028-.347-5.796-.618-7.178 9.466-5.706 10.618-15.088 10.618-15.088.021-5.756-.874-10.426-2.378-14.242l3.964-.913-1.765-1.904 3.401-.774zm-57.274 5.231c.587 0 1.062.868 1.062 1.938 0 1.07-.476 1.938-1.062 1.938-.586 0-1.062-.868-1.062-1.938 0-1.07.475-1.938 1.062-1.938zm-5.437 14.75c-.587 0-1.062-.434-1.062-.969 0-.535.476-.969 1.062-.969.586 0 1.062.434 1.062.969 0 .535-.475.969-1.062.969zm4.375.968c-.587 0-1.062-.434-1.062-.969 0-.535.476-.969 1.062-.969.586 0 1.062.434 1.062.969 0 .535-.475.969-1.062.969zm1.062 4.782c9.438-8.625-1.062-13.625-1.062-13.625s6.625-2.5 8.375 4.125-7.313 9.5-7.313 9.5zm7.313-14.135c-.587 0-1.062-.868-1.062-1.938 0-1.07.476-1.938 1.062-1.938.586 0 1.062.868 1.062 1.938 0 1.07-.475 1.938-1.062 1.938zm10.75-19.74c10.991-3.274 16.5 0 16.5 0v2.125c-7.625-3-16.5 0-16.5 0zm-6.125 11.5s-3-5.125-1.875-7.375 7.75 2.125 8.5 2.5-4-.75-6.625 4.875zm26.226 16.107L7.2154 27.987l5.696-9.31-5.696-.104 5.83-10.09h-8.668l8.963-15.606h11.654l-5.827 9.711 7.769-.149-8.516 11.652z"/>
        <circle cx="13.3084" cy="-21.061" r="7.37" stroke="#fff" stroke-miterlimit="10"/>
        <path fill="#fff" d="M15.6564-17.488c-.408.229-1.104.456-1.871.456-1.188 0-2.255-.479-2.926-1.367-.324-.408-.564-.924-.672-1.56h-.779v-.852h.66v-.203c0-.12.012-.24.012-.36h-.671v-.852h.803c.144-.647.444-1.199.828-1.631.672-.779 1.631-1.235 2.771-1.235.72 0 1.367.168 1.799.36l-.336 1.367c-.312-.132-.815-.288-1.343-.288-.564 0-1.091.204-1.463.647-.18.192-.3.468-.384.779h2.986v.852h-3.166c-.012.12-.012.24-.012.372v.191h3.178v.852h-3.01c.084.36.216.636.396.84.384.432.947.611 1.547.611.552 0 1.116-.18 1.367-.312z"/>
    </symbol>
</svg>