<svg xmlns="http://www.w3.org/2000/svg">
    <symbol id="plus" viewBox="0 0 512 512">
        <g>
            <path d="M256 512C114.836 512 0 397.164 0 256S114.836 0 256 0s256 114.836 256 256-114.836 256-256 256zm0-480C132.4805 32 32 132.4805 32 256s100.4805 224 224 224 224-100.4805 224-224S379.5195 32 256 32z"/>
            <path d="M368 272H144c-8.832 0-16-7.168-16-16s7.168-16 16-16h224c8.832 0 16 7.168 16 16s-7.168 16-16 16z"/>
            <path d="M256 384c-8.832 0-16-7.168-16-16V144c0-8.832 7.168-16 16-16s16 7.168 16 16v224c0 8.832-7.168 16-16 16z"/>
        </g>
    </symbol>
    <symbol id="fleche_gauche" viewBox="-31.005 -43.053 23.0953 28.8694">
        <path d="M1.682 16.831s-3.783-2.428 0-4.855L19.313.654s3.783-2.428 3.783 2.067v23.361s0 4.496-3.783 2.068z" clip-path="url(#SVGID_2_)" transform="translate(-31.0057 -43.053)"/>
    </symbol>
    <symbol id="fleche_droite" viewBox="-31.005 -43.053 23.0953 28.8694">
        <path d="M-9.591-26.222s3.783-2.428 0-4.855l-17.631-11.322s-3.783-2.428-3.783 2.067v23.361s0 4.496 3.783 2.068z" clip-path="url(#SVGID_2_)"/>
    </symbol>
    <symbol id="souscrire" viewBox="-0.574 -0.978 31 34">
        <ellipse cx="14.948" cy="17.852" fill="#FFF" rx="14.948" ry="15.067"/>
        <path fill="none" stroke="#6E7072" stroke-linejoin="round" stroke-miterlimit="10" stroke-width="5" d="M6.427 13.112l7.472 13.603s6.022-21.669 11.47-24.496"/>
    </symbol>
</svg>