<?xml version="1.0" encoding="UTF-8" standalone="no"?>
<!-- Generator: Adobe Illustrator 16.0.0, SVG Export Plug-In . SVG Version: 6.00 Build 0)  -->

<svg
   xmlns:dc="http://purl.org/dc/elements/1.1/"
   xmlns:cc="http://creativecommons.org/ns#"
   xmlns:rdf="http://www.w3.org/1999/02/22-rdf-syntax-ns#"
   xmlns:svg="http://www.w3.org/2000/svg"
   xmlns="http://www.w3.org/2000/svg"
   xmlns:sodipodi="http://sodipodi.sourceforge.net/DTD/sodipodi-0.dtd"
   xmlns:inkscape="http://www.inkscape.org/namespaces/inkscape"
   version="1.1"
   id="Calque_1"
   x="0px"
   y="0px"
   width="171.97031"
   height="129.46422"
   viewBox="0 0 171.97031 129.46422"
   enable-background="new 0 0 566.93 566.93"
   xml:space="preserve"
   sodipodi:docname="EnergiesCollectivesLogo_ss_texte.svg"
   inkscape:version="0.92.2 2405546, 2018-03-11"><metadata
     id="metadata83"><rdf:RDF><cc:Work
         rdf:about=""><dc:format>image/svg+xml</dc:format><dc:type
           rdf:resource="http://purl.org/dc/dcmitype/StillImage" /><dc:title></dc:title></cc:Work></rdf:RDF></metadata><defs
     id="defs81" /><sodipodi:namedview
     pagecolor="#ffffff"
     bordercolor="#666666"
     borderopacity="1"
     objecttolerance="10"
     gridtolerance="10"
     guidetolerance="10"
     inkscape:pageopacity="0"
     inkscape:pageshadow="2"
     inkscape:window-width="1276"
     inkscape:window-height="1415"
     id="namedview79"
     showgrid="false"
     inkscape:pagecheckerboard="true"
     inkscape:showpageshadow="false"
     fit-margin-top="0"
     fit-margin-left="0"
     fit-margin-right="0"
     fit-margin-bottom="0"
     inkscape:zoom="0.41627715"
     inkscape:cx="-63.922109"
     inkscape:cy="-44.867463"
     inkscape:window-x="1280"
     inkscape:window-y="21"
     inkscape:window-maximized="0"
     inkscape:current-layer="Calque_1" /><path
     style="fill:#caac6f"
     inkscape:connector-curvature="0"
     id="path2"
     d="m 156.127,50.444 c -2.041,2.313 -4.992,2.101 -9.688,5.089 0.204,-0.146 0.354,-0.28 0.457,-0.398 1.414,-1.605 -5.56,-0.612 -8.955,2.812 -2.774,2.93 -6.739,4.002 -10.979,4.549 -4.243,0.571 -8.739,0.64 -12.793,1.739 -2.031,0.56 -4.254,0.613 -6.734,0.937 -6.385,1.392 -12.743,1.622 -19.203,1.26 -6.471,-0.384 -13.026,-1.303 -20.122,-2.72 -3.761,-0.835 -6.703,-3.009 -9.444,-4.783 -1.065,-0.494 -2.193,-1.045 -3.325,-1.442 -0.56,-0.214 -1.117,-0.406 -1.634,-0.626 -0.507,-0.255 -0.982,-0.511 -1.406,-0.78 -1.333,-0.843 -2.519,-1.699 -3.476,-2.774 -0.971,-1.039 -1.894,-1.986 -2.559,-3.163 0.882,1.178 1.833,1.973 2.734,2.92 0.471,0.446 0.921,0.957 1.468,1.378 0.549,0.423 1.135,0.863 1.79,1.333 0.371,0.249 0.566,0.302 0.636,0.222 0.266,-0.3 -1.259,-2.509 -1.935,-3.331 -0.281,-0.575 -1.844,-0.113 -2.144,-0.71 -0.503,-0.413 -0.9,-0.905 -1.255,-1.445 -0.319,-0.588 -0.604,-1.208 -0.952,-1.823 -0.203,-0.606 -1.056,0.253 -1.163,-0.056 -0.279,-0.395 -0.471,-0.821 -0.621,-1.242 -0.128,-0.442 -0.181,-0.901 -0.25,-1.315 -0.131,-0.832 -0.247,-1.522 -0.725,-1.909 -0.328,-0.315 -0.668,-0.607 -0.961,-0.904 -0.281,-0.304 -0.553,-0.598 -0.823,-0.889 -0.297,-0.395 -0.586,-0.795 -0.796,-1.27 -0.078,-0.319 -0.112,-0.688 -0.165,-1.034 -0.195,-1.082 -0.357,-2.244 -0.464,-3.425 0.124,-0.012 0.253,-0.033 0.376,-0.044 0.01,-0.461 -0.095,-0.881 -0.47,-1.286 -0.007,-0.13 -0.012,-0.26 -0.017,-0.391 0.01,-0.008 0.017,-0.017 0.027,-0.028 0.045,-0.05 0.073,-0.121 0.078,-0.21 l -0.115,-0.029 c -0.026,-0.837 -0.016,-1.666 0.035,-2.463 l 0.11,0.018 c 0.081,1.39 0.501,2.738 1.584,3.821 -0.179,-0.145 -0.319,-0.167 -0.397,-0.079 -0.082,0.094 -0.098,0.303 -0.021,0.624 l 0.751,0.313 c -0.047,-0.653 -0.086,-1.289 -0.267,-1.866 -0.171,-0.584 -0.395,-1.132 -0.968,-1.622 0,0 0.128,-0.578 0.234,-0.861 -0.21,-0.363 -0.586,-0.293 -0.917,-0.332 -0.01,-0.287 -0.009,-0.576 0,-0.867 0.334,0.274 0.744,0.843 1.071,1.315 0.368,0.463 0.674,0.851 0.674,0.851 0.732,3.334 2.291,6.271 4.132,8.811 -0.058,0.326 -0.184,0.621 0.125,0.809 0.317,0.081 0.57,0.206 0.783,0.352 0.283,0.358 0.556,0.725 0.852,1.068 0.084,0.134 0.171,0.271 0.26,0.41 l -0.07,-0.232 c 0.758,0.718 1.512,1.429 2.268,2.143 0.131,0.204 0.302,0.357 0.418,0.507 0.473,0.592 0.965,1.201 1.693,1.039 0.148,0.104 0.3,0.212 0.451,0.32 l -0.148,0.017 0.229,0.042 c 0.604,0.487 1.347,0.798 2.023,1.192 0.302,0.46 0.595,0.985 0.957,1.419 -0.362,-0.434 -0.655,-0.959 -0.957,-1.419 0.683,0.355 1.336,0.756 2.042,1.081 0.717,0.298 1.442,0.601 2.176,0.905 4.759,1.824 9.565,2.927 14.501,3.651 4.938,0.714 10.027,0.998 15.421,0.755 5.841,-0.291 11.441,-1.127 16.851,-2.346 5.387,-1.214 10.579,-1.88 15.758,-2.913 5.167,-1.029 10.316,-2.412 15.388,-5.108 3.91,-1.943 11.666,-3.336 15.592,-4.37 5.709,0.374 4.574,6.043 4.381,6.418 -0.419,1.028 -0.883,1.79 -1.407,2.385 M 55.744,52.338 c 0.081,0.069 0.184,0.098 0.323,0.06 0.437,0.007 1.014,-0.198 1.568,-0.309 0.573,0.524 1.567,0.777 2.512,0.593 -0.642,-0.89 -1.569,-0.799 -2.512,-0.593 -0.279,-0.251 -0.458,-0.562 -0.5,-0.917 0.042,0.355 0.221,0.666 0.5,0.917 -0.554,0.111 -1.132,0.316 -1.568,0.309 -0.139,0.038 -0.242,0.009 -0.323,-0.06 m -1.225,-1.009 c 0.325,-0.17 0.526,-0.146 0.667,-0.027 -0.141,-0.119 -0.342,-0.143 -0.667,0.027 m -5.19,-5.204 c 0.32,0.462 0.69,0.824 1.235,0.763 -0.642,-0.598 -1.282,-1.195 -1.923,-1.791 -0.026,-0.044 -0.055,-0.091 -0.082,-0.136 l 0.003,0.014 c 0.032,0.115 0.014,0.194 -0.032,0.246 -0.064,0.074 -0.191,0.096 -0.336,0.094 -0.223,-0.049 -0.454,-0.074 -0.675,-0.078 0.139,0.003 0.432,0.076 0.675,0.078 0.267,0.061 0.527,0.158 0.774,0.319 0.111,0.166 0.229,0.333 0.361,0.491 m -8.314,-9.524 -0.038,0.384 0.032,0.005 c 0.034,-0.13 0.072,-0.265 0.109,-0.399 z m 105.423,18.932 c -0.158,0.115 -0.345,0.24 -0.565,0.372 0.189,-0.129 0.379,-0.254 0.565,-0.372 M 49.049,45.689 c -0.026,-0.02 -0.052,-0.038 -0.081,-0.055 -0.11,-0.18 -0.217,-0.354 -0.321,-0.529 0.139,0.191 0.272,0.37 0.369,0.528 0.011,0.019 0.023,0.037 0.033,0.056 M 42.411,36.191 C 42.355,36.14 42.3,36.087 42.247,36.033 c 0.052,0.042 0.108,0.096 0.164,0.158" /><path
     style="fill:#caac6f"
     inkscape:connector-curvature="0"
     id="path4"
     d="M 73.353,7.251 C 73.189,7.451 73.004,7.582 72.794,7.699 72.272,7.992 72.275,7.323 71.516,8.247 71.492,8.277 70.503,7.671 70.477,7.701 70.77,7.228 71.011,7.807 70.427,8.352 69.965,8.278 69.246,8.513 68.701,9.176 68.472,9.455 67.716,8.427 67.579,8.867 67.392,9.541 66.577,8.659 66.265,9.038 c -0.576,0.704 -1.338,0.988 -2.17,1.178 -1.275,0.277 -2.717,0.337 -3.73,1.203 -0.492,0.445 -1.173,0.547 -1.822,0.915 -1.531,1.296 -3.638,2.551 -5.299,3.297 -1.652,0.741 -2.604,2.275 -3.968,3.532 -0.366,0.311 -1.08,0.631 -1.08,0.631 -0.494,0.1 0.106,2.933 -0.359,3.063 -0.112,0.066 -0.763,-1.232 -0.842,-1.137 -0.146,0.178 -1.65,0.962 -1.741,1.171 -0.092,0.207 0.384,1.789 0.267,1.929 -0.013,0.016 -0.026,0.031 -0.04,0.045 -0.019,0.025 -0.037,0.048 -0.058,0.072 -0.434,0.529 0.891,1.622 0.288,1.926 0.477,-0.497 -0.941,-1.551 -0.394,-2.071 0.008,-0.008 0.017,-0.018 0.024,-0.024 0.281,-0.344 -1.144,-0.416 -1.556,-0.26 -0.023,0.001 -0.039,0.007 -0.047,0.019 -0.044,0.053 0.038,0.212 0.119,0.369 0.082,0.157 0.164,0.313 0.124,0.365 -0.01,0.012 -0.026,0.018 -0.05,0.018 -0.003,0.005 -0.005,0.009 -0.01,0.012 -0.201,0.245 1.304,1.097 0.896,1.262 -0.023,0.003 -0.039,0.008 -0.046,0.018 -0.035,0.042 0.089,0.146 0.215,0.243 0.128,0.099 0.257,0.191 0.241,0.212 -0.003,0.003 -0.005,0.004 -0.013,0.005 -0.385,0.236 -1.303,0.133 -1.492,0.365 -0.029,0.033 -0.04,0.074 -0.033,0.125 0.012,0.271 0.035,0.516 0.072,0.753 0,0.138 -0.007,0.27 -0.087,0.382 -0.099,0.052 -0.201,0.106 -0.302,0.161 -0.231,-0.159 -0.534,-0.302 -0.84,-0.445 -0.003,0.145 0.115,0.388 0.112,0.526 0.003,-0.138 -0.115,-0.382 -0.112,-0.526 0.306,0.143 0.609,0.286 0.84,0.445 -0.444,0.231 -0.841,0.539 -1.209,0.883 -0.035,-0.025 -0.068,-0.059 -0.098,-0.099 0.021,0.044 0.04,0.091 0.056,0.139 -0.246,0.232 -0.478,0.482 -0.702,0.734 L 41.344,30.45 c 0.194,-0.391 0.223,-0.785 -0.131,-1.355 0.126,0.169 0.309,0.197 0.414,0.068 0.011,-0.014 0.021,-0.029 0.031,-0.047 l -0.371,-0.297 c -0.103,0.085 -0.205,0.177 -0.286,0.275 -0.203,0.246 -0.269,0.536 0.109,0.9 0,0 -0.242,0.125 -0.361,0.186 0.086,0.15 0.363,0.199 0.593,0.271 -0.042,0.08 -0.084,0.158 -0.124,0.239 -0.421,-0.252 -0.809,-0.971 -0.809,-0.971 0.16,-0.575 0.309,-1.13 0.52,-1.657 0.18,-0.538 0.356,-1.065 0.587,-1.566 0.149,-10e-4 0.306,0.021 0.352,-0.034 0.014,-0.017 0.017,-0.041 0.008,-0.074 -0.101,-0.146 -0.148,-0.267 -0.167,-0.375 l 0.183,-0.45 0.153,-0.109 -0.113,0.026 0.488,-1 c 0.064,-0.058 0.126,-0.116 0.187,-0.154 0.104,-0.073 0.214,-0.14 0.283,-0.224 0.086,-0.105 0.107,-0.241 -0.033,-0.455 l 0.099,-0.174 0.04,0.078 -0.021,-0.109 0.427,-0.74 c 0.283,-0.482 0.618,-0.934 0.943,-1.416 0.249,-0.352 0.507,-0.688 0.771,-1.012 2.068,-2.516 3.543,-7.038 6.289,-9.015 1.682,-1.236 3.235,-3.138 4.831,-4.396 1.695,-1.339 2.36,-2.426 4.602,-3.372 C 62.577,2.757 64.223,2.349 66.459,1.692 67.74,0.501 70.646,0.205 72.224,0 c 7.727,2.427 3.332,5.921 3.338,6.131 -0.185,1.085 -1.915,0.762 -2.209,1.12 M 41.835,29.208 c 0.058,0.081 0.134,0.267 0.231,0.391 -0.063,-0.138 -0.141,-0.269 -0.231,-0.391 -0.003,-0.004 -0.004,-0.008 -0.007,-0.011 0.002,0.003 0.004,0.006 0.007,0.011 m 0.91,-1.498 c -0.033,0.042 -0.055,0.094 -0.055,0.164 0.087,0.223 0.124,0.414 0.128,0.593 l 0.145,-0.48 0.203,-0.462 c -0.167,0.053 -0.336,0.084 -0.421,0.185 m 4.343,-6.396 c 0,0 0.425,-0.106 0.638,-0.16 0.137,-0.28 -0.057,-0.48 -0.167,-0.702 -0.391,0.275 -0.75,0.583 -1.053,0.951 -0.026,0.033 -0.053,0.066 -0.079,0.1 -0.299,0.362 -0.54,0.786 -0.702,1.281 0.069,-0.326 -0.139,-0.388 -0.491,-0.089 l 0.047,0.588 c 0.407,-0.24 0.244,-1.858 0.564,-2.162 0.095,-0.083 0.183,-0.173 0.261,-0.27 0.204,-0.244 0.91,0.843 0.982,0.463 m 0.437,-0.934 0.035,0.073 c 0.168,-0.113 0.337,-0.228 0.507,-0.342 l 0.003,-0.03 c -0.179,0.098 -0.361,0.197 -0.545,0.299 m -5.475,5.071 0.006,-0.001 c 0.136,-0.025 0.24,0.065 0.325,0.177 0.05,0.098 0.116,0.2 0.192,0.296 -0.049,-0.062 -0.109,-0.188 -0.192,-0.296 -0.058,-0.119 -0.089,-0.233 -0.081,-0.341 -0.08,0.058 -0.166,0.11 -0.25,0.165 m 2.74,-2.318 c 0,-10e-4 10e-4,-0.002 0.003,-0.004 -10e-4,10e-4 -0.003,0.003 -0.003,0.004 m -0.304,-0.908 c 0.099,0.286 0.232,0.575 0.29,0.784 0.031,0.059 0.036,0.095 0.019,0.117 0.017,-0.021 0.013,-0.058 -0.019,-0.117 -0.057,-0.208 -0.191,-0.497 -0.29,-0.784 m -0.177,1.182 c 0.009,0.012 0.017,0.023 0.027,0.035 -0.01,-0.012 -0.018,-0.023 -0.027,-0.035 m 0.219,-0.274 c 0.009,0.001 0.017,0.002 0.027,0.004 -0.01,-0.002 -0.019,-0.003 -0.027,-0.004 m -0.234,0.249 c 0.005,0.008 0.01,0.016 0.016,0.023 -0.006,-0.007 -0.011,-0.015 -0.016,-0.023 m 0.226,-0.25 c 0,0 10e-4,0 0.003,0 -0.001,0 -0.003,0 -0.003,0 m -0.307,0.005 c 0.042,-0.05 0.168,-0.029 0.294,-0.008 0.001,0 0.004,10e-4 0.007,0.002 -0.002,0 -0.005,-0.002 -0.007,-0.002 -0.126,-0.021 -0.252,-0.042 -0.294,0.008 m 0.071,0.231 c 10e-4,0.004 0.003,0.005 0.006,0.008 -0.004,-0.003 -0.005,-0.004 -0.006,-0.008 m -1.822,1.769 c 0.03,-0.026 0.061,-0.053 0.083,-0.081 0.095,-0.115 0.112,-0.259 -0.052,-0.48 l -0.394,0.843 c 0.063,-0.061 0.124,-0.117 0.184,-0.157 0.007,-0.004 0.013,-0.009 0.021,-0.014 -0.003,0.012 -0.004,0.024 -0.006,0.037 0.063,-0.046 0.117,-0.093 0.164,-0.148 m 2.024,-2.912 c 0.08,-0.024 0.148,-0.07 0.199,-0.132 0.134,-0.164 0.163,-0.449 0.069,-0.812 -0.155,0 -0.256,0.044 -0.317,0.118 -0.138,0.169 -0.07,0.496 0.049,0.826" /><path
     style="fill:#fabb00"
     inkscape:connector-curvature="0"
     id="path6"
     d="m 13.275,108.523 c -0.266,-0.006 -0.547,0.031 -0.868,0.139 -0.354,10e-4 -0.409,-0.313 -0.54,-0.627 0.459,0.183 0.931,0.344 1.408,0.488" /><path
     style="fill:#fabb00"
     inkscape:connector-curvature="0"
     id="path8"
     d="m 15.019,109.198 c -0.137,-0.09 -0.282,-0.177 -0.424,-0.257 l 0.251,0.077 z" /><path
     style="fill:#fabb00"
     inkscape:connector-curvature="0"
     id="path10"
     d="m 16.92,110.121 c -0.456,-0.093 -0.853,-0.286 -1.224,-0.502 0.384,0.045 0.793,0.192 1.224,0.502" /><path
     style="fill:#fabb00"
     inkscape:connector-curvature="0"
     id="path12"
     d="m 15.697,109.618 c -0.289,-0.032 -0.569,-0.006 -0.827,0.062 0.079,-0.04 0.148,-0.087 0.194,-0.139 0.079,-0.09 0.092,-0.198 -0.035,-0.336 l -0.01,-0.007 c 0.225,0.137 0.446,0.278 0.678,0.42" /><path
     style="fill:#fabb00"
     inkscape:connector-curvature="0"
     id="path14"
     d="m 14.869,109.68 c -0.197,0.102 -0.473,0.168 -0.599,0.229 0.188,-0.095 0.389,-0.174 0.599,-0.229 m -0.599,0.228 c -0.003,0.003 -0.01,0.006 -0.014,0.007 0.005,-0.001 0.01,-0.005 0.014,-0.007" /><path
     style="fill:#fabb00"
     inkscape:connector-curvature="0"
     id="path16"
     d="m 22.462,117.823 c -0.063,0.073 -0.247,0.065 -0.587,-0.059 -2.667,-1.071 -4.37,-1.843 -6.684,-2.972 -1.775,-1.193 -3.461,-2.336 -5.228,-3.573 -0.522,-0.283 -1.068,-0.411 -1.614,-0.551 0.746,0.11 1.502,0.227 2.328,0.38 1.115,0.125 1.775,1.962 3.28,2.822 0.062,0.064 0.136,0.01 0.224,-0.089 0.036,-0.042 0.075,-0.092 0.115,-0.141 0.04,-0.051 0.082,-0.104 0.125,-0.153 0.157,-0.178 0.333,-0.306 0.517,-0.109 1.054,0.735 1.866,1.652 2.991,1.989 0.421,0.419 1.661,-0.586 2.077,-0.171 0.869,0.565 2.726,2.321 2.456,2.627" /><path
     style="fill:#fabb00"
     inkscape:connector-curvature="0"
     id="path18"
     d="m 5.392,106.285 c -0.249,0.102 -0.498,0.204 -0.75,0.306 -0.362,-0.218 -0.48,-0.428 -0.369,-0.553 0.055,-0.06 0.158,-0.101 0.313,-0.115 -1.506,0 -2.724,-0.477 -3.862,-1.153 0.004,-0.006 0.01,-0.013 0.016,-0.017 0.039,-0.046 0.078,-0.093 0.117,-0.142 0.037,-0.047 0.075,-0.096 0.116,-0.141 0.139,-0.158 0.301,-0.286 0.566,-0.274 0.172,0.232 0.519,0.699 0.519,0.699 1.441,-0.269 2.376,0.555 3.334,1.39" /><path
     style="fill:#fabb00"
     inkscape:connector-curvature="0"
     id="path20"
     d="m 0.724,104.77 -0.075,0.081 C 0.429,104.68 0.211,104.509 0,104.345 l 0.039,-0.013 c 0.229,0.146 0.46,0.294 0.685,0.438" /><path
     style="fill:#fabb00"
     inkscape:connector-curvature="0"
     id="path22"
     d="m 145.999,116.875 c -2.206,2.502 -5.169,1.935 -10.247,4.693 0.253,-0.158 0.431,-0.301 0.544,-0.429 1.251,-1.42 -5.588,-0.892 -9.149,2.225 -2.964,2.72 -6.972,3.501 -11.198,3.746 -4.236,0.28 -8.683,0.019 -12.741,0.899 -2.035,0.402 -4.224,0.359 -6.675,0.547 -6.339,1.084 -12.535,1.041 -18.774,0.675 -6.247,-0.356 -12.538,-1.113 -19.256,-1.602 -3.559,-0.332 -6.522,-1.88 -9.383,-2.861 -2.123,-0.522 -4.524,-0.337 -6.283,-0.617 -2.753,-0.503 -5.031,-1.411 -7.164,-2.366 2.469,0.711 4.243,1.411 7.032,2.104 0.342,0.07 0.524,0.058 0.587,-0.014 0.281,-0.319 -1.826,-1.812 -2.765,-2.305 -0.473,-0.366 -1.576,0.774 -2.052,0.405 -1.148,-0.242 -2.097,-0.932 -3.239,-1.562 -0.167,-0.14 -0.3,-0.073 -0.415,0.057 -0.066,0.076 -0.128,0.174 -0.184,0.269 -0.056,0.093 -0.107,0.186 -0.158,0.241 -0.053,0.059 -0.102,0.083 -0.154,0.042 -1.614,-0.658 -2.513,-2.449 -3.653,-2.378 -0.851,-0.017 -1.62,-0.033 -2.374,-0.047 -0.464,-0.058 -0.919,-0.128 -1.376,-0.303 -0.266,-0.175 -0.54,-0.354 -0.814,-0.536 -1.982,-1.234 -4.242,-2.625 -6.341,-3.848 l 0.065,-0.092 c -0.251,-0.105 -0.501,-0.22 -0.751,-0.34 0.753,-0.386 2.726,-0.566 2.726,-0.566 0.829,0.271 1.645,0.536 2.45,0.799 0.82,0.22 1.63,0.438 2.43,0.653 1.608,0.402 3.174,0.834 4.75,1.142 0.18,0.283 0.28,0.584 0.638,0.523 0.297,-0.145 0.575,-0.215 0.84,-0.241 0.462,0.087 0.922,0.174 1.378,0.258 0.151,0.066 0.305,0.134 0.458,0.203 l 0.011,0.008 c 0.16,0.138 0.145,0.26 0.05,0.366 -0.037,0.045 -0.087,0.085 -0.146,0.124 -0.207,0.081 -0.405,0.188 -0.583,0.311 0.113,-0.078 0.388,-0.18 0.583,-0.311 0.251,-0.098 0.52,-0.158 0.816,-0.158 -0.249,-0.118 -0.491,-0.227 -0.731,-0.34 l -0.194,-0.157 c 1.054,0.183 2.091,0.402 3.151,0.534 0.232,0.078 0.457,0.149 0.635,0.226 0.722,0.305 1.443,0.61 2.031,0.134 0.187,0.023 0.376,0.049 0.567,0.072 l -0.131,0.084 0.232,-0.069 c 0.796,0.104 1.597,0.207 2.398,0.312 1.571,0.152 3.158,0.306 4.783,0.462 10.432,0.852 20.038,1.663 30.889,1.336 5.875,-0.27 11.506,-0.833 16.981,-1.808 5.455,-0.959 10.678,-1.27 15.897,-1.949 5.21,-0.676 10.424,-1.679 15.646,-4.001 4.019,-1.651 11.788,-2.479 15.721,-3.246 2.826,0.391 3.803,1.958 4.131,3.494 0.347,1.528 -0.112,3.029 -0.207,3.2 -0.403,0.836 -0.825,1.485 -1.282,2.002 m -99.679,1.663 c 0.716,0.332 1.733,0.282 2.612,-0.168 -0.89,-0.656 -1.786,-0.304 -2.612,0.168 m -1.377,0.798 c 0.003,0 0.004,-0.003 0.009,-0.006 0.412,-0.183 0.875,-0.508 1.369,-0.792 -0.494,0.283 -0.957,0.609 -1.369,0.792 -0.005,0.003 -0.006,0.006 -0.009,0.006 m 0.596,-1.529 c 0.089,0.181 0.214,0.339 0.366,0.47 -0.152,-0.131 -0.277,-0.288 -0.366,-0.47 m -0.749,1.603 c 0.033,-0.008 0.069,-0.021 0.105,-0.043 -0.036,0.021 -0.071,0.035 -0.105,0.043 m -1.64,-0.48 c -0.007,0.01 -0.016,0.02 -0.024,0.029 0.009,-0.009 0.017,-0.02 0.024,-0.029 m 0,0 0.001,-0.001 z m -5.601,-2.183 v 0 c -0.895,-0.109 -1.768,-0.29 -2.652,-0.432 0.232,0.086 0.449,0.165 0.623,0.246 0.021,0.009 0.041,0.019 0.062,0.027 -0.035,-10e-4 -0.066,-10e-4 -0.099,0 0.185,0.078 0.375,0.151 0.571,0.209 0.532,0.215 1.047,0.315 1.495,-0.05 m -11.242,0.815 0.001,-10e-4 z m 0.511,-0.81 c -0.146,0.287 -0.299,0.569 -0.505,0.803 0.206,-0.234 0.359,-0.516 0.505,-0.803 m -0.711,1.005 c 0.009,-0.007 0.017,-0.013 0.024,-0.02 -0.007,0.007 -0.015,0.013 -0.024,0.02 m 0.734,-1.048 c -0.004,0.004 -0.006,0.007 -0.008,0.011 0.002,-0.004 0.004,-0.007 0.008,-0.011 m -1.558,-0.082 c 0.449,0.056 1.136,-0.033 1.585,0.024 -0.449,-0.057 -1.136,0.032 -1.585,-0.024 m -1.713,-2.055 c -0.125,0.141 0.016,0.345 0.435,0.521 l 0.704,-0.428 c -1.096,-0.652 -2.143,-1.38 -3.537,-0.903 0,0 -0.418,-0.417 -0.625,-0.623 -0.191,0.016 -0.317,0.101 -0.417,0.212 -0.12,0.135 -0.197,0.313 -0.299,0.467 1.235,0.517 2.518,0.826 4.025,0.618 -0.138,0.031 -0.236,0.08 -0.286,0.136 m 112.182,6.997 c -0.164,0.104 -0.36,0.214 -0.59,0.331 0.199,-0.116 0.397,-0.225 0.59,-0.331 M 24.048,114.408 c -0.064,0.01 -0.127,0.02 -0.191,0.027 0.054,-0.011 0.119,-0.021 0.191,-0.027" /><path
     style="fill:#009ee0"
     inkscape:connector-curvature="0"
     id="path28"
     d="m 89.159,98.847 c -0.104,0.062 -0.203,0.146 -0.303,0.26 -0.049,0.054 -0.099,0.116 -0.147,0.189 -0.197,0.146 -0.309,-0.118 -0.465,-0.348 z" /><polygon
     style="fill:#009ee0"
     id="polygon30"
     points="261.222,207.4 261.526,207.482 261.382,207.379 "
     transform="translate(-171.216,-108.654)" /><path
     style="fill:#009ee0"
     inkscape:connector-curvature="0"
     id="path32"
     d="m 91.614,98.981 c -0.279,0.081 -0.553,0.05 -0.814,-0.012 0.225,-0.101 0.492,-0.116 0.814,0.012" /><path
     style="fill:#009ee0"
     inkscape:connector-curvature="0"
     id="path34"
     d="m 90.798,98.968 c -0.149,0.068 -0.283,0.174 -0.401,0.306 -0.016,0.017 -0.031,0.036 -0.047,0.055 0.092,-0.181 0.134,-0.369 -0.033,-0.499 L 90.31,98.827 c 0.162,0.05 0.322,0.102 0.488,0.141" /><path
     style="fill:#009ee0"
     inkscape:connector-curvature="0"
     id="path36"
     d="m 90.069,99.775 c 0.003,-0.007 0.007,-0.014 0.01,-0.021 -0.003,0.007 -0.007,0.014 -0.01,0.021 m 0.01,-0.022 c 0.079,-0.154 0.169,-0.297 0.271,-0.425 -0.082,0.165 -0.215,0.323 -0.271,0.425" /><path
     style="fill:#009ee0"
     inkscape:connector-curvature="0"
     id="path38"
     d="m 96.634,104.27 c -0.046,0.053 -0.146,0.084 -0.312,0.086 -1.75,-0.044 -2.896,-0.26 -4.478,-0.427 -1.297,-0.423 -2.535,-0.939 -3.836,-1.315 -0.363,-0.042 -0.699,0.066 -1.038,0.163 0.442,-0.206 0.892,-0.41 1.392,-0.608 0.652,-0.359 1.498,1.138 2.559,1.363 0.019,0.014 0.035,0.011 0.049,-0.004 0.042,-0.046 0.061,-0.211 0.086,-0.383 0.027,-0.172 0.06,-0.352 0.126,-0.425 0.041,-0.046 0.091,-0.053 0.16,-0.003 0.777,0.3 1.46,0.813 2.18,0.774 0.102,0.073 0.214,0 0.329,-0.13 0.076,-0.086 0.154,-0.197 0.231,-0.309 0.078,-0.113 0.155,-0.225 0.229,-0.312 0.115,-0.128 0.226,-0.198 0.328,-0.126 0.666,0.234 2.277,1.336 1.995,1.656" /><path
     style="fill:#009ee0"
     inkscape:connector-curvature="0"
     id="path40"
     d="m 83.839,100.554 c -0.359,-0.059 -0.448,-0.3 -0.246,-0.53 0.013,-0.016 0.027,-0.032 0.044,-0.046 -0.842,0.648 -1.647,0.746 -2.458,0.629 0.056,-0.286 0.065,-0.607 0.231,-0.794 0.023,-0.026 0.049,-0.05 0.079,-0.07 0.155,0.135 0.467,0.402 0.467,0.402 0.008,-0.009 0.017,-0.017 0.024,-0.026 0.729,-0.827 1.455,-0.494 2.197,-0.162 z" /><path
     style="fill:#009ee0"
     inkscape:connector-curvature="0"
     id="path42"
     d="m 81.159,100.711 c -0.167,-0.059 -0.333,-0.116 -0.494,-0.174 l 0.021,-0.029 c 0.165,0.041 0.332,0.072 0.495,0.099 z" /><path
     style="fill:#009ee0"
     inkscape:connector-curvature="0"
     id="path44"
     d="m 170.691,90.83 c -1.205,1.369 -2.957,1.042 -5.489,3.174 0.034,-0.034 0.064,-0.067 0.095,-0.101 0.666,-0.755 0.039,-1.175 -1.026,-1.096 -1.066,0.081 -2.572,0.659 -3.666,1.899 -0.193,0.221 -0.374,0.461 -0.538,0.722 -0.251,0.429 -0.525,0.807 -0.818,1.14 -3.291,3.733 -8.953,1.744 -13.233,3.604 -1.17,0.501 -2.503,0.523 -3.946,0.865 -7.329,2.838 -14.682,2.077 -22.66,3.524 -2.128,0.29 -4.139,-0.556 -6.006,-0.948 -1.334,-0.044 -2.668,0.711 -3.735,0.842 -1.675,0.208 -3.177,-0.083 -4.613,-0.457 1.568,0.049 2.743,0.28 4.481,0.235 0.159,-0.01 0.257,-0.043 0.305,-0.098 0.289,-0.326 -1.379,-1.357 -2.06,-1.576 -0.099,-0.064 -0.198,-0.004 -0.3,0.109 -0.079,0.09 -0.159,0.217 -0.241,0.343 -0.081,0.128 -0.162,0.253 -0.243,0.345 -0.101,0.115 -0.2,0.174 -0.297,0.107 -0.711,0.073 -1.416,-0.395 -2.208,-0.652 -0.066,-0.046 -0.116,-0.036 -0.152,0.004 -0.066,0.075 -0.09,0.26 -0.107,0.437 -0.019,0.18 -0.029,0.349 -0.069,0.394 -0.012,0.014 -0.027,0.017 -0.045,0.006 -1.067,-0.165 -1.998,-1.61 -2.629,-1.215 -0.478,0.24 -0.92,0.461 -1.352,0.677 -0.275,0.087 -0.548,0.162 -0.85,0.139 -0.192,-0.083 -0.391,-0.168 -0.589,-0.256 -1.422,-0.594 -3.035,-1.103 -4.52,-1.503 l 0.014,-0.108 c -0.168,-0.008 -0.337,-0.028 -0.508,-0.054 0.086,-0.164 0.221,-0.343 0.375,-0.519 0.434,-0.493 1.015,-0.955 1.015,-0.955 2.139,-0.128 4.151,-0.308 6.101,-0.624 0.169,0.217 0.299,0.476 0.49,0.314 0.06,-0.1 0.126,-0.187 0.188,-0.258 0.078,-0.087 0.155,-0.157 0.235,-0.212 l 0.851,-0.149 0.31,0.062 -0.148,-0.093 1.936,-0.372 c 0.152,0.016 0.297,0.029 0.419,0.056 0.392,0.09 0.788,0.18 1.047,-0.113 0.059,-0.069 0.112,-0.158 0.157,-0.273 l 0.344,-0.072 -0.057,0.113 0.121,-0.126 1.458,-0.323 c 0.951,-0.22 1.913,-0.441 2.893,-0.667 6.294,-1.52 12.176,-2.273 18.689,-3.843 3.516,-0.934 6.863,-1.976 10.099,-3.263 6.441,-2.522 12.821,-2.086 18.977,-6.363 2.375,-1.535 7.248,-1.945 9.735,-2.34 3.68,1.247 3.048,6.617 2.943,6.938 -0.321,1.271 -0.705,2.052 -1.173,2.58 m -60.235,7.405 c 0.411,0.129 0.888,-0.053 1.277,-0.494 0.073,-0.083 0.144,-0.175 0.21,-0.275 -0.451,-0.292 -0.803,-0.131 -1.101,0.207 -0.139,0.157 -0.266,0.354 -0.386,0.562 m -1.135,0.97 c 0.169,0.169 0.336,0.34 0.455,0.205 -0.119,0.135 -0.286,-0.036 -0.455,-0.205 m 0.505,0.125 c -0.011,0.025 -0.023,0.047 -0.037,0.064 0.014,-0.017 0.026,-0.039 0.037,-0.064 m 0.63,-1.095 c -0.227,0.388 -0.425,0.81 -0.625,1.08 0,0.003 -0.003,0.006 -0.004,0.009 0.001,-0.003 0.004,-0.006 0.004,-0.009 0.201,-0.27 0.399,-0.692 0.625,-1.08 m -0.615,-0.525 c 0.082,0.138 0.175,0.249 0.277,0.334 -0.103,-0.086 -0.196,-0.197 -0.277,-0.334 m -1.015,1.331 c -0.049,0.061 -0.092,0.164 -0.131,0.323 0.04,-0.159 0.083,-0.263 0.131,-0.323 m 0.011,-0.01 V 99.03 Z m -4.711,0.11 c 0.266,0.038 0.51,0.018 0.691,-0.187 0.06,-0.069 0.11,-0.157 0.154,-0.271 l -1.625,0.33 c 0.155,0.013 0.299,0.027 0.417,0.055 0.014,0.003 0.029,0.006 0.042,0.009 -0.019,0.01 -0.037,0.019 -0.057,0.027 0.124,0.023 0.251,0.036 0.378,0.037 m -0.878,-0.149 0.01,0.004 c 0.172,0.119 0.141,0.306 0.059,0.493 -0.101,0.135 -0.185,0.29 -0.255,0.454 0.046,-0.106 0.176,-0.277 0.255,-0.454 0.03,-0.042 0.062,-0.081 0.095,-0.118 0.098,-0.112 0.21,-0.203 0.335,-0.267 -0.171,-0.03 -0.334,-0.073 -0.499,-0.112 m -5.294,3.194 c 0.27,-0.086 0.634,-0.379 0.904,-0.465 -0.27,0.086 -0.634,0.379 -0.904,0.465 m -1.357,-1.607 c -0.231,0.263 -0.132,0.521 0.257,0.553 l 0.293,-0.621 c -0.732,-0.26 -1.456,-0.52 -2.089,0.198 -0.043,0.049 -0.087,0.104 -0.128,0.161 0,0 -0.34,-0.243 -0.51,-0.364 -0.02,0.015 -0.036,0.032 -0.052,0.05 -0.172,0.197 -0.148,0.534 -0.177,0.83 0.825,0.053 1.62,-0.103 2.418,-0.821 -0.003,0.006 -0.007,0.01 -0.012,0.014 m 68.605,-6.575 c -0.094,0.093 -0.204,0.19 -0.335,0.292 0.113,-0.102 0.226,-0.2 0.335,-0.292 m -68.494,6.472 c -0.033,0.03 -0.064,0.06 -0.098,0.09 0.03,-0.032 0.062,-0.06 0.098,-0.09" /><path
     style="fill:#bdcd00"
     inkscape:connector-curvature="0"
     id="path46"
     d="M 89.86,76.065 C 89.669,76.16 89.478,76.3 89.284,76.52 89.035,76.667 88.901,76.407 88.707,76.177 Z" /><path
     style="fill:#bdcd00"
     inkscape:connector-curvature="0"
     id="path48"
     d="m 91.306,76.036 c -0.125,-0.032 -0.254,-0.057 -0.38,-0.079 l 0.204,-0.021 z" /><path
     style="fill:#bdcd00"
     inkscape:connector-curvature="0"
     id="path50"
     d="m 92.942,76.177 c -0.353,0.081 -0.693,0.055 -1.025,-0.004 0.289,-0.103 0.623,-0.121 1.025,0.004" /><path
     style="fill:#bdcd00"
     inkscape:connector-curvature="0"
     id="path52"
     d="m 91.918,76.173 c -0.215,0.079 -0.406,0.204 -0.57,0.363 0.119,-0.182 0.176,-0.37 -0.032,-0.497 l -0.01,-0.003 c 0.203,0.048 0.403,0.098 0.612,0.137" /><path
     style="fill:#bdcd00"
     inkscape:connector-curvature="0"
     id="path54"
     d="m 90.983,76.985 c 10e-4,-0.002 0.003,-0.006 0.004,-0.007 -10e-4,0.001 -0.002,0.005 -0.004,0.007 m 0.005,-0.007 c 0.069,-0.107 0.146,-0.208 0.229,-0.302 0.042,-0.048 0.087,-0.095 0.132,-0.14 -0.05,0.076 -0.112,0.152 -0.172,0.22 -0.018,0.02 -0.032,0.038 -0.047,0.055 -0.018,0.019 -0.033,0.035 -0.046,0.051 -0.04,0.043 -0.075,0.082 -0.096,0.116" /><path
     style="fill:#bdcd00"
     inkscape:connector-curvature="0"
     id="path56"
     d="m 99.114,81.479 c -0.055,0.062 -0.182,0.1 -0.405,0.108 -2.192,-0.038 -3.632,-0.332 -5.594,-0.459 -1.604,-0.412 -3.139,-0.916 -4.764,-1.283 -0.454,-0.058 -0.877,0.035 -1.303,0.115 0.558,-0.18 1.129,-0.363 1.754,-0.562 0.821,-0.366 1.851,1.126 3.168,1.343 0.026,0.015 0.049,0.007 0.067,-0.014 0.047,-0.053 0.076,-0.208 0.111,-0.371 0.034,-0.162 0.076,-0.333 0.151,-0.417 0.053,-0.059 0.121,-0.078 0.215,-0.02 0.965,0.295 1.804,0.796 2.704,0.759 0.422,0.251 1.007,-1.101 1.425,-0.853 0.823,0.274 2.769,1.315 2.471,1.654" /><path
     style="fill:#bdcd00"
     inkscape:connector-curvature="0"
     id="path58"
     d="m 83.154,77.72 c -0.421,-0.055 -0.547,-0.268 -0.358,-0.482 0.027,-0.031 0.062,-0.062 0.105,-0.093 -1.06,0.645 -2.068,0.741 -3.085,0.622 0.063,-0.264 0.075,-0.562 0.243,-0.752 0.038,-0.043 0.083,-0.08 0.141,-0.111 0.195,0.134 0.592,0.403 0.592,0.403 0.922,-0.857 1.85,-0.521 2.791,-0.182 z" /><path
     style="fill:#bdcd00"
     inkscape:connector-curvature="0"
     id="path60"
     d="M 79.788,77.87 C 79.58,77.811 79.371,77.752 79.169,77.696 l 0.024,-0.027 c 0.207,0.037 0.417,0.071 0.622,0.098 z" /></svg>